<svg width="32" height="32" viewBox="0 0 32 32" fill="none" xmlns="http://www.w3.org/2000/svg">
<g clip-path="url(#clip0)">
<rect width="32" height="32" fill="white"/>
<path fill-rule="evenodd" clip-rule="evenodd" d="M15.9126 11H24V2.91261L15.9126 11ZM24 30V26H30C31.1046 26 32 25.1046 32 24V12C32 10.8954 31.1046 9.99999 30 9.99999H29.8823L14.8823 25H12C11.4477 25 11 24.5523 11 24V15.9126L0 26.9126V30C0 31.1046 0.89543 32 2 32H22C23.1046 32 24 31.1046 24 30Z" fill="#FDEFF2"/>
<path fill-rule="evenodd" clip-rule="evenodd" d="M24 10H30C31.1046 10 32 10.8954 32 12V24C32 25.1046 31.1046 26 30 26H24V30C24 31.1046 23.1046 32 22 32H2C0.89543 32 0 31.1046 0 30V2C0 0.89543 0.89543 0 2 0H22C23.1046 0 24 0.89543 24 2V10ZM10 24H7.5C7.22386 24 7 23.7761 7 23.5C7 23.2239 7.22386 23 7.5 23H10V22H7.5C7.22386 22 7 21.7761 7 21.5C7 21.2239 7.22386 21 7.5 21H10V16H7.5C7.22386 16 7 15.7761 7 15.5C7 15.2239 7.22386 15 7.5 15H10V14H7.5C7.22386 14 7 13.7761 7 13.5C7 13.2239 7.22386 13 7.5 13H10V12C10 10.8954 10.8954 10 12 10H23V2C23 1.44772 22.5523 1 22 1H2C1.44772 1 1 1.44772 1 2V30C1 30.5523 1.44772 31 2 31H22C22.5523 31 23 30.5523 23 30V26H20.7432L16 29.7739V26H12C10.8954 26 10 25.1046 10 24ZM20.3939 25L17 27.7004V25H12C11.4477 25 11 24.5523 11 24V12C11 11.4477 11.4477 11 12 11H30C30.5523 11 31 11.4477 31 12V24C31 24.5523 30.5523 25 30 25H20.3939ZM4.5 16C3.67157 16 3 15.3284 3 14.5C3 13.6716 3.67157 13 4.5 13C5.32843 13 6 13.6716 6 14.5C6 15.3284 5.32843 16 4.5 16ZM5 14.5C5 14.7761 4.77614 15 4.5 15C4.22386 15 4 14.7761 4 14.5C4 14.2239 4.22386 14 4.5 14C4.77614 14 5 14.2239 5 14.5ZM4.5 24C3.67157 24 3 23.3284 3 22.5C3 21.6716 3.67157 21 4.5 21C5.32843 21 6 21.6716 6 22.5C6 23.3284 5.32843 24 4.5 24ZM5 22.5C5 22.7761 4.77614 23 4.5 23C4.22386 23 4 22.7761 4 22.5C4 22.2239 4.22386 22 4.5 22C4.77614 22 5 22.2239 5 22.5ZM4.5 8C3.67157 8 3 7.32843 3 6.5C3 5.67157 3.67157 5 4.5 5C5.32843 5 6 5.67157 6 6.5C6 7.32843 5.32843 8 4.5 8ZM5 6.5C5 6.77614 4.77614 7 4.5 7C4.22386 7 4 6.77614 4 6.5C4 6.22386 4.22386 6 4.5 6C4.77614 6 5 6.22386 5 6.5ZM7.5 5H12.5C12.7761 5 13 5.22386 13 5.5C13 5.77614 12.7761 6 12.5 6H7.5C7.22386 6 7 5.77614 7 5.5C7 5.22386 7.22386 5 7.5 5ZM15.5 7H7.5C7.22386 7 7 7.22386 7 7.5C7 7.77614 7.22386 8 7.5 8H15.5C15.7761 8 16 7.77614 16 7.5C16 7.22386 15.7761 7 15.5 7Z" fill="#C5C9D4"/>
<path fill-rule="evenodd" clip-rule="evenodd" d="M18 16C18 17.6569 19.3431 19 21 19C22.6568 19 24 17.6569 24 16C24 14.3431 22.6568 13 21 13C19.3431 13 18 14.3431 18 16ZM21 19C18.2357 19 16.6176 19.9169 16.1457 21.7508C16.1247 21.8322 16.1141 21.9159 16.1141 22C16.1141 22.5523 16.5618 23 17.1141 23L24.8858 23C24.9698 23 25.0536 22.9894 25.135 22.9684C25.6699 22.8308 25.9919 22.2856 25.8542 21.7507L25.8542 21.7508C25.3823 19.9169 23.7642 19 21 19Z" fill="#E55E75"/>
</g>
<defs>
<clipPath id="clip0">
<rect width="32" height="32" fill="white"/>
</clipPath>
</defs>
</svg>
