<svg width="32" height="32" viewBox="0 0 32 32" fill="none" xmlns="http://www.w3.org/2000/svg">
<rect width="32" height="32" fill="white"/>
<path fill-rule="evenodd" clip-rule="evenodd" d="M19.6401 1.75877L12.7801 13.6407C13.4777 13.8738 14.2241 14 15 14C18.866 14 22 10.866 22 7C22 4.91405 21.0876 3.0412 19.6401 1.75877ZM23.2338 19.3218C23.5007 18.9263 23.8569 18.6026 24.2693 18.3745C22.8654 16.323 20.9201 14.9931 18.4335 14.3847L9.41797 30L19.341 30C19.2499 29.5973 19.2421 29.177 19.3218 28.7662C18.5097 28.2181 18 27.2934 18 26.2792V25.7208C18 24.7066 18.5097 23.7819 19.3218 23.2338C19.1351 22.272 19.4286 21.2577 20.1457 20.5406L20.5406 20.1457C21.2577 19.4286 22.272 19.1351 23.2338 19.3218Z" fill="#FDEFF2"/>
<path fill-rule="evenodd" clip-rule="evenodd" d="M15 14C11.134 14 7.99996 10.866 7.99996 7C7.99996 3.13401 11.134 0 15 0C18.866 0 22 3.13401 22 7C22 10.866 18.866 14 15 14ZM15 14C19.1837 14 22.2734 15.4582 24.2692 18.3745C23.9761 18.5366 23.7113 18.7471 23.4869 18.9973C21.6661 16.3081 18.8472 15 15 15C8.12577 15 4.53488 19.176 4.05411 27.9453C4.05311 27.9635 4.05261 27.9817 4.05261 28C4.05261 28.5523 4.50033 29 5.05261 29L19.2859 29C19.248 29.3353 19.2671 29.6734 19.3409 30L5.05261 30C3.94804 30 3.05261 29.1046 3.05261 28C3.05261 27.9635 3.05361 27.927 3.05561 27.8905C3.5633 18.6302 7.54475 14 15 14ZM15 13C18.3137 13 21 10.3137 21 7C21 3.68629 18.3137 1 15 1C11.6863 1 8.99996 3.68629 8.99996 7C8.99996 10.3137 11.6863 13 15 13Z" fill="#C5C9D4"/>
<path fill-rule="evenodd" clip-rule="evenodd" d="M27.3995 30.8015C27.7524 30.6988 28.0892 30.5583 28.4052 30.3846L28.8909 30.6274C29.2759 30.8199 29.7408 30.7445 30.0452 30.4401L30.4401 30.0452C30.7445 29.7408 30.8199 29.2759 30.6274 28.8909L30.3846 28.4052C30.5583 28.0892 30.6988 27.7524 30.8015 27.3995L31.3162 27.2279C31.7246 27.0918 32 26.7097 32 26.2792V25.7208C32 25.2903 31.7246 24.9082 31.3162 24.7721L30.8015 24.6005C30.6988 24.2476 30.5583 23.9108 30.3846 23.5948L30.6274 23.1091C30.8199 22.7241 30.7445 22.2592 30.4401 21.9548L30.0452 21.5599C29.7408 21.2555 29.2759 21.1801 28.8909 21.3726L28.4052 21.6154C28.0892 21.4417 27.7524 21.3012 27.3995 21.1985L27.2279 20.6838C27.0918 20.2754 26.7097 20 26.2792 20H25.7208C25.2903 20 24.9082 20.2754 24.7721 20.6838L24.6005 21.1985C24.2476 21.3012 23.9108 21.4417 23.5948 21.6154L23.1091 21.3726C22.7241 21.1801 22.2592 21.2555 21.9548 21.5599L21.5599 21.9548C21.2555 22.2592 21.1801 22.7241 21.3726 23.1091L21.6154 23.5948C21.4417 23.9108 21.3012 24.2476 21.1985 24.6005L20.6838 24.7721C20.2754 24.9082 20 25.2903 20 25.7208V26.2792C20 26.7097 20.2754 27.0918 20.6838 27.2279L21.1985 27.3995C21.3012 27.7524 21.4417 28.0892 21.6154 28.4052L21.3726 28.8909C21.1801 29.2759 21.2555 29.7408 21.5599 30.0452L21.9548 30.4401C22.2592 30.7445 22.7241 30.8199 23.1091 30.6274L23.5948 30.3846C23.9108 30.5583 24.2476 30.6988 24.6005 30.8015L24.7721 31.3162C24.9082 31.7246 25.2903 32 25.7208 32H26.2792C26.7097 32 27.0918 31.7246 27.2279 31.3162L27.3995 30.8015ZM28.5 26C28.5 27.3807 27.3807 28.5 26 28.5C24.6193 28.5 23.5 27.3807 23.5 26C23.5 24.6193 24.6193 23.5 26 23.5C27.3807 23.5 28.5 24.6193 28.5 26Z" fill="#E55E75"/>
</svg>
