<svg width="32" height="32" viewBox="0 0 32 32" fill="none" xmlns="http://www.w3.org/2000/svg">
<g clip-path="url(#clip0)">
<rect width="32" height="32" fill="white"/>
<path fill-rule="evenodd" clip-rule="evenodd" d="M13.1012 28.4175H3.22314L16.9999 14.6407V16C16.9999 16.5523 17.4476 17 17.9999 17H23.9999C24.5522 17 24.9999 16.5523 24.9999 16V13C24.9999 12.4477 24.5522 12 23.9999 12H19.6406L31.2231 0.417542C31.6957 0.783353 31.9999 1.35615 31.9999 2V26.4175C31.9999 27.5221 31.1045 28.4175 29.9999 28.4175H19.1723L15.9999 31.6404L13.1012 28.4175Z" fill="#FEF9EC"/>
<path fill-rule="evenodd" clip-rule="evenodd" d="M17.5531 31.2482L19.3772 29H30C31.1046 29 32 28.1046 32 27V2C32 0.89543 31.1046 0 30 0H2C0.89543 0 0 0.89543 0 2V27C0 28.1046 0.89543 29 2 29H12.6228L14.4469 31.2482C15.1429 32.106 16.4024 32.2371 17.2601 31.5412C17.3677 31.4539 17.4658 31.3558 17.5531 31.2482ZM18.9009 28L16.7765 30.6182C16.7329 30.6719 16.6838 30.721 16.6301 30.7646C16.2012 31.1126 15.5714 31.047 15.2235 30.6182L13.0991 28H2C1.44772 28 1 27.5523 1 27V2C1 1.44772 1.44772 1 2 1H30C30.5523 1 31 1.44772 31 2V27C31 27.5523 30.5523 28 30 28H18.9009ZM4 6.5C4 6.22386 4.22386 6 4.5 6H27.5C27.7761 6 28 6.22386 28 6.5C28 6.77614 27.7761 7 27.5 7H4.5C4.22386 7 4 6.77614 4 6.5ZM4.5 14C4.22386 14 4 14.2239 4 14.5C4 14.7761 4.22386 15 4.5 15H16V16C16 17.1046 16.8954 18 18 18H24C25.1046 18 26 17.1046 26 16V15H27.5C27.7761 15 28 14.7761 28 14.5C28 14.2239 27.7761 14 27.5 14H26V13C26 11.8954 25.1046 11 24 11H18C16.8954 11 16 11.8954 16 13V14H4.5ZM18 12C17.4477 12 17 12.4477 17 13V16C17 16.5523 17.4477 17 18 17H24C24.5523 17 25 16.5523 25 16V13C25 12.4477 24.5523 12 24 12H18ZM4.5 22C4.22386 22 4 22.2239 4 22.5C4 22.7761 4.22386 23 4.5 23H27.5C27.7761 23 28 22.7761 28 22.5C28 22.2239 27.7761 22 27.5 22H4.5Z" fill="#C5C9D4"/>
<path fill-rule="evenodd" clip-rule="evenodd" d="M8 6C8 5.44772 8.44772 5 9 5H13C13.5523 5 14 5.44772 14 6V7C14 7.55228 13.5523 8 13 8H9C8.44772 8 8 7.55228 8 7V6ZM18 14C18 13.4477 18.4477 13 19 13H23C23.5523 13 24 13.4477 24 14V15C24 15.5523 23.5523 16 23 16H19C18.4477 16 18 15.5523 18 15V14ZM13 21C12.4477 21 12 21.4477 12 22V23C12 23.5523 12.4477 24 13 24H17C17.5523 24 18 23.5523 18 23V22C18 21.4477 17.5523 21 17 21H13Z" fill="#FDCC4A"/>
</g>
<defs>
<clipPath id="clip0">
<rect width="32" height="32" fill="white"/>
</clipPath>
</defs>
</svg>
