<svg width="32" height="32" viewBox="0 0 32 32" fill="none" xmlns="http://www.w3.org/2000/svg">
<rect width="32" height="32" fill="white"/>
<path d="M30 17C31.1046 17 32 17.8954 32 19V21C32 22.1046 31.1046 23 30 23V28.5C30 29.3284 29.3284 30 28.5 30C27.6716 30 27 29.3284 27 28.5V27.625L20.775 25.2906C20.5103 25.7165 20.0383 26 19.5 26H19V30C19 31.1046 18.1046 32 17 32H16C14.8954 32 14 31.1046 14 30V26C14 25.9269 14.0039 25.8591 14.0116 25.7962C11.6971 25.1471 10 23.0218 10 20.5V19.5C10 19.3315 10.0076 19.1647 10.0224 19H2C0.89543 19 0 18.1046 0 17L0 2C0 0.89543 0.89543 0 2 0L23 0C24.1046 0 25 0.89543 25 2V13.125L27 12.375V11.5C27 10.6716 27.6716 10 28.5 10C29.3284 10 30 10.6716 30 11.5V17Z" fill="white"/>
<path fill-rule="evenodd" clip-rule="evenodd" d="M20 19H21V15.693L25 14.193V2C25 0.89543 24.1045 0 23 0H20.8617L1.86609 18.9956C1.91034 18.9985 1.95498 19 1.99996 19H11.0274C11.2761 16.75 13.1837 15 15.5 15H19.5C19.7761 15 20 15.2239 20 15.5V19ZM28 18.2783L22.883 19.6494L22.9259 19.8097L10.6514 23.0987C11.579 24.8257 13.4023 26 15.5 26H19.5C20.0382 26 20.5103 25.7165 20.7749 25.2906L28 28V18.2783Z" fill="#FDEFF2"/>
<path fill-rule="evenodd" clip-rule="evenodd" d="M30 17C31.1046 17 32 17.8954 32 19V21C32 22.1046 31.1046 23 30 23V28.5C30 29.3284 29.3284 30 28.5 30C27.6716 30 27 29.3284 27 28.5V27.625L20.775 25.2906C20.5103 25.7165 20.0383 26 19.5 26H19V30C19 31.1046 18.1046 32 17 32H16C14.8954 32 14 31.1046 14 30V26C14 25.9269 14.0039 25.8591 14.0116 25.7962C11.6971 25.1471 10 23.0218 10 20.5V19.5C10 19.3315 10.0076 19.1647 10.0224 19H2C0.89543 19 0 18.1046 0 17V2C0 0.89543 0.89543 0 2 0H23C24.1046 0 25 0.89543 25 2V13.125L27 12.375V11.5C27 10.6716 27.6716 10 28.5 10C29.3284 10 30 10.6716 30 11.5V17ZM29 28.5V11.5C29 11.2239 28.7761 11 28.5 11C28.2239 11 28 11.2239 28 11.5V28.5C28 28.7761 28.2239 29 28.5 29C28.7761 29 29 28.7761 29 28.5ZM24 2V13.5L20.775 14.7094C20.5103 14.2835 20.0383 14 19.5 14H15.5C12.9824 14 10.86 15.6915 10.207 18H2C1.44772 18 1 17.5523 1 17V2C1 1.44772 1.44772 1 2 1H23C23.5523 1 24 1.44772 24 2ZM15.5 15C13.0147 15 11 17.0147 11 19.5V20.5C11 22.9853 13.0147 25 15.5 25H19.5C19.7761 25 20 24.7761 20 24.5V15.5C20 15.2239 19.7761 15 19.5 15H15.5ZM15 30V26H18V30C18 30.5523 17.5523 31 17 31H16C15.4477 31 15 30.5523 15 30ZM21 15.693V24.307L27 26.557V13.443L21 15.693ZM30 22V18C30.5523 18 31 18.4477 31 19V21C31 21.5523 30.5523 22 30 22Z" fill="#C5C9D4"/>
<path fill-rule="evenodd" clip-rule="evenodd" d="M4 5V10C4 10.5523 4.44772 11 5 11H12C12.5523 11 13 10.5523 13 10V5C13 4.44772 12.5523 4 12 4H5C4.44772 4 4 4.44772 4 5ZM20.5 4H15.5C15.2239 4 15 4.22386 15 4.5C15 4.77614 15.2239 5 15.5 5H20.5C20.7761 5 21 4.77614 21 4.5C21 4.22386 20.7761 4 20.5 4ZM15.5 7H20.5C20.7761 7 21 7.22386 21 7.5C21 7.77614 20.7761 8 20.5 8H15.5C15.2239 8 15 7.77614 15 7.5C15 7.22386 15.2239 7 15.5 7ZM20.5 10H15.5C15.2239 10 15 10.2239 15 10.5C15 10.7761 15.2239 11 15.5 11H20.5C20.7761 11 21 10.7761 21 10.5C21 10.2239 20.7761 10 20.5 10Z" fill="#E55E75"/>
</svg>
