<svg width="32" height="32" viewBox="0 0 32 32" fill="none" xmlns="http://www.w3.org/2000/svg">
<g clip-path="url(#clip0)">
<rect width="32" height="32" fill="white"/>
<path d="M18.6021 10.9458L25.4853 1.11548C27.0077 2.20371 28 3.98597 28 6.00001C28 9.31371 25.3137 12 22 12C20.7386 12 19.5681 11.6107 18.6021 10.9458ZM2.60205 23.9458L9.48528 14.1155C11.0077 15.2037 12 16.986 12 19C12 22.3137 9.31374 25 6.00003 25C4.73859 25 3.56807 24.6107 2.60205 23.9458ZM22.6021 30.9458L29.4853 21.1155C31.0077 22.2037 32 23.986 32 26C32 29.3137 29.3137 32 26 32C24.7386 32 23.5681 31.6107 22.6021 30.9458Z" fill="#FDEFF2"/>
<path d="M5.99721 10.0731C7.63379 7.47895 10.1624 5.50395 13.1524 4.57882C13.281 4.53902 13.4483 4.49227 13.6543 4.43855L13.6543 4.43856C13.8469 4.38833 14.0438 4.50376 14.094 4.69639C14.1062 4.74302 14.1089 4.79162 14.1019 4.83932C14.0551 5.1605 13.8261 5.42528 13.515 5.51785C13.3223 5.57521 13.1656 5.62495 13.0449 5.66707C10.6412 6.50587 8.58599 8.08779 7.15459 10.1376C7.08037 10.2438 6.98931 10.3825 6.88141 10.5536L6.88138 10.5535C6.69766 10.8448 6.37702 11.021 6.03268 11.02L6.02391 11.02C5.83853 11.0194 5.68869 10.8687 5.68924 10.6833C5.68941 10.6254 5.70457 10.5685 5.73324 10.5182C5.8373 10.3354 5.9253 10.187 5.99721 10.0731ZM9.80071 26.5994C9.88171 26.6612 9.95175 26.7133 10.0108 26.7557C11.9791 28.1683 14.3924 29 17 29C17.1847 29 17.3684 28.9958 17.5511 28.9876C17.6764 28.9819 17.8358 28.9704 18.0293 28.953V28.953C18.3387 28.9252 18.6324 29.0941 18.7639 29.3756C18.8525 29.5653 18.7706 29.7909 18.5809 29.8795C18.5437 29.8969 18.5039 29.9082 18.463 29.9128C18.1525 29.9479 17.9023 29.9706 17.7124 29.9808C17.4765 29.9935 17.239 30 17 30C14.0076 30 11.2513 28.9889 9.05412 27.2898C8.96845 27.2235 8.8634 27.1384 8.73897 27.0346L8.73896 27.0346C8.59619 26.9154 8.57707 26.7031 8.69625 26.5603C8.73328 26.5159 8.78109 26.4819 8.83509 26.4613L8.83892 26.4598C9.1621 26.337 9.5258 26.3898 9.80071 26.5994ZM28.7644 11.4611C29.5569 13.1415 30 15.019 30 17C30 17.3292 29.9878 17.6556 29.9637 17.9786C29.9543 18.1056 29.9381 18.267 29.9153 18.4629L29.9153 18.4629C29.8909 18.6719 29.7017 18.8215 29.4927 18.7972C29.4521 18.7924 29.4126 18.7812 29.3756 18.7639C29.0946 18.6326 28.9261 18.3391 28.9543 18.0303C28.966 17.9027 28.9744 17.7951 28.9795 17.7073C28.9931 17.4733 29 17.2375 29 17C29 15.348 28.6662 13.7739 28.0623 12.3416C28.0311 12.2676 27.9915 12.1783 27.9434 12.0736L27.9434 12.0736C27.8082 11.7792 27.8565 11.4331 28.0671 11.1869C28.1972 11.0349 28.4259 11.0171 28.5779 11.1472C28.6145 11.1786 28.6445 11.217 28.6662 11.2601C28.7048 11.3371 28.7375 11.4041 28.7644 11.4611ZM22 12C18.6863 12 16 9.31371 16 6C16 2.68629 18.6863 0 22 0C25.3137 0 28 2.68629 28 6C28 9.31371 25.3137 12 22 12ZM22 11C24.7614 11 27 8.76142 27 6C27 3.23858 24.7614 1 22 1C19.2386 1 17 3.23858 17 6C17 8.76142 19.2386 11 22 11ZM6 25C2.68629 25 0 22.3137 0 19C0 15.6863 2.68629 13 6 13C9.31371 13 12 15.6863 12 19C12 22.3137 9.31371 25 6 25ZM6 24C8.76142 24 11 21.7614 11 19C11 16.2386 8.76142 14 6 14C3.23858 14 1 16.2386 1 19C1 21.7614 3.23858 24 6 24ZM26 32C22.6863 32 20 29.3137 20 26C20 22.6863 22.6863 20 26 20C29.3137 20 32 22.6863 32 26C32 29.3137 29.3137 32 26 32ZM26 31C28.7614 31 31 28.7614 31 26C31 23.2386 28.7614 21 26 21C23.2386 21 21 23.2386 21 26C21 28.7614 23.2386 31 26 31Z" fill="#C5C9D4"/>
<path d="M22.0001 8C20.8955 8 20.0001 7.10457 20.0001 6C20.0001 4.89543 20.8955 4 22.0001 4C23.1047 4 24.0001 4.89543 24.0001 6C24.0001 7.10457 23.1047 8 22.0001 8ZM19.1643 10.1186C19.5699 8.7062 20.5177 8 22.0076 8C23.4945 8 24.4414 8.70331 24.8484 10.1099C24.0402 10.6711 23.0586 11 22.0001 11C20.9471 11 19.9701 10.6745 19.1643 10.1186ZM6.00011 21C4.89554 21 4.00011 20.1046 4.00011 19C4.00011 17.8954 4.89554 17 6.00011 17C7.10468 17 8.00011 17.8954 8.00011 19C8.00011 20.1046 7.10468 21 6.00011 21ZM3.16431 23.1186C3.56991 21.7062 4.51768 21 6.00762 21C7.49451 21 8.44145 21.7033 8.84844 23.1099C8.04023 23.6711 7.05858 24 6.00011 24C4.9471 24 3.97012 23.6745 3.16431 23.1186ZM26.0001 28C24.8955 28 24.0001 27.1046 24.0001 26C24.0001 24.8954 24.8955 24 26.0001 24C27.1047 24 28.0001 24.8954 28.0001 26C28.0001 27.1046 27.1047 28 26.0001 28ZM23.1643 30.1186C23.5699 28.7062 24.5177 28 26.0076 28C27.4945 28 28.4414 28.7033 28.8484 30.1099C28.0402 30.6711 27.0586 31 26.0001 31C24.9471 31 23.9701 30.6745 23.1643 30.1186Z" fill="#E55E75"/>
</g>
<defs>
<clipPath id="clip0">
<rect width="32" height="32" fill="white"/>
</clipPath>
</defs>
</svg>
