<svg width="32" height="32" viewBox="0 0 32 32" fill="none" xmlns="http://www.w3.org/2000/svg">
<g clip-path="url(#clip0)">
<rect width="32" height="32" fill="white"/>
<path d="M11 7V2C11 0.89543 11.8954 0 13 0H30C31.1046 0 32 0.89543 32 2V30C32 31.1046 31.1046 32 30 32H2C0.89543 32 0 31.1046 0 30V9C0 7.89543 0.89543 7 2 7H11Z" fill="white"/>
<path fill-rule="evenodd" clip-rule="evenodd" d="M31.5433 0.727788C31.4618 0.629031 31.371 0.538231 31.2722 0.456726L31.5433 0.727788ZM31.6198 0.826646L0.82666 31.6198C1.15624 31.859 1.56166 32 2.00002 32H30C31.1046 32 32 31.1046 32 30V2C32 1.56165 31.859 1.15623 31.6198 0.826646Z" fill="#E8F5FC"/>
<path fill-rule="evenodd" clip-rule="evenodd" d="M11 2V7H2C0.89543 7 0 7.89543 0 9V30C0 31.1046 0.89543 32 2 32H30C31.1046 32 32 31.1046 32 30V2C32 0.89543 31.1046 0 30 0H13C11.8954 0 11 0.89543 11 2ZM31 7H22V1H30C30.5523 1 31 1.44772 31 2V7ZM11 20V31H2C1.44772 31 1 30.5523 1 30V20H11ZM11 19H1V9C1 8.44771 1.44772 8 2 8H11V19ZM21 31H12V26H21V31ZM12 8V13H21V8H12ZM12 19V14H21V19H12ZM12 20V25H21V20H12ZM30 31H22V26H31V30C31 30.5523 30.5523 31 30 31ZM22 8V13H31V8H22ZM22 19V14H31V19H22ZM22 20V25H31V20H22ZM21 1H13C12.4477 1 12 1.44772 12 2V7H21V1ZM14.5 10H18.5C18.7761 10 19 10.2239 19 10.5C19 10.7761 18.7761 11 18.5 11H14.5C14.2239 11 14 10.7761 14 10.5C14 10.2239 14.2239 10 14.5 10ZM18.5 4H14.5C14.2239 4 14 4.22386 14 4.5C14 4.77614 14.2239 5 14.5 5H18.5C18.7761 5 19 4.77614 19 4.5C19 4.22386 18.7761 4 18.5 4ZM24.5 4H28.5C28.7761 4 29 4.22386 29 4.5C29 4.77614 28.7761 5 28.5 5H24.5C24.2239 5 24 4.77614 24 4.5C24 4.22386 24.2239 4 24.5 4ZM18.5 16H14.5C14.2239 16 14 16.2239 14 16.5C14 16.7761 14.2239 17 14.5 17H18.5C18.7761 17 19 16.7761 19 16.5C19 16.2239 18.7761 16 18.5 16ZM14.5 22H18.5C18.7761 22 19 22.2239 19 22.5C19 22.7761 18.7761 23 18.5 23H14.5C14.2239 23 14 22.7761 14 22.5C14 22.2239 14.2239 22 14.5 22ZM28.5 10H24.5C24.2239 10 24 10.2239 24 10.5C24 10.7761 24.2239 11 24.5 11H28.5C28.7761 11 29 10.7761 29 10.5C29 10.2239 28.7761 10 28.5 10ZM24.5 16H28.5C28.7761 16 29 16.2239 29 16.5C29 16.7761 28.7761 17 28.5 17H24.5C24.2239 17 24 16.7761 24 16.5C24 16.2239 24.2239 16 24.5 16ZM28.5 22H24.5C24.2239 22 24 22.2239 24 22.5C24 22.7761 24.2239 23 24.5 23H28.5C28.7761 23 29 22.7761 29 22.5C29 22.2239 28.7761 22 28.5 22ZM14.5 28H18.5C18.7761 28 19 28.2239 19 28.5C19 28.7761 18.7761 29 18.5 29H14.5C14.2239 29 14 28.7761 14 28.5C14 28.2239 14.2239 28 14.5 28ZM28.5 28H24.5C24.2239 28 24 28.2239 24 28.5C24 28.7761 24.2239 29 24.5 29H28.5C28.7761 29 29 28.7761 29 28.5C29 28.2239 28.7761 28 28.5 28Z" fill="#C5C9D4"/>
<path fill-rule="evenodd" clip-rule="evenodd" d="M7 10H5C4.44772 10 4 10.4477 4 11V16C4 16.5523 4.44772 17 5 17H7C7.55228 17 8 16.5523 8 16V11C8 10.4477 7.55228 10 7 10ZM7 22H5C4.44772 22 4 22.4477 4 23V28C4 28.5523 4.44772 29 5 29H7C7.55228 29 8 28.5523 8 28V23C8 22.4477 7.55228 22 7 22Z" fill="#1AA0E8"/>
</g>
<defs>
<clipPath id="clip0">
<rect width="32" height="32" fill="white"/>
</clipPath>
</defs>
</svg>
