<svg width="32" height="32" viewBox="0 0 32 32" fill="none" xmlns="http://www.w3.org/2000/svg">
<rect width="32" height="32" fill="white"/>
<path opacity="0.1" fill-rule="evenodd" clip-rule="evenodd" d="M21.9851 7.05637C21.9851 4.95066 20.9169 3.09443 19.2929 2L13.2132 12.5303C14.0217 12.9268 14.9309 13.1493 15.8921 13.1493C19.2572 13.1493 21.9851 10.4214 21.9851 7.05637ZM8.24108 21.4695C10.0325 22.2628 11.2822 24.0563 11.2822 26.1416C11.2822 28.9622 8.99563 31.2488 6.17497 31.2488C5.04834 31.2488 4.0069 30.884 3.16235 30.2661L8.24108 21.4695ZM28.2411 21.4695C30.0325 22.2628 31.2822 24.0563 31.2822 26.1416C31.2822 28.9622 28.9956 31.2488 26.175 31.2488C25.0483 31.2488 24.0069 30.884 23.1624 30.2661L28.2411 21.4695Z" fill="#168CCA"/>
<path fill-rule="evenodd" clip-rule="evenodd" d="M23 7C23 3.13401 19.866 0 16 0C12.134 0 9 3.13401 9 7C9 10.866 12.134 14 16 14H15.5V16.5H8C6.61929 16.5 5.5 17.6193 5.5 19V20H6C2.68629 20 0 22.6863 0 26C0 29.3137 2.68629 32 6 32C9.31371 32 12 29.3137 12 26C12 22.6863 9.31371 20 6 20H6.5V19C6.5 18.1716 7.17157 17.5 8 17.5H24C24.8284 17.5 25.5 18.1716 25.5 19V20H26C22.6863 20 20 22.6863 20 26C20 29.3137 22.6863 32 26 32C29.3137 32 32 29.3137 32 26C32 22.6863 29.3137 20 26 20H26.5V19C26.5 17.6193 25.3807 16.5 24 16.5H16.5V14H16C19.866 14 23 10.866 23 7ZM16 1C12.6863 1 10 3.68629 10 7C10 10.3137 12.6863 13 16 13C19.3137 13 22 10.3137 22 7C22 3.68629 19.3137 1 16 1ZM6 21C3.23858 21 1 23.2386 1 26C1 28.7614 3.23858 31 6 31C8.76142 31 11 28.7614 11 26C11 23.2386 8.76142 21 6 21ZM21 26C21 23.2386 23.2386 21 26 21C28.7614 21 31 23.2386 31 26C31 28.7614 28.7614 31 26 31C23.2386 31 21 28.7614 21 26Z" fill="#C5C9D4"/>
<path fill-rule="evenodd" clip-rule="evenodd" d="M16 5C17.1046 5 18 5.89543 18 7C18 8.10457 17.1046 9 16 9C14.8954 9 14 8.10457 14 7C14 5.89543 14.8954 5 16 5ZM26 24C27.1046 24 28 24.8954 28 26C28 27.1046 27.1046 28 26 28C24.8954 28 24 27.1046 24 26C24 24.8954 24.8954 24 26 24ZM8 26C8 24.8954 7.10457 24 6 24C4.89543 24 4 24.8954 4 26C4 27.1046 4.89543 28 6 28C7.10457 28 8 27.1046 8 26Z" fill="#168CCA"/>
</svg>
