<svg width="32" height="32" viewBox="0 0 32 32" fill="none" xmlns="http://www.w3.org/2000/svg">
<rect width="32" height="32" fill="white"/>
<path d="M26.3185 4H32V24H6.31848L26.3185 4Z" fill="#E8F6ED"/>
<path fill-rule="evenodd" clip-rule="evenodd" d="M20 27V29H23.5439C23.9708 29 24.3506 29.271 24.4895 29.6747L24.7735 30.5C24.9768 31.0911 24.6625 31.7351 24.0715 31.9384C23.953 31.9792 23.8286 32 23.7033 32H8.29649C7.67142 32 7.16471 31.4933 7.16471 30.8682C7.16471 30.7429 7.18551 30.6185 7.22628 30.5L7.51025 29.6747C7.64914 29.271 8.02896 29 8.45585 29H12V27H2C0.89543 27 0 26.1046 0 25V2C0 0.89543 0.89543 0 2 0H30C31.1046 0 32 0.89543 32 2V25C32 26.1046 31.1046 27 30 27H20ZM2 26H30C30.5523 26 31 25.5523 31 25V24H1V25C1 25.5523 1.44772 26 2 26ZM8.45585 30H23.5439L23.8279 30.8253C23.8516 30.8942 23.815 30.9692 23.7461 30.9928C23.7323 30.9976 23.7179 31 23.7033 31H8.29649C8.22371 31 8.16471 30.941 8.16471 30.8682C8.16471 30.8536 8.16713 30.8391 8.17188 30.8253L8.45585 30ZM31 23V4H1V23H31ZM31 2V3H1V2C1 1.44772 1.44772 1 2 1H30C30.5523 1 31 1.44772 31 2ZM13 27V29H19V27H13ZM5.5 7H4.5C4.22386 7 4 7.22386 4 7.5C4 7.77614 4.22386 8 4.5 8H5.5C5.77614 8 6 7.77614 6 7.5C6 7.22386 5.77614 7 5.5 7ZM18.5 19H19.5C19.7761 19 20 19.2239 20 19.5C20 19.7761 19.7761 20 19.5 20H18.5C18.2239 20 18 19.7761 18 19.5C18 19.2239 18.2239 19 18.5 19ZM26 16.5C26 16.2239 25.7761 16 25.5 16H24.5C24.2239 16 24 16.2239 24 16.5C24 16.7761 24.2239 17 24.5 17H25.5C25.7761 17 26 16.7761 26 16.5ZM26.5 10H27.5C27.7761 10 28 10.2239 28 10.5C28 10.7761 27.7761 11 27.5 11H26.5C26.2239 11 26 10.7761 26 10.5C26 10.2239 26.2239 10 26.5 10ZM24.5 10H22.5C22.2239 10 22 10.2239 22 10.5C22 10.7761 22.2239 11 22.5 11H24.5C24.7761 11 25 10.7761 25 10.5C25 10.2239 24.7761 10 24.5 10ZM4.5 10H5.5C5.77614 10 6 10.2239 6 10.5C6 10.7761 5.77614 11 5.5 11H4.5C4.22386 11 4 10.7761 4 10.5C4 10.2239 4.22386 10 4.5 10ZM5.5 13H4.5C4.22386 13 4 13.2239 4 13.5C4 13.7761 4.22386 14 4.5 14H5.5C5.77614 14 6 13.7761 6 13.5C6 13.2239 5.77614 13 5.5 13ZM4.5 16H5.5C5.77614 16 6 16.2239 6 16.5C6 16.7761 5.77614 17 5.5 17H4.5C4.22386 17 4 16.7761 4 16.5C4 16.2239 4.22386 16 4.5 16ZM5.5 19H4.5C4.22386 19 4 19.2239 4 19.5C4 19.7761 4.22386 20 4.5 20H5.5C5.77614 20 6 19.7761 6 19.5C6 19.2239 5.77614 19 5.5 19Z" fill="#C5C9D4"/>
<path fill-rule="evenodd" clip-rule="evenodd" d="M11.5 7H8.5C8.22386 7 8 7.22386 8 7.5C8 7.77614 8.22386 8 8.5 8H11.5C11.7761 8 12 7.77614 12 7.5C12 7.22386 11.7761 7 11.5 7ZM12.5 16H8.5C8.22386 16 8 16.2239 8 16.5C8 16.7761 8.22386 17 8.5 17H12.5C12.7761 17 13 16.7761 13 16.5C13 16.2239 12.7761 16 12.5 16ZM8.5 13H9.5C9.77614 13 10 13.2239 10 13.5C10 13.7761 9.77614 14 9.5 14H8.5C8.22386 14 8 13.7761 8 13.5C8 13.2239 8.22386 13 8.5 13ZM19.5 10H18.5C18.2239 10 18 10.2239 18 10.5C18 10.7761 18.2239 11 18.5 11H19.5C19.7761 11 20 10.7761 20 10.5C20 10.2239 19.7761 10 19.5 10ZM14 16.5C14 16.2239 14.2239 16 14.5 16H15.5C15.7761 16 16 16.2239 16 16.5C16 16.7761 15.7761 17 15.5 17H14.5C14.2239 17 14 16.7761 14 16.5ZM22 16.5C22 16.2239 21.7761 16 21.5 16H17.5C17.2239 16 17 16.2239 17 16.5C17 16.7761 17.2239 17 17.5 17H21.5C21.7761 17 22 16.7761 22 16.5ZM11.5 13H13.5C13.7761 13 14 13.2239 14 13.5C14 13.7761 13.7761 14 13.5 14H11.5C11.2239 14 11 13.7761 11 13.5C11 13.2239 11.2239 13 11.5 13ZM16 19.5C16 19.2239 15.7761 19 15.5 19H8.5C8.22386 19 8 19.2239 8 19.5C8 19.7761 8.22386 20 8.5 20H15.5C15.7761 20 16 19.7761 16 19.5ZM8.5 10H16.5C16.7761 10 17 10.2239 17 10.5C17 10.7761 16.7761 11 16.5 11H8.5C8.22386 11 8 10.7761 8 10.5C8 10.2239 8.22386 10 8.5 10ZM22.5 13H15.5C15.2239 13 15 13.2239 15 13.5C15 13.7761 15.2239 14 15.5 14H22.5C22.7761 14 23 13.7761 23 13.5C23 13.2239 22.7761 13 22.5 13Z" fill="#19AB4F"/>
</svg>
