<svg width="32" height="32" viewBox="0 0 32 32" fill="none" xmlns="http://www.w3.org/2000/svg">
<g clip-path="url(#clip0)">
<rect width="32" height="32" fill="white"/>
<path d="M32.0001 3.31851V30C32.0001 31.1046 31.1047 32 30.0001 32H3.3186L32.0001 3.31851Z" fill="#FCF0EF"/>
<path fill-rule="evenodd" clip-rule="evenodd" d="M30 0H2C0.89543 0 0 0.89543 0 2V30C0 31.1046 0.89543 32 2 32H30C31.1046 32 32 31.1046 32 30V2C32 0.89543 31.1046 0 30 0ZM1 2C1 1.44772 1.44772 1 2 1H30C30.5523 1 31 1.44772 31 2V7H1V2ZM1 8V30C1 30.5523 1.44772 31 2 31H30C30.5523 31 31 30.5523 31 30V8H1ZM10 5C9.44771 5 9 4.55228 9 4C9 3.44772 9.44771 3 10 3C10.5523 3 11 3.44772 11 4C11 4.55228 10.5523 5 10 5ZM6 4C6 4.55228 6.44772 5 7 5C7.55228 5 8 4.55228 8 4C8 3.44772 7.55228 3 7 3C6.44772 3 6 3.44772 6 4ZM4 5C3.44772 5 3 4.55228 3 4C3 3.44772 3.44772 3 4 3C4.55228 3 5 3.44772 5 4C5 4.55228 4.55228 5 4 5Z" fill="#C5C9D4"/>
<path fill-rule="evenodd" clip-rule="evenodd" d="M18.5188 13.4591C18.6618 12.9256 18.3452 12.3773 17.8117 12.2343C17.2783 12.0914 16.7299 12.408 16.587 12.9414L13.4812 24.5325C13.3382 25.066 13.6548 25.6143 14.1883 25.7573C14.7217 25.9002 15.2701 25.5836 15.413 25.0502L18.5188 13.4591ZM10.5 18.9958L12.6967 21.2122C13.1011 21.6202 13.1011 22.2818 12.6967 22.6898C12.2923 23.0978 11.6366 23.0978 11.2322 22.6898L8.3033 19.7346C7.8989 19.3266 7.8989 18.665 8.3033 18.257L11.2322 15.3018C11.6366 14.8938 12.2923 14.8938 12.6967 15.3018C13.1011 15.7098 13.1011 16.3714 12.6967 16.7794L10.5 18.9958ZM21.5 18.9958L19.3033 16.7794C18.8989 16.3714 18.8989 15.7098 19.3033 15.3018C19.7077 14.8938 20.3634 14.8938 20.7678 15.3018L23.6967 18.257C24.1011 18.665 24.1011 19.3266 23.6967 19.7346L20.7678 22.6898C20.3634 23.0978 19.7077 23.0978 19.3033 22.6898C18.8989 22.2818 18.8989 21.6202 19.3033 21.2122L21.5 18.9958Z" fill="#D33A2F"/>
<mask id="mask0" mask-type="alpha" maskUnits="userSpaceOnUse" x="8" y="12" width="16" height="14">
<path fill-rule="evenodd" clip-rule="evenodd" d="M18.5188 13.4591C18.6618 12.9256 18.3452 12.3773 17.8117 12.2343C17.2783 12.0914 16.7299 12.408 16.587 12.9414L13.4812 24.5325C13.3382 25.066 13.6548 25.6143 14.1883 25.7573C14.7217 25.9002 15.2701 25.5836 15.413 25.0502L18.5188 13.4591ZM10.5 18.9958L12.6967 21.2122C13.1011 21.6202 13.1011 22.2818 12.6967 22.6898C12.2923 23.0978 11.6366 23.0978 11.2322 22.6898L8.3033 19.7346C7.8989 19.3266 7.8989 18.665 8.3033 18.257L11.2322 15.3018C11.6366 14.8938 12.2923 14.8938 12.6967 15.3018C13.1011 15.7098 13.1011 16.3714 12.6967 16.7794L10.5 18.9958ZM21.5 18.9958L19.3033 16.7794C18.8989 16.3714 18.8989 15.7098 19.3033 15.3018C19.7077 14.8938 20.3634 14.8938 20.7678 15.3018L23.6967 18.257C24.1011 18.665 24.1011 19.3266 23.6967 19.7346L20.7678 22.6898C20.3634 23.0978 19.7077 23.0978 19.3033 22.6898C18.8989 22.2818 18.8989 21.6202 19.3033 21.2122L21.5 18.9958Z" fill="white"/>
</mask>
<g mask="url(#mask0)">
</g>
</g>
<defs>
<clipPath id="clip0">
<rect width="32" height="32" fill="white"/>
</clipPath>
</defs>
</svg>
