<svg width="32" height="32" viewBox="0 0 32 32" fill="none" xmlns="http://www.w3.org/2000/svg">
<rect width="32" height="32" fill="white"/>
<path d="M6.83523 25.2198C10.9568 21.0982 17.0804 14.9745 25.2061 6.84891C25.4446 6.61034 26.6626 6.91136 26.9958 7.33351C28.8772 9.71728 30 12.7275 30 16C30 23.732 23.732 30 16 30C12.9487 30 10.1253 29.0238 7.82522 27.3667C7.56322 27.178 8.64239 26.3287 8.44507 25.9341C8.18785 25.4197 6.70183 25.3532 6.83523 25.2198Z" fill="#E8F6ED"/>
<path d="M2.25366 22.0132C2.23141 22.0171 2.20919 22.0212 2.18702 22.0256C1.86914 22.0892 1.57749 22.2105 1.32078 22.3763C-1.21833 16.5265 -0.0964909 9.46907 4.68629 4.68629C10.505 -1.13246 19.6905 -1.53256 25.9723 3.48601L28.1047 1.35355C28.3 1.15829 28.6166 1.15829 28.8118 1.35355C28.8759 1.41763 28.9214 1.49792 28.9433 1.58584L30.5271 7.92066C30.594 8.18856 30.4311 8.46002 30.1632 8.527C30.0836 8.5469 30.0003 8.5469 29.9207 8.527L23.5859 6.94329C23.318 6.87632 23.1551 6.60485 23.2221 6.33695C23.2441 6.24904 23.2895 6.16875 23.3536 6.10467L25.2604 4.19789C19.3738 -0.43289 10.8212 -0.0343866 5.3934 5.3934C0.899879 9.88692 -0.1467 16.5221 2.25366 22.0132ZM28.1874 2.6851L24.6852 6.18733L29.3548 7.35474L28.1874 2.6851ZM29.9755 10.541C30.2012 10.5471 30.4276 10.5225 30.6483 10.4673C30.7619 10.4389 30.8718 10.4031 30.9774 10.3606C33.1185 16.0575 31.8973 22.7301 27.3137 27.3137C21.6475 32.9799 12.7889 33.5078 6.5278 28.8976L4.29165 31.1338C4.09639 31.329 3.77981 31.329 3.58455 31.1338C3.51474 31.064 3.46717 30.9751 3.44781 30.8783L2.18713 24.5749C2.13297 24.3041 2.30858 24.0407 2.57936 23.9865C2.64409 23.9736 2.71075 23.9736 2.77548 23.9865L9.07888 25.2472C9.34966 25.3014 9.52526 25.5648 9.47111 25.8356C9.45175 25.9324 9.40417 26.0212 9.33437 26.091L7.24367 28.1817C13.106 32.4064 21.3318 31.8814 26.6066 26.6066C30.9499 22.2633 32.0729 15.919 29.9755 10.541ZM4.24517 29.766L7.96664 26.0446L3.3148 25.1142L4.24517 29.766Z" fill="#C5C9D4"/>
<mask id="mask0" mask-type="alpha" maskUnits="userSpaceOnUse" x="8" y="9" width="16" height="14">
<path d="M10.5 15.9958L12.6967 18.2122C13.1011 18.6202 13.1011 19.2818 12.6967 19.6898C12.2923 20.0978 11.6366 20.0978 11.2322 19.6898L8.3033 16.7346C7.8989 16.3266 7.8989 15.665 8.3033 15.257L11.2322 12.3018C11.6366 11.8938 12.2923 11.8938 12.6967 12.3018C13.1011 12.7098 13.1011 13.3714 12.6967 13.7794L10.5 15.9958ZM21.5 15.9958L19.3033 13.7794C18.8989 13.3714 18.8989 12.7098 19.3033 12.3018C19.7077 11.8938 20.3634 11.8938 20.7678 12.3018L23.6967 15.257C24.1011 15.665 24.1011 16.3266 23.6967 16.7346L20.7678 19.6898C20.3634 20.0978 19.7077 20.0978 19.3033 19.6898C18.8989 19.2818 18.8989 18.6202 19.3033 18.2122L21.5 15.9958ZM17.8117 9.23432C18.3452 9.37726 18.6618 9.9256 18.5188 10.4591L15.413 22.0502C15.2701 22.5836 14.7217 22.9002 14.1883 22.7573C13.6548 22.6143 13.3382 22.066 13.4812 21.5325L16.587 9.94143C16.7299 9.40796 17.2783 9.09138 17.8117 9.23432Z" fill="white"/>
</mask>
<g mask="url(#mask0)">
<path d="M10.5 15.9958L12.6967 18.2122C13.1011 18.6202 13.1011 19.2818 12.6967 19.6898C12.2923 20.0978 11.6366 20.0978 11.2322 19.6898L8.3033 16.7346C7.8989 16.3266 7.8989 15.665 8.3033 15.257L11.2322 12.3018C11.6366 11.8938 12.2923 11.8938 12.6967 12.3018C13.1011 12.7098 13.1011 13.3714 12.6967 13.7794L10.5 15.9958ZM21.5 15.9958L19.3033 13.7794C18.8989 13.3714 18.8989 12.7098 19.3033 12.3018C19.7077 11.8938 20.3634 11.8938 20.7678 12.3018L23.6967 15.257C24.1011 15.665 24.1011 16.3266 23.6967 16.7346L20.7678 19.6898C20.3634 20.0978 19.7077 20.0978 19.3033 19.6898C18.8989 19.2818 18.8989 18.6202 19.3033 18.2122L21.5 15.9958ZM17.8117 9.23432C18.3452 9.37726 18.6618 9.9256 18.5188 10.4591L15.413 22.0502C15.2701 22.5836 14.7217 22.9002 14.1883 22.7573C13.6548 22.6143 13.3382 22.066 13.4812 21.5325L16.587 9.94143C16.7299 9.40796 17.2783 9.09138 17.8117 9.23432Z" fill="#19AB4F"/>
</g>
</svg>
