<svg width="32" height="32" viewBox="0 0 32 32" fill="none" xmlns="http://www.w3.org/2000/svg">
<g clip-path="url(#clip0)">
<rect width="32" height="32" fill="white"/>
<path d="M26 18.2447V24C26 25.1046 26 31.2239 26 31.5C26 31.7761 25.7761 32 25.5 32H3.5C1.567 32 0 30.433 0 28.5V4.15385C0 1.85974 1.79086 0 4 0H24C25.1046 0 26 0.92987 26 2.07692V2.78613C25.6705 2.6982 26 18.2447 26 18.2447Z" fill="white"/>
<path fill-rule="evenodd" clip-rule="evenodd" d="M18.2731 4.85821C20.1243 3.00702 22.657 2.25272 25.0636 2.59532C25.053 2.33419 25.0434 2.10065 25.0351 1.89802C25.0131 1.36344 25 1.0439 25 1H15C14.2658 3.14359 13.5822 5.14359 12.9491 7H16.7411C17.1195 6.22641 17.6301 5.5012 18.2731 4.85821ZM25.4803 20.5233L25.4316 18.3744C22.9029 18.8553 20.2037 18.1025 18.2731 16.1719C16.8344 14.7332 16.0582 12.8829 15.9446 11H11.5875C8.41741 20.3333 6.88825 25 6.99997 25H25C25.205 25 25.3651 23.5078 25.4803 20.5233Z" fill="#E8F5FC"/>
<path fill-rule="evenodd" clip-rule="evenodd" d="M25 2.2V2.58652C25.3364 2.63167 25.6705 2.6982 26 2.78613V2.07692C26 0.92987 25.1046 0 24 0H4C1.79086 0 0 1.85974 0 4.15385V28.5C0 30.433 1.567 32 3.5 32H25.5C25.7761 32 26 31.7761 26 31.5C26 31.2239 25.7761 31 25.5 31H3.5C2.11929 31 1 29.8807 1 28.5C1 27.1193 2.11929 26 3.5 26H24C25.1046 26 26 25.1046 26 24V18.2447C25.6702 18.3328 25.3361 18.3993 25 18.4444V24C25 24.5523 24.5523 25 24 25H5V1H24C24.5523 1 25 1.53726 25 2.2ZM16.7412 7C16.9094 6.65612 17.1037 6.32179 17.3242 6H9C8.44771 6 8 6.44772 8 7V11C8 11.5523 8.44771 12 9 12H16.0682C16.0061 11.6691 15.9648 11.3351 15.9446 11H9V7H16.7412ZM4 1C2.34315 1 1 2.61177 1 4.6V26.0505C1.63526 25.4022 2.52066 25 3.5 25H4V1ZM25.5 28H4.5C4.22386 28 4 28.2239 4 28.5C4 28.7761 4.22386 29 4.5 29H25.5C25.7761 29 26 28.7761 26 28.5C26 28.2239 25.7761 28 25.5 28Z" fill="#CED3DE"/>
<path fill-rule="evenodd" clip-rule="evenodd" d="M19.6874 14.7577C21.7896 16.8599 25.0637 17.0761 27.4069 15.4061L30.294 18.2932C30.6845 18.6838 31.3177 18.6838 31.7082 18.2932C32.0988 17.9027 32.0988 17.2695 31.7082 16.879L28.8211 13.9919C30.4911 11.6487 30.2749 8.37465 28.1727 6.27242C25.8295 3.92927 22.0306 3.92927 19.6874 6.27242C17.3443 8.61557 17.3443 12.4146 19.6874 14.7577ZM26.7585 7.68663C28.3206 9.24873 28.3206 11.7814 26.7585 13.3435C25.1964 14.9056 22.6637 14.9056 21.1016 13.3435C19.5395 11.7814 19.5395 9.24873 21.1016 7.68663C22.6637 6.12454 25.1964 6.12454 26.7585 7.68663Z" fill="#1AA0E8"/>
</g>
<defs>
<clipPath id="clip0">
<rect width="32" height="32" fill="white"/>
</clipPath>
</defs>
</svg>
