<svg width="32" height="32" viewBox="0 0 32 32" fill="none" xmlns="http://www.w3.org/2000/svg">
<g clip-path="url(#clip0)">
<rect width="32" height="32" fill="white"/>
<rect width="32" height="32" rx="2" fill="white"/>
<path d="M32.0001 3.31851V30C32.0001 31.1046 31.1047 32 30.0001 32H3.3186L32.0001 3.31851Z" fill="#FCF0EF"/>
<path fill-rule="evenodd" clip-rule="evenodd" d="M30 0H2C0.89543 0 0 0.89543 0 2V30C0 31.1046 0.89543 32 2 32H30C31.1046 32 32 31.1046 32 30V2C32 0.89543 31.1046 0 30 0ZM1 2C1 1.44772 1.44772 1 2 1H30C30.5523 1 31 1.44772 31 2V7H1V2ZM1 8V30C1 30.5523 1.44772 31 2 31H30C30.5523 31 31 30.5523 31 30V8H1ZM10 5C9.44771 5 9 4.55228 9 4C9 3.44772 9.44771 3 10 3C10.5523 3 11 3.44772 11 4C11 4.55228 10.5523 5 10 5ZM6 4C6 4.55228 6.44772 5 7 5C7.55228 5 8 4.55228 8 4C8 3.44772 7.55228 3 7 3C6.44772 3 6 3.44772 6 4ZM4 5C3.44772 5 3 4.55228 3 4C3 3.44772 3.44772 3 4 3C4.55228 3 5 3.44772 5 4C5 4.55228 4.55228 5 4 5Z" fill="#C5C9D4"/>
<path d="M17 22.5903L18.8303 20.76C19.2208 20.3695 19.854 20.3695 20.2445 20.76C20.635 21.1505 20.635 21.7837 20.2445 22.1742L16.7089 25.7097C16.3184 26.1003 15.6853 26.1003 15.2947 25.7097L11.7592 22.1742C11.3687 21.7837 11.3687 21.1505 11.7592 20.76C12.1497 20.3695 12.7829 20.3695 13.1734 20.76L15 22.5866V14C15 13.4477 15.4477 13 16 13C16.5523 13 17 13.4477 17 14V22.5903Z" fill="#D33A2F"/>
</g>
<defs>
<clipPath id="clip0">
<rect width="32" height="32" fill="white"/>
</clipPath>
</defs>
</svg>
