<svg width="32" height="32" viewBox="0 0 32 32" fill="none" xmlns="http://www.w3.org/2000/svg">
<rect width="32" height="32" fill="white"/>
<path d="M20 23C21.2754 23.2205 20.7405 22.0882 21 21C21.3536 19.517 22.2856 17.7303 23 16C24.2386 13 23.7614 9 21 9C18.2386 9 14 11.0294 14 16C14 17.763 14.4654 19.0628 15.1724 20.0974C15.6835 20.8453 16.3209 21.4546 17 22C18.0298 22.8271 19 22.8271 20 23Z" fill="#E8F7F7"/>
<path d="M16 16.2711L14.2652 17.1831C14.0208 17.3116 13.7185 17.2177 13.59 16.9733C13.5388 16.8759 13.5212 16.7644 13.5398 16.6561L13.8711 14.7244L12.4676 13.3564C12.2699 13.1636 12.2659 12.8471 12.4586 12.6493C12.5354 12.5706 12.6359 12.5194 12.7448 12.5035L14.6842 12.2217L15.5516 10.4642C15.6738 10.2166 15.9736 10.1149 16.2213 10.2372C16.3199 10.2858 16.3997 10.3656 16.4484 10.4642L17.3157 12.2217L19.2552 12.5035C19.5285 12.5433 19.7178 12.797 19.6781 13.0702C19.6623 13.1791 19.6111 13.2796 19.5323 13.3564L18.1289 14.7244L18.4602 16.6561C18.5069 16.9282 18.3241 17.1867 18.0519 17.2334C17.9435 17.252 17.8321 17.2343 17.7347 17.1831L16 16.2711Z" fill="#42BFC2"/>
<path fill-rule="evenodd" clip-rule="evenodd" d="M16 0C16.2761 0 16.5 0.223858 16.5 0.5V4.5C16.5 4.77614 16.2761 5 16 5C15.7239 5 15.5 4.77614 15.5 4.5V0.5C15.5 0.223858 15.7239 0 16 0ZM19 28.8293C20.1652 28.4175 21 27.3062 21 26V23C21 20.9908 21.7569 19.7202 22.5103 18.4554C23.2569 17.2022 24 15.9546 24 14C24 9.30558 20.4183 6 16 6C11.5817 6 8 9.30558 8 14C8 15.9659 8.74486 17.2141 9.49227 18.4666C10.2448 19.7277 11 20.9931 11 23V26C11 27.3062 11.8348 28.4175 13 28.8293V29C13 30.6569 14.3431 32 16 32C17.6569 32 19 30.6569 19 29V28.8293ZM20 23V25H12V23H20ZM14 29C14 30.1046 14.8954 31 16 31C17.1046 31 18 30.1046 18 29H14ZM20.0488 22H11.9512C11.808 20.6521 11.3345 19.6023 10.3377 17.9318C9.31823 16.2234 9 15.406 9 14C9 9.95871 12.031 7 16 7C19.969 7 23 9.95871 23 14C23 15.3946 22.6818 16.2133 21.6691 17.9135L21.6409 17.961C20.6633 19.602 20.1918 20.6512 20.0488 22ZM26.9602 5.03984C27.1554 4.84458 27.1554 4.528 26.9602 4.33274C26.7649 4.13748 26.4483 4.13748 26.253 4.33274L23.4246 7.16117C23.2294 7.35643 23.2294 7.67301 23.4246 7.86827C23.6199 8.06353 23.9365 8.06353 24.1317 7.86827L26.9602 5.03984ZM8.57538 22.7175C8.77064 22.9128 8.77064 23.2294 8.57538 23.4246L5.74695 26.253C5.55169 26.4483 5.23511 26.4483 5.03984 26.253C4.84458 26.0578 4.84458 25.7412 5.03984 25.5459L7.86827 22.7175C8.06353 22.5223 8.38012 22.5223 8.57538 22.7175ZM5.03984 5.03984C4.84458 4.84458 4.528 4.84458 4.33274 5.03984C4.13748 5.23511 4.13748 5.55169 4.33274 5.74695L7.16117 8.57538C7.35643 8.77064 7.67301 8.77064 7.86827 8.57538C8.06353 8.38012 8.06353 8.06353 7.86827 7.86827L5.03984 5.03984ZM22.7175 23.4246C22.9128 23.2294 23.2294 23.2294 23.4246 23.4246L26.253 26.253C26.4483 26.4483 26.4483 26.7649 26.253 26.9602C26.0578 27.1554 25.7412 27.1554 25.5459 26.9602L22.7175 24.1317C22.5223 23.9365 22.5223 23.6199 22.7175 23.4246ZM1.5 15C1.22386 15 1 15.2239 1 15.5C1 15.7761 1.22386 16 1.5 16H5.5C5.77614 16 6 15.7761 6 15.5C6 15.2239 5.77614 15 5.5 15H1.5ZM26 15.5C26 15.2239 26.2239 15 26.5 15H30.5C30.7761 15 31 15.2239 31 15.5C31 15.7761 30.7761 16 30.5 16H26.5C26.2239 16 26 15.7761 26 15.5ZM14 28C12.8954 28 12 27.1046 12 26H20C20 27.1046 19.1046 28 18 28H14Z" fill="#CED3DE"/>
</svg>
