<svg width="32" height="32" viewBox="0 0 32 32" fill="none" xmlns="http://www.w3.org/2000/svg">
<g clip-path="url(#clip0)">
<rect width="32" height="32" fill="white"/>
<path d="M4 30C2.89543 30 2 29.1046 2 28V5C2 3.89543 2.89543 3 4 3H8C8 2.44772 8.44772 2 9 2H11C11 0.89543 11.8954 0 13 0H15C16.1046 0 17 0.89543 17 2H19C19.5523 2 20 2.44772 20 3H24C25.1046 3 26 3.89543 26 5V28C26 29.1046 25.1046 30 24 30H4Z" fill="white"/>
<path fill-rule="evenodd" clip-rule="evenodd" d="M20.6229 13.3161C21.7513 11.3618 23.8416 10.2529 26 10.3175V5C26 3.89543 25.1045 3 24 3H19.6041V5H16.876L3.60413 29.9608C3.73208 29.9865 3.86445 30 3.99997 30H14.0685C13.6409 28.696 13.7488 27.2225 14.489 25.9405C15.295 24.5443 16.6947 23.66 18.2214 23.4757L20.6222 19.3174C19.5756 17.5038 19.526 15.216 20.6229 13.3161ZM26 28V22.3146C25.9395 22.3165 25.8789 22.3174 25.8183 22.3174L23.4176 26.4757C23.8902 27.583 23.9524 28.8375 23.5702 30H24C25.1045 30 26 29.1046 26 28Z" fill="#FBF0EA"/>
<path fill-rule="evenodd" clip-rule="evenodd" d="M4 30H14.0685C13.962 29.6753 13.8888 29.3401 13.8502 29H4C3.44772 29 3 28.5523 3 28V5C3 4.44772 3.44772 4 4 4H8V5C8 5.55228 8.44772 6 9 6H19C19.5523 6 20 5.55228 20 5V4H24C24.5523 4 25 4.44772 25 5V10.3714C25.3294 10.3258 25.6639 10.3074 26 10.3175V5C26 3.89543 25.1046 3 24 3H20C20 2.44772 19.5523 2 19 2H17C17 0.89543 16.1046 0 15 0H13C11.8954 0 11 0.89543 11 2H9C8.44772 2 8 2.44772 8 3H4C2.89543 3 2 3.89543 2 5V28C2 29.1046 2.89543 30 4 30ZM23.7883 29C23.7504 29.3371 23.678 29.6722 23.5702 30H24C25.1046 30 26 29.1046 26 28V22.3146C25.9395 22.3165 25.879 22.3174 25.8184 22.3174L25 23.7349V28C25 28.5523 24.5523 29 24 29H23.7883ZM20.8186 13C20.7506 13.1028 20.6853 13.2081 20.623 13.3161C20.4942 13.5392 20.3812 13.7676 20.2838 14H6.5C6.22386 14 6 13.7761 6 13.5C6 13.2239 6.22386 13 6.5 13H20.8186ZM20.0597 18C19.9643 17.6729 19.8968 17.3382 19.858 17H6.5C6.22386 17 6 17.2239 6 17.5C6 17.7761 6.22386 18 6.5 18H20.0597ZM6.5 9H21.5C21.7761 9 22 9.22386 22 9.5C22 9.77614 21.7761 10 21.5 10H6.5C6.22386 10 6 9.77614 6 9.5C6 9.22386 6.22386 9 6.5 9ZM11.5 21H6.5C6.22386 21 6 21.2239 6 21.5C6 21.7761 6.22386 22 6.5 22H11.5C11.7761 22 12 21.7761 12 21.5C12 21.2239 11.7761 21 11.5 21ZM16 2C16 1.44772 15.5523 1 15 1H13C12.4477 1 12 1.44772 12 2H16ZM9 5V3H19V5H9Z" fill="#C5C9D4"/>
<path fill-rule="evenodd" clip-rule="evenodd" d="M25.0981 15.855L27.0351 12.5C25.319 12.0219 23.4319 12.7408 22.5 14.355C21.5681 15.9691 21.889 17.9628 23.1611 19.2099L19.5127 25.5291C18.2977 25.3031 17.0192 25.8481 16.366 26.9793C15.5376 28.4142 16.0292 30.249 17.4641 31.0774C18.899 31.9058 20.7338 31.4142 21.5622 29.9793C22.2153 28.8481 22.048 27.4683 21.2448 26.5291L24.8932 20.2099C26.6093 20.688 28.4963 19.9691 29.4282 18.355C30.3601 16.7408 30.0392 14.7472 28.7671 13.5L26.8301 16.855C26.554 17.3333 25.9424 17.4971 25.4641 17.221C24.9858 16.9449 24.822 16.3333 25.0981 15.855ZM20.1992 29.2048C19.7994 29.8973 18.9199 30.138 18.2348 29.7425C17.5498 29.3469 17.3185 28.465 17.7183 27.7725C18.1181 27.08 18.9975 26.8393 19.6826 27.2349C20.3677 27.6304 20.599 28.5124 20.1992 29.2048Z" fill="#E06E31"/>
</g>
<defs>
<clipPath id="clip0">
<rect width="32" height="32" fill="white"/>
</clipPath>
</defs>
</svg>
