<svg width="32" height="32" viewBox="0 0 32 32" fill="none" xmlns="http://www.w3.org/2000/svg">
<rect width="32" height="32" fill="white"/>
<path d="M9.72639 25.8325C10.5114 26.5453 11.7261 26.5228 12.484 25.7649L14.3932 23.8558C15.0521 23.1968 15.1551 22.1924 14.7022 21.4254L20.2366 15.891L21.6597 15.4166C22.2569 15.2175 22.7255 14.7489 22.9246 14.1517L23.3155 12.9791C23.4043 12.7126 23.4283 12.4349 23.3923 12.1666L28.5588 7H31V32H3.55884L9.72639 25.8325Z" fill="#E8F7F7"/>
<path fill-rule="evenodd" clip-rule="evenodd" d="M31 30V7C31.5523 7 32 6.55228 32 6V1C32 0.447715 31.5523 0 31 0H1C0.447715 0 0 0.447715 0 1V6C0 6.55228 0.447715 7 1 7V30C1 31.1046 1.89543 32 3 32H29C30.1046 32 31 31.1046 31 30ZM2 30V7H30V30C30 30.5523 29.5523 31 29 31H3C2.44772 31 2 30.5523 2 30ZM1 1V6H31V1H1ZM18.5 3H13.5C13.2239 3 13 3.22386 13 3.5C13 3.77614 13.2239 4 13.5 4H18.5C18.7761 4 19 3.77614 19 3.5C19 3.22386 18.7761 3 18.5 3Z" fill="#C5C9D4"/>
<path fill-rule="evenodd" clip-rule="evenodd" d="M14.2353 17.6496L15.6495 16.2354L14.7076 15.2935C15.2404 14.1784 15.0449 12.8023 14.1213 11.8787C12.9976 10.755 11.2043 10.7091 10.0259 11.7408L12.4551 13.1434C12.9334 13.4195 13.0973 14.0311 12.8212 14.5094C12.545 14.9877 11.9334 15.1516 11.4551 14.8754L9.04445 13.4836C8.88291 14.4129 9.16097 15.4037 9.87861 16.1213C10.8022 17.045 12.1783 17.2404 13.2934 16.7077L14.2353 17.6496ZM12.6254 20.6738L18.9893 14.3098L19.5383 12.6628C19.6379 12.3642 19.8722 12.1299 20.1708 12.0304L21.3434 11.6395C21.6341 11.5426 21.9546 11.6183 22.1713 11.8349C22.388 12.0516 22.4636 12.3721 22.3667 12.6628L21.9759 13.8355C21.8763 14.1341 21.642 14.3684 21.3434 14.4679L19.6964 15.0169L13.3325 21.3809L13.686 21.7344C14.0766 22.125 14.0766 22.7581 13.686 23.1486L11.7768 25.0578C11.3863 25.4484 10.7531 25.4484 10.3626 25.0578L8.94841 23.6436C8.55789 23.2531 8.55789 22.6199 8.94841 22.2294L10.8576 20.3202C11.2481 19.9297 11.8813 19.9297 12.2718 20.3202L12.6254 20.6738ZM17.7709 18.3567L19.1917 19.7776C20.3068 19.2449 21.6829 19.4403 22.6065 20.364C23.3242 21.0816 23.6022 22.0724 23.4407 23.0017L21.03 21.6098C20.5517 21.3337 19.9401 21.4976 19.664 21.9759C19.3878 22.4542 19.5517 23.0657 20.03 23.3419L22.4593 24.7444C21.2808 25.7762 19.4876 25.7303 18.3639 24.6066C17.4403 23.683 17.2448 22.3069 17.7775 21.1918L16.3566 19.7709L17.7709 18.3567Z" fill="#42BFC2"/>
</svg>
