<svg width="32" height="32" viewBox="0 0 32 32" fill="none" xmlns="http://www.w3.org/2000/svg">
<rect width="32" height="32" fill="white"/>
<path fill-rule="evenodd" clip-rule="evenodd" d="M11 8H23V13C23 14.6569 21.6569 16 20 16H11V8ZM3 23H15V28C15 29.6569 13.6569 31 12 31H3V23ZM32 23H20V31H29C30.6569 31 32 29.6569 32 28V23Z" fill="#E8F6ED"/>
<path fill-rule="evenodd" clip-rule="evenodd" d="M13 16H19C17.8954 16 17 16.8954 17 18V29C17 30.1046 17.8954 31 19 31H30C31.1046 31 32 30.1046 32 29V18C32 16.8954 31.1046 16 30 16H21C22.1046 16 23 15.1046 23 14V3C23 1.89543 22.1046 1 21 1H10C8.89543 1 8 1.89543 8 3V14C8 15.1046 8.89543 16 10 16H2C0.89543 16 0 16.8954 0 18V29C0 30.1046 0.89543 31 2 31H13C14.1046 31 15 30.1046 15 29V18C15 16.8954 14.1046 16 13 16ZM9 3C9 2.44772 9.44771 2 10 2H21C21.5523 2 22 2.44772 22 3V14C22 14.5523 21.5523 15 21 15H10C9.44771 15 9 14.5523 9 14V3ZM2 17C1.44772 17 1 17.4477 1 18V29C1 29.5523 1.44772 30 2 30H13C13.5523 30 14 29.5523 14 29V18C14 17.4477 13.5523 17 13 17H2ZM18 18C18 17.4477 18.4477 17 19 17H30C30.5523 17 31 17.4477 31 18V29C31 29.5523 30.5523 30 30 30H19C18.4477 30 18 29.5523 18 29V18Z" fill="#CED3DE"/>
<path fill-rule="evenodd" clip-rule="evenodd" d="M13.664 10.379C13.664 10.036 13.9421 9.75801 14.285 9.75801H14.888V6.80601H14.285C14.0216 6.80601 13.808 6.59245 13.808 6.32901C13.808 6.0525 13.9941 5.81061 14.2614 5.73969C14.4256 5.69609 14.5505 5.65854 14.636 5.62701C14.7482 5.58567 14.8986 5.51437 15.087 5.4131C15.2326 5.33493 15.3952 5.29401 15.5604 5.29401H15.869C16.1822 5.29401 16.436 5.54786 16.436 5.86101V9.75801H16.841C17.184 9.75801 17.462 10.036 17.462 10.379C17.462 10.722 17.184 11 16.841 11H14.285C13.9421 11 13.664 10.722 13.664 10.379ZM5.39404 25.559L5.39408 25.5523C5.39408 25.2755 5.50885 25.011 5.71104 24.8219C5.98376 24.5669 6.19159 24.3716 6.33454 24.236C6.62554 23.96 6.87904 23.7005 7.09504 23.4575C7.31104 23.2145 7.48054 22.9835 7.60354 22.7645C7.72654 22.5455 7.78804 22.34 7.78804 22.148C7.78804 21.89 7.72354 21.6995 7.59454 21.5765C7.46554 21.4535 7.29604 21.392 7.08604 21.392C6.89404 21.392 6.72454 21.4475 6.57754 21.5585C6.57233 21.5624 6.56699 21.5665 6.56152 21.5707L6.56151 21.5707C6.31227 21.7633 5.95876 21.7407 5.73604 21.518L5.72132 21.5033C5.50838 21.2903 5.50838 20.9451 5.72132 20.7321C5.73457 20.7189 5.7485 20.7063 5.76304 20.6945C5.90704 20.5775 6.05854 20.4815 6.21754 20.4065C6.37654 20.3315 6.54454 20.276 6.72154 20.24C6.89854 20.204 7.09204 20.186 7.30204 20.186C7.59004 20.186 7.85404 20.231 8.09404 20.321C8.33404 20.411 8.54104 20.537 8.71504 20.699C8.88904 20.861 9.02404 21.0575 9.12004 21.2885C9.21604 21.5195 9.26404 21.776 9.26404 22.058C9.26404 22.286 9.21454 22.5185 9.11554 22.7555C9.01654 22.9925 8.88904 23.228 8.73304 23.462C8.57704 23.696 8.40154 23.924 8.20654 24.146C8.01154 24.368 7.81804 24.578 7.62604 24.776C7.77004 24.758 7.93354 24.7415 8.11654 24.7265C8.29954 24.7115 8.45404 24.704 8.58004 24.704H8.88604C9.24392 24.704 9.53404 24.9941 9.53404 25.352C9.53404 25.7099 9.24392 26 8.88604 26H5.83504C5.59149 26 5.39404 25.8026 5.39404 25.559ZM24.284 26.108C23.816 26.108 23.414 26.036 23.078 25.892C22.9808 25.8503 22.8738 25.7895 22.7571 25.7094L22.7571 25.7094C22.4672 25.5107 22.3934 25.1146 22.5921 24.8247C22.595 24.8205 22.598 24.8162 22.601 24.812C22.7843 24.5582 23.1324 24.4888 23.399 24.6528C23.4412 24.6788 23.4797 24.7003 23.5145 24.7175C23.7155 24.8165 23.918 24.866 24.122 24.866C24.374 24.866 24.575 24.821 24.725 24.731C24.875 24.641 24.95 24.506 24.95 24.326C24.95 24.218 24.932 24.122 24.896 24.038C24.86 23.954 24.791 23.882 24.689 23.822C24.587 23.762 24.443 23.717 24.257 23.687C24.2076 23.679 24.1391 23.6718 24.0518 23.6655L24.0518 23.6654C23.7565 23.6438 23.528 23.398 23.528 23.102C23.528 22.8101 23.7465 22.5644 24.0364 22.5302C24.0716 22.5261 24.1017 22.5217 24.1265 22.517C24.2855 22.487 24.413 22.4435 24.509 22.3865C24.605 22.3295 24.6725 22.262 24.7115 22.184C24.7505 22.106 24.77 22.016 24.77 21.914C24.77 21.566 24.572 21.392 24.176 21.392C23.984 21.392 23.813 21.431 23.663 21.509C23.6484 21.5166 23.6324 21.5256 23.615 21.536C23.3396 21.7003 22.9854 21.6392 22.781 21.392C22.5864 21.1566 22.6194 20.808 22.8548 20.6134C22.8743 20.5973 22.8949 20.5825 22.9164 20.5692C23.0542 20.484 23.1711 20.4208 23.267 20.3795C23.567 20.2505 23.894 20.186 24.248 20.186C24.878 20.186 25.3805 20.3255 25.7555 20.6045C26.1305 20.8835 26.318 21.281 26.318 21.797C26.318 22.349 26.012 22.76 25.4 23.03V23.066C25.724 23.168 25.988 23.3315 26.192 23.5565C26.396 23.7815 26.498 24.074 26.498 24.434C26.498 24.704 26.438 24.9425 26.318 25.1495C26.198 25.3565 26.0375 25.532 25.8365 25.676C25.6355 25.82 25.4 25.928 25.13 26C24.86 26.072 24.578 26.108 24.284 26.108Z" fill="#19AB4F"/>
</svg>
