<svg width="32" height="32" viewBox="0 0 32 32" fill="none" xmlns="http://www.w3.org/2000/svg">
<rect width="32" height="32" fill="white"/>
<path d="M29.0001 8.48306V30C29.0001 31.1046 28.1047 32 27.0001 32H5.48315C5.51523 31.9718 5.54661 31.9423 5.57725 31.9117L28.9118 8.57716C28.9424 8.54652 28.9719 8.51514 29.0001 8.48306Z" fill="#E8F7F7"/>
<path fill-rule="evenodd" clip-rule="evenodd" d="M2 29H3V30C3 31.1046 3.89543 32 5 32H27C28.1046 32 29 31.1046 29 30V26H30C31.1046 26 32 25.1046 32 24V2C32 0.89543 31.1046 0 30 0H8C6.89543 0 6 0.89543 6 2V3H2C0.89543 3 0 3.89543 0 5V27C0 28.1046 0.89543 29 2 29ZM3 8V28H2C1.44772 28 1 27.5523 1 27V5C1 4.44772 1.44772 4 2 4H24C24.5523 4 25 4.44772 25 5V6H5C3.89543 6 3 6.89543 3 8ZM26 6H27C28.1046 6 29 6.89543 29 8V25H30C30.5523 25 31 24.5523 31 24V2C31 1.44772 30.5523 1 30 1H8C7.44772 1 7 1.44772 7 2V3H24C25.1046 3 26 3.89543 26 5V6ZM4 8C4 7.44772 4.44772 7 5 7H27C27.5523 7 28 7.44772 28 8V30C28 30.5523 27.5523 31 27 31H5C4.44772 31 4 30.5523 4 30V8Z" fill="#C5C9D4"/>
<path fill-rule="evenodd" clip-rule="evenodd" d="M14.1299 19.78C14.2299 19.4067 14.3733 19.06 14.5599 18.74C14.7466 18.42 14.9566 18.1267 15.1899 17.86C15.4233 17.5933 15.6466 17.3367 15.8599 17.09C16.0733 16.8433 16.2499 16.6033 16.3899 16.37C16.5299 16.1367 16.5999 15.8933 16.5999 15.64C16.5999 15.2267 16.4766 14.9133 16.2299 14.7C15.9833 14.4867 15.6599 14.38 15.2599 14.38C14.8866 14.38 14.5566 14.4667 14.2699 14.64C14.2103 14.676 14.1424 14.7223 14.0661 14.7786L14.0661 14.7787C13.6818 15.0628 13.1501 15.0352 12.7972 14.7128L12.6299 14.56C12.2253 14.1903 12.1969 13.5626 12.5666 13.158C12.6002 13.1212 12.6365 13.087 12.6753 13.0557C12.984 12.8061 13.2555 12.6208 13.4899 12.5C14.1366 12.1667 14.8533 12 15.6399 12C16.1733 12 16.6699 12.0667 17.1299 12.2C17.5899 12.3333 17.9899 12.54 18.3299 12.82C18.6699 13.1 18.9366 13.4567 19.1299 13.89C19.3233 14.3233 19.4199 14.8333 19.4199 15.42C19.4199 15.8333 19.3466 16.2033 19.1999 16.53C19.0533 16.8567 18.8699 17.16 18.6499 17.44C18.4299 17.72 18.1966 17.99 17.9499 18.25C17.7033 18.51 17.4766 18.78 17.2699 19.06C17.0633 19.34 16.8999 19.6367 16.7799 19.95C16.7543 20.0169 16.7328 20.099 16.7154 20.1963C16.63 20.673 16.2153 21.02 15.731 21.02L15.0815 21.02C14.5374 21.02 14.0964 20.5789 14.0964 20.0349C14.0964 19.9488 14.1077 19.8631 14.1299 19.78ZM15.3599 25.88C14.8533 25.88 14.4333 25.7033 14.0999 25.35C13.7666 24.9967 13.5999 24.56 13.5999 24.04C13.5999 23.5067 13.7666 23.0633 14.0999 22.71C14.4333 22.3567 14.8533 22.18 15.3599 22.18C15.8666 22.18 16.2899 22.3567 16.6299 22.71C16.9699 23.0633 17.1399 23.5067 17.1399 24.04C17.1399 24.56 16.9699 24.9967 16.6299 25.35C16.2899 25.7033 15.8666 25.88 15.3599 25.88Z" fill="#42BFC2"/>
</svg>
