<svg width="32" height="32" viewBox="0 0 32 32" fill="none" xmlns="http://www.w3.org/2000/svg">
<g clip-path="url(#clip0)">
<rect width="32" height="32" fill="white"/>
<path d="M7 28H5C3.89543 28 3 27.1046 3 26V2C3 0.89543 3.89543 0 5 0H23C24.1046 0 25 0.89543 25 2V4H27C28.1046 4 29 4.89543 29 6V24.7248C29 25.3424 28.7147 25.9254 28.2269 26.3042L21.4361 31.5794C21.0852 31.852 20.6535 32 20.2092 32H9C7.89543 32 7 31.1046 7 30V28Z" fill="white"/>
<path d="M29 7.13506V23.7037C29 24.8083 28.1046 25.7037 27 25.7037H22L21.1851 30.3458C21.0172 31.3023 20.1864 32 19.2152 32H9C7.89543 32 7 31.1046 7 30V29.1351L29 7.13506Z" fill="#F0ECF8"/>
<path fill-rule="evenodd" clip-rule="evenodd" d="M7 28H5C3.89543 28 3 27.1046 3 26V2C3 0.89543 3.89543 0 5 0H23C24.1046 0 25 0.89543 25 2V4H27C28.1046 4 29 4.89543 29 6V24.7248C29 25.3424 28.7147 25.9254 28.2269 26.3042L21.4361 31.5794C21.0852 31.852 20.6535 32 20.2092 32H9C7.89543 32 7 31.1046 7 30V28ZM7 6V27H5C4.44772 27 4 26.5523 4 26V2C4 1.44772 4.44772 1 5 1H23C23.5523 1 24 1.44772 24 2V4H9C7.89543 4 7 4.89543 7 6ZM27.9614 25C27.9867 24.9115 28 24.8189 28 24.7248V6C28 5.44772 27.5523 5 27 5H9C8.44772 5 8 5.44772 8 6V30C8 30.5523 8.44772 31 9 31H20.2092C20.4314 31 20.6472 30.926 20.8227 30.7897L21 30.652V27C21 25.8954 21.8954 25 23 25H27.9614ZM26.9885 26H23C22.4477 26 22 26.4477 22 27V29.8751L26.9885 26ZM24.5 12H18.5C18.2239 12 18 12.2239 18 12.5C18 12.7761 18.2239 13 18.5 13H24.5C24.7761 13 25 12.7761 25 12.5C25 12.2239 24.7761 12 24.5 12ZM18.5 18H23.5C23.7761 18 24 18.2239 24 18.5C24 18.7761 23.7761 19 23.5 19H18.5C18.2239 19 18 18.7761 18 18.5C18 18.2239 18.2239 18 18.5 18ZM21.5 15H18.5C18.2239 15 18 15.2239 18 15.5C18 15.7761 18.2239 16 18.5 16H21.5C21.7761 16 22 15.7761 22 15.5C22 15.2239 21.7761 15 21.5 15Z" fill="#C5C9D4"/>
<path fill-rule="evenodd" clip-rule="evenodd" d="M15 9.4918C15 9.90711 14.8516 10.2623 14.5549 10.5574C14.2582 10.8525 13.9066 11 13.5 11C13.0934 11 12.7418 10.8525 12.4451 10.5574C12.1484 10.2623 12 9.90711 12 9.4918C12 9.08743 12.1484 8.73771 12.4451 8.44262C12.7418 8.14754 13.0934 8 13.5 8C13.9066 8 14.2582 8.14754 14.5549 8.44262C14.8516 8.73771 15 9.08743 15 9.4918ZM16 20.01C16 20.082 15.987 20.166 15.9611 20.262C15.9351 20.358 15.9065 20.406 15.8754 20.406C15.5535 20.406 15.1511 20.391 14.6682 20.361C14.1854 20.331 13.7622 20.316 13.3988 20.316C13.0457 20.316 12.6563 20.331 12.2305 20.361C11.8048 20.391 11.4361 20.406 11.1246 20.406C11.0935 20.406 11.0649 20.358 11.0389 20.262C11.013 20.166 11 20.082 11 20.01C11 19.95 11.013 19.872 11.0389 19.776C11.0649 19.68 11.0935 19.626 11.1246 19.614C11.5088 19.566 11.7814 19.446 11.9424 19.254C12.1033 19.062 12.1838 18.678 12.1838 18.102V15.402C12.1838 14.922 12.1033 14.61 11.9424 14.466C11.7814 14.322 11.5088 14.226 11.1246 14.178C11.0935 14.166 11.0649 14.115 11.0389 14.025C11.013 13.935 11 13.86 11 13.8C11 13.74 11.013 13.662 11.0389 13.566C11.0649 13.47 11.0935 13.422 11.1246 13.422C11.6231 13.302 12.1838 13.107 12.8069 12.837C13.4299 12.567 13.9128 12.336 14.2555 12.144C14.2866 12.12 14.3385 12.09 14.4112 12.054C14.4839 12.018 14.5462 12 14.5981 12C14.7227 12 14.8136 12.024 14.8707 12.072C14.9278 12.12 14.9512 12.174 14.9408 12.234C14.92 12.654 14.8941 13.164 14.8629 13.764C14.8318 14.364 14.8162 14.868 14.8162 15.276V18.102C14.8162 18.666 14.8993 19.05 15.0654 19.254C15.2316 19.458 15.5016 19.578 15.8754 19.614C15.9065 19.614 15.9351 19.665 15.9611 19.767C15.987 19.869 16 19.95 16 20.01Z" fill="#6947BF"/>
</g>
<defs>
<clipPath id="clip0">
<rect width="32" height="32" fill="white"/>
</clipPath>
</defs>
</svg>
