<svg width="32" height="32" viewBox="0 0 32 32" fill="none" xmlns="http://www.w3.org/2000/svg">
<g clip-path="url(#clip0)">
<rect width="32" height="32" fill="white"/>
<path d="M22.4647 9.66019L31.6486 26.6686C32.4236 28.1039 31.8738 29.888 30.4207 30.6535C29.9889 30.881 29.5069 31 29.0175 31H2.9819C2.44612 31 1.94333 30.8604 1.50879 30.6161L22.4647 9.66019V9.66019Z" fill="#FBF0EA"/>
<path fill-rule="evenodd" clip-rule="evenodd" d="M31.6486 26.6686L18.6308 2.55987C18.3524 2.04425 17.925 1.62209 17.403 1.34709C15.9498 0.581604 14.1436 1.12458 13.3686 2.55987L0.350814 26.6686C0.120483 27.0952 0 27.5712 0 28.0547C0 29.6813 1.33505 31 2.98192 31H29.0175C29.5069 31 29.9889 30.881 30.4207 30.6535C31.8739 29.888 32.4236 28.1039 31.6486 26.6686ZM16.9369 2.23184C17.2837 2.41454 17.5669 2.69427 17.7509 3.03499L30.7687 27.1438C31.2786 28.0882 30.917 29.2618 29.9547 29.7687C29.6666 29.9205 29.3446 30 29.0175 30H2.98192C1.88459 30 1 29.1263 1 28.0547C1 27.7372 1.07916 27.4245 1.23073 27.1438L14.2485 3.03499C14.7623 2.08349 15.9675 1.72119 16.9369 2.23184Z" fill="#CED3DE"/>
<path fill-rule="evenodd" clip-rule="evenodd" d="M18 13C18 11.8954 17.1046 11 16 11C14.8954 11 14 11.8954 14 13V17C14 18.1046 14.8954 19 16 19C17.1046 19 18 18.1046 18 17V13ZM14 22C14 23.1046 14.8954 24 16 24C17.1046 24 18 23.1046 18 22C18 20.8954 17.1046 20 16 20C14.8954 20 14 20.8954 14 22Z" fill="#E06E31"/>
</g>
<defs>
<clipPath id="clip0">
<rect width="32" height="32" fill="white"/>
</clipPath>
</defs>
</svg>
