<svg width="32" height="32" viewBox="0 0 32 32" fill="none" xmlns="http://www.w3.org/2000/svg">
<g clip-path="url(#clip0)">
<rect width="32" height="32" fill="white"/>
<path d="M6.39917 26.1894L26.1895 6.39906C28.5521 8.90555 30.0001 12.2837 30.0001 16C30.0001 23.732 23.7321 30 16.0001 30C12.2838 30 8.90566 28.552 6.39917 26.1894H6.39917Z" fill="#FCF0EF"/>
<path fill-rule="evenodd" clip-rule="evenodd" d="M1 16C1 7.71573 7.71573 1 16 1C19.4945 1 22.7098 2.19494 25.2598 4.19849L23.3536 6.10467C23.2895 6.16875 23.2441 6.24904 23.2221 6.33695C23.1551 6.60485 23.318 6.87632 23.5859 6.94329L29.9207 8.527C30.0003 8.5469 30.0836 8.5469 30.1632 8.527C30.4311 8.46002 30.594 8.18856 30.5271 7.92066L28.9433 1.58584C28.9214 1.49792 28.8759 1.41763 28.8118 1.35355C28.6166 1.15829 28.3 1.15829 28.1047 1.35355L25.9717 3.4866C23.2369 1.30441 19.7708 0 16 0C7.16344 0 0 7.16344 0 16C0 24.8366 7.16344 32 16 32C24.8366 32 32 24.8366 32 16C32 15.3364 31.9596 14.6823 31.8811 14.0399C31.8433 13.7301 31.7712 13.3067 31.665 12.7696C31.6638 12.7636 31.6625 12.7576 31.6611 12.7516C31.5992 12.4915 31.3382 12.3307 31.078 12.3926C30.8082 12.4567 30.6375 12.7229 30.6918 12.9949C30.7766 13.4199 30.8356 13.7574 30.8688 14.0073C30.9553 14.6592 31 15.3244 31 16C31 24.2843 24.2843 31 16 31C7.71573 31 1 24.2843 1 16ZM24.6852 6.18733L28.1874 2.6851L29.3548 7.35474L24.6852 6.18733Z" fill="#C5C9D4"/>
<path d="M17 19.5903L18.8303 17.76C19.2208 17.3695 19.854 17.3695 20.2445 17.76C20.635 18.1505 20.635 18.7837 20.2445 19.1742L16.7089 22.7097C16.3184 23.1003 15.6853 23.1003 15.2947 22.7097L11.7592 19.1742C11.3687 18.7837 11.3687 18.1505 11.7592 17.76C12.1497 17.3695 12.7829 17.3695 13.1734 17.76L15 19.5866V11C15 10.4477 15.4477 10 16 10C16.5523 10 17 10.4477 17 11V19.5903Z" fill="#D33A2F"/>
</g>
<defs>
<clipPath id="clip0">
<rect width="32" height="32" fill="white"/>
</clipPath>
</defs>
</svg>
