<svg width="32" height="32" viewBox="0 0 32 32" fill="none" xmlns="http://www.w3.org/2000/svg">
<g clip-path="url(#clip0)">
<rect width="32" height="32" fill="white"/>
<path opacity="0.08" d="M32.0001 3.31851V30C32.0001 31.1046 31.1047 32 30.0001 32H3.3186L32.0001 3.31851Z" fill="#D33A2F"/>
<path d="M2 1C1.44772 1 1 1.44772 1 2V30C1 30.5523 1.44772 31 2 31H30C30.5523 31 31 30.5523 31 30V2C31 1.44772 30.5523 1 30 1H2ZM2 0H30C31.1046 0 32 0.89543 32 2V30C32 31.1046 31.1046 32 30 32H2C0.89543 32 0 31.1046 0 30V2C0 0.89543 0.89543 0 2 0ZM10 5C9.44771 5 9 4.55228 9 4C9 3.44772 9.44771 3 10 3C10.5523 3 11 3.44772 11 4C11 4.55228 10.5523 5 10 5ZM7 5C6.44772 5 6 4.55228 6 4C6 3.44772 6.44772 3 7 3C7.55228 3 8 3.44772 8 4C8 4.55228 7.55228 5 7 5ZM4 5C3.44772 5 3 4.55228 3 4C3 3.44772 3.44772 3 4 3C4.55228 3 5 3.44772 5 4C5 4.55228 4.55228 5 4 5ZM1 7V8H31V7H1Z" fill="#C5C9D4"/>
<path d="M18.8467 20.5466C19.0562 19.6393 19.8642 18.9967 20.7954 18.9967H23C23.5523 18.9967 24 19.4444 24 19.9967C24 20.5489 23.5523 20.9967 23 20.9967H20.7954L19.9744 24.5517C19.8034 25.292 19.2002 25.8544 18.4498 25.9733C17.433 26.1344 16.4781 25.4406 16.3171 24.4238L14.6661 14.0005L13.1754 18.6119C12.9085 19.4373 12.1399 19.9967 11.2723 19.9967H9C8.44772 19.9967 8 19.5489 8 18.9967C8 18.4444 8.44772 17.9967 9 17.9967H11.2723L12.763 13.3853C13.1028 12.3343 14.2303 11.7577 15.2813 12.0975C15.9979 12.3292 16.5236 12.9438 16.6415 13.6876L18.183 23.4202L18.8467 20.5466Z" fill="#D33A2F"/>
</g>
<defs>
<clipPath id="clip0">
<rect width="32" height="32" fill="white"/>
</clipPath>
</defs>
</svg>
