<svg width="32" height="32" viewBox="0 0 32 32" fill="none" xmlns="http://www.w3.org/2000/svg">
<g clip-path="url(#clip0)">
<rect width="32" height="32" fill="white"/>
<path d="M29.3857 4.24857H30C31.1046 4.24857 32 5.144 32 6.24857V30C32 31.1046 31.1046 32 30 32H2C1.88501 32 1.77228 31.9903 1.6626 31.9717L29.3857 4.24857Z" fill="#F0ECF8"/>
<path fill-rule="evenodd" clip-rule="evenodd" d="M6 2V4H2C0.89543 4 0 4.89543 0 6V30C0 31.1046 0.89543 32 2 32H30C31.1046 32 32 31.1046 32 30V6C32 4.89543 31.1046 4 30 4H26V2C26 1.44772 25.5523 1 25 1H20C20 0.447715 19.5523 0 19 0H13C12.4477 0 12 0.447715 12 1H7C6.44772 1 6 1.44772 6 2ZM1 6C1 5.44772 1.44772 5 2 5H30C30.5523 5 31 5.44772 31 6V30C31 30.5523 30.5523 31 30 31H2C1.44772 31 1 30.5523 1 30V6ZM7 4H25V2H20C20 2.55228 19.5523 3 19 3H13C12.4477 3 12 2.55228 12 2H7V4ZM13 2V1H19V2H13Z" fill="#C5C9D4"/>
<path fill-rule="evenodd" clip-rule="evenodd" d="M12.2114 26H9.00009C8.44781 26 8.00009 25.5523 8.00009 25V21.1516L6.69765 21.5006C6.43092 21.5721 6.15675 21.4138 6.08528 21.147C6.01381 20.8803 6.1721 20.6061 6.43883 20.5347L8.00009 20.1163V18.1516L6.69765 18.5006C6.43092 18.5721 6.15675 18.4138 6.08528 18.147C6.01381 17.8803 6.1721 17.6061 6.43883 17.5347L8.00009 17.1163V15.1516L6.69765 15.5006C6.43092 15.5721 6.15675 15.4138 6.08528 15.147C6.01381 14.8803 6.1721 14.6061 6.43883 14.5347L8.00009 14.1163V11C8.00009 10.4477 8.44781 10 9.00009 10H10.6341L10.0671 9.01795C9.92901 8.77881 10.0109 8.47301 10.2501 8.33494C10.4892 8.19687 10.795 8.27881 10.9331 8.51795L11.7888 10H14.6341L14.0671 9.01795C13.929 8.77881 14.0109 8.47301 14.2501 8.33494C14.4892 8.19687 14.795 8.27881 14.9331 8.51795L15.7888 10H18.6341L18.0671 9.01795C17.929 8.77881 18.0109 8.47301 18.2501 8.33494C18.4892 8.19687 18.795 8.27881 18.9331 8.51795L19.7888 10H23.0001C23.5524 10 24.0001 10.4477 24.0001 11V13.8484L25.3025 13.4994C25.5693 13.4279 25.8434 13.5862 25.9149 13.853C25.9864 14.1197 25.8281 14.3939 25.5614 14.4653L24.0001 14.8837V16.8484L25.3025 16.4994C25.5693 16.4279 25.8434 16.5862 25.9149 16.853C25.9864 17.1197 25.8281 17.3939 25.5614 17.4653L24.0001 17.8837V19.8484L25.3025 19.4994C25.5693 19.4279 25.8434 19.5862 25.9149 19.853C25.9864 20.1197 25.8281 20.3939 25.5614 20.4653L24.0001 20.8837V25C24.0001 25.5523 23.5524 26 23.0001 26H21.3661L21.9331 26.9821C22.0712 27.2212 21.9892 27.527 21.7501 27.6651C21.5109 27.8031 21.2051 27.7212 21.0671 27.4821L20.2114 26H17.3661L17.9331 26.9821C18.0712 27.2212 17.9892 27.527 17.7501 27.6651C17.5109 27.8031 17.2051 27.7212 17.0671 27.4821L16.2114 26H13.3661L13.9331 26.9821C14.0712 27.2212 13.9892 27.527 13.7501 27.6651C13.5109 27.8031 13.2051 27.7212 13.0671 27.4821L12.2114 26ZM11.6341 25L11.0671 24.018C10.929 23.7788 11.0109 23.473 11.2501 23.3349C11.4892 23.1969 11.795 23.2788 11.9331 23.518L12.7888 25H15.6341L15.0671 24.018C14.929 23.7788 15.0109 23.473 15.2501 23.3349C15.4892 23.1969 15.795 23.2788 15.9331 23.518L16.7888 25H19.6341L19.0671 24.018C18.929 23.7788 19.0109 23.473 19.2501 23.3349C19.4892 23.1969 19.795 23.2788 19.9331 23.518L20.7888 25H23.0001V21.1516L21.6976 21.5006C21.4309 21.5721 21.1567 21.4138 21.0853 21.147C21.0138 20.8803 21.1721 20.6061 21.4388 20.5347L23.0001 20.1163V18.1516L21.6976 18.5006C21.4309 18.5721 21.1567 18.4138 21.0853 18.147C21.0138 17.8803 21.1721 17.6061 21.4388 17.5347L23.0001 17.1163V15.1516L21.6976 15.5006C21.4309 15.5721 21.1567 15.4138 21.0853 15.147C21.0138 14.8803 21.1721 14.6061 21.4388 14.5347L23.0001 14.1163V11H20.3661L20.9331 11.9821C21.0712 12.2212 20.9892 12.527 20.7501 12.6651C20.5109 12.8031 20.2051 12.7212 20.0671 12.4821L19.2114 11H16.3661L16.9331 11.9821C17.0712 12.2212 16.9892 12.527 16.7501 12.6651C16.5109 12.8031 16.2052 12.7212 16.0671 12.4821L15.2114 11H12.3661L12.9331 11.9821C13.0712 12.2212 12.9892 12.527 12.7501 12.6651C12.5109 12.8031 12.2052 12.7212 12.0671 12.4821L11.2114 11H9.00009V13.8484L10.3025 13.4994C10.5693 13.4279 10.8434 13.5862 10.9149 13.853C10.9864 14.1197 10.8281 14.3939 10.5614 14.4653L9.00009 14.8837V16.8484L10.3025 16.4994C10.5693 16.4279 10.8434 16.5862 10.9149 16.853C10.9864 17.1197 10.8281 17.3939 10.5614 17.4653L9.00009 17.8837V19.8484L10.3025 19.4994C10.5693 19.4279 10.8434 19.5862 10.9149 19.853C10.9864 20.1197 10.8281 20.3939 10.5614 20.4653L9.00009 20.8837V25H11.6341ZM15.5001 16C15.5001 16.2761 15.7239 16.5 16.0001 16.5C16.2762 16.5 16.5001 16.2761 16.5001 16C16.5001 15.7239 16.2762 15.5 16.0001 15.5C15.7239 15.5 15.5001 15.7239 15.5001 16ZM16.0001 18.5C15.7239 18.5 15.5001 18.2761 15.5001 18C15.5001 17.7239 15.7239 17.5 16.0001 17.5C16.2762 17.5 16.5001 17.7239 16.5001 18C16.5001 18.2761 16.2762 18.5 16.0001 18.5ZM17.5001 16C17.5001 16.2761 17.7239 16.5 18.0001 16.5C18.2762 16.5 18.5001 16.2761 18.5001 16C18.5001 15.7239 18.2762 15.5 18.0001 15.5C17.7239 15.5 17.5001 15.7239 17.5001 16ZM18.0001 18.5C17.7239 18.5 17.5001 18.2761 17.5001 18C17.5001 17.7239 17.7239 17.5 18.0001 17.5C18.2762 17.5 18.5001 17.7239 18.5001 18C18.5001 18.2761 18.2762 18.5 18.0001 18.5ZM13.5001 16C13.5001 16.2761 13.7239 16.5 14.0001 16.5C14.2762 16.5 14.5001 16.2761 14.5001 16C14.5001 15.7239 14.2762 15.5 14.0001 15.5C13.7239 15.5 13.5001 15.7239 13.5001 16ZM14.0001 18.5C13.7239 18.5 13.5001 18.2761 13.5001 18C13.5001 17.7239 13.7239 17.5 14.0001 17.5C14.2762 17.5 14.5001 17.7239 14.5001 18C14.5001 18.2761 14.2762 18.5 14.0001 18.5ZM13.5001 20C13.5001 20.2761 13.7239 20.5 14.0001 20.5C14.2762 20.5 14.5001 20.2761 14.5001 20C14.5001 19.7239 14.2762 19.5 14.0001 19.5C13.7239 19.5 13.5001 19.7239 13.5001 20ZM16.0001 20.5C15.7239 20.5 15.5001 20.2761 15.5001 20C15.5001 19.7239 15.7239 19.5 16.0001 19.5C16.2762 19.5 16.5001 19.7239 16.5001 20C16.5001 20.2761 16.2762 20.5 16.0001 20.5ZM17.5001 20C17.5001 20.2761 17.7239 20.5 18.0001 20.5C18.2762 20.5 18.5001 20.2761 18.5001 20C18.5001 19.7239 18.2762 19.5 18.0001 19.5C17.7239 19.5 17.5001 19.7239 17.5001 20Z" fill="#6947BF"/>
</g>
<defs>
<clipPath id="clip0">
<rect width="32" height="32" fill="white"/>
</clipPath>
</defs>
</svg>
