<svg width="32" height="32" viewBox="0 0 32 32" fill="none" xmlns="http://www.w3.org/2000/svg">
<rect width="32" height="32" fill="white"/>
<path fill-rule="evenodd" clip-rule="evenodd" d="M4.80102 22.3875L3.61515 22.7052C3.08168 22.8482 2.7651 23.3965 2.90804 23.93L0.976187 24.4476C0.442721 24.5905 0.126139 25.1389 0.269081 25.6723L1.56318 30.502C1.70612 31.0354 2.25445 31.352 2.78792 31.2091L4.71977 30.6914C4.86271 31.2249 5.41105 31.5415 5.94452 31.3986L10.7741 30.1045C11.8411 29.8186 12.4742 28.7219 12.1884 27.655L11.4119 24.7572C12.4788 24.4713 13.112 23.3746 12.8261 22.3077C12.5402 21.2408 11.4436 20.6076 10.3766 20.8935L7.6988 21.611L6.80736 18.2841L20.3303 14.6607L20.5891 15.6266C20.875 16.6935 21.9717 17.3267 23.0386 17.0408L30.4295 15.0604C30.8906 14.9369 31.2924 14.6524 31.5621 14.2585C32.1861 13.3471 31.9531 12.1023 31.0417 11.4783L27.7297 9.21064C27.3227 8.93199 27.1797 8.39821 27.3928 7.95341L29.1273 4.33352C29.3336 3.90297 29.3791 3.41283 29.2555 2.95167C28.9696 1.88474 27.8729 1.25158 26.806 1.53746L20.3811 3.25901L20.1223 2.29308C19.8364 1.22615 18.7397 0.592987 17.6728 0.878871L3.1839 4.76116L3.05449 4.27819C2.84007 3.47799 2.01757 3.00312 1.21737 3.21753C0.417169 3.43195 -0.0577045 4.25445 0.156708 5.05465L4.80102 22.3875ZM20.3811 3.25901L19.4152 3.51783L20.0715 13.6947L20.3303 14.6607L21.2962 14.4018C22.3632 14.1159 22.9963 13.0193 22.7105 11.9523L20.3811 3.25901Z" fill="white"/>
<path d="M21.717 9.95796L26.4604 1.7421C27.1864 1.88236 28.2379 1.91684 28.4445 2.67856C28.5447 3.04842 28.4567 4.04358 28.3412 4.40897L26.5771 8.7776L30.3504 11.9076C31.1539 12.6657 31.5653 12.0608 31.0673 14.3991C30.8118 14.6699 29.4013 14.9962 29.0415 15.0917L19.5098 17.6302C18.4439 17.9132 17.4189 17.5543 17.1335 16.489L16.8054 15.2646L6.18018 18.1116L16.2091 1.4481L17.2888 1.15881C18.3557 0.872923 19.3911 1.27736 19.6769 2.34429L21.717 9.95796Z" fill="#FCF0EF"/>
<path fill-rule="evenodd" clip-rule="evenodd" d="M4.80102 22.3875L3.61515 22.7052C3.08168 22.8482 2.7651 23.3965 2.90804 23.93L0.976187 24.4476C0.442721 24.5905 0.126139 25.1389 0.269081 25.6723L1.56318 30.502C1.70612 31.0354 2.25445 31.352 2.78792 31.2091L4.71977 30.6914C4.86271 31.2249 5.41105 31.5415 5.94452 31.3986L10.7741 30.1045C11.8411 29.8186 12.4742 28.7219 12.1884 27.655L11.4119 24.7572C12.4788 24.4713 13.112 23.3746 12.8261 22.3077C12.5402 21.2408 11.4436 20.6076 10.3766 20.8935L7.6988 21.611L6.80736 18.2841L16.4666 15.6959L16.7254 16.6619C17.0113 17.7288 18.108 18.362 19.1749 18.0761L30.4295 15.0604C30.8906 14.9369 31.2924 14.6524 31.5621 14.2585C32.1861 13.3471 31.9531 12.1024 31.0417 11.4783L27.7297 9.21065C27.3227 8.932 27.1797 8.39822 27.3928 7.95342L29.1273 4.33353C29.3336 3.90298 29.3791 3.41284 29.2555 2.95168C28.9696 1.88475 27.8729 1.25159 26.806 1.53747L20.3811 3.25902L20.1223 2.29308C19.8364 1.22615 18.7397 0.592987 17.6728 0.878871L3.1839 4.76116L3.05449 4.27819C2.84007 3.47799 2.01757 3.00312 1.21737 3.21753C0.417169 3.43195 -0.0577046 4.25445 0.156708 5.05465L4.80102 22.3875ZM20.6399 4.22495L22.7105 11.9523C22.9963 13.0193 22.3632 14.1159 21.2962 14.4018L17.4325 15.4371L17.6914 16.403C17.8343 16.9365 18.3826 17.2531 19.882 16.8513L30.1707 14.0945C30.4012 14.0327 30.6021 13.8905 30.737 13.6935C31.049 13.2378 30.9325 12.6155 30.4768 12.3035L27.1648 10.0358C26.3508 9.47847 26.0648 8.41093 26.491 7.52131L28.2255 3.90143C28.3286 3.68615 28.3514 3.44108 28.2896 3.2105C28.1466 2.67704 27.5983 2.36045 27.0648 2.5034L20.6399 4.22495ZM6.54854 17.3182L21.0374 13.4359C21.5709 13.293 21.8875 12.7446 21.7445 12.2112L19.1564 2.5519C19.0134 2.01844 18.4651 1.70186 17.9316 1.8448L3.44271 5.72708L6.54854 17.3182ZM2.08856 4.53701L2.21797 5.01998L1.25204 5.2788L1.12263 4.79583C1.05116 4.5291 1.20945 4.25493 1.47619 4.18346C1.74292 4.11199 2.01709 4.27028 2.08856 4.53701ZM6.73287 21.8698L5.76695 22.1286L1.51086 6.24472L2.47679 5.9859L6.73287 21.8698ZM10.1872 24.0501L11.2224 27.9138C11.3654 28.4473 11.0488 28.9956 10.5153 29.1385L5.6857 30.4326L3.87396 23.6711L10.6354 21.8594C11.1689 21.7165 11.7172 22.0331 11.8602 22.5665C12.0031 23.1 11.6866 23.6483 11.1531 23.7913L10.1872 24.0501ZM1.23501 25.4135L3.16686 24.8959L4.46095 29.7255L2.5291 30.2432L1.23501 25.4135Z" fill="#C5C9D4"/>
<path d="M11.5396 8.4307L12.5396 6.69865C12.8157 6.22036 13.4273 6.05649 13.9056 6.33263C14.3839 6.60877 14.5478 7.22036 14.2716 7.69865L13.2716 9.4307L15.0037 10.4307C15.482 10.7068 15.6459 11.3184 15.3697 11.7967C15.0936 12.275 14.482 12.4389 14.0037 12.1628L12.2716 11.1628L11.2716 12.8948C10.9955 13.3731 10.3839 13.537 9.90562 13.2608C9.42732 12.9847 9.26345 12.3731 9.53959 11.8948L10.5396 10.1628L8.80754 9.16276C8.32925 8.88661 8.16537 8.27502 8.44151 7.79673C8.71766 7.31844 9.32925 7.15456 9.80754 7.4307L11.5396 8.4307Z" fill="#D33A2F"/>
</svg>
