<svg width="32" height="32" viewBox="0 0 32 32" fill="none" xmlns="http://www.w3.org/2000/svg">
<g clip-path="url(#clip0)">
<rect width="32" height="32" fill="white"/>
<path fill-rule="evenodd" clip-rule="evenodd" d="M14.5661 2C14.7648 2.30231 14.9089 2.6407 14.9883 3C15.0167 3.12856 15.0368 3.25979 15.0481 3.39301C15.6062 9.94835 13.0572 14.3419 7.55186 15.9224L7.00131 16.0804L6.45056 15.923C6.30883 15.8826 6.16906 15.8402 6.03125 15.796C6.02082 15.7926 6.01041 15.7893 6 15.7859V28C6 30.2091 7.79086 32 10 32H28.4619L29 31.874C30.7252 31.4299 32 29.8638 32 28V25C32 23.8954 31.1046 23 30 23H27V4C27 2.89543 26.1046 2 25 2H14.5661Z" fill="white"/>
<path d="M10.1678 32L26.8169 3.16293C26.9344 3.41758 27 3.70114 27 4V27.9998C27 29.4803 27.8044 30.7729 29 31.4645L29 32H10.1678Z" fill="#E8F6ED"/>
<path fill-rule="evenodd" clip-rule="evenodd" d="M6 15.7859C6.14792 15.8338 6.2981 15.8795 6.45056 15.923L7 16.08V28C7 29.6569 8.34315 31 10 31H26.9995C26.3638 30.1529 26 29.1078 26 27.9998V4C26 3.44772 25.5523 3 25 3H14.9883C14.9089 2.6407 14.7648 2.30231 14.5661 2H25C26.1046 2 27 2.89543 27 4V23H30C31.1046 23 32 23.8954 32 25V28C32 29.8638 30.7252 31.4299 29 31.874L28.4619 32H10C7.79086 32 6 30.2091 6 28V15.7859ZM28.3339 30.9816C29.8336 30.8156 31 29.544 31 28V25C31 24.4477 30.5523 24 30 24H27V27.9998C27 29.1847 27.5152 30.2492 28.3339 30.9816ZM22.5 7H15.0186C14.9791 7.34166 14.9285 7.67504 14.8668 8H22.5C22.7761 8 23 7.77614 23 7.5C23 7.22386 22.7761 7 22.5 7ZM12.4829 13H22.5C22.7761 13 23 13.2239 23 13.5C23 13.7761 22.7761 14 22.5 14H11.4121C11.799 13.6928 12.156 13.3592 12.4829 13ZM20.5 10H14.3067C14.1746 10.3461 14.0265 10.6795 13.8625 11H20.5C20.7761 11 21 10.7761 21 10.5C21 10.2239 20.7761 10 20.5 10ZM10.5 16H19.5C19.7761 16 20 16.2239 20 16.5C20 16.7761 19.7761 17 19.5 17H10.5C10.2239 17 10 16.7761 10 16.5C10 16.2239 10.2239 16 10.5 16ZM22.5 22H10.5C10.2239 22 10 22.2239 10 22.5C10 22.7761 10.2239 23 10.5 23H22.5C22.7761 23 23 22.7761 23 22.5C23 22.2239 22.7761 22 22.5 22ZM10.5 19H21.5C21.7761 19 22 19.2239 22 19.5C22 19.7761 21.7761 20 21.5 20H10.5C10.2239 20 10 19.7761 10 19.5C10 19.2239 10.2239 19 10.5 19ZM15.5 25H10.5C10.2239 25 10 25.2239 10 25.5C10 25.7761 10.2239 26 10.5 26H15.5C15.7761 26 16 25.7761 16 25.5C16 25.2239 15.7761 25 15.5 25Z" fill="#C5C9D4"/>
<path fill-rule="evenodd" clip-rule="evenodd" d="M1.49389 2.75305L6.55279 0.2236C6.83431 0.0828358 7.16569 0.0828358 7.44721 0.2236L12.5061 2.75302C12.8177 2.90882 13.0258 3.21554 13.0553 3.56265C13.5373 9.22364 11.5188 12.7028 7 14C2.48105 12.7089 0.462616 9.22978 0.94471 3.56273L0.944689 3.56273C0.97422 3.2156 1.18228 2.90885 1.49389 2.75305ZM6.18618 7.95556C5.618 7.34792 6.05 7.81192 5.24091 6.94664C5.10909 6.80567 4.92727 6.71817 4.72727 6.71817C4.325 6.71817 4 7.06574 4 7.49594C4 7.70983 4.08182 7.90428 4.21364 8.04525C5.24318 9.14629 4.68391 8.54619 5.71346 9.64723C5.84527 9.7882 6.02709 9.8757 6.22709 9.8757C6.44755 9.8757 6.64527 9.76876 6.77937 9.60348C7.72709 8.42223 8.93663 6.89458 9.88436 5.71333C9.99345 5.57722 10.0594 5.40222 10.0594 5.20777C10.0594 4.77756 9.73436 4.42999 9.33209 4.42999C9.11163 4.42999 8.91391 4.53694 8.77981 4.70222C7.34368 6.48561 7.32027 6.54098 6.18618 7.95556Z" fill="#19AB4F"/>
</g>
<defs>
<clipPath id="clip0">
<rect width="32" height="32" fill="white"/>
</clipPath>
</defs>
</svg>
