<svg width="32" height="32" viewBox="0 0 32 32" fill="none" xmlns="http://www.w3.org/2000/svg">
<rect width="32" height="32" fill="white"/>
<path d="M3.11873 7.36073L15.0077 0.567011C15.6226 0.215659 16.3774 0.215659 16.9923 0.567011L28.8246 7.32833C29.537 7.73544 29.9285 8.53641 29.8121 9.34866C28.6911 17.1675 27.4204 22.0512 26 24C23.781 27.0877 20.4548 29.7544 16 32C12.4935 30.9123 9.16734 28.2456 6.00002 24C4.12597 21.3285 2.83293 16.4271 2.12089 9.29591C2.04249 8.51046 2.43338 7.75236 3.11873 7.36073Z" fill="white"/>
<path fill-rule="evenodd" clip-rule="evenodd" d="M24.2146 7.65407L26.6923 9.09935C27.0419 9.30333 27.2341 9.69801 27.1791 10.0991C26.2617 16.7841 25.2182 20.9456 24.0487 22.5837C22.2624 25.121 19.5849 27.3124 15.9988 29.1577C13.3874 28.3308 10.9002 26.3932 8.52356 23.3452L24.2146 7.65407Z" fill="#FBF0EA"/>
<path fill-rule="evenodd" clip-rule="evenodd" d="M15.0077 0.567011L3.11873 7.36073C2.43338 7.75236 2.04249 8.51046 2.12089 9.29591C2.83293 16.4271 4.12597 21.3285 6.00002 24C9.16734 28.2456 12.4935 30.9123 16 32C20.4548 29.7544 23.781 27.0877 26 24C27.4204 22.0512 28.6911 17.1675 29.8121 9.34866C29.9285 8.53641 29.537 7.73544 28.8246 7.32833L16.9923 0.567011C16.3774 0.215659 15.6226 0.215659 15.0077 0.567011ZM28.8222 9.20674C27.7252 16.8581 26.4801 21.6436 25.1919 23.411C23.1272 26.284 20.044 28.7866 15.9163 30.92C12.7745 29.83 9.73787 27.338 6.80155 23.402C5.06786 20.9298 3.81228 16.1705 3.11594 9.19655C3.07674 8.80385 3.27219 8.42479 3.61487 8.22898L15.5039 1.43525C15.8113 1.25958 16.1887 1.25958 16.4962 1.43525L28.3285 8.19657C28.6847 8.40013 28.8804 8.80061 28.8222 9.20674ZM23.2349 22.0026C24.2744 20.5466 25.2941 16.48 26.1884 9.9631L16.5028 4.31311C16.1914 4.13148 15.8064 4.13148 15.495 4.31311L5.78132 9.97943C6.33063 15.9152 7.34968 19.9458 8.7564 21.9936C11.0725 25.1629 13.459 27.1763 15.9153 28.073C19.1717 26.3429 21.6036 24.3198 23.2349 22.0026ZM14.9911 3.44933L5.27745 9.11565C4.9416 9.31157 4.74976 9.68439 4.78556 10.0716C5.34942 16.1644 6.40391 20.3351 7.94902 22.5836C10.4987 26.0725 13.1762 28.2639 15.9989 29.1577C19.5849 27.3124 22.2625 25.121 24.0487 22.5836C25.2183 20.9456 26.2617 16.7841 27.1791 10.0991C27.2342 9.698 27.042 9.30332 26.6923 9.09934L17.0066 3.44933C16.3839 3.08608 15.6139 3.08608 14.9911 3.44933Z" fill="#C5C9D4"/>
<path fill-rule="evenodd" clip-rule="evenodd" d="M18 12C18 10.8954 17.1046 10 16 10C14.8954 10 14 10.8954 14 12V16C14 17.1046 14.8954 18 16 18C17.1046 18 18 17.1046 18 16V12ZM14 21C14 22.1046 14.8954 23 16 23C17.1046 23 18 22.1046 18 21C18 19.8954 17.1046 19 16 19C14.8954 19 14 19.8954 14 21Z" fill="#E06E31"/>
</svg>
