<svg width="32" height="32" viewBox="0 0 32 32" fill="none" xmlns="http://www.w3.org/2000/svg">
<g clip-path="url(#clip0)">
<rect width="32" height="32" fill="white"/>
<path d="M16 32C24.8366 32 32 24.8366 32 16C32 7.16344 24.8366 0 16 0C7.16344 0 0 7.16344 0 16C0 24.8366 7.16344 32 16 32Z" fill="white"/>
<path fill-rule="evenodd" clip-rule="evenodd" d="M15.5845 0.000164283C15.865 -0.0069001 16.0982 0.214747 16.1053 0.495228C16.1123 0.775708 15.8906 1.00881 15.6101 1.01587C13.6017 1.06645 11.6561 1.51281 9.85901 2.31989C9.60302 2.43486 9.30227 2.32059 9.18727 2.06465C9.07228 1.80872 9.18658 1.50805 9.44257 1.39308C11.3621 0.530978 13.4406 0.0541487 15.5845 0.000164283ZM27.1028 5.18038C27.2973 4.97815 27.2911 4.65656 27.0888 4.46207C25.562 2.99412 23.7586 1.8396 21.7817 1.07291C21.52 0.971446 21.2256 1.10124 21.1242 1.36282C21.0227 1.6244 21.1525 1.91871 21.4141 2.02018C23.2652 2.73802 24.9542 3.8193 26.3843 5.1944C26.5866 5.38888 26.9083 5.3826 27.1028 5.18038ZM32 15.7916C32.0035 16.0722 31.7789 16.3025 31.4983 16.306C31.2177 16.3095 30.9873 16.085 30.9838 15.8044C30.9584 13.7946 30.5369 11.8442 29.7533 10.0383C29.6416 9.78095 29.7597 9.48177 30.0172 9.3701C30.2746 9.25843 30.5739 9.37656 30.6856 9.63396C31.5226 11.5629 31.9729 13.6464 32 15.7916ZM26.668 27.2437C26.8677 27.4408 27.1894 27.4387 27.3866 27.239C28.8747 25.7319 30.053 23.9441 30.8458 21.9783C30.9507 21.718 30.8248 21.422 30.5645 21.3171C30.3042 21.2122 30.0082 21.3381 29.9032 21.5983C29.1609 23.439 28.0573 25.1135 26.6633 26.5253C26.4662 26.7249 26.4683 27.0466 26.668 27.2437ZM15.4868 31.492C15.4868 31.7726 15.7143 32 15.995 32C18.1421 32 20.2311 31.5768 22.17 30.7656C22.4289 30.6572 22.5509 30.3596 22.4426 30.1008C22.3342 29.842 22.0366 29.72 21.7777 29.8283C19.9625 30.5878 18.0068 30.984 15.995 30.984C15.7143 30.984 15.4868 31.2114 15.4868 31.492ZM5.03046 5.03519C4.82567 4.84336 4.50411 4.85383 4.31223 5.05858C2.86396 6.60399 1.73288 8.42177 0.99206 10.4088C0.894041 10.6716 1.02775 10.9642 1.29072 11.0622C1.55368 11.1602 1.84631 11.0265 1.94433 10.7636C2.63793 8.90329 3.69722 7.20088 5.05385 5.75325C5.24573 5.54851 5.23526 5.22702 5.03046 5.03519ZM0.000372678 16.6149C-0.0102724 16.3346 0.208435 16.0987 0.488869 16.088C0.769303 16.0774 1.00527 16.296 1.01591 16.5764C1.09206 18.582 1.56378 20.5217 2.39482 22.3085C2.51314 22.5629 2.40276 22.8651 2.14829 22.9834C1.89382 23.1017 1.59161 22.9913 1.47329 22.7369C0.585602 20.8282 0.0816686 18.7561 0.000372678 16.6149ZM5.17592 27.1033C4.98675 27.3106 5.00144 27.6319 5.20874 27.821C6.77337 29.2485 8.60617 30.3552 10.6038 31.0695C10.868 31.1639 11.1589 31.0264 11.2534 30.7622C11.3479 30.498 11.2103 30.2073 10.946 30.1128C9.07578 29.444 7.35937 28.4076 5.89378 27.0705C5.68648 26.8814 5.36509 26.8961 5.17592 27.1033Z" fill="#C5C9D4"/>
<path fill-rule="evenodd" clip-rule="evenodd" d="M13.764 5.64589L8.70505 8.17534C7.14699 8.95437 6.10666 10.4882 5.9591 12.2239C5.32479 19.6803 8.40535 24.9902 14.9011 26.8461L16.0026 27.1608L17.1037 26.8447C23.5956 24.981 26.6751 19.673 26.0409 12.2234C25.8932 10.4878 24.8529 8.95427 23.295 8.17532L18.2361 5.64588C16.8284 4.94207 15.1716 4.94207 13.764 5.64589ZM9.94473 12.5627C9.97424 12.2156 10.1823 11.9089 10.4939 11.7531L15.5528 9.2236C15.8343 9.08284 16.1657 9.08284 16.4472 9.2236L21.5062 11.753C21.8177 11.9088 22.0258 12.2155 22.0554 12.5627C22.5373 18.2236 20.5188 21.7028 16 23C11.4811 21.7089 9.46264 18.2298 9.94473 12.5627Z" fill="#168CCA" fill-opacity="0.1"/>
<path fill-rule="evenodd" clip-rule="evenodd" d="M15.5528 9.22361L10.4939 11.7531C10.1823 11.9089 9.97422 12.2156 9.94471 12.5627C9.46262 18.2298 11.481 21.7089 16 23C20.5188 21.7028 22.5373 18.2237 22.0553 12.5627C22.0258 12.2156 21.8177 11.9088 21.5061 11.753L16.4472 9.22361C16.1657 9.08285 15.8343 9.08285 15.5528 9.22361ZM16 21.9556L15.9994 21.9558C13.1014 21.0416 11.4443 19.1003 10.9977 16H16V21.9556ZM16 16V10.118L21.0589 12.6475C21.1645 13.8875 21.1458 15.0036 21.0018 16H16Z" fill="#168CCA"/>
</g>
<defs>
<clipPath id="clip0">
<rect width="32" height="32" fill="white"/>
</clipPath>
</defs>
</svg>
