<svg width="32" height="33" viewBox="0 0 32 33" fill="none" xmlns="http://www.w3.org/2000/svg">
<rect width="32" height="32" fill="white"/>
<path fill-rule="evenodd" clip-rule="evenodd" d="M19.8962 16.6302C23.5761 16.6302 26.5593 13.647 26.5593 9.96713C26.5593 6.28723 23.5761 3.30408 19.8962 3.30408C16.2163 3.30408 13.2332 6.28723 13.2332 9.96713C13.2332 13.647 16.2163 16.6302 19.8962 16.6302ZM29.0081 19.7951C29.9623 19.2668 31.1638 19.6003 31.7091 20.5448C32.2738 21.5228 31.9492 22.7341 31.0018 23.2811L16.0848 31.7013C15.3967 32.0897 14.5833 32.1909 13.821 31.9831L5.97773 29.6025C5.83322 30.565 5.0028 31.303 4 31.303H2C0.89543 31.303 0 30.4076 0 29.303V19.303C0 18.1984 0.89543 17.303 2 17.303H4C5.10457 17.303 6 18.1984 6 19.303H11C12.6569 19.303 14 20.6461 14 22.303H20C20.903 22.303 21.6662 22.9014 21.9147 23.7233L29.0081 19.7951Z" fill="white"/>
<path fill-rule="evenodd" clip-rule="evenodd" d="M22.7944 4L15.9613 15.3721C17.0687 16.1924 18.4394 16.6775 19.9233 16.6775C23.6032 16.6775 26.5864 13.6944 26.5864 10.0145C26.5864 7.36259 25.0372 5.07253 22.7944 4ZM11.1875 18.6659L4.10543 25.748L1 29.7169C1.36918 30.0698 1.84623 30.201 2.43115 30.1105C2.54954 30.0922 2.70494 30.0953 2.88542 30.099C3.37691 30.109 4.05438 30.1229 4.67688 29.7169C4.86238 29.596 5.05993 29.2081 5.26953 28.5534L13.7444 31.3346C14.5066 31.5424 15.3201 31.4411 16.0081 31.0527L30.9252 22.6325C31.8725 22.0856 32.1971 20.8742 31.6324 19.8962C31.0871 18.9517 29.8856 18.6182 28.9315 19.1466L21.838 23.0748C21.5896 22.2529 20.8263 21.6544 19.9233 21.6544H13.9233C13.9233 20.0866 12.7206 18.7997 11.1875 18.6659Z" fill="#E8F6ED"/>
<path fill-rule="evenodd" clip-rule="evenodd" d="M17.1359 1.4493C16.8464 1.54685 16.7192 1.88181 16.8634 2.15107C16.9801 2.36892 17.2376 2.46938 17.4728 2.39335C17.6621 2.33216 17.878 2.26556 18.0278 2.22897C20.653 1.58801 23.5395 2.29274 25.5899 4.34315C28.2257 6.97901 28.6377 10.9966 26.8259 14.0644L26.7368 13.9753C26.5415 13.7801 26.2249 13.7801 26.0297 13.9753C25.9634 14.0416 25.9171 14.1251 25.896 14.2164L25.5246 15.8261C25.4625 16.0952 25.6302 16.3636 25.8993 16.4257C25.9733 16.4428 26.0502 16.4428 26.1242 16.4257L27.7338 16.0543C28.0029 15.9922 28.1707 15.7237 28.1086 15.4547C28.0875 15.3633 28.0412 15.2798 27.975 15.2135L27.5535 14.7921C29.7445 11.3149 29.3256 6.6647 26.297 3.63604C23.9241 1.26315 20.5558 0.492268 17.5362 1.32339C17.4263 1.35363 17.2803 1.40063 17.1359 1.4493ZM22.9993 17.8444C23.1447 18.1148 23.0147 18.4509 22.7228 18.546C22.459 18.632 22.1558 18.7253 21.9456 18.7733C19.0275 19.4398 15.8418 18.6367 13.5691 16.364C10.5404 13.3353 10.1216 8.6851 12.3125 5.20795L11.8409 4.73633C11.6456 4.54106 11.6456 4.22448 11.8409 4.02922C11.9072 3.96296 11.9907 3.91665 12.082 3.89558L13.8175 3.49509C14.0866 3.43299 14.355 3.60078 14.4171 3.86985C14.4342 3.94384 14.4342 4.02073 14.4171 4.09471L14.0166 5.83016C13.9545 6.09923 13.6861 6.26702 13.417 6.20493C13.3257 6.18386 13.2421 6.13755 13.1759 6.07129L13.0402 5.93558C11.2283 9.00339 11.6403 13.021 14.2762 15.6569C16.2682 17.6489 19.0495 18.3708 21.6136 17.8225C21.8252 17.7772 22.1428 17.6822 22.3959 17.6023C22.6291 17.5288 22.8835 17.629 22.9993 17.8444ZM2 16.75H4C5.10457 16.75 6 17.6454 6 18.75H11C12.6569 18.75 14 20.0931 14 21.75H20C20.903 21.75 21.6662 22.3484 21.9147 23.1703L29.0081 19.2421C29.9623 18.7138 31.1638 19.0472 31.7091 19.9918C32.2738 20.9698 31.9492 22.1811 31.0018 22.7281L16.0848 31.1483C15.3967 31.5367 14.5833 31.6379 13.821 31.4301L5.97773 29.0495C5.83322 30.012 5.0028 30.75 4 30.75H2C0.89543 30.75 0 29.8546 0 28.75V18.75C0 17.6454 0.89543 16.75 2 16.75ZM6 27.9888V19.75H11C12.1046 19.75 13 20.6454 13 21.75V22.75H20C20.5523 22.75 21 23.1977 21 23.75C21 24.3023 20.5523 24.75 20 24.75H9.5C9.22386 24.75 9 24.9739 9 25.25C9 25.5261 9.22386 25.75 9.5 25.75H20C20.9101 25.75 21.6782 25.1421 21.9205 24.3102L29.4926 20.117C29.9697 19.8528 30.5704 20.0195 30.8608 20.5224C31.1316 20.9915 30.9709 21.5912 30.4936 21.8668L15.5932 30.2774C15.1345 30.5364 14.5922 30.6039 14.084 30.4653L6 27.9888ZM1 18.75C1 18.1977 1.44772 17.75 2 17.75H4C4.55228 17.75 5 18.1977 5 18.75V28.75C5 29.3023 4.55228 29.75 4 29.75H2C1.44772 29.75 1 29.3023 1 28.75V18.75Z" fill="#C5C9D4"/>
<path fill-rule="evenodd" clip-rule="evenodd" d="M23.8635 10.284C24.7991 9.16902 24.6537 7.50675 23.5387 6.5712C22.4702 5.67458 20.8525 6.07635 19.9464 7.76184C19.0442 5.67458 17.4214 5.67165 16.352 6.56894C15.2371 7.5045 15.0916 9.16676 16.0272 10.2817L16.5061 10.8524L19.9463 14.9523L23.3865 10.8524L23.8635 10.284ZM4 27.9523C4 28.5046 3.55228 28.9523 3 28.9523C2.44772 28.9523 2 28.5046 2 27.9523C2 27.4 2.44772 26.9523 3 26.9523C3.55228 26.9523 4 27.4 4 27.9523Z" fill="#19AB4F"/>
</svg>
