<svg width="32" height="32" viewBox="0 0 32 32" fill="none" xmlns="http://www.w3.org/2000/svg">
<g clip-path="url(#clip0)">
<rect width="32" height="32" fill="white"/>
<path fill-rule="evenodd" clip-rule="evenodd" d="M30.0287 26H21.7063L20.5432 21.9438L23.0384 1.62196L30.0287 26ZM1 26V21.0363L9 2.18952V18.6805L16 2.18952V26H1ZM25.129 32C24.9987 32.0128 24.8692 32.0125 24.742 32H25.129Z" fill="#E8F5FC"/>
<path fill-rule="evenodd" clip-rule="evenodd" d="M30.0287 26H31C31.5523 26 32 26.4477 32 27V30C32 31.1046 31.1046 32 30 32H25.129C24.9987 32.0127 24.8692 32.0125 24.7419 32H14H10H7H3H2C0.89543 32 0 31.1046 0 30V27C0 26.4477 0.447715 26 1 26V2C1 0.895432 1.89543 1.50222e-06 3 1.50222e-06H7C7.59735 1.50222e-06 8.13353 0.261879 8.5 0.677089C8.86647 0.261879 9.40265 1.50222e-06 10 1.50222e-06H14C14.9491 1.50222e-06 15.7437 0.661054 15.9487 1.54783C16.1537 1.37923 16.3959 1.24892 16.6673 1.17109L20.5123 0.0685397C21.5741 -0.235921 22.6817 0.378008 22.9861 1.43979L30.0287 26ZM28.9884 26H22.7466L16.2573 3.36925C16.1051 2.83836 16.412 2.28458 16.9429 2.13235L20.788 1.0298C21.3189 0.877571 21.8726 1.18454 22.0249 1.71543L28.9884 26ZM16 6.09992L21.7063 26H16V6.09992ZM8 26H2V2C2 1.44772 2.44772 1 3 1H7C7.55228 1 8 1.44772 8 2V26ZM9 26H15V2C15 1.44772 14.5523 1 14 1H10C9.44771 1 9 1.44772 9 2V26ZM1 30V27H31V30C31 30.5523 30.5523 31 30 31H2C1.44772 31 1 30.5523 1 30Z" fill="#C5C9D4"/>
<path fill-rule="evenodd" clip-rule="evenodd" d="M6 5C6 4.44772 5.55228 4 5 4C4.44772 4 4 4.44772 4 5V13C4 13.5523 4.44772 14 5 14C5.55228 14 6 13.5523 6 13V5ZM4 23C4 23.5523 4.44772 24 5 24C5.55228 24 6 23.5523 6 23C6 22.4477 5.55228 22 5 22C4.44772 22 4 22.4477 4 23ZM12 4C12.5523 4 13 4.44772 13 5V13C13 13.5523 12.5523 14 12 14C11.4477 14 11 13.5523 11 13V5C11 4.44772 11.4477 4 12 4ZM11 23C11 23.5523 11.4477 24 12 24C12.5523 24 13 23.5523 13 23C13 22.4477 12.5523 22 12 22C11.4477 22 11 22.4477 11 23ZM19.6924 4.46486C20.2232 4.31263 20.777 4.61959 20.9293 5.15048L23.1343 12.8406C23.2866 13.3715 22.9796 13.9252 22.4487 14.0775C21.9178 14.2297 21.3641 13.9227 21.2118 13.3919L19.0067 5.70176C18.8545 5.17087 19.1615 4.61709 19.6924 4.46486ZM23.9682 23.0045C24.1204 23.5354 24.6742 23.8423 25.2051 23.6901C25.736 23.5379 26.043 22.9841 25.8907 22.4532C25.7385 21.9223 25.1847 21.6153 24.6538 21.7676C24.1229 21.9198 23.816 22.4736 23.9682 23.0045Z" fill="#1AA0E8"/>
</g>
<defs>
<clipPath id="clip0">
<rect width="32" height="32" fill="white"/>
</clipPath>
</defs>
</svg>
