<svg width="32" height="32" viewBox="0 0 32 32" fill="none" xmlns="http://www.w3.org/2000/svg">
<rect width="32" height="32" fill="white"/>
<path d="M2 22.4464V4C2 2.89543 2.89543 2 4 2H27.8269C27.8031 2.02564 27.7797 2.0517 27.7567 2.07818C27.4188 2.47216 26.958 3.00986 26.3005 3.77723C25.3948 4.83432 25.3948 4.83432 24.4153 5.9776C23.984 6.481 23.6059 6.92224 23.2689 7.31552L22.31 6.35662C21.732 5.77857 20.9455 5.44444 20.1111 5.44444C18.392 5.44444 17 6.8364 17 8.55556C17 9.38996 17.3341 10.1764 17.9122 10.7545L21.2455 14.0878C21.8236 14.6659 22.61 15 23.4444 15C24.3605 15 25.213 14.597 25.7988 13.9218C26.4098 13.2099 27.1828 12.3079 29.1402 10.0236C29.4563 9.65476 29.7414 9.32197 30 9.02025V28C30 29.1046 29.1046 30 28 30H8.58942C9.13847 29.3596 9.90261 28.4679 11.1402 27.0236C13.0969 24.7402 13.8698 23.8383 14.4727 23.1357C14.9527 22.5757 15.2222 21.8638 15.2222 21.1111C15.2222 19.392 13.8303 18 12.1111 18C11.1951 18 10.3425 18.403 9.75672 19.0782C9.41884 19.4722 8.95803 20.0099 8.30052 20.7772C7.39482 21.8343 7.39482 21.8343 6.41531 22.9776C5.98401 23.481 5.60594 23.9222 5.26894 24.3155L4.31005 23.3566C3.732 22.7786 2.94551 22.4444 2.11111 22.4444C2.07392 22.4444 2.03688 22.4451 2 22.4464Z" fill="white"/>
<path d="M8.58936 30C9.13841 29.3596 9.90255 28.4679 11.1402 27.0236C13.0968 24.7402 13.8698 23.8383 14.4726 23.1357C14.9527 22.5757 15.2222 21.8638 15.2222 21.1111C15.2222 19.937 14.5729 18.9154 13.6135 18.3857L19.5784 12.4208L21.2454 14.0878C21.8235 14.6659 22.61 15 23.4444 15C24.3604 15 25.213 14.597 25.7988 13.9218C26.4097 13.2099 27.1827 12.3079 29.1402 10.0236C29.4562 9.65476 29.7414 9.32197 29.9999 9.02025V28C29.9999 29.1046 29.1045 30 27.9999 30H8.58936H8.58936Z" fill="#E8F7F7"/>
<path fill-rule="evenodd" clip-rule="evenodd" d="M2 22.4464V4C2 2.89543 2.89543 2 4 2H27.8269C27.8031 2.02564 27.7797 2.0517 27.7567 2.07818L26.9665 3H16.5V15.5H29V10.1872L29.1402 10.0236L30 9.02025V28C30 29.1046 29.1046 30 28 30H8.58942L9.44656 29H15.5V16.5H3V22.5742C2.71536 22.4892 2.41645 22.4444 2.11111 22.4444C2.07392 22.4444 2.03688 22.4451 2 22.4464ZM3 15.5H15.5V3H4C3.44772 3 3 3.44772 3 4V15.5ZM16.5 16.5H29V28C29 28.5523 28.5523 29 28 29H16.5V16.5Z" fill="#C5C9D4"/>
<path fill-rule="evenodd" clip-rule="evenodd" d="M26.6721 6.41743C25.5252 7.75612 24.2904 9.19743 23.3819 10.2569L20.8958 7.77083C20.6944 7.56944 20.4167 7.44444 20.1111 7.44444C19.4965 7.44444 19 7.94097 19 8.55556C19 8.86111 19.125 9.13889 19.3264 9.34028L22.6597 12.6736C22.8611 12.875 23.1389 13 23.4444 13C23.7812 13 24.0833 12.8472 24.2882 12.6111C25.012 11.7676 26.3162 10.2455 27.6206 8.72331C28.9256 7.20038 30.2307 5.67728 30.9549 4.83333C31.1215 4.63889 31.2222 4.38889 31.2222 4.11111C31.2222 3.49653 30.7257 3 30.1111 3C29.7743 3 29.4722 3.15278 29.2674 3.38889C28.681 4.07271 27.7128 5.20283 26.6721 6.41743ZM8.67131 23.4184C7.52462 24.7568 6.29015 26.1977 5.38194 27.2569L2.89583 24.7708C2.69444 24.5694 2.41667 24.4444 2.11111 24.4444C1.49653 24.4444 1 24.941 1 25.5556C1 25.8611 1.125 26.1389 1.32639 26.3403L4.65972 29.6736C4.86111 29.875 5.13889 30 5.44444 30C5.78125 30 6.08333 29.8472 6.28819 29.6111C7.01211 28.7674 8.31668 27.245 9.62128 25.7225C10.9261 24.1998 12.2309 22.6771 12.9549 21.8333C13.1215 21.6389 13.2222 21.3889 13.2222 21.1111C13.2222 20.4965 12.7257 20 12.1111 20C11.7743 20 11.4722 20.1528 11.2674 20.3889C10.6808 21.0729 9.71224 22.2034 8.67131 23.4184Z" fill="#42BFC2"/>
</svg>
