<svg width="32" height="32" viewBox="0 0 32 32" fill="none" xmlns="http://www.w3.org/2000/svg">
<rect width="32" height="32" fill="white"/>
<path d="M31.9031 21.675C31.967 22.1074 32 22.5498 32 23C32 27.9706 27.9706 32 23 32C21.5124 32 20.109 31.6391 18.8728 31H2C0.89543 31 0 30.1046 0 29V22C0 21.4027 0.261877 20.8665 0.677088 20.5C0.261877 20.1335 0 19.5973 0 19V12C0 11.4027 0.261877 10.8665 0.677088 10.5C0.261877 10.1335 0 9.59735 0 9V2C0 0.89543 0.89543 0 2 0H27C28.1046 0 29 0.89543 29 2V9C29 9.59735 28.7381 10.1335 28.3229 10.5C28.7381 10.8665 29 11.4027 29 12V15.7832C28.8835 15.8499 28.7712 15.9242 28.664 16.0054C30.3748 17.3925 31.5666 19.3944 31.9031 21.6749L31.9031 21.675Z" fill="white"/>
<path fill-rule="evenodd" clip-rule="evenodd" d="M5 31H18.8728C15.9784 29.5038 14 26.4829 14 23C14 18.0294 18.0294 14 23 14C24.8783 14 26.6222 14.5754 28.0651 15.5595L28.0902 15.5302C28.251 15.3449 28.4303 15.1785 28.6246 15.0334V12C28.6246 11.4027 28.3627 10.8665 27.9475 10.5C28.3627 10.1335 28.6246 9.59735 28.6246 9V2C28.6246 1.1273 28.0656 0.385156 27.2862 0.11203L21.5774 10H18.3509L12.5774 20H11.3509L5 31ZM27.8346 30.5926C27.7224 30.678 27.6008 30.7518 27.4718 30.8122C27.5946 30.7418 27.7155 30.6685 27.8346 30.5926Z" fill="#E8F6ED"/>
<path fill-rule="evenodd" clip-rule="evenodd" d="M29 15.7832C28.6958 15.9573 28.421 16.1826 28.1883 16.4508L27.957 16.7204C26.5941 15.6431 24.8722 15 23 15C18.5817 15 15 18.5817 15 23C15 27.4183 18.5817 31 23 31C27.4183 31 31 27.4183 31 23C31 22.9105 30.9985 22.8213 30.9956 22.7324L31.9031 21.675C31.967 22.1074 32 22.5498 32 23C32 27.9706 27.9706 32 23 32C21.5124 32 20.109 31.6391 18.8728 31H2C0.89543 31 0 30.1046 0 29V22C0 21.4027 0.261877 20.8665 0.677088 20.5C0.261877 20.1335 0 19.5973 0 19V12C0 11.4027 0.261877 10.8665 0.677088 10.5C0.261877 10.1335 0 9.59735 0 9V2C0 0.89543 0.89543 0 2 0H27C28.1046 0 29 0.89543 29 2V9C29 9.59735 28.7381 10.1335 28.3229 10.5C28.7381 10.8665 29 11.4027 29 12V15.7832ZM2 1C1.44772 1 1 1.44772 1 2V9C1 9.55229 1.44772 10 2 10H27C27.5523 10 28 9.55229 28 9V2C28 1.44772 27.5523 1 27 1H2ZM14 23C14 25.8273 15.3037 28.35 17.3427 30H2C1.44772 30 1 29.5523 1 29V22C1 21.4477 1.44772 21 2 21H14.223C14.0771 21.6432 14 22.3126 14 23ZM14.5121 20C15.7476 16.5044 19.0813 14 23 14C24.8501 14 26.5699 14.5583 28 15.5155V12C28 11.4477 27.5523 11 27 11H2C1.44772 11 1 11.4477 1 12V19C1 19.5523 1.44772 20 2 20H14.5121ZM11.5 5H4.5C4.22386 5 4 5.22386 4 5.5C4 5.77614 4.22386 6 4.5 6H11.5C11.7761 6 12 5.77614 12 5.5C12 5.22386 11.7761 5 11.5 5ZM4.5 15H11.5C11.7761 15 12 15.2239 12 15.5C12 15.7761 11.7761 16 11.5 16H4.5C4.22386 16 4 15.7761 4 15.5C4 15.2239 4.22386 15 4.5 15ZM11.5 25H4.5C4.22386 25 4 25.2239 4 25.5C4 25.7761 4.22386 26 4.5 26H11.5C11.7761 26 12 25.7761 12 25.5C12 25.2239 11.7761 25 11.5 25ZM14.5 5H15.5C15.7761 5 16 5.22386 16 5.5C16 5.77614 15.7761 6 15.5 6H14.5C14.2239 6 14 5.77614 14 5.5C14 5.22386 14.2239 5 14.5 5ZM16 15.5C16 15.2239 15.7761 15 15.5 15H14.5C14.2239 15 14 15.2239 14 15.5C14 15.7761 14.2239 16 14.5 16H15.5C15.7761 16 16 15.7761 16 15.5ZM18.5 5H20.5C20.7761 5 21 5.22386 21 5.5C21 5.77614 20.7761 6 20.5 6H18.5C18.2239 6 18 5.77614 18 5.5C18 5.22386 18.2239 5 18.5 5ZM24.5 5H23.5C23.2239 5 23 5.22386 23 5.5C23 5.77614 23.2239 6 23.5 6H24.5C24.7761 6 25 5.77614 25 5.5C25 5.22386 24.7761 5 24.5 5Z" fill="#C5C9D4"/>
<path d="M23.1574 25.3843C24.89 23.3635 28.4662 19.199 29.6989 17.7615C29.9037 17.5254 30.2058 17.3727 30.5426 17.3727C31.1572 17.3727 31.6537 17.8692 31.6537 18.4838C31.6537 18.7615 31.5531 19.0115 31.3864 19.206C29.9385 20.8935 25.5116 26.051 24.0637 27.7385C23.8588 27.9746 23.5567 28.1274 23.2199 28.1274C22.9144 28.1274 22.6366 28.0024 22.4352 27.801C20.8623 26.2281 19.9677 25.3334 18.3947 23.7605C18.1934 23.5591 18.0684 23.2814 18.0684 22.9758C18.0684 22.3612 18.5649 21.8647 19.1795 21.8647C19.485 21.8647 19.7628 21.9897 19.9642 22.1911C21.2003 23.4272 22.2894 24.5162 23.1574 25.3843Z" fill="#19AB4F"/>
</svg>
