<svg width="32" height="32" viewBox="0 0 32 32" fill="none" xmlns="http://www.w3.org/2000/svg">
<rect width="32" height="32" fill="white"/>
<path d="M21.0428 2.89682C28.9768 5.57276 33.5668 13.9934 31.3693 22.1944C31.2958 22.4688 31.2156 22.7396 31.1289 23.0067C31.0242 23.3291 30.6781 23.5056 30.3557 23.4009C30.1809 23.3442 30.0407 23.212 29.9737 23.0409C29.8075 22.6214 29.6531 22.3081 29.503 22.0821C28.788 21.0048 27.6924 20.1739 26.3453 19.8129C24.726 19.3791 23.0818 19.715 21.8013 20.5963C21.4582 20.8324 20.9888 20.7457 20.7527 20.4027C20.7057 20.3345 20.6703 20.259 20.6479 20.1792C20.6317 20.1216 20.6155 20.0684 20.5991 20.0197C20.0813 18.4779 18.9458 17.1707 17.4063 16.4684L15.594 23.2322C16.1034 23.5819 16.3628 24.2266 16.1938 24.8574L15.2879 28.2382C14.5732 30.9055 11.8315 32.4884 9.16416 31.7737C7.90373 31.436 6.84754 30.6319 6.18405 29.5386C5.74544 28.8158 5.56286 27.781 5.57956 26.4035C5.5889 25.6328 6.22122 25.0155 6.99201 25.0248C7.10832 25.0263 7.22399 25.0422 7.33633 25.0723C8.03534 25.2596 8.53507 25.8746 8.57541 26.5971C8.62726 27.5263 8.80065 28.1038 9.01043 28.3245C9.26149 28.5886 9.57946 28.7792 9.94062 28.8759C11.0075 29.1618 12.1042 28.5287 12.3901 27.4617L13.296 24.081C13.465 23.4501 14.012 23.0215 14.628 22.9734L16.4619 16.1294C14.2723 15.5427 12.041 16.2462 10.5752 17.7739C10.3786 17.9787 10.0533 17.9854 9.84844 17.7889C9.79453 17.7371 9.75255 17.6743 9.72542 17.6047C9.70871 17.5619 9.69251 17.5226 9.67678 17.4867C9.02938 16.0087 7.74059 14.8278 6.06083 14.3777C4.60563 13.9878 3.13031 14.2196 1.91687 14.9102C1.79105 14.9819 1.51119 15.1989 1.07729 15.5613C0.855445 15.7465 0.525439 15.7169 0.340175 15.495C0.309846 15.4587 0.284582 15.4185 0.265074 15.3754C0.210145 15.1957 0.210145 14.9775 0.265074 14.7206C0.322718 14.4511 0.387559 14.1815 0.45972 13.9122C2.66256 5.6911 10.8827 0.689237 19.1119 2.37552L19.3782 1.3817C19.5212 0.848237 20.0695 0.531655 20.603 0.674596C21.1364 0.817538 21.453 1.36588 21.3101 1.89934L21.0428 2.89682Z" fill="white"/>
<path d="M10.0919 17.7566C9.75552 15.8683 9.81814 13.878 10.3474 11.9029C11.6672 6.9772 15.5472 3.42119 20.172 2.28284C23.6081 5.5811 25.1902 10.6007 23.8703 15.5263C23.3411 17.5015 22.4002 19.2564 21.1647 20.7235C21.0651 18.1658 19.3229 15.8608 16.7206 15.1635C14.1184 14.4662 11.4571 15.5914 10.0919 17.7566Z" fill="#FEF9EC"/>
<path fill-rule="evenodd" clip-rule="evenodd" d="M21.0428 2.89682C28.9768 5.57276 33.5668 13.9934 31.3693 22.1944C31.2958 22.4688 31.2156 22.7396 31.1289 23.0067C31.0242 23.3291 30.6781 23.5056 30.3557 23.4009C30.1809 23.3442 30.0407 23.212 29.9737 23.0409C29.8075 22.6214 29.6531 22.3081 29.503 22.0821C28.788 21.0048 27.6924 20.1739 26.3453 19.8129C24.726 19.3791 23.0818 19.715 21.8013 20.5963C21.4582 20.8324 20.9888 20.7457 20.7527 20.4027C20.7057 20.3345 20.6703 20.259 20.6479 20.1792C20.6317 20.1216 20.6155 20.0684 20.5991 20.0197C20.0813 18.4779 18.9458 17.1707 17.4063 16.4684L15.594 23.2322C16.1034 23.5819 16.3628 24.2266 16.1938 24.8574L15.2879 28.2382C14.5732 30.9055 11.8315 32.4884 9.16416 31.7737C7.90373 31.436 6.84754 30.6319 6.18405 29.5386C5.74544 28.8158 5.56286 27.781 5.57956 26.4035C5.5889 25.6328 6.22122 25.0155 6.99201 25.0248C7.10832 25.0263 7.22399 25.0422 7.33633 25.0723C8.03534 25.2596 8.53507 25.8746 8.57541 26.5971C8.62726 27.5263 8.80065 28.1038 9.01043 28.3245C9.26149 28.5886 9.57946 28.7792 9.94062 28.8759C11.0075 29.1618 12.1042 28.5287 12.3901 27.4617L13.296 24.081C13.465 23.4501 14.012 23.0215 14.628 22.9734L16.4619 16.1294C14.2723 15.5427 12.041 16.2462 10.5752 17.7739C10.3786 17.9787 10.0533 17.9854 9.84844 17.7889C9.79453 17.7371 9.75255 17.6743 9.72542 17.6047C9.70871 17.5619 9.69251 17.5226 9.67678 17.4867C9.02938 16.0087 7.74059 14.8278 6.06083 14.3777C4.60563 13.9878 3.13031 14.2196 1.91687 14.9102C1.79105 14.9819 1.51119 15.1989 1.07729 15.5613C0.855445 15.7465 0.525439 15.7169 0.340175 15.495C0.309846 15.4587 0.284582 15.4185 0.265074 15.3754C0.210145 15.1957 0.210145 14.9775 0.265074 14.7206C0.322718 14.4511 0.387559 14.1815 0.45972 13.9122C2.66256 5.6911 10.8827 0.689237 19.1119 2.37552L19.3782 1.3817C19.5212 0.848237 20.0695 0.531655 20.603 0.674596C21.1364 0.817538 21.453 1.36588 21.3101 1.89934L21.0428 2.89682ZM19.7968 3.56442C11.8469 1.43425 3.67683 6.1075 1.46828 14.0152C2.93426 13.1963 4.66362 12.9681 6.31964 13.4118C8.0755 13.8823 9.51895 15.0476 10.3584 16.6048C12.0885 15.1259 14.4567 14.5568 16.7207 15.1635C18.9768 15.768 20.7463 17.4366 21.5097 19.593C23.0179 18.6627 24.8501 18.377 26.6041 18.847C28.1537 19.2622 29.4668 20.2193 30.3362 21.529C30.3773 21.5909 30.4179 21.6564 30.4581 21.7256C32.4642 13.7902 27.7288 5.68979 19.7968 3.56442ZM7.57696 26.6528C7.6408 27.7968 7.87705 28.5837 8.28569 29.0135C8.65332 29.4002 9.1287 29.6937 9.6818 29.8419C11.2822 30.2707 12.9272 29.3209 13.356 27.7205L14.2619 24.3398C14.3334 24.0731 14.6075 23.9148 14.8743 23.9863C15.141 24.0577 15.2993 24.3319 15.2278 24.5986L14.322 27.9794C13.7502 30.1132 11.5568 31.3796 9.42298 30.8078C8.38659 30.5301 7.55485 29.8699 7.03894 29.0198C6.71801 28.4909 6.56485 27.6229 6.57948 26.4156C6.58213 26.1971 6.76137 26.0221 6.9799 26.0248C7.01287 26.0252 7.04566 26.0297 7.07752 26.0382C7.35927 26.1137 7.5607 26.3616 7.57696 26.6528Z" fill="#C5C9D4"/>
<path fill-rule="evenodd" clip-rule="evenodd" d="M14.919 4.18077C12.2484 5.935 10.1868 8.63849 9.29478 11.9677C9.26099 12.0938 9.2232 12.2507 9.18142 12.4384C9.08946 12.8516 9.26757 13.2779 9.62612 13.5028L9.9541 13.7085C10.0296 13.7559 10.1132 13.7891 10.2007 13.8063C10.5962 13.8844 10.9802 13.627 11.0583 13.2315C11.1172 12.9331 11.1733 12.6844 11.2266 12.4853C12.1389 9.08054 14.2744 6.3302 17.0337 4.58039C17.0789 4.55174 17.13 4.52017 17.187 4.4857C17.2656 4.43814 17.317 4.35606 17.3254 4.26454C17.34 4.10543 17.2228 3.96461 17.0637 3.95002C16.3262 3.88238 15.5989 3.96643 14.919 4.18077ZM24.3908 17.247C24.5257 16.8764 24.6456 16.4969 24.7496 16.1088C25.6416 12.7796 25.208 9.40753 23.7723 6.55302C23.2805 6.01629 22.6779 5.57256 21.9875 5.26128C21.9084 5.22563 21.8172 5.22943 21.7413 5.27153C21.6088 5.34514 21.5609 5.51229 21.6346 5.64487L21.6346 5.64484C21.6748 5.71725 21.7098 5.78178 21.7394 5.83845C23.2554 8.73412 23.7304 12.1851 22.8177 15.5911C22.6571 16.1905 22.4586 16.7696 22.2255 17.3265C22.919 17.1596 23.653 17.1261 24.3908 17.247Z" fill="#FDCC4A"/>
</svg>
