<svg width="32" height="32" viewBox="0 0 32 32" fill="none" xmlns="http://www.w3.org/2000/svg">
<g clip-path="url(#clip0)">
<rect width="32" height="32" fill="white"/>
<path d="M24.8333 28L20.6508 31.585C20.2315 31.9445 19.6002 31.8959 19.2407 31.4766C19.0854 31.2953 19 31.0645 19 30.8258V28H2C0.89543 28 0 27.1046 0 26V2C0 0.89543 0.89543 0 2 0H30C31.1046 0 32 0.89543 32 2V26C32 27.1046 31.1046 28 30 28H24.8333Z" fill="white"/>
<path d="M31.0653 0.306976C31.627 0.661101 32.0001 1.28698 32.0001 2V26C32.0001 27.1046 31.1047 28 30.0001 28H24.8334L20.6509 31.585C20.2316 31.9445 19.6003 31.8959 19.2408 31.4766C19.0855 31.2953 19.0001 31.0645 19.0001 30.8258V28H3.37231L31.0653 0.306976Z" fill="#F0ECF8"/>
<path fill-rule="evenodd" clip-rule="evenodd" d="M20.6508 31.585L24.8333 28H30C31.1046 28 32 27.1046 32 26V2C32 0.89543 31.1046 0 30 0H2C0.89543 0 0 0.89543 0 2V26C0 27.1046 0.89543 28 2 28H19V30.8258C19 31.0645 19.0854 31.2953 19.2407 31.4766C19.6002 31.8959 20.2315 31.9445 20.6508 31.585ZM24.4634 27L20 30.8258V27H2C1.44772 27 1 26.5523 1 26V2C1 1.44772 1.44772 1 2 1H30C30.5523 1 31 1.44772 31 2V26C31 26.5523 30.5523 27 30 27H24.4634ZM21.5 11C22.8807 11 24 9.88071 24 8.5C24 7.11929 22.8807 6 21.5 6C20.1193 6 19 7.11929 19 8.5C19 9.88071 20.1193 11 21.5 11ZM18 8.5C18 10.433 19.567 12 21.5 12C23.433 12 25 10.433 25 8.5C25 6.567 23.433 5 21.5 5C19.567 5 18 6.567 18 8.5ZM9 17C8.44771 17 8 17.4477 8 18V21C8 21.5523 8.44771 22 9 22H12C12.5523 22 13 21.5523 13 21V18C13 17.4477 12.5523 17 12 17H9ZM12 16H9C7.89543 16 7 16.8954 7 18V21C7 22.1046 7.89543 23 9 23H12C13.1046 23 14 22.1046 14 21V18C14 16.8954 13.1046 16 12 16Z" fill="#C5C9D4"/>
<path fill-rule="evenodd" clip-rule="evenodd" d="M11.5337 12.0026V7.41236L12.364 8.24264C12.7545 8.63316 13.3877 8.63316 13.7782 8.24264C14.1687 7.85212 14.1687 7.21895 13.7782 6.82843L11.2426 4.29289C10.8521 3.90237 10.219 3.90237 9.82843 4.29289L7.29289 6.82843C6.90237 7.21895 6.90237 7.85212 7.29289 8.24264C7.68342 8.63316 8.31658 8.63316 8.70711 8.24264L9.53368 7.41607V12.0026C9.53368 12.5549 9.9814 13.0026 10.5337 13.0026C11.086 13.0026 11.5337 12.5549 11.5337 12.0026ZM23.294 19.76L22.4637 20.5903V16C22.4637 15.4477 22.016 15 21.4637 15C20.9114 15 20.4637 15.4477 20.4637 16V20.5866L19.6371 19.76C19.2466 19.3695 18.6134 19.3695 18.2229 19.76C17.8324 20.1505 17.8324 20.7837 18.2229 21.1742L20.7584 23.7097C21.149 24.1003 21.7821 24.1003 22.1726 23.7097L24.7082 21.1742C25.0987 20.7837 25.0987 20.1505 24.7082 19.76C24.3176 19.3695 23.6845 19.3695 23.294 19.76Z" fill="#6947BF"/>
</g>
<defs>
<clipPath id="clip0">
<rect width="32" height="32" fill="white"/>
</clipPath>
</defs>
</svg>
