<svg width="32" height="32" viewBox="0 0 32 32" fill="none" xmlns="http://www.w3.org/2000/svg">
<rect width="32" height="32" fill="white"/>
<path d="M6.90745 27.5461C6.62009 27.315 6.66724 26.442 6.39917 26.1894L26.1895 6.39906C28.5521 8.90555 30.0001 12.2837 30.0001 16C30.0001 23.732 23.7321 30 16.0001 30C14.5644 30 12.8041 30.4014 11.5001 30C11.3699 29.9599 11.6157 29.3004 11.4871 29.2567C11.4957 29.1723 11.5001 29.0867 11.5001 29C11.5001 27.6193 10.3808 26.5 9.0001 26.5C8.40049 26.5 7.85018 26.7111 7.41944 27.063C7.35675 27.0143 6.96929 27.5959 6.90745 27.5461Z" fill="#F0ECF8"/>
<path fill-rule="evenodd" clip-rule="evenodd" d="M16 0C16.2761 0 16.5 0.223858 16.5 0.5V2.5C16.5 2.77614 16.2761 3 16 3C15.7239 3 15.5 2.77614 15.5 2.5V0.5C15.5 0.223858 15.7239 0 16 0ZM1 16C1 20.4309 2.92116 24.413 5.97593 27.1589C6.08127 27.2536 6.22135 27.3735 6.39618 27.5186L6.39899 27.5209C6.61283 27.6957 6.92792 27.6641 7.10275 27.4502C7.27748 27.2365 7.24896 26.9223 7.03862 26.7435C6.61006 26.3793 6.28473 26.0853 6.06263 25.8615C3.5514 23.331 2 19.8467 2 16C2 11.2432 4.3723 7.04057 7.99832 4.51055C8.32607 4.28187 8.81014 3.99128 9.45055 3.63881C9.71063 3.49565 9.83943 3.19348 9.76259 2.90672C9.75482 2.87772 9.74389 2.84966 9.73 2.82305C9.62514 2.62216 9.37728 2.54431 9.1764 2.64917L9.1764 2.64919C8.6802 2.9082 8.29931 3.1211 8.03374 3.28787C3.80861 5.9412 1 10.6426 1 16ZM13.2192 29.7238C12.9117 29.6619 12.493 29.5536 11.9632 29.399C11.6981 29.3216 11.4199 29.4705 11.3372 29.734L11.3341 29.7445C11.2585 30.0056 11.4089 30.2785 11.67 30.3541L11.6699 30.3541C12.2867 30.5327 12.7721 30.6563 13.1263 30.725C14.0564 30.9055 15.0172 31 16 31C24.2843 31 31 24.2843 31 16C31 10.6817 28.2323 6.00992 24.0586 3.34634C23.7736 3.16445 23.3618 2.93233 22.8231 2.65C22.7963 2.63598 22.7681 2.62496 22.739 2.61714C22.5205 2.55861 22.2959 2.68825 22.2374 2.90672C22.1606 3.19349 22.2893 3.49569 22.5494 3.63895C23.1976 3.99606 23.6873 4.2905 24.0185 4.52229C27.635 7.05356 30 11.2506 30 16C30 23.732 23.732 30 16 30C15.0479 30 14.118 29.905 13.2192 29.7238ZM20.613 1.24178C20.6844 0.975049 20.5262 0.700881 20.2594 0.62941C19.9927 0.557939 19.7185 0.71623 19.647 0.982963L19.1294 2.91481C19.0579 3.18155 19.2162 3.45572 19.483 3.52719C19.7497 3.59866 20.0239 3.44037 20.0953 3.17363L20.613 1.24178ZM11.7406 0.62941C12.0073 0.557939 12.2815 0.71623 12.353 0.982963L12.8706 2.91481C12.9421 3.18155 12.7838 3.45572 12.517 3.52719C12.2503 3.59866 11.9761 3.44037 11.9047 3.17363L11.387 1.24178C11.3156 0.975049 11.4738 0.700881 11.7406 0.62941ZM8 29C8 29.5523 8.44772 30 9 30C9.55229 30 10 29.5523 10 29C10 28.4477 9.55229 28 9 28C8.44772 28 8 28.4477 8 29Z" fill="#C5C9D4"/>
<path d="M17.0001 12.4097V22C17.0001 22.5523 16.5523 23 16.0001 23C15.4478 23 15.0001 22.5523 15.0001 22V12.4134L12.4664 14.9471C12.0759 15.3376 11.4427 15.3376 11.0522 14.9471C10.6616 14.5566 10.6616 13.9234 11.0522 13.5329L15.2948 9.29025C15.6853 8.89973 16.3185 8.89973 16.709 9.29025L20.9517 13.5329C21.3422 13.9234 21.3422 14.5566 20.9517 14.9471C20.5611 15.3376 19.928 15.3376 19.5375 14.9471L17.0001 12.4097Z" fill="#6947BF"/>
</svg>
