<svg width="32" height="32" viewBox="0 0 32 32" fill="none" xmlns="http://www.w3.org/2000/svg">
<rect width="32" height="32" fill="white"/>
<path fill-rule="evenodd" clip-rule="evenodd" d="M17 25C17 22.7792 18.2066 20.8401 20 19.8027V17C20 15.3431 21.3432 14 23 14C24.6569 14 26 15.3431 26 17V19.8027C26.3585 20.01 26.6934 20.2534 27 20.5278V8.72551C27 7.62094 26.1046 6.72551 25 6.72551H23.9697L3.4895 27.2057V28.9087C3.4895 30.0133 4.38493 30.9087 5.4895 30.9087H21.9517C19.1378 30.4129 17 27.9561 17 25ZM25 30.9087C25.8729 30.9087 26.6152 30.3496 26.8882 29.5699C26.0934 30.2467 25.1199 30.7199 24.0484 30.9087H25Z" fill="#FBF0EA"/>
<path fill-rule="evenodd" clip-rule="evenodd" d="M30 25C30 22.6213 28.8135 20.5196 27 19.2547V7.27521C27 6.65761 26.7147 6.07465 26.2269 5.69577L19.4361 0.42056C19.0852 0.147971 18.6535 0 18.2092 0H5C3.89543 0 3 0.89543 3 2V29C3 30.1046 3.89543 31 5 31H19.3924C20.446 31.6348 21.6803 32 23 32C26.866 32 30 28.866 30 25ZM26 7.27521V19.8027C27.7934 20.8401 29 22.7792 29 25C29 28.3137 26.3137 31 23 31C19.6863 31 17 28.3137 17 25C17 22.7792 18.2066 20.8401 20 19.8027V18.6736C17.6351 19.7971 16 22.2076 16 25C16 26.9587 16.8045 28.7295 18.101 30H5C4.44772 30 4 29.5523 4 29V2C4 1.44772 4.44772 1 5 1H18.2092C18.4314 1 18.6472 1.07399 18.8227 1.21028L19 1.34804V5C19 6.10457 19.8954 7 21 7H25.9614C25.9867 7.08853 26 7.18106 26 7.27521ZM20 2.12486V5C20 5.55228 20.4477 6 21 6H24.9885L20 2.12486ZM7 18.5C7 18.7761 7.22386 19 7.5 19H15.5C15.7761 19 16 18.7761 16 18.5C16 18.2239 15.7761 18 15.5 18H7.5C7.22386 18 7 18.2239 7 18.5ZM7.5 13C7.22386 13 7 12.7761 7 12.5C7 12.2239 7.22386 12 7.5 12H16.5C16.7761 12 17 12.2239 17 12.5C17 12.7761 16.7761 13 16.5 13H7.5ZM7 15.5C7 15.7761 7.22386 16 7.5 16H13.5C13.7761 16 14 15.7761 14 15.5C14 15.2239 13.7761 15 13.5 15H7.5C7.22386 15 7 15.2239 7 15.5ZM7.5 22C7.22386 22 7 21.7761 7 21.5C7 21.2239 7.22386 21 7.5 21H10.5C10.7761 21 11 21.2239 11 21.5C11 21.7761 10.7761 22 10.5 22H7.5ZM12.5 9H7.5C7.22386 9 7 9.22386 7 9.5C7 9.77614 7.22386 10 7.5 10H12.5C12.7761 10 13 9.77614 13 9.5C13 9.22386 12.7761 9 12.5 9Z" fill="#C5C9D4"/>
<path d="M24 25.5903L25.8303 23.76C26.2208 23.3695 26.854 23.3695 27.2445 23.76C27.635 24.1505 27.635 24.7837 27.2445 25.1742L23.7089 28.7097C23.3184 29.1003 22.6853 29.1003 22.2947 28.7097L18.7592 25.1742C18.3687 24.7837 18.3687 24.1505 18.7592 23.76C19.1497 23.3695 19.7829 23.3695 20.1734 23.76L22 25.5866V17C22 16.4477 22.4477 16 23 16C23.5523 16 24 16.4477 24 17V25.5903Z" fill="#E06E31"/>
</svg>
