<svg xmlns="http://www.w3.org/2000/svg" xmlns:xlink="http://www.w3.org/1999/xlink" viewBox="0 0 2120 1600">
    <style>
    #play-icon {
        animation: float 2s ease-in-out infinite alternate;
    }

    #document-icon {
        animation: float 1.8s ease-in-out infinite alternate;
    }

    #code-icon {
        animation: float 1.6s ease-in-out infinite alternate;
    }
    #play-line {
        animation: line-scale 2s ease-in-out infinite alternate;
    }

    #document-line {
        animation: line-scale 1.8s ease-in-out infinite alternate;
    }

    #code-line {
        animation: line-scale 1.6s ease-in-out infinite alternate;
    }


    @keyframes float {
        0% {
            transform: translateY(-0.5%)
        }
        to {
            transform: translateY(0.5%)
        }
    }
    @keyframes line-scale {
        0% {
            stroke-dashoffset: 32;
        }
        to {
            stroke-dashoffset: 0;
        }
    }
    </style>
    <defs>
        <linearGradient id="a" x1="781.04" y1="1210.6" x2="709.06" y2="1408.35" gradientUnits="userSpaceOnUse">
            <stop offset=".22" stop-color="#fff" stop-opacity="0" />
            <stop offset="1" stop-color="#00004c" stop-opacity=".6" />
        </linearGradient>
        <linearGradient id="d" x1="1548.23" y1="1003.74" x2="1515.9" y2="1092.56" xlink:href="#a" />
        <linearGradient id="e" x1="934.66" y1="559.95" x2="910.69" y2="625.79" xlink:href="#a" />
        <linearGradient id="b" x1="1609.55" y1="231.09" x2="1479.37" y2="456.57" gradientUnits="userSpaceOnUse">
            <stop offset="0" stop-color="#fff" stop-opacity="0" />
            <stop offset=".34" stop-color="#f0eff1" stop-opacity=".07" />
            <stop offset=".61" stop-color="#bfbdc4" stop-opacity=".28" />
            <stop offset=".84" stop-color="#6d6878" stop-opacity=".64" />
            <stop offset="1" stop-color="#1b142d" />
        </linearGradient>
        <linearGradient id="f" x1="599.2" y1="172.26" x2="790.1" y2="502.92" xlink:href="#b" />
        <linearGradient id="g" x1="968.65" y1="-67.17" x2="948.85" y2="-32.88" gradientTransform="rotate(7.75 -2876.1 462.59)" gradientUnits="userSpaceOnUse">
            <stop offset=".22" stop-color="#fff" stop-opacity="0" />
            <stop offset="1" stop-color="#000048" stop-opacity=".6" />
        </linearGradient>
        <linearGradient id="c" x1="1165.54" y1="1154.93" x2="918.85" y2="1012.5" gradientUnits="userSpaceOnUse">
            <stop offset=".31" stop-color="#fff" stop-opacity="0" />
            <stop offset=".38" stop-color="#fff" stop-opacity=".02" />
            <stop offset=".46" stop-color="#fff" stop-opacity=".08" />
            <stop offset=".56" stop-color="#fff" stop-opacity=".18" />
            <stop offset=".66" stop-color="#fff" stop-opacity=".32" />
            <stop offset=".76" stop-color="#fff" stop-opacity=".49" />
            <stop offset=".87" stop-color="#fff" stop-opacity=".71" />
            <stop offset=".98" stop-color="#fff" stop-opacity=".96" />
            <stop offset="1" stop-color="#fff" />
        </linearGradient>
        <linearGradient id="h" x1="1161.93" y1="1319.15" x2="940.42" y2="1191.26" xlink:href="#c" />
        <linearGradient id="i" x1="1853.86" y1="854.29" x2="1607.18" y2="711.87" xlink:href="#c" />
        <linearGradient id="j" x1="1163.49" y1="582.25" x2="1038.84" y2="510.28" xlink:href="#c" />
        <linearGradient id="k" x1="1253.14" y1="1107.92" x2="1110.13" y2="1025.35" xlink:href="#c" />
    </defs>
    <g data-name="Layer 341">
        <path opacity=".27" fill="url(#a)" d="M521.23 1287.94l255.14 144.91 21.78-12.65 169.25-85.17-332.07-177.47-114.1 130.38z" />
        <path opacity=".27" fill="url(#d)" d="M1431.54 1038.48l114.59 65.08 9.79-5.68 76.01-38.25-149.14-79.71-51.25 58.56z" />
        <path opacity=".15" fill="url(#e)" d="M848.15 585.7l84.96 48.25 7.25-4.21 56.36-28.36-110.58-59.09-37.99 43.41z" />
    </g>
    <g data-name="Layer 264">
        <g data-name="Layer 336">
            <path d="M276.54 431.59l1603.51-11s33.73 6.48-56.92-28.72c-163.34-63.39-177.45-180.87-283.72-183.79S1408.82 295 1234.76 304.3c-345.49 18.43-288.42-163.22-523.93-162.44-238.65.8-158.24 285.36-434.29 289.73z" fill="#cff8ff" />
            <path d="M276.54 431.59l1603.51-11s33.73 6.48-56.92-28.72c-163.34-63.39-177.45-180.87-283.72-183.79S1408.82 295 1234.76 304.3c-345.49 18.43-288.42-163.22-523.93-162.44-238.65.8-158.24 285.36-434.29 289.73z" fill="#cff8ff" />
            <path d="M1278 340.29l360.41 80.59s275.4 6.23 184.75-29c-163.37-63.4-177.48-180.88-283.75-183.8S1408.82 295 1234.76 304.3" fill="url(#b)" />
            <path d="M1144.39 298.37C905 320.77 946.34 141.08 710.83 141.86c-238.65.8-158.24 285.36-434.29 289.73l573-6.75" opacity=".55" fill="url(#f)" />
            <path d="M1977.81 448.07s-85.64-16.26-176-129.09c-55.57-69.37-99.08 19.91-240 54.19C1454 399.39 1310 9.75 1144.56 49.81s-204.19 353-446.69 396.65" fill="#eaf3f9" />
        </g>
        <path d="M965.62 475.75s33.63-18.59 45.47-13.47 7.79 7.24 3.26 12.27-3 12-26.93 14.41l10.82-14.41s-6.96-6.33-32.62 1.2z" opacity=".19" fill="url(#g)" />
        <path d="M823.62 1369.2s12.19 10 52.92 11.55c17.48.68 16.3 37 37.91 36.53 54.1-1.07 56.32-38.55 42.83-58.41s-168.83-48.69-133.66 10.33zm464.89-166.2s21.24 11.79 52.8 7c11.53-1.77 26.77 15.33 42.61 17.08 46.06 5.07 37.94-19.13 28.4-35.56s-148.01-36.87-123.81 11.48zm-447-203s13.83 7.85 45.65 9c9.41.36 12.53 22.44 24.21 23.73 46 5.07 50.06-15.52 40.52-32s-134.57-49.08-110.38-.73zm780.82-5.37s15.53 13.17 34.27 16.91c8.83 1.77 2.79 15.59 13.77 18.75 32.23 9.25 30.17-3.32 24.59-13.75s-86.31-52.02-72.63-21.91zm-587.24-117.14s8.14 13.38 36.27 18.75c8.63 1.65 10.6 20.63 20.67 23.53 38.2 11 50.62-17.19 40.33-26.72-24.12-22.33-113.5-51.25-97.27-15.56zm535.78-64.1s12.48 14.72 33.36 17.14 18.32-5.14 13.8-11-58.71-23.36-47.16-6.14zm-569.52-211.14s12.48 14.72 33.36 17.14 18.32-5.14 13.8-11-58.71-23.39-47.16-6.14zm303.58 315.67s-36.18-4.7-68.48 18.46-19.31 33-5.29 33c46.33 0 21.58-22.5 38.3-22.5 22.02-.03 58.54-23.25 35.47-28.96z" opacity=".56" data-name="Layer 340" fill="#e5eaea" />
    </g>
    <g data-name="Layer 320">
        <path d="M1586.27 909.54l-180.22-75.61 149.61 40.56s40.62 5.51 30.61 35.05z" fill="#1d5577" />
        <path d="M1301.13 763.25s136.84 122.34 183.5 69.33l156.14 50.21s-28.89 87.38-122.45-34.62z" fill="#abdfff" />
        <path d="M1573.64 896.69l-68.9-29.39h15.46l78.88 37.18s-9.86-1.15-25.44-7.79zm-21.73-33.23l73.91 29.59 3.3-3.16-89.72-33.96 12.51 7.53zm0 11.03l61.62 28.79s4.58.23 6-1.54l-80.11-38.28z" fill="#1386bf" opacity=".08" />
    </g>
    <g id="bar-chart">
        <path d="M1812.77,928l-138.84-80.16c-6-3.44-10.84-11.13-10.84-17.09V586.62c0-6,4.88-8,10.84-4.58l138.84,80.16c6,3.44,10.83,11.13,10.83,17.09V923.42C1823.6,929.38,1818.73,931.44,1812.77,928Z" style="fill:#e6f9ff" />
        <path d="M1814.58,661.29l-138.85-80.15c-3.58-2.08-6.77-2.14-8.75-.57,1.89-.5,4.31-.06,7,1.47l138.84,80.16c6,3.44,10.83,11.13,10.83,17.09V923.42a6.3,6.3,0,0,1-2.08,5.15c2.37-.63,3.89-2.73,3.89-6.05V678.38C1825.41,672.43,1820.53,664.73,1814.58,661.29Z" style="fill:#44beeb" />
        <polygon points="1714.31 817.66 1676.95 796.09 1676.95 790.55 1714.31 812.12 1714.31 817.66" style="fill:#ccdee2" />
        <polygon points="1723.38 804.17 1676.95 777.37 1676.95 771.82 1723.38 798.63 1723.38 804.17" style="fill:#ccdee2" />
        <polygon points="1796.8 824.43 1750.37 797.63 1750.37 792.08 1796.8 818.89 1796.8 824.43" style="fill:#ccdee2" />
        <polygon points="1779.93 854.45 1750.37 836.08 1750.37 830.53 1779.93 848.9 1779.93 854.45" style="fill:#ccdee2" />
        <polygon points="1779.93 844.54 1750.37 826.16 1750.37 820.62 1779.93 838.99 1779.93 844.54" style="fill:#ccdee2" />
        <polygon points="1779.93 834.43 1750.37 816.05 1750.37 810.51 1779.93 828.88 1779.93 834.43" style="fill:#ccdee2" />
        <polygon points="1706.61 774.86 1676.95 757.74 1676.95 752.19 1706.61 769.32 1706.61 774.86" style="fill:#ccdee2" />
        <path d="M1663.09,703.36h-10.24a2.65,2.65,0,0,0-2.75,2.38s-.19,1.69,1.81,4l11.18,12.92Z" style="fill:#e6f9ff" />
        <polygon id="YELLOW-BAR-B" points="1719.67 736.99 1698.94 725.02 1698.94 673.61 1719.67 685.58 1719.67 736.99" style="fill:#fdcc4a">
        	<animate 
        		attributeName="points" 
        		attributeType="XML" 
        		values="
        			1719.67 736.99 1698.94 725.02 1698.94 673.61 1719.67 685.58 1719.67 736.99;
        			1722.15 754.57 1696.47 739.74 1696.47 676.03 1722.15 690.87 1722.15 754.57;
        			1722.15 754.57 1696.47 739.74 1696.47 676.03 1722.15 690.87 1722.15 754.57;
        			1719.67 736.99 1698.94 725.02 1698.94 673.61 1719.67 685.58 1719.67 736.99;
        			1719.67 736.99 1698.94 725.02 1698.94 673.61 1719.67 685.58 1719.67 736.99"
        		calcMode="spline" 
        		keyTimes="0;0.05;0.28;0.33;1" 
        		keySplines="0 0 1 1;0 0 1 1;0 0 1 1;0 0 1 1" 
        		repeatCount="indefinite" 
        		dur="10" 
        		begin="0s" 
        		fill="freeze"/>
        </polygon>
        <polygon id="blue" points="1750.94 755.04 1730.21 743.07 1730.21 650.74 1750.94 662.71 1750.94 755.04" style="fill:#168cca">
        	<animate 
        		attributeName="points" 
        		attributeType="XML" 
        		values="
        			1750.94 755.04 1730.21 743.07 1730.21 650.74 1750.94 662.71 1750.94 755.04;
        			1750.94 755.04 1730.21 743.07 1730.21 650.74 1750.94 662.71 1750.94 755.04;
        			1753.12 775.99 1728.03 761.51 1728.03 649.79 1753.12 664.28 1753.12 775.99;
        			1753.12 775.99 1728.03 761.51 1728.03 649.79 1753.12 664.28 1753.12 775.99;
        			1750.94 755.04 1730.21 743.07 1730.21 650.74 1750.94 662.71 1750.94 755.04;
        			1750.94 755.04 1730.21 743.07 1730.21 650.74 1750.94 662.71 1750.94 755.04"
        		calcMode="spline" 
        		keyTimes="0;0.33;0.38;0.61;0.66;1" 
        		keySplines="0 0 1 1;0 0 1 1;0 0 1 1;0 0 1 1;0 0 1 1" 
        		repeatCount="indefinite" 
        		dur="10" 
        		begin="0s" 
        		fill="freeze"/>
		</polygon>        
		<polygon id="red" points="1782.2 773.09 1761.47 761.12 1761.47 688.82 1782.2 700.79 1782.2 773.09" style="fill:#d33a2f">
			<animate 
        		attributeName="points" 
        		attributeType="XML" 
        		values="
        			1782.2 773.09 1761.47 761.12 1761.47 688.82 1782.2 700.79 1782.2 773.09;
        			1782.2 773.09 1761.47 761.12 1761.47 688.82 1782.2 700.79 1782.2 773.09;
        			1784.88 788.95 1758.8 773.9 1758.8 682.96 1784.88 698.01 1784.88 788.95;
        			1784.88 788.95 1758.8 773.9 1758.8 682.96 1784.88 698.01 1784.88 788.95;
        			1782.2 773.09 1761.47 761.12 1761.47 688.82 1782.2 700.79 1782.2 773.09"
        		calcMode="spline" 
        		keyTimes="0;0.66;0.71;0.95;1" 
        		keySplines="0 0 1 1;0 0 1 1;0 0 1 1;0 0 1 1" 
        		repeatCount="indefinite" 
        		dur="10" 
        		begin="0s" 
        		fill="freeze"/>
		</polygon>
    </g>
    <g data-name="Layer 265">
        <path d="M911.83 730.65s-15.57 15.35-14.22 35.66l11.29 8.58-18.84 14.39s5.07 24.76-.31 61.15-15.4 118-15.4 118L910 899.15l28.55 90.1s-6-49.74-.91-101.13c2.36-23.78-30.62-31.32-7.1-57 2.9-3.17 13.45-22.39 12.92-25.16-6.18-32.36-7.13-30.93-11.84-30.62s45.64-47.88-19.79-44.69z" fill="#c7d9e8" />
        <path d="M936.49 753.79c-1.49-2.9-10.14-3.74-16 7.84a42 42 0 0 1-16.64 17.08l21.7 6.55s16.5-20.68 10.94-31.47z" fill="#12435b" opacity=".21" />
        <path d="M890.06 789.28s-17.16 37.21-27.92 75.59l39.54-36.64s18.46-80.58-11.62-38.95z" fill="#c7d9e8" />
        <path fill="#12435b" opacity=".21" d="M862.14 864.87l29.38-45.9-4.75 23.08-24.63 22.82z" />
        <path d="M927.65 776.41s21 32-.73 32.2l-32-23.05s-28.65 23.81-10 36.64l2.21 35.6 47 5.9s-5.78-21.78 11.58-50.76c0 0 15.29-42-18.06-36.53z" fill="#2980c1" />
        <path d="M887.16 857.8S872.6 870 872.4 974.69l37.6-75.54 28.62 94.64s22.38-95.16-4.49-130.09zM867.65 983a14.53 14.53 0 0 1-8.13 12.52l14.73-5.09s1.52-19.93-6.6-7.43zm69.8 16s-3.79 15.68-12.76 17.54l9-1.86s19.5 3.18 3.76-15.68zm-32.9-263.75s11.68-14.09 26.74-8.07l8.61 6.8s-1.32-10.39 6.15-10.06 12.1 16.23 1.08 15.74c0 0 5.61 18.35-6.4 23.55 0 0-14.69 12.21-7.39-10.27l-2.41-9.94-7.07 6.65-4.14-1.25.4-8.9-5 5.84-13.25-6.66z" fill="#1d5577" />
        <path d="M942.59 785.44c-2.59-7.72-97.82-32.2-97.82-32.2s81.16 58 86.23 59.84c7 2.49 22 3.17 11.59-27.64z" fill="#c7d9e8" />
        <path d="M844.77 753.24l98.93 47.22s.83 17.66-8.52 13.59zm56.3 56.54s6.74 12.4 27.28 15.11c0 0-16.99 12.44-27.28-15.11z" fill="#12435b" opacity=".21" />
        <path d="M910 899.15s-2-24.37-10.92-13-10.73 37-16.54 50.06-10.14 38.49-10.14 38.49z" fill="#12435b" />
    </g>
    <g data-name="Layer 258">
        <path d="M835.25 1168.12s-23.92-17.69 2-41.17c6.54-5.95 20.75 40.51-2 41.17z" fill="#1d5577" />
        <path d="M837.21 1127s23.19-12.33 26.38-25.29c1.18-4.8 27.06-8.78 30.8-5l27.25 8.32z" fill="#fdcc4a" />
        <path d="M897.65 1077.18s16.86-29.52-16.87-33.73-27.42 55.23-14.75 54c7.4-.72 7.65 6.29 4.47 9.13a102 102 0 0 1-10.1 8c-24.59 16.11-84 36.34-84 36.34s62.25 8.09 85.44-.34c0 0-12.65 124.72-4.22 188l32.54-71.26 34.92 113.42s16.87-103.3 19-151.78-3.6-109-26.79-115.37c-.05.01-31.68-11.59-19.64-36.41z" fill="#c7d9e8" />
        <path d="M860 1054.09s-10.5-5.49 0-12.87 26.18-3.51 27.82-7.73v5.62l8.67-1 5.27 3.51 5.27 9.49s1.36 33.64-12.06 38.56c0 0 4-28.06-4.6-22.4l-2.55 5.27s-8.54-4.56-8.54-14.58a45.27 45.27 0 0 0-19.28-3.87z" fill="#0a628e" />
        <path d="M907 1051.06s1.36 33.64-12.06 38.56c0 0 4-28.06-4.6-22.4l-2.55 5.27s-8.54-4.56-8.54-14.58" fill="#0a4177" />
        <path d="M855.34 1346.92s-9.1 0-11.55 4.22 6.69 9.86 11.55-4.22zm70.33 39.35s-11.25 11.25-3.52 14.06 10.54-4.22 3.52-14.06z" fill="#1f9ce8" />
        <path d="M856.5 1212s-5.14 81.74 1.09 126.61l32.79-70.43s20.44 73.69 34.19 111c0 0 21.38-99.64 19.86-161.09 0-.01-81.78 11.55-87.93-6.09zm27.68-59.74s17.28 21.56 15.33 30.22l11.28-7s-15.38-26.73-26.61-23.22zm-45.83-23.37s3.51 21.26-2.54 30.39l8-2.56s.86-16.72-5.46-27.83z" fill="#1d5577" />
        <path d="M860.4 1218.67s23.32 37.43 81.54 37.86c0 0 2.77-19.72 2.49-25.32z" fill="#12435b" />
        <path d="M835.25 1168.12c7.49-.3 25.15-7 25.15-7l-3.9 50.88c6 24.55 87.93 27.65 87.93 27.65 7.08-73.08-12.55-122.74-12.55-122.74-.82-13.06-27.13-13.37-27.13-13.37l-29.21 13.37-5-10.3-33.33 20.39s16.07 40.58-1.96 41.12z" fill="#fdcc4a" />
        <path d="M896.15 1138.55c-.35 1.06-16.72 67.82-16.72 67.82s69-1 51.11-84.68z" fill="#1d5577" opacity=".23" />
        <path d="M880.47 1149.89s16.38 65.36 31.84 39.61c0 0 12.91-11.75-31.84-39.61z" fill="#1d5577" />
        <path d="M899.51 1127.88s-14.79-1.61-18.68 7.29-9.71 18.73-12.89 20.13-8.1 13.11-8.78 22l21.67-16.42s26.27-17.81 18.68-33z" fill="#1d5577" opacity=".23" />
        <path d="M906.57 1111.26s-40.29 63.72-62.78 82.46c0 0 59.86-2 79.53-41 0 0 24.48-47.08-16.75-41.46z" fill="#c7d9e8" />
        <path d="M904.75 1103.52l-24.28 46.37s33.95 24.86 31.84 39.61c0 0 31.4-37 19.57-72.61 0 0 .43-15.73-27.13-13.37z" fill="#fdcc4a" />
        <path d="M890.38 1268.16s-16.72-31.81-18.12-14.47 2.81 33.13-5.16 37.18c0 0-7.49.9-6.7 20.44 0 0 .73 15.87-2.81 27.28zm6.87 24.18s26.29 48.71 36.26 32.44l-8.46 56z" fill="#12435b" />
        <path d="M867.94 1097.45c-.07-1.77 14 .88 19.22-9.75 0 0 9.39-10.82 5.71 7.44S878.53 1132.33 874 1127s-5.22-7.29-6.06-29.55zm-24.15 96.27s44.23-21.14 49.94-32.83L905 1172.7s-15.57 17.74-61.21 21.02zm-45.64-43.83l41.67-5.8V1158l-51.72-5.74 10.05-2.37z" fill="#12435b" opacity=".21" />
    </g>
    <g data-name="Layer 278">
        <path d="M1052.82 711a20 20 0 0 1 11.48-13.45c3.28-1.4 19.5-6.32 22.2-3.62l19.64 6z" fill="#44beeb" />
        <path d="M1088.85 679.92s12.15-21.26-12.16-24.3-19.76 39.8-10.63 38.92c5.33-.52 5.51 4.53 3.22 6.58-1.5 1.33-4.42 4.7-7.27 5.78-25.65 9.74-2.34 68.7-2.34 68.7s-.61-32.79 3.35-42.75c0 0-9.11 89.88-3 135.45l23.41-51.3 25.17 81.74s12.15-74.44 13.67-109.39-2.6-78.57-19.31-83.13c.04-.05-22.79-8.4-14.11-26.3z" fill="#c7d9e8" />
        <path d="M1083.84 648.71l12.11 6.75 2.36 5.64s4.72 24.44-11.39 27.79c0 0 2.87-20.22-3.31-16.14l-1.84 3.8s-6.16-3.29-6.16-10.51a32.56 32.56 0 0 0-13.89-2.76 5.13 5.13 0 0 1-4-5" fill="#0a628e" />
        <path d="M1096.49 658.32s9.65 24.47-9.57 30.57c0 0 2.87-20.22-3.31-16.14l-1.84 3.8s-6.16-3.29-6.16-10.51" fill="#0a4177" />
        <path d="M1058.36 874.3s-6.56 0-8.32 3 4.82 7.13 8.32-3zm50.64 28.36s-8.1 8.11-2.53 10.13 7.63-3.04 2.53-10.13z" fill="#1f9ce8" />
        <path d="M1059.2 777.06s-3.71 58.91.78 91.24l23.63-50.75s14.73 53.1 24.63 80c0 0 15.41-71.8 14.32-116.08 0-.01-58.93 8.32-63.36-4.41zm19.94-43.06s12.45 15.54 11 21.77l8.12-5s-11.03-19.27-19.12-16.77z" fill="#1d5577" />
        <path d="M1062 781.89s16.8 27 58.75 27.28c0 0 2-14.21 1.8-18.25z" fill="#12435b" />
        <path d="M1048.82 729.5c5.4-.22 13.19 10.9 13.19 10.9l-2.81 36.66c4.34 17.7 63.36 19.93 63.36 19.93 5.1-52.67-9-88.45-9-88.45-.59-9.41-19.55-9.63-19.55-9.63l-21 9.63-3.63-7.42-15.1 6.3s-7.28 12.86-5.46 22.08z" fill="#44beeb" />
        <path d="M1097.12 730.43c-.26.76 16 60 16 60s32.77-21.75-.57-78.39z" fill="#1d5577" opacity=".23" />
        <path d="M1109.24 749.69s13.26 26.85 24.4 8.29c0 .02 1.96-9.46-24.4-8.29z" fill="#1d5577" />
        <path d="M1102.59 779.8s1.84-10.55-4.38-13.76-13-7.86-13.88-10.21-9-6.43-15.42-7.33l10.8 16.34s11.6 19.72 22.88 14.96z" fill="#1d5577" opacity=".23" />
        <path d="M1095.28 704.49s37.5 77.25 21.29 90.76c0 0 34.15-33.5 4.61-62.1 0 0 3.82-32.72-25.9-28.66z" fill="#c7d9e8" />
        <path d="M1092.6 697.54l16.64 52.15s23.21 0 24.4 8.29c0 0-11.08-50-22.64-56.45 0 0-6.23-2.96-18.4-3.99z" fill="#44beeb" />
        <path d="M1083.61 817.55s-12-22.92-13.06-10.43 2 23.88-3.71 26.79c0 0-5.41.65-4.83 14.74 0 0 .52 11.43-2 19.65zm4.95 17.45s19 35.11 26.13 23.38l-6.09 40.34z" fill="#12435b" />
        <path d="M1067.44 694.53c-1.25.27 10.07.64 13.85-7 0 0 6.77-7.79 4.11 5.37s-13.6 22.92-16.88 19 5.48-18.76-1.08-17.37zm4.17 40.37s10.39 6.48 14.7 8.07l9.3 5.34s-7.52 6.06-24-13.41zm-14.66 29.65l-1.65-31.98 7.51-17.23-3.14 56.13-2.72-6.92z" fill="#12435b" opacity=".21" />
    </g>
    <g data-name="Layer 321">
        <path d="M963.17 423.41s-6.84-5.06.57-11.77c1.88-1.71 5.93 11.58-.57 11.77z" fill="#1d5577" />
        <path d="M963.74 411.64s6.63-3.53 7.54-7.24c.34-1.37 7.74-2.51 8.81-1.44l7.79 2.39z" fill="#19ab4f" />
        <path d="M981 397.4s4.82-8.44-4.82-9.64-7.85 15.79-4.22 15.44a1.48 1.48 0 0 1 1.28 2.61 29.44 29.44 0 0 1-2.89 2.3c-7 4.61-24 10.4-24 10.4s17.8 2.31 24.43-.1c0 0-3.62 35.67-1.2 53.76l9.3-20.39 10 32.44s4.82-29.54 5.43-43.41-1-31.18-7.67-33c-.02.01-9.06-3.31-5.64-10.41z" fill="#c7d9e8" />
        <path d="M970.26 390.8s-3-1.57 0-3.68 7.48-1 8-2.21v1.61l2.48-.31 1.51 1 1.51 2.71s.38 9.62-3.45 11c0 0 1.14-8-1.32-6.4l-.73 1.5a4.93 4.93 0 0 1-2.44-4.17 13 13 0 0 0-5.56-1.05z" fill="#0a628e" />
        <path d="M983.71 389.93s.38 9.62-3.45 11c0 0 1.14-8-1.32-6.4l-.73 1.5a4.93 4.93 0 0 1-2.44-4.17" fill="#0a4177" />
        <path d="M968.92 474.55s-2.6 0-3.3 1.2 1.91 2.81 3.3-1.2zM989 485.8s-3.21 3.22-1 4 3-1.18 1-4z" fill="#1f9ce8" />
        <path d="M969.25 436s-1.47 23.38.32 36.22l9.37-20.22s5.85 21.08 9.78 31.75c0 0 6.11-28.49 5.68-46.07 0 .02-23.4 3.32-25.15-1.68zm7.92-17.12s4.94 6.16 4.38 8.64l3.23-2s-4.4-7.65-7.61-6.64zm-13.11-6.69s1 6.08-.73 8.69l2.29-.73s.25-4.79-1.56-7.96z" fill="#1d5577" />
        <path d="M970.37 437.87s6.67 10.7 23.32 10.83a72.81 72.81 0 0 0 .71-7.25z" fill="#12435b" />
        <path d="M963.17 423.41c2.15-.09 7.2-2 7.2-2L969.25 436c1.73 7 25.15 7.91 25.15 7.91 2-20.9-3.59-35.1-3.59-35.1-.23-3.74-7.76-3.82-7.76-3.82l-8.35 3.82-1.44-2.95-9.52 5.83s4.59 11.57-.57 11.72z" fill="#19ab4f" />
        <path d="M980.59 415c-.1.3-4.78 19.39-4.78 19.39s19.74-.3 14.62-24.22z" fill="#1d5577" opacity=".23" />
        <path d="M976.11 418.2s4.68 18.69 9.11 11.33c0 0 3.69-3.36-9.11-11.33z" fill="#1d5577" />
        <path d="M981.55 411.9s-4.23-.46-5.34 2.09-2.78 5.35-3.69 5.76-2.31 3.75-2.52 6.25l6.2-4.69s7.52-5.06 5.35-9.41z" fill="#1d5577" opacity=".23" />
        <path d="M983.57 407.15s-11.52 18.22-18 23.58c0 0 17.12-.55 22.74-11.72.05-.01 7.05-13.47-4.74-11.86z" fill="#c7d9e8" />
        <path d="M983.05 404.94l-6.94 13.26s9.71 7.11 9.11 11.33c0 0 9-10.59 5.59-20.77 0 0 .13-4.5-7.76-3.82z" fill="#19ab4f" />
        <path d="M978.94 452s-4.78-9.09-5.18-4.14.8 9.48-1.47 10.64c0 0-2.15.26-1.92 5.84a27.6 27.6 0 0 1-.8 7.81zm1.97 6.94s7.52 13.93 10.37 9.28l-2.42 16z" fill="#12435b" />
        <path d="M972.52 403.2c0-.51 4 .25 5.5-2.79 0 0 2.69-3.09 1.63 2.13s-4.1 10.64-5.4 9.1-1.49-2.07-1.73-8.44zm-6.9 27.53s12.65-6 14.28-9.38l3.23 3.37s-4.46 5.08-17.51 6.01zm-9.21-14.08l8.07-1.58 1.14 5.08-19.28-1.65 10.07-1.85z" fill="#12435b" opacity=".21" />
    </g>
    <g data-name="Layer 276">
        <path d="M1625.82 877s-15-11.06 1.22-25.74c4.12-3.69 12.96 25.37-1.22 25.74z" fill="#1d5577" />
        <path d="M1627 851.3s14.5-7.71 16.5-15.81c.74-3 16.91-5.49 19.26-3.15l17 5.21z" fill="#44beeb" />
        <path d="M1664.83 820.18s10.55-18.45-10.54-21.09-17.15 34.54-9.23 33.77c4.63-.45 4.78 3.94 2.8 5.71a62.54 62.54 0 0 1-6.32 5c-15.37 10.08-52.54 22.73-52.54 22.73s38.92 5 53.42-.22c0 0-7.9 78-2.63 117.53l20.34-44.56L1682 1010s10.54-64.59 11.86-94.9-2.25-68.18-16.75-72.13c-.03.03-19.8-7.26-12.28-22.79z" fill="#c7d9e8" />
        <path d="M1641.3 805.75s-3.44-1.06-4.45-6.79c-1.38-7.9 12.42 1.75 13.45-.89l6.11-3.69 7.71 1.35 3.29 2.19 3.3 5.93s-2.89 14.78-7.55 24.11c0 0 2.49-17.54-2.87-14l-1.59 3.3s-2.88 12.53-5.35-9.12a28.18 28.18 0 0 0-12.05-2.39z" fill="#0a628e" />
        <path d="M1638.38 988.84s-5.69 0-7.22 2.63 4.18 6.15 7.22-2.63zm43.97 24.6s-7 7-2.2 8.79 6.59-2.64 2.2-8.79z" fill="#1f9ce8" />
        <path d="M1639.11 904.46s-3.22 51.11.68 79.17l20.5-44s12.78 46.07 21.37 69.41c0 0 13.37-62.3 12.42-100.72 0-.04-51.08 7.19-54.97-3.86zm17.3-37.33s10.81 13.48 9.59 18.89l7-4.35s-9.57-16.74-16.59-14.54zm-28.65-14.61s2.19 13.29-1.59 19l5-1.6s.54-10.48-3.41-17.4z" fill="#1d5577" />
        <path d="M1641.54 908.65s14.58 23.4 51 23.67c0 0 1.74-12.33 1.56-15.83z" fill="#12435b" />
        <path d="M1625.82 877c4.68-.19 15.72-4.39 15.72-4.39l-2.43 31.81c3.77 15.36 55 17.3 55 17.3 4.43-45.7-7.85-76.75-7.85-76.75-.51-8.16-17-8.36-17-8.36L1651 845l-3.15-6.44L1627 851.3s10.09 25.41-1.18 25.7z" fill="#44beeb" />
        <path d="M1663.9 858.56c-.22.66-10.46 42.4-10.46 42.4s43.16-.66 32-53z" fill="#1d5577" opacity=".23" />
        <path d="M1654.09 865.65s10.24 40.86 19.91 24.76c0 0 8.07-7.35-19.91-24.76z" fill="#1d5577" />
        <path d="M1666 851.89s-9.25-1-11.68 4.55-6.07 11.71-8.06 12.59-5.07 8.2-5.49 13.76l13.55-10.26s16.42-11.15 11.68-20.64z" fill="#1d5577" opacity=".23" />
        <path d="M1670.41 841.5s-25.19 39.83-39.25 51.55c0 0 37.42-1.22 49.73-25.63 0 0 15.3-29.42-10.48-25.92z" fill="#c7d9e8" />
        <path d="M1669.27 836.65l-15.18 29s21.23 15.54 19.91 24.76c0 0 19.63-23.14 12.23-45.4 0-.01.28-9.83-16.96-8.36z" fill="#44beeb" />
        <path d="M1660.29 939.59s-10.45-19.88-11.33-9.05 1.75 20.72-3.23 23.25c0 0-4.68.57-4.19 12.78 0 0 .46 9.93-1.75 17.06zm4.29 15.12s16.42 30.46 22.67 20.29l-5.28 35z" fill="#12435b" />
        <path d="M1646.26 832.86c0-1.11 8.74.55 12-6.1 0 0 5.87-6.76 3.57 4.66s-9 23.25-11.81 19.88-3.24-4.52-3.76-18.44zm-15.1 60.19s27.65-13.22 31.22-20.52l7 7.38s-9.69 11.09-38.22 13.14zm-28.54-27.4l26.05-3.63v8.7l-32.33-3.59 6.28-1.48z" fill="#12435b" opacity=".21" />
    </g>
    <path d="M939.13 426.4a6.29 6.29 0 0 0-3-4.76L803.31 345c-1.09-.63-2-.6-2.57 0l-.45-.43-5.8 3.37 5.8 17.87v183.41a6.29 6.29 0 0 0 3 4.76l126.07 72.79 4 7.72 5.8-3.37-.13-.94a2.39 2.39 0 0 0 .13-.8z" fill="#77c3fc" />
    <path d="M930.31 634l-132.8-76.67a6.29 6.29 0 0 1-3-4.76v-203c0-1.66 1.36-2.23 3-1.28L930.31 425a6.29 6.29 0 0 1 3 4.76v203c.02 1.65-1.31 2.24-3 1.24z" fill="#2a6dc2" />
    <path d="M907.41 604l-98.64-57a4.66 4.66 0 0 1-2.24-3.53V392.71c0-1.24 1-1.66 2.24-.95l98.64 56.95a4.66 4.66 0 0 1 2.24 3.53V603c0 1.24-1.01 1.66-2.24 1z" fill="#235ca7" />
    <path d="M885.42 590l-107-61.79a5.05 5.05 0 0 1-2.43-3.83V360.85c0-1.34 1.09-1.8 2.43-1l107 61.79a5.05 5.05 0 0 1 2.43 3.83V589c0 1.34-1.09 1.8-2.43 1z" fill="#44beeb" />
    <g id="code-icon">
        <path d="M880.81 320.09c0-8.08-6.55-18.41-14.64-23.08s-14.63-1.89-14.63 6.19c0 4.11 1.7 8.8 4.43 13l-.13-.07 10.32 16.93 10.31-5-.09-.05c2.73-1.07 4.43-3.81 4.43-7.92z" fill="#0b86d1" />
        <path d="M878.34 321.08c0-8.08-6.55-18.41-14.64-23.08s-14.63-1.89-14.63 6.19c0 4.11 1.7 8.8 4.43 13l-.13-.07 10.32 16.93 10.31-5-.09-.05c2.73-1.08 4.43-3.81 4.43-7.92z" fill="#44beeb" />
        <path d="M880.5 297.56a57.82 57.82 0 0 0-16-14.16c-15.67-9-28.38-3.68-28.38 12 0 7 2.56 14.93 6.79 22.33l6.59-.72c-3.38-5.6-5.44-11.67-5.44-17 0-11.29 9.15-15.16 20.44-8.64a41.89 41.89 0 0 1 11.78 10.53z" fill="#19ab4f" />
        <path d="M844.09 299l-7.9-5.34c0 .56-.06 1.13-.06 1.72 0 7 2.56 14.93 6.79 22.33l6.59-.72c-3.38-5.6-5.44-11.67-5.44-17 0-.34.01-.66.02-.99z" fill="#44beeb" />
        <path fill="#fff" d="M858.58 317.66l-5.15-9.03 7.53-4.07 1.02 1.78-6.07 3.28 4.13 7.25-1.46.79zm5.74 3.11l7.41-4-5.23-9.18-1.46.79 4.22 7.4-5.95 3.21 1.01 1.78z" />
        <path id="blue-2" d="M844.09,299c.4-8.35,6.1-12.26,13.89-10.39l-3-9.08c-10.48-2.33-18.12,3-18.82,14.13" fill="#168cca">
        	<animate 
        		attributeName="d" 
        		attributeType="XML" 
        		values="
        			M844.09,299c.4-8.35,6.1-12.26,13.89-10.39l-3-9.08c-10.48-2.33-18.12,3-18.82,14.13;
        			M844.09,299c.4-8.35,6.1-12.26,13.89-10.39l-3-9.08c-10.48-2.33-18.12,3-18.82,14.13;
        			M845.6,300.67c.47-9.73,4.1-13.28,13.18-11.1L856.31,278c-12.2-2.7-21.1,3.46-21.92,16.47;
        			M845.6,300.67c.47-9.73,4.1-13.28,13.18-11.1L856.31,278c-12.2-2.7-21.1,3.46-21.92,16.47;
        			M844.09,299c.4-8.35,6.1-12.26,13.89-10.39l-3-9.08c-10.48-2.33-18.12,3-18.82,14.13;
        			M844.09,299c.4-8.35,6.1-12.26,13.89-10.39l-3-9.08c-10.48-2.33-18.12,3-18.82,14.13"
        		calcMode="spline" 
        		keyTimes="0;0.33;0.38;0.61;0.66;1" 
        		keySplines="0 0 1 1;0 0 1 1;0 0 1 1;0 0 1 1;0 0 1 1" 
        		repeatCount="indefinite" 
        		dur="10" 
        		begin="0s" 
        		fill="freeze"/>
        </path>
    </g>
    <path fill="#2a6dc2" d="M801.6 487.28l-16.1-37.32 31-12.55 3.17 7.35-24.98 10.12 12.92 29.96-6.01 2.44zm37.43 20.05l30.51-12.35-16.36-37.92-6.01 2.44 13.18 30.56-24.49 9.92 3.17 7.35z" />
    <path fill="#2a6dc2" d="M811.18 503.49l-5.7-5.32 34.93-52.61 5.7 5.32-34.93 52.61z" />
    <path id="code-line" fill="none" stroke="#77c3fc" stroke-linecap="round" stroke-linejoin="round" stroke-width=".533" stroke-dasharray="4.266101837158203,4.266101837158203" d="M863.85 340.29v31.07" />
    <g data-name="Layer 324">
        <path d="M1146.46 630.37l-74.76-43.17c-3.21-1.85-5.84-6-5.84-9.2V446.54c0-3.21 2.63-4.32 5.84-2.47l74.76 43.17c3.21 1.85 5.83 6 5.83 9.2V627.9c0 3.21-2.62 4.32-5.83 2.47z" fill="#e6f9ff" />
        <path d="M1147.43 486.75l-74.76-43.16c-1.94-1.12-3.65-1.15-4.71-.31a5.08 5.08 0 0 1 3.74.79l74.76 43.17c3.21 1.85 5.83 6 5.83 9.2V627.9a3.38 3.38 0 0 1-1.12 2.77c1.28-.33 2.09-1.47 2.09-3.26V496c0-3.26-2.62-7.4-5.83-9.25z" fill="#44beeb" />
        <path d="M1135.36 594.62l-31.87-18.4a4.52 4.52 0 0 1-2.18-3.43c0-1.2 1-1.61 2.18-.92l31.87 18.4a4.5 4.5 0 0 1 2.17 3.43c0 1.2-.97 1.61-2.17.92zm0-9.71l-31.87-18.4a4.52 4.52 0 0 1-2.18-3.43c0-1.2 1-1.61 2.18-.92l31.87 18.4a4.52 4.52 0 0 1 2.17 3.43c0 1.2-.97 1.61-2.17.92zm0-9.71l-31.87-18.4a4.52 4.52 0 0 1-2.18-3.43c0-1.2 1-1.61 2.18-.92l31.87 18.4a4.52 4.52 0 0 1 2.17 3.43c0 1.2-.97 1.61-2.17.92z" fill="#fff" />
        <path d="M1116.8 560.14l-13.31-7.69c-1.2-.69-2.18-.28-2.18.92a4.52 4.52 0 0 0 2.18 3.43l13.31 7.69z" fill="#fdcc4a" />
        <path d="M1129 576.87l-25.47-14.71c-1.2-.69-2.18-.28-2.18.92a4.52 4.52 0 0 0 2.18 3.43l25.47 14.71z" fill="#e06e31" />
        <path d="M1123.58 583.47l-20.09-11.6c-1.2-.69-2.18-.28-2.18.92a4.52 4.52 0 0 0 2.18 3.43l20.09 11.6z" fill="#168cca" />
        <path fill="#ccdee2" d="M1093.44 570.95l-20.12-11.61v-2.99l20.12 11.61v2.99zm4.88-7.26l-25-14.44v-2.98l25 14.43v2.99zm30.98-16.18l-25-14.43v-2.99l25 14.44v2.98zm-40 .39l-15.98-9.22v-2.98l15.98 9.22v2.98z" />
        <path d="M1065.86 509.4h-5.52a1.42 1.42 0 0 0-1.47 1.29 3.06 3.06 0 0 0 1 2.14l6 7z" fill="#cce1e5" opacity=".61" />
        <path id="dataline" d="M1081.11 506.86l6.7-16 9.9 22 6.76-19s11.26 34.06 13.28 31.27 18.25-23.6 18.25-23.6" fill="none" stroke="#fdcc4a" stroke-linecap="round" stroke-linejoin="round" stroke-width="2">
        </path>
        <ellipse cx="1080.96" cy="506.67" rx="1.41" ry="2.49" transform="rotate(-37 1083.54 506.98)" fill="#77c3fc" />
        <ellipse cx="1087.69" cy="489.77" rx="1.41" ry="2.49" transform="rotate(-36.95 1087.662 489.78)" fill="#77c3fc" />
        <ellipse cx="1097.53" cy="513.67" rx="1.41" ry="2.49" transform="rotate(-36.95 1097.5 513.662)" fill="#77c3fc" />
        <ellipse cx="1104.56" cy="492.58" rx="1.41" ry="2.49" transform="rotate(-36.95 1104.524 492.586)" fill="#77c3fc" />
        <ellipse cx="1117.21" cy="526.32" rx="1.41" ry="2.49" transform="rotate(-36.95 1117.18 526.31)" fill="#77c3fc" />
        <ellipse cx="1136.88" cy="499.61" rx="1.41" ry="2.49" transform="rotate(-36.95 1136.847 499.609)" fill="#77c3fc" />
    </g>
    <g data-name="Layer 307">
        <path d="M1229.79 753c-.81-1-19.51-22.53 7.2-29.11 20.32-5 22.09 27.05 15.17 30.5-15.1 7.52 2.49 8.83 2.49 8.83l17.07 16.47s31.24 12 35.65-22c0 0 11.37 47.52-35.65 36.4l-8.36 4.9a143.63 143.63 0 0 1-1.43 32.1s8.31 76.43 7.31 87.35l-21.38-67.37-14.86 84.32s-8.81-54.68-7.42-82c-.46-4.16 1.79-14.22 4.57-28.76 0 0-8.27-44.91-7.76-54.89 0 0 1.56-8.62 7.67-6.58.04 0 4.18-4.54-.27-10.16z" fill="#c7d9e8" />
        <path d="M1227.38 831.1s-17.1 20 5.39 109l19.15-67.22s15.14 37.38 17.32 45.6c0 0 3.58-68.47-5-93.82z" fill="#1d5577" />
        <path d="M1223.65 837.73s27.17 4.78 43.8 1.71c0 0 1.38-3.81-3.65-12.93z" fill="#12435b" />
        <path d="M1230.1 763.16s10.4 12.43 18.13 14.18c0 0 11.13-11.36 5-14.76 0 0 17.28 13.34 34.32 16.59l-.49 23.32s-14.94 1.65-23.74-3.49l4.57 25.63s-15.64 12.08-44.28 13.1c0 0 2.32-6.5 1-17.3-.88-7.43-10.4-16.2-10.55-24.64-.27-19.53 2.8-37.29 16.04-32.63z" fill="#fdcc4a" />
        <path d="M1245.46 721s-18.43-10.11-24.52 8.72l-4.68 24.73 20.8-1.57v-19.57a25.21 25.21 0 0 1 6.44 1.52c1.28.58 11.15-6 11.15-6s-.71-10.83-9.19-7.83z" fill="#1d5577" />
        <path d="M1251.92 872.85c2.28-1.79 4.84-15.9 7.91-21.4a46.52 46.52 0 0 0 4 21.8s4 17.39 0 29.78z" fill="#12435b" />
    </g>
    <path d="M798.15 651.08c0-6.24-5.1-14.28-11.34-17.88L287.87 345.13c-4.07-2.35-7.64-2.23-9.64-.14l-1.69-1.6L254.75 356l21.79 67.12v689.35c0 6.23 5.1 14.28 11.33 17.88l473.66 273.47 14.84 29 21.78-12.65-.49-3.53a8.59 8.59 0 0 0 .49-3z" fill="#77c3fc" />
    <g id="play-icon" data-name="Layer 259">
        <path d="M579 251.68c0-30.36-24.61-69.18-55-86.71s-55-7.13-55 23.24c0 15.44 6.37 33.06 16.62 49l-.46-.26L524 300.5l38.75-18.84-.35-.2c10.26-4.07 16.6-14.33 16.6-29.78z" fill="#0b86d1" />
        <path d="M569.76 255.4c0-30.37-24.61-69.19-55-86.72s-55-7.12-55 23.24c0 15.44 6.37 33.06 16.62 49l-.45-.27 38.75 63.59 38.75-18.84-.34-.2c10.3-4.1 16.67-14.36 16.67-29.8z" fill="#44beeb" />
        <path fill="#fff" d="M532.22 234.96l-26.93.8-.7-31.9 27.63 31.1z" />
        <g id="play-pie">
            <path id="light-blue" d="M446,174.2c-11.22-7.59-21.36-14.43-28.29-19.1-.13,2-.2,4-.2,6.13,0,25.16,9.15,53.46,24.29,80l23.61-2.56c-12.09-20-19.49-41.78-19.49-61C445.9,176.47,445.93,175.32,446,174.2Z" style="fill:#44beeb" />
            <path id="green" d="M495.71,137a89.05,89.05,0,0,1,23.39,9.69c15.71,9.07,30.25,22.41,42.18,37.72L576.33,169c-16.3-20.54-36-38.43-57.23-50.69-11.94-6.89-23.4-11.45-34-13.81" style="fill:#19ab4f" />
            <path id="orange" d="M579.13,213a157.36,157.36,0,0,1,12.46,38.56l28,11.43c-2.14-15.77-7.36-32.32-15-48.56" style="fill:#e06e31" />
            <path id="yellow" d="M561,184.06A168.88,168.88,0,0,1,579.27,213c7.38.32,17.17.93,25.38,1.5A232.54,232.54,0,0,0,576.33,169" style="fill:#fdcc4a">
            	<animate 
        		attributeName="d" 
        		attributeType="XML" 
        		values="
        			M561,184.06A168.88,168.88,0,0,1,579.27,213c7.38.32,17.17.93,25.38,1.5A232.54,232.54,0,0,0,576.33,169;
        			M551,180.56a245.31,245.31,0,0,1,26.63,42.11c10.76.46,25,1.36,37,2.18a339.09,339.09,0,0,0-41.28-66.28;
        			M551,180.56a245.31,245.31,0,0,1,26.63,42.11c10.76.46,25,1.36,37,2.18a339.09,339.09,0,0,0-41.28-66.28;
        			M561,184.06A168.88,168.88,0,0,1,579.27,213c7.38.32,17.17.93,25.38,1.5A232.54,232.54,0,0,0,576.33,169;
        			M561,184.06A168.88,168.88,0,0,1,579.27,213c7.38.32,17.17.93,25.38,1.5A232.54,232.54,0,0,0,576.33,169"
        		calcMode="spline" 
        		keyTimes="0;0.05;0.28;0.33;1" 
        		keySplines="0 0 1 1;0 0 1 1;0 0 1 1;0 0 1 1" 
        		repeatCount="indefinite" 
        		dur="10" 
        		begin="0s" 
        		fill="freeze"/>
            </path>
            <path id="dark-blue" d="M446,174.2c1.44-29.89,21.82-43.9,49.73-37.19l-10.65-32.52c-37.5-8.32-64.87,10.61-67.38,50.61" style="fill:#168cca">
            	<animate 
        		attributeName="d" 
        		attributeType="XML" 
        		values="
        			M446,174.2c1.44-29.89,21.82-43.9,49.73-37.19l-10.65-32.52c-37.5-8.32-64.87,10.61-67.38,50.61;
        			M446,174.2c1.44-29.89,21.82-43.9,49.73-37.19l-10.65-32.52c-37.5-8.32-64.87,10.61-67.38,50.61;
        			M448.09,186.5c1.7-35.15,25.67-51.62,58.49-43.73l-12.52-38.25C450,94.73,417.76,117,414.81,164;
        			M448.09,186.5c1.7-35.15,25.67-51.62,58.49-43.73l-12.52-38.25C450,94.73,417.76,117,414.81,164;
        			M446,174.2c1.44-29.89,21.82-43.9,49.73-37.19l-10.65-32.52c-37.5-8.32-64.87,10.61-67.38,50.61;
        			M446,174.2c1.44-29.89,21.82-43.9,49.73-37.19l-10.65-32.52c-37.5-8.32-64.87,10.61-67.38,50.61"
        		calcMode="spline" 
        		keyTimes="0;0.33;0.38;0.61;0.66;1" 
        		keySplines="0 0 1 1;0 0 1 1;0 0 1 1;0 0 1 1;0 0 1 1" 
        		repeatCount="indefinite" 
        		dur="10" 
        		begin="0s" 
        		fill="freeze"/>
            </path>
            <path id="red-2" d="M591.6,251.58a83.4,83.4,0,0,1,.7,10.58c0,19.2-7.39,32.4-19.48,38.47l23.61,29.82c15.13-9,24.28-26.73,24.28-51.89,0-5.07-1.09-15.55-1.09-15.55" style="fill:#d33a2f">
            	<animate 
        		attributeName="d" 
        		attributeType="XML" 
        		values="
        			M591.6,251.58a83.4,83.4,0,0,1,.7,10.58c0,19.2-7.39,32.4-19.48,38.47l23.61,29.82c15.13-9,24.28-26.73,24.28-51.89,0-5.07-1.09-15.55-1.09-15.55;
        			M591.6,251.58a83.4,83.4,0,0,1,.7,10.58c0,19.2-7.39,32.4-19.48,38.47l23.61,29.82c15.13-9,24.28-26.73,24.28-51.89,0-5.07-1.09-15.55-1.09-15.55;
        			M586.24,257.44a95.12,95.12,0,0,1,.8,12.13c0,22-8.47,37.15-22.33,44.11l27.06,34.19c17.36-10.32,27.85-30.66,27.85-59.49,0-5.82-1.25-17.83-1.25-17.83;
        			M586.24,257.44a95.12,95.12,0,0,1,.8,12.13c0,22-8.47,37.15-22.33,44.11l27.06,34.19c17.36-10.32,27.85-30.66,27.85-59.49,0-5.82-1.25-17.83-1.25-17.83;
        			M591.6,251.58a83.4,83.4,0,0,1,.7,10.58c0,19.2-7.39,32.4-19.48,38.47l23.61,29.82c15.13-9,24.28-26.73,24.28-51.89,0-5.07-1.09-15.55-1.09-15.55"
        		calcMode="spline" 
        		keyTimes="0;0.66;0.71;0.95;1" 
        		keySplines="0 0 1 1;0 0 1 1;0 0 1 1;0 0 1 1" 
        		repeatCount="indefinite" 
        		dur="10" 
        		begin="0s" 
        		fill="freeze"/>
            </path>
        </g>
    </g>
    <path d="M765 1431.1L266.09 1143c-6.24-3.6-11.34-11.65-11.34-17.88V362.57c0-6.23 5.1-8.39 11.34-4.79L765 645.84c6.24 3.61 11.34 11.65 11.34 17.89v762.58c.03 6.24-5.07 8.39-11.34 4.79z" fill="#2a6dc2" />
    <g data-name="Layer 263">
        <path d="M719.88 1060.26V801.79c0-6.88-5.58-15.69-12.46-19.67L303.56 548.94c-6.88-4-12.47-1.61-12.47 5.27v258.51z" fill="#44beeb" />
        <path d="M312.18 824.65V566.86c0-6.89 5.58-9.24 12.47-5.27l386.18 223a22.73 22.73 0 0 0-3.38-2.44L303.56 548.94c-6.88-4-12.47-1.61-12.47 5.27v258.51l21.06 12.16a1.77 1.77 0 0 1 .03-.23z" fill="#235ca7" />
        <path fill="#fff" d="M502.29 811.73l-13.34-7.71v-43.84l13.34 7.7v43.85zm19.77 11.41l-13.34-7.7v-43.85l13.34 7.7v43.85z" />
        <path fill="#e4f1f4" d="M291.62 804.05v11.7l428.94 247.65v-11.7L291.62 804.05z" />
        <path fill="#d33a2f" d="M291.74 804.12v11.7l134.93 77.9v-11.7l-134.93-77.9z" />
        <path fill="#245da6" d="M361.68 487.29l-62.29-35.96v-11.64l62.29 35.96v11.64zM230.24 981.33l-62.28-35.96v-11.64l62.28 35.95v11.65zm192.92 115.4l-62.28-35.95v-11.65l62.28 35.96v11.64zm191.71 108.43l-62.28-35.96v-11.64l62.28 35.96v11.64zM452.75 599.19l-153.36-88.54v-28.67l153.36 88.54v28.67z" />
        <path d="M714.06 1231.25l-155.43-89.74c-3.32-1.91-6-6.2-6-9.52v-89.15c0-3.32 2.72-4.47 6-2.56L714.06 1130c3.32 1.92 6 6.2 6 9.52v89.16c.03 3.32-2.68 4.49-6 2.57z" fill="#44beeb" />
        <path fill="#fff" d="M645.19 1138.13l-16.86-20.43-.83 19.47 17.69.96z" />
        <path d="M522.34 1121.27l-155.43-89.73c-3.32-1.92-6-6.21-6-9.53v-89.15c0-3.32 2.71-4.47 6-2.55L522.34 1020c3.32 1.92 6 6.21 6 9.53v89.15c.04 3.32-2.68 4.51-6 2.59z" fill="#44beeb" />
        <path fill="#fff" d="M453.48 1028.16l-16.86-20.44-.84 19.47 17.7.97z" />
        <path d="M329.42 1011.15L174 921.41c-3.32-1.92-6-6.2-6-9.52v-89.15c0-3.33 2.72-4.47 6-2.56l155.43 89.74c3.32 1.92 6 6.2 6 9.52v89.16c.03 3.32-2.69 4.47-6.01 2.55z" fill="#44beeb" />
        <path fill="#fff" d="M260.55 918.03l-16.86-20.43-.83 19.47 17.69.96z" />
        <path id="play-line" fill="none" stroke="#77c3fc" stroke-linecap="round" stroke-linejoin="round" stroke-dasharray="8,8" d="M511.07 330.45v109.24" />
    </g>
    <path d="M1555.66 728.82c0-3-2.45-6.87-5.45-8.61l-240.13-138.63c-2-1.14-3.68-1.08-4.64-.07l-.82-.77-10.48 6.08 10.48 32.31V950.9c0 3 2.46 6.87 5.46 8.6l228 131.62 7.14 14 10.48-6.09-.23-1.69a4.28 4.28 0 0 0 .23-1.45z" fill="#77c3fc" />
    <path d="M1539.72 1104.23l-240.13-138.64c-3-1.73-5.45-5.6-5.45-8.61V590c0-3 2.45-4 5.45-2.31l240.13 138.61c3 1.73 5.46 5.61 5.46 8.61v367c0 3.02-2.45 4.09-5.46 2.32z" fill="#2a6dc2" />
    <path d="M1517.55 1059l-200.63-115.86c-2.51-1.45-4.56-4.68-4.56-7.19V629.3c0-2.5 2.05-3.37 4.56-1.92l200.63 115.83c2.51 1.45 4.56 4.69 4.56 7.19v306.65c0 2.51-2.05 3.37-4.56 1.95z" fill="#245da6" />
    <path d="M1331 934.71c-2.51-1.45-4.56-4.68-4.56-7.19V632.86l-9.5-5.48c-2.51-1.45-4.56-.58-4.56 1.92V936c0 2.51 2.05 5.74 4.56 7.19L1517.55 1059c2.51 1.44 4.56.58 4.56-1.93v-12z" fill="#235ca7" />
    <g id="document-icon">
        <path d="M1450.21 536.6c0-14.61-11.85-33.3-26.46-41.73s-26.46-3.43-26.46 11.18c0 7.43 3.07 15.91 8 23.57l-.22-.13 18.65 30.6 18.65-9.06-.16-.1c4.93-1.93 8-6.93 8-14.33z" fill="#0b86d1" />
        <path d="M1445.74 538.39c0-14.61-11.84-33.3-26.45-41.74s-26.46-3.43-26.46 11.19c0 7.43 3.07 15.91 8 23.56l-.22-.12 18.65 30.6 18.65-9.07-.17-.09c4.94-1.96 8-6.9 8-14.33z" fill="#44beeb" />
        <path d="M1429 540.17l-21-12.1v-16.43l4.49-1.33 3.41-1.14 13.07 7.54zm-19.31-12.81l17.65 10.19v-20.13l-10.76-6.21-3 1-3.93 1.16z" fill="#fff" />
        <path fill="#fff" d="M1417.05 518.07l-8.23-4.75v-1.66l6.57 3.79v-5.74l1.66.96v7.4zm6.23 7.89l-9.75-5.63v-1.66l9.75 5.63v1.66zm0 3.18l-9.75-5.63v-1.66l9.75 5.64v1.65zm0 3.33l-9.75-5.64v-1.66l9.75 5.64v1.66z" />
        <g data-name="Layer 261">
            <path id="yellow-2" d="M1442.18,503.55a85.34,85.34,0,0,1,9,14.25c3.73.16,8.67.47,12.82.75a118.15,118.15,0,0,0-14.18-22.8" fill="#fdcc4a">
            	<animate 
        		attributeName="d" 
        		attributeType="XML" 
        		values="
        			M1442.18,503.55a85.34,85.34,0,0,1,9,14.25c3.73.16,8.67.47,12.82.75a118.15,118.15,0,0,0-14.18-22.8;
        			M1442.38,507.3a124.4,124.4,0,0,1,13.14,20.89c5.46.23,12.71.69,18.79,1.1a172.51,172.51,0,0,0-20.78-33.43;
        			M1442.38,507.3a124.4,124.4,0,0,1,13.14,20.89c5.46.23,12.71.69,18.79,1.1a172.51,172.51,0,0,0-20.78-33.43;
        			M1442.18,503.55a85.34,85.34,0,0,1,9,14.25c3.73.16,8.67.47,12.82.75a118.15,118.15,0,0,0-14.18-22.8;
        			M1442.18,503.55a85.34,85.34,0,0,1,9,14.25c3.73.16,8.67.47,12.82.75a118.15,118.15,0,0,0-14.18-22.8"
        		calcMode="spline" 
        		keyTimes="0;0.05;0.28;0.33;1" 
        		keySplines="0 0 1 1;0 0 1 1;0 0 1 1;0 0 1 1" 
        		repeatCount="indefinite" 
        		dur="10" 
        		begin="0s" 
        		fill="freeze"/>
            </path>
            <path d="M1449.65 495.85c-8.23-10.37-18.18-19.41-28.9-25.6-28.34-16.36-51.32-6.65-51.32 21.69 0 12.71 4.62 27 12.27 40.38l11.93-1.3c-6.11-10.12-9.85-21.1-9.85-30.79 0-20.42 16.55-27.42 37-15.63a75.82 75.82 0 0 1 21.3 19z" fill="#19ab4f" />
            <path d="M1383.82 498.49l-14.29-9.65c-.06 1-.1 2-.1 3.1 0 12.71 4.62 27 12.27 40.38l11.93-1.3c-6.11-10.12-9.85-21.1-9.85-30.79 0-.6.02-1.17.04-1.74z" fill="#44beeb" />
            <path id="blue-3" d="M1383.82,498.49c.73-15.1,11-22.17,25.12-18.78l-5.38-16.43c-18.94-4.2-32.76,5.36-34,25.56" fill="#168cca">
            	<animate 
        		attributeName="d" 
        		attributeType="XML" 
        		values="
        			M1383.82,498.49c.73-15.1,11-22.17,25.12-18.78l-5.38-16.43c-18.94-4.2-32.76,5.36-34,25.56;
        			M1383.82,498.49c.73-15.1,11-22.17,25.12-18.78l-5.38-16.43c-18.94-4.2-32.76,5.36-34,25.56;
        			M1385.86,501.71c.86-17.78,10-23.12,26.59-19.12l-6.34-22.36c-22.31-5-38.6,6.32-40.09,30.12;
        			M1385.86,501.71c.86-17.78,10-23.12,26.59-19.12l-6.34-22.36c-22.31-5-38.6,6.32-40.09,30.12;
        			M1383.82,498.49c.73-15.1,11-22.17,25.12-18.78l-5.38-16.43c-18.94-4.2-32.76,5.36-34,25.56;
        			M1383.82,498.49c.73-15.1,11-22.17,25.12-18.78l-5.38-16.43c-18.94-4.2-32.76,5.36-34,25.56"
        		calcMode="spline" 
        		keyTimes="0;0.33;0.38;0.61;0.66;1" 
        		keySplines="0 0 1 1;0 0 1 1;0 0 1 1;0 0 1 1;0 0 1 1" 
        		repeatCount="indefinite" 
        		dur="10" 
        		begin="0s" 
        		fill="freeze"/>
            </path>
        </g>
    </g>
    <path d="M1373.87 852.59l-86.77-50.1c-4-2.29-7.22-7.41-7.22-11.38v-54.27c0-4 3.25-5.34 7.22-3.05l86.77 50.1c4 2.29 7.22 7.41 7.22 11.38v54.27c0 3.97-3.25 5.34-7.22 3.05zm-.02 83.79l-86.73-50.07c-4-2.3-7.24-7.44-7.24-11.42v-54.22c0-4 3.26-5.36 7.24-3.06l86.73 50.07c4 2.3 7.24 7.44 7.24 11.42v54.22c0 3.98-3.26 5.36-7.24 3.06z" fill="#44beeb" />
    <path fill="#2a6dc2" d="M1388.57 693.29l-52.32-30.21v28.67l52.32 30.21v-28.67zm5.37 3.09v28.67l95.67 55.24v-28.67l-95.67-55.24zm-27.19 26.92l-30.5-17.61v28.67l30.5 17.6V723.3zm68.67 39.64l-63.3-36.55v28.67l63.3 36.55v-28.67zm5.37 3.1v28.67l48.82 28.19v-28.67l-48.82-28.19z" />
    <path fill="#1f9ce8" d="M1333.3 774.49l-39.12-22.59v17.72l39.12 22.58v-17.71zm3.31 1.91v17.72l30.17 17.41v-17.71l-30.17-17.42z" />
    <path d="M1347.04 806.92l-52.86-30.52v17.72l52.86 30.51v-17.71zm-39.68 35.98l-13.18-7.6v17.71l13.9 8.03-.72-18.14zm6.41 1.98v17.71l30.17 17.42v-17.72l-30.17-17.41zm55.89 58.75l-74.87-43.23v17.71l74.87 43.23v-17.71z" data-name="Layer 269" fill="#1f9ce8" />
    <ellipse cx="1409.25" cy="851.45" rx="4.28" ry="7.56" transform="rotate(-36.95 1409.204 851.437)" fill="#2a6dc2" />
    <path d="M1501.84 908.22v-10.3L1424 853v9.7c16.72 9 55.38 32.04 77.84 45.52zm-17.21-42.87v-10.3l-77.83-44.94v9.7c16.7 9.01 55.36 32.06 77.83 45.54z" fill="#2a6dc2" />
    <ellipse cx="1409.25" cy="876.2" rx="4.28" ry="7.56" transform="rotate(-36.95 1409.202 876.19)" fill="#2a6dc2" />
    <ellipse cx="1409.25" cy="901.74" rx="4.28" ry="7.56" transform="rotate(-36.95 1409.204 901.727)" fill="#2a6dc2" />
    <ellipse cx="1409.25" cy="926.5" rx="4.28" ry="7.56" transform="rotate(-36.95 1409.201 926.48)" fill="#2a6dc2" />
    <path d="M1501.84 983.27V973L1424 928v9.7c16.72 9.05 55.38 32.09 77.84 45.57zm-29.05-77.37L1424 877.74v9.7c10.64 5.74 30.18 17.17 48.78 28.19zm15.11 34.26l-63.9-36.88V913c13.61 7.34 41.77 24 63.89 37.19z" fill="#2a6dc2" />
    <path id="document-line" fill="none" stroke="#77c3fc" stroke-linecap="round" stroke-linejoin="round" stroke-width=".688" stroke-dasharray="5.5,5.5" d="M1419.03 575.01v51.67" />
    <path d="M1210.52 1437.4l-216.14-124.79c-9.27-5.35-16.86-17.32-16.86-26.6V906c0-9.28 7.59-12.49 16.86-7.13l216.14 124.78c9.27 5.36 16.86 17.33 16.86 26.61v380c0 9.29-7.59 12.49-16.86 7.14z" fill="#e6f9ff" />
    <path d="M1213.33 1022.22L997.19 897.43c-5.59-3.22-10.55-3.32-13.62-.88 2.93-.77 6.7-.08 10.81 2.29l216.14 124.78c9.27 5.36 16.86 17.33 16.86 26.61v380c0 3.69-1.21 6.4-3.24 8 3.69-1 6-4.25 6-9.42v-380c.05-9.27-7.54-21.24-16.81-26.59z" fill="#44beeb" />
    <path id="PIE-GREEN" d="M1090.72 1066l24-45.53c-32.8-32.21-70.16-37.94-83.43-12.79s2.58 71.65 35.38 103.86 70.16 37.93 83.43 12.78c4-7.64 5.36-17.26 4.36-27.85z" fill="#19ab4f" />
    <path ID="PIE-BLUE" d="M1130 1034.46l-11.48 21.76 33.85 16.71a71.4 71.4 0 0 0-22.37-38.47z" fill="#0c79a8">
    </path>
    <path d="M1178.43 1334.06l-92.13-53.19c-3.46-2-6.29-6.46-6.29-9.92s2.83-4.65 6.29-2.66l92.13 53.19c3.46 2 6.29 6.47 6.29 9.93 0 3.45-2.83 4.65-6.29 2.65zm0-28.06l-92.13-53.19c-3.46-2-6.29-6.46-6.29-9.92s2.83-4.65 6.29-2.66l92.13 53.19c3.46 2 6.29 6.47 6.29 9.93 0 3.45-2.83 4.65-6.29 2.65zm0-28.07l-92.13-53.2c-3.46-2-6.29-6.46-6.29-9.92s2.83-4.65 6.29-2.66l92.13 53.2c3.46 2 6.29 6.46 6.29 9.92s-2.83 4.65-6.29 2.66z" fill="#fff" />
    <path id="YELLOW-BAR-A" d="M1124.78 1234.37l-38.48-22.22c-3.46-2-6.29-.8-6.29 2.66s2.83 7.93 6.29 9.92l38.48 22.22z" fill="#fdcc4a">
        <animate id="ybagrow" attributeName="d" attributeType="XML" from="M1124.78 1234.37l-38.48-22.22c-3.46-2-6.29-.8-6.29 2.66s2.83 7.93 6.29 9.92l38.48 22.22z" to="M1175.76,1263.81l-89.46-51.66c-3.46-2-6.29-.8-6.29,2.66s2.83,7.93,6.29,9.92l89.57,51.72Z" dur="5s" begin="0s;ybashrink.end" />
        <animate id="ybashrink" attributeName="d" attributeType="XML" from="M1175.76,1263.81l-89.46-51.66c-3.46-2-6.29-.8-6.29,2.66s2.83,7.93,6.29,9.92l89.57,51.72Z" to="M1124.78 1234.37l-38.48-22.22c-3.46-2-6.29-.8-6.29 2.66s2.83 7.93 6.29 9.92l38.48 22.22z" dur="5s" begin="ybagrow.end" />
    </path>
    <path id="ORANGE-BAR-A" d="M1159.93 1282.73l-73.63-42.51c-3.46-2-6.29-.8-6.29 2.66s2.83 7.93 6.29 9.92l73.63 42.51z" fill="#e06e31">
        <animate id="obagrow" attributeName="d" attributeType="XML" from="M1159.93 1282.73l-73.63-42.51c-3.46-2-6.29-.8-6.29 2.66s2.83 7.93 6.29 9.92l73.63 42.51z" to="M1090.71,1242.62l-4.41-2.4c-3.46-2-6.29-.8-6.29,2.66s2.83,7.93,6.29,9.92l4.41,2.4Z" dur="5s" begin="0s;obashrink.end" />
        <animate id="obashrink" attributeName="d" attributeType="XML" from="M1090.71,1242.62l-4.41-2.4c-3.46-2-6.29-.8-6.29,2.66s2.83,7.93,6.29,9.92l4.41,2.4Z" to="M1159.93 1282.73l-73.63-42.51c-3.46-2-6.29-.8-6.29 2.66s2.83 7.93 6.29 9.92l73.63 42.51z" dur="5s" begin="obagrow.end" />
    </path>
    <path id="BLUE-BAR-A" d="M1144.39 1301.83l-58.09-33.54c-3.46-2-6.29-.8-6.29 2.66s2.83 7.93 6.29 9.92l58.09 33.54z" fill="#168cca">
        <animate id="bbagrow" attributeName="d" attributeType="XML" from="M1144.39 1301.83l-58.09-33.54c-3.46-2-6.29-.8-6.29 2.66s2.83 7.93 6.29 9.92l58.09 33.54z" to="M1177.87,1321.14l-91.57-52.85c-3.46-2-6.29-.8-6.29,2.66s2.83,7.93,6.29,9.92l91.57,52.85Z" dur="4s" begin="0s;bbashrink.end" />
        <animate id="bbashrink" attributeName="d" attributeType="XML" from="M1177.87,1321.14l-91.57-52.85c-3.46-2-6.29-.8-6.29,2.66s2.83,7.93,6.29,9.92l91.57,52.85Z" to="M1144.39 1301.83l-58.09-33.54c-3.46-2-6.29-.8-6.29 2.66s2.83 7.93 6.29 9.92l58.09 33.54z" dur="4s" begin="bbagrow.end" />
    </path>
    <path fill="#ccdee2" d="M1057.23 1265.63l-58.15-33.57v-8.64l58.15 33.58v8.63zm14.13-21l-72.28-41.73v-8.63l72.28 41.73v8.63zm89.56-46.75l-72.28-41.73v-8.63l72.28 41.73v8.63zm-115.66 1.13l-46.18-26.66v-8.63l46.18 26.66v8.63z" />
    <path d="M977.52 1087.7h-15.95a4.13 4.13 0 0 0-4.28 3.71s-.29 2.62 2.81 6.21l17.42 20.11z" fill="#e6f9ff" />
    <path d="M959.4 1087.7h18.12" fill="none" stroke="#44beeb" stroke-linecap="round" stroke-linejoin="round" stroke-width="2" />
    <g data-name="Layer 277">
        <path d="M1024.43 447s-9.13 9-8.33 20.9l6.61 5-11 8.43s3 14.51-.18 35.84 13.23 77.83 13.23 77.83l-1.41-49.19 10.43 54.36s-1-34.32 2-64.43c1.38-13.94-8.3-14.83 5.48-29.89 1.7-1.86 2.41-13.17 1.71-14.67-7.09-15.31-8-18.37-10.72-18.19s30.52-27.83-7.82-25.99z" fill="#c7d9e8" />
        <path d="M1021.15 473.93s-19.82 1.9-10.44 29l14.8-8.59s13.27-44.8-4.36-20.41z" fill="#c7d9e8" />
        <path d="M1033.7 473.84s-1.21 9-13.92 9.15l2.93-10s-22.34 15-11.39 22.5l-1.83 22.3 24.29 1.08a274.71 274.71 0 0 1 14.65-26.25s4.82-21.99-14.73-18.78z" fill="#e06e31" />
        <path d="M1009.24 515.2s-9.78 31.07 15.52 79.76l-1.41-49.19 10.43 54.36s13.9-62.91 0-81.3zm14.13 84.55a8.5 8.5 0 0 1-4.76 7.33l7 .31s2.52-14.98-2.24-7.64zm10.98 2.46s-1.91 7.93-6.45 8.87l5 1.42s9.41-.76 1.45-10.29zm11.72-146.12s-2.84 11.69-10.2 13.6c0 0-3.12 3.57 1.16-9.61l-1.41-5.82-4.14 3.9-2.43-.73-2.68-1.79-7.76-3.9 1.55-2s6.85-8.26 15.67-4.73l5 4" fill="#1d5577" />
        <path d="M1038 475.83c-4 2.53-1 36.69-1 36.69s10.64-8.68 11.56-15.34c2.03-14.98-5.34-24.65-10.56-21.35z" fill="#c7d9e8" />
        <path d="M1034.11 520l11.9-32.3c3 4.74 2.78 11.81-7.9 21.43zm-14.95-29.84s2.65 8.49 14.22 4.46c0 0-9.9 11.55-14.22-4.46zm19.72-29.58c-.48-1.85-5.94-2.19-9.35 4.6a24.59 24.59 0 0 1-9.75 10l-3.22 8.59 15.68-6.41V473s7.29-9.91 6.64-12.42z" fill="#12435b" opacity=".21" />
        <path d="M1023.35 545.77s-1.15-14.29-6.4-7.63-.91 17.13-1.13 25.51c-.19 7.3 8.94 31.31 8.94 31.31z" fill="#12435b" />
        <path d="M1019.19 503.62s5.38 2.11 6.19 5.62.39-7.49-6.19-5.62z" fill="#12435b" opacity=".21" />
    </g>
    <g data-name="Layer 319">
        <path d="M1602.2 663.66s-9.09 9.06-8.24 20.93l6.63 5-11 8.48s3 14.5 0 35.84-.27 72.86-.27 72.86l12.26-44.36 9.26 8s4.14 12.08 7-18c1.32-13.94-16.46-14.88-2.75-30 1.69-1.86 6.18-13 5.87-14.67-3.71-19-4.26-18.11-7-17.92s26.57-28.2-11.76-26.16z" fill="#c7d9e8" />
        <path d="M1616.71 677.16c-.88-1.7-6-2.17-9.33 4.63s-13.42 2.8-13.42 2.8l6.63 5-.9 14.85 10.72-8.81s9.59-12.17 6.3-18.47z" fill="#12435b" opacity=".21" />
        <path d="M1589.59 698.07a343.25 343.25 0 0 0-16.16 44.37l23.07-21.58s10.61-47.26-6.91-22.79z" fill="#c7d9e8" />
        <path fill="#12435b" opacity=".21" d="M1573.43 742.44l17.1-26.98-2.73 13.54-14.37 13.44z" />
        <path d="M1611.59 690.43s-11.9 13.31-13.91 13.47l2.91-14.31s-24.54 12.36-10.24 20.47l-.44 24.56 26.67.78s-3-9.86 7.12-21.58c0 0 7.42-26.68-12.11-23.39z" fill="#19ab4f" />
        <path d="M1588.71 731.9s-7.86 16.74.59 74.87l12.26-44.36 6 49.6s20.41-61.22 9-76.61z" fill="#1d5577" />
        <path d="M1587.47 809.2a8.52 8.52 0 0 1-4.73 7.36l8.39-2.53s1.07-12.18-3.66-4.83zm19.91 4.94s-2.17 9.2-7.43 10.31l5.26-1.11s11.44 1.8 2.17-9.2zm15.53-145.3s3.33 10.74-3.69 13.82c0 0-8.58 7.2-4.36-6l-1.43-5.81-2.61.84-2.66-1.29-1.08-1.57-2.08 1-5.31-3.45h-1.75s6.81-8.29 15.65-4.8l5.06 4" fill="#1d5577" />
        <path d="M1615.89 683.87a35.57 35.57 0 0 0-10.37 18.56s5.32-3.92 6.85-4.39c-1.52 3.05-5.46 5.89-4.83 10.55 0 0 6.07-5.6 9.85-9 0 0 2.13-9.37 2.83-12.16.7-2.25 5.86-8.34 2.11-13.26l-3.59 5.34z" fill="#1d5577" />
        <path d="M1597.5 704.44s4 7.25 16 8.78c-1.08.78-8.79 10.26-16-8.78z" fill="#12435b" opacity=".21" />
        <path d="M1620.37 695.68c-4.66-1-27.64 48.75-27.64 48.75s29.09-25 31-30.61c1.35-4.15 2.08-16.92-3.36-18.14z" fill="#c7d9e8" />
        <path d="M1592.73 744.43l31.73-42s3 13-10.93 23.11z" fill="#12435b" opacity=".21" />
        <path d="M1601.56 762.41s-1.22-14.28-6.43-7.6-6.94 14.34-5.83 22.65c1.23 9.13 0 29.31 0 29.31z" fill="#12435b" />
        <path d="M1598.88 688.3s-4.89 1.08-5.13 9.63c0 0-.41 4.57-1 5.27a5.93 5.93 0 0 0 3.48-4.8l1.47 1.52s.36-5.65 2.32-7.39l.59-2.94z" fill="#1d5577" />
    </g>
    <g data-name="Layer 322">
        <path d="M1315.35 1059.87s2.81-32.92 11.33-36.15c3.28-1.24 19.22-6.24 21.88-3.58l19.36 5.92z" fill="#e06e31" />
        <path d="M1350.87 1006.33s12-21-12-24-19.48 39.24-10.48 38.37c5.26-.51 5.43 4.48 3.17 6.49-1.48 1.32-6 3-7.17 5.71-7.07 16-17 63.11-17 63.11s31.83-21.85 31.3-38c0 0-15.14 70.07-25.08 134.06l31.94-50.63 36.22 47.84s-8.73-47.86-7.51-77.06c1.38-33 7-75.5-9.45-80-.02-.02-22.49-8.22-13.94-25.89z" fill="#c7d9e8" />
        <path d="M1324.13 989.92s-1.82-3.71 5.64-8.95 9.16-4.81 14.29-3.46h4l2 1 8.3 3.67 1.85 7.43s-1.7 22-11.24 25.53c0 0 2.84-19.94-3.26-15.91l-1.81 3.74s-6.07-3.25-6.07-10.36a32.26 32.26 0 0 0-13.7-2.69z" fill="#0a628e" />
        <path d="M1359.82 993s-1.31 18.7-10.85 22.2c0 0 2.84-19.94-3.26-15.91l-1.81 3.74s-5 1.68-5-5.43" fill="#0a4177" />
        <path d="M1313.67 1198.49s-4.77-4.37-8.08-3.34-1.21 8.36 8.08 3.34zm75.08 7.85s-10.92 2.92-7.17 7.4 7.99 1.15 7.17-7.4z" fill="#1f9ce8" />
        <path d="M1321.64 1102.1s-13.71 33.76-8.05 90l32.12-50s5.72 41 39.83 61.69c0 0-11.3-52.66-1.43-97.27 0-.09-58.11 8.13-62.47-4.42zm19.67-42.43s12.27 15.32 10.88 21.47l8-4.94s-10.91-19.03-18.88-16.53z" fill="#1d5577" />
        <path d="M1324.41 1106.85s15 21.93 56.39 22.24c0 0 3.51-9.35 3.31-13.33z" fill="#12435b" />
        <path d="M1323.48 1080.92l-1.84 21.18c4.29 17.44 62.47 19.64 62.47 19.64 5-51.92-8.92-87.2-8.92-87.2-.58-9.28-19.28-9.5-19.28-9.5l-20.75 9.5-3.58-7.32-7.17-.27-5.07 11-4 21.92s10.66 17.59 8.14 21.05z" fill="#e06e31" />
        <path d="M1355.88 1045.55c4.33 8.53-1.54 59.52-1.54 59.52s32.63-7.71 19.9-67.12z" fill="#351910" opacity=".23" />
        <path d="M1359.71 1071.26s22.47 33.24 24.16 12c0-.03 2.23-10.44-24.16-12z" fill="#1d5577" />
        <path d="M1354.34 1034.85s13 56.46 10.89 75.26c0 0 25.89-18.42 13.94-55.43 0 0-1.26-37.68-24.83-19.83z" fill="#c7d9e8" />
        <path d="M1352.8 1030.86l7.73 40.36s20.83 2 24.12 12c0 0 8.37-33.45-10.36-52.41 0 .04-4.66-10.12-21.49.05z" fill="#e06e31" />
        <path d="M1345.71 1142s-11.88-22.6-12.88-10.28 2 23.54-3.66 26.41a57.46 57.46 0 0 0-8.56 13.09s-5.26 6.79-7 20.82z" fill="#12435b" />
        <path d="M1329.77 1020.73c0-1.26 9.93.63 13.65-6.93 0 0 6.67-7.68 4.06 5.29s-10.19 26.42-13.42 22.6-3.7-5.14-4.29-20.96z" fill="#351910" opacity=".23" />
        <path d="M1365.79 1112.06s12.67-18.75 7.65-37.89c0 0 22.37 3.24-7.65 37.89z" fill="#12435b" opacity=".21" />
        <path d="M1387.14 1203.48s-7 4.1-30.86-31.37c0 0 25.47 17.15 24.87 0 0 0-2.92 17.68 5.99 31.37z" fill="#12435b" />
        <path d="M1324.41 1042.35s-5.44 2.36-4.73 13.15-2.61 30.34-7.46 35.44c0 0 9.66-3.1 12.19-16.45 0 0 2.06-22.49 2.3-23.2s.29-11.47-2.3-8.94z" fill="#351910" opacity=".23" />
        <path fill="#1f9ce8" d="M1233.03 943.44v8.46l8.75 7.57-8.75-16.03zm36.19-23.19v8.46l8.75 7.57-8.75-16.03z" />
        <path d="M1334.15 1056.08s6.59 16.77 18.23 21.27c0 0-15.28 2.51-18.23-21.27z" fill="#351910" opacity=".23" />
    </g>
    <g data-name="Layer 306">
        <path fill="url(#c)" d="M977.52 1025.79l129.36 230.74v-110.14L977.52 910.9v114.89z" />
        <path fill="url(#h)" d="M979.17 1239.02l52.7 94 91.31 53.25-144.01-262.14v114.89z" />
        <g data-name="Layer 308">
            <path d="M1227.67 772.05s26.18 21.25 59.92 10.64c0 0-12.89 23.36-57.4 19.37 0 0-29.58-19.9-2.52-30.01z" fill="#c7d9e8" />
            <path d="M1257.16 786.68s-5.3-17.66 22.81-2.2c.03 0-2.22.82-22.81 2.2z" fill="#382b03" opacity=".23" />
            <path d="M1241.21 791.61c-2.41-.3-15-10.87-5.76-15.21s3.46-16.92 3.46-16.92.32-5.84 13.25-5.06c0 0-15.64 6.75 1.11 8.16 0 0 6.57 31.36-12.06 29.03z" fill="#382b03" opacity=".23" />
            <path d="M1217.33 783.77s4 24.07 19.73 34.12 2.48-3.08 6.47-6.36 10.93 3.13 15.54-.95 0-25.61 0-25.61-48.4-9.88-41.74-1.2z" fill="#382b03" opacity=".23" />
            <path d="M1227.67 767.69s24.78 18.59 40.94 15l4 19.37s-26.71 6.57-45.22 2c-.01-.01-29.39-21.06.28-36.37z" fill="#fdcc4a" />
        </g>
        <path fill="url(#i)" d="M1665.84 725.15l129.36 230.74V845.75l-129.36-235.49v114.89z" />
        <path fill="url(#j)" d="M1068.48 517l65.37 116.59v-55.65l-65.37-119V517z" />
        <path d="M1227.38 1059.14v93.4L1135.75 981l77.15 44.22a36.11 36.11 0 0 1 14.48 33.92z" fill="url(#k)" />
    </g>
</svg>