<svg xmlns="http://www.w3.org/2000/svg" xmlns:xlink="http://www.w3.org/1999/xlink" viewBox="0 0 2120 1600">
    <style>
    #stroke-main,
    #stroke-tail {
        animation: stroke 2s linear infinite;
    }

    #location-icon {
        animation: float 2s ease-in-out infinite alternate;
    }

    @keyframes stroke {
        0% {
            stroke-dashoffset: 0
        }
        to {
            stroke-dashoffset: 35
        }
    }

    @keyframes float {
        0% {
            transform: translateY(-1%)
        }
        to {
            transform: translateY(0.5%)
        }
    }
    </style>
    <defs>
        <linearGradient id="a" x1="1141.77" y1="922.43" x2="1209.05" y2="922.43" gradientUnits="userSpaceOnUse">
            <stop offset="0" stop-color="#fff" stop-opacity="0" />
            <stop offset=".1" stop-color="#fff" stop-opacity=".07" />
            <stop offset=".3" stop-color="#fff" stop-opacity=".24" />
            <stop offset=".58" stop-color="#fff" stop-opacity=".53" />
            <stop offset=".93" stop-color="#fff" stop-opacity=".92" />
            <stop offset="1" stop-color="#fff" />
        </linearGradient>
        <linearGradient id="c" x1="1168.65" y1="957.22" x2="1212.04" y2="957.22" xlink:href="#a" />
        <linearGradient id="d" x1="294.91" y1="1038.14" x2="280.24" y2="1012.74" xlink:href="#a" />
        <linearGradient id="b" x1="695.56" y1="953.77" x2="648.33" y2="906.54" gradientUnits="userSpaceOnUse">
            <stop offset="0" stop-color="#fff" stop-opacity="0" />
            <stop offset=".11" stop-color="#fff" stop-opacity=".02" />
            <stop offset=".24" stop-color="#fff" stop-opacity=".07" />
            <stop offset=".37" stop-color="#fff" stop-opacity=".15" />
            <stop offset=".5" stop-color="#fff" stop-opacity=".27" />
            <stop offset=".63" stop-color="#fff" stop-opacity=".43" />
            <stop offset=".77" stop-color="#fff" stop-opacity=".61" />
            <stop offset=".91" stop-color="#fff" stop-opacity=".83" />
            <stop offset="1" stop-color="#fff" />
        </linearGradient>
        <linearGradient id="e" x1="265.83" y1="1051.58" x2="257.55" y2="1037.23" xlink:href="#a" />
        <linearGradient id="f" x1="624.35" y1="1001.39" x2="592.71" y2="969.75" xlink:href="#b" />
        <linearGradient id="g" x1="2105.76" y1="1261.24" x2="1161.9" y2="1261.24" gradientUnits="userSpaceOnUse">
            <stop offset="0" stop-color="#fff" />
            <stop offset="1" stop-color="#1b142d" />
        </linearGradient>
        <filter id="grain">
            <feTurbulence type="fractalNoise" baseFrequency="80" result="noisy" />
            <feColorMatrix type="saturate" values="0" />
            <feBlend in="SourceGraphic" in2="noisy" mode="multiply" />
        </filter>
    </defs>
    <g data-name="Layer 344">
        <path id="stroke-tail" d="M1737.32 723.23s49.37-14.84 141.57-141.36 174.18-66.73 174.18-66.73" fill="none" stroke="#ff73c3" stroke-linecap="round" stroke-linejoin="round" stroke-width="6" stroke-dasharray="12,23" />
        <circle cx="1215.29" cy="855.53" r="6.79" fill="#fff" />
        <circle cx="1215.29" cy="855.53" r="6.79" fill="#fff" />
        <path d="M1921.43 317.6s-6.49-43.45-49.16-33.46 1.5 55.78 1.5 55.78 24 43 46.35 34.44 14.39-31.09 1.31-56.76zm-107.62-95.88s-39.39 33.3-1.69 47.67 52.08-59.54 1.69-47.67z" fill="#f0f8ff" />
        <path fill="#355c72" d="M1269.27 798.5l3.14 316.9 19.33-41.33-.94-289.72-21.53 14.15z" />
        <path fill="#2d4b60" d="M1264.58 803.07l-46.25 30.33 50.94 4.67.06-36.25-4.75 1.25z" />
        <path d="M1111.58 986.57l57.5 5.1 9.5-29.6h8s-16-12-6.5-13.74 20.5 2.55 20.5 2.55l8-16.31 12.83 21.58v-31.58l21.17-11 52.51 3s22.11 18 7.18 27.5l-21.45 2.28-59.41 9.8-11.9 38.42-20.15 7.13-22.28 31.87H1135l-13.44-10-16.5-11.84z" fill="#1b313f" />
        <path fill="#366789" d="M1152.74 876.89l68.67 16.51 71.54-16.51-81.66-14.57-58.55 14.57z" />
        <path fill="#0f222b" d="M1129.08 1098.3l-7-25.23 30.66-3 45.34-66.5 20-5.57 6.15-26.08 42.71-4.55 28.15 7.48 25.73 35.36 40.59.73 4.67-33.91 7.72 85.12-60.72 36.15h-184z" />
        <path opacity=".36" fill="url(#a)" d="M1205.46 880.66l-60.66 41.46-3.03 42.08 67.28-45-3.59-38.54z" />
        <path opacity=".36" fill="url(#c)" d="M1209.72 930.28l-39.12 26.73-1.95 27.15 43.39-29.03-2.32-24.85z" />
        <path id="blob" d="M1019.85,303.5C1532.17-49.93,1846,429.36,1854.16,443.26c431.21,732.21-684.77,662-1102.63,653.63-227.86-4.55-689.45,20.69-659.45-274.82,0,0,12-152,161.19-181.29,109.39-21.46,481.4-160.21,554.81-218.09C881.74,364.59,1019.85,303.5,1019.85,303.5Z" fill="#eaf3f9">
            <animate id="blob1" attributeName="d" attributeType="XML" from="M1019.85,303.5C1532.17-49.93,1846,429.36,1854.16,443.26c431.21,732.21-684.77,662-1102.63,653.63-227.86-4.55-689.45,20.69-659.45-274.82,0,0,12-152,161.19-181.29,109.39-21.46,481.4-160.21,554.81-218.09C881.74,364.59,1019.85,303.5,1019.85,303.5Z" to="M1019.28,299.08C1580.42,116.8,1844,425.88,1853.59,438.83,2488,1293.55,1051,1191.53,633.1,1183.18c-227.85-4.55-521.6-70-491.6-365.53,0,0,5.71-125.84,154.91-155.13C405.79,641.05,734.1,476.15,807.5,418.26,881.17,360.17,1019.28,299.08,1019.28,299.08Z" dur="4s" begin="0s;blob4.end" />
            <animate id="blob2" attributeName="d" attributeType="XML" from="M1019.28,299.08C1580.42,116.8,1844,425.88,1853.59,438.83,2488,1293.55,1051,1191.53,633.1,1183.18c-227.85-4.55-521.6-70-491.6-365.53,0,0,5.71-125.84,154.91-155.13C405.79,641.05,734.1,476.15,807.5,418.26,881.17,360.17,1019.28,299.08,1019.28,299.08Z" to="M979,281c687.18,270.18,632.64,187.64,816.84,319.17,866.31,618.54-634.2,514-1052.06,505.65-227.86-4.55-613.79,105.39-583.79-190.11,0,0-1-164,148.17-193.29C417.5,700.91,475,615.55,600.07,404.43,720.68,200.83,979,281,979,281Z" dur="8s" begin="blob1.end" />
            <animate id="blob3" attributeName="d" attributeType="XML" from="M979,281c687.18,270.18,632.64,187.64,816.84,319.17,866.31,618.54-634.2,514-1052.06,505.65-227.86-4.55-613.79,105.39-583.79-190.11,0,0-1-164,148.17-193.29C417.5,700.91,475,615.55,600.07,404.43,720.68,200.83,979,281,979,281Z" to="M1019.28,299.08C1580.42,116.8,1844,425.88,1853.59,438.83,2488,1293.55,1051,1191.53,633.1,1183.18c-227.85-4.55-521.6-70-491.6-365.53,0,0,5.71-125.84,154.91-155.13C405.79,641.05,734.1,476.15,807.5,418.26,881.17,360.17,1019.28,299.08,1019.28,299.08Z" dur="8s" begin="blob2.end" />
            <animate id="blob4" attributeName="d" attributeType="XML" from="M1019.28,299.08C1580.42,116.8,1844,425.88,1853.59,438.83,2488,1293.55,1051,1191.53,633.1,1183.18c-227.85-4.55-521.6-70-491.6-365.53,0,0,5.71-125.84,154.91-155.13C405.79,641.05,734.1,476.15,807.5,418.26,881.17,360.17,1019.28,299.08,1019.28,299.08Z" to="M1019.85,303.5C1532.17-49.93,1846,429.36,1854.16,443.26c431.21,732.21-684.77,662-1102.63,653.63-227.86-4.55-689.45,20.69-659.45-274.82,0,0,12-152,161.19-181.29,109.39-21.46,481.4-160.21,554.81-218.09C881.74,364.59,1019.85,303.5,1019.85,303.5Z" dur="4s" begin="blob3.end" />
        </path>
        <g id="location-icon">
            <path d="M613.2 336.25h-.07c.09-.82.16-1.64.2-2.45 1.44-26-19-38.8-45.55-28.68S518.46 344.5 517 370.46c0 .81-.07 1.61-.07 2.4h-.07s-5.56 49.42 43.66 62.77c52.89-52.16 52.68-99.38 52.68-99.38z" fill="#a83983" />
            <path d="M607.3 333.25h-.06c.08-.82.15-1.64.19-2.45 1.44-26-18.95-38.8-45.55-28.68s-49.32 39.36-50.76 65.32c-.05.81-.07 1.61-.07 2.4h-.07s-5.56 49.42 43.67 62.77c52.86-52.14 52.65-99.36 52.65-99.36z" fill="#ff73c3" />
            <path d="M540.93 356.57c0-10.26 8.32-22.29 18.58-26.85a21.37 21.37 0 0 1 3.85-1.31c-3.05-.85-6.79-.5-10.85 1.31-10.26 4.56-18.58 16.59-18.58 26.85 0 8.94 6.31 13.59 14.72 11.62-4.65-1.3-7.72-5.42-7.72-11.62z" fill="#a83983" />
        </g>
        <path fill="#175fad" d="M797.46 1106.84H617.55v-565.9l179.91 39.34v526.56z" />
        <ellipse cx="423.73" cy="1097.07" rx="6.32" ry="7.84" fill="#2d4b60" />
        <path fill="#9cbbd4" d="M510.11 1048.75l-58.69-.92-20.71 3.99-6.41 19.81-13.06 2.72v21.34h98.87v-46.94z" />
        <ellipse cx="459.08" cy="1098.09" rx="6.87" ry="8.51" fill="#2d4b60" />
        <ellipse cx="494.05" cy="1098.49" rx="5.75" ry="7.12" fill="#6c727a" />
        <ellipse cx="414.04" cy="1079.37" rx="1.87" ry="2.78" fill="#fff" />
        <ellipse cx="426.72" cy="1077.89" rx="2.02" ry="3" fill="#fff" />
        <ellipse cx="507.6" cy="1106.11" rx="101.53" ry="3.89" fill="#2d4b60" opacity=".11" />
        <path fill="#175fad" d="M559.34 1106.26H445.4l-.8-376.88 114.74 15.52v361.36z" />
        <path fill="#4387e8" d="M383.42 759.82v346.44h61.98l-.8-376.88-61.18 30.44z" />
        <path fill="#175fad" d="M1611.64 1107.62l-730.62.22V321.82l732.34 331.86-1.72 453.94z" />
        <path fill="#4387e8" d="M530.13 593.89v512.95h87.42v-565.9l-87.42 52.95z" />
        <ellipse cx="613.39" cy="1069.14" rx="25.75" ry="36.63" fill="#172d3a" />
        <path fill="#172d3a" d="M613.33 1105.77h13.97l-10.97-10.61-3 10.61z" />
        <ellipse cx="625.82" cy="1069.14" rx="25.75" ry="36.63" fill="#2d4b60" />
        <path fill="#2d4b60" opacity=".35" d="M656 791.48l31.58 57.02 108.36 10.06-6.86-104.94L656 791.48z" />
        <path fill="#2d4b60" opacity=".36" d="M470.58 858.56l17.72 46.59 41.78 1.83v-70.83l-59.5 22.41z" />
        <path fill="#9cbbd4" d="M537.74 910.82l-54.94 18-8.65 4.66 58.43-16.83 5.16-5.83zm-6.08 8.5l-57.51 14.83-2.45 3.33 59.96-14.66v-3.5zm-59.96 19.33l-1.12 3.17 61.08-13.42v-3.33l-59.96 13.58zm-1.12 4.29l61.08-12.5v3.29l-61.08 11.59v-2.38zm318.5-97.96L685.73 875.8l-16.17 9.24 108.27-28.38 11.25-11.68zm-11.21 13.58l-108.28 27.75-4.48 6.45 112.91-27.22-.15-6.98zm-112.72 36.42l-2 6.08 115.06-26.63-.14-6.67-112.92 27.22zm-1.95 8.22l115.06-26.31.14 6.27-115.11 24.56-.09-4.52z" />
        <path fill="none" stroke="#5594ad" stroke-miterlimit="10" stroke-width="3" d="M428.74 876.89l45.41 28.26m145.68-83.13l45.41 28.26" />
        <path fill="#50bfe7" d="M465.95 846.35l-59.87 42.74 123.99-40.59.07-27.68-64.19 25.53zm185.63-67.03l-71.56 63.22 182.37-65.48 56.74-68.24-167.55 70.5z" />
        <path fill="#4387e8" d="M530.08 906.98h15.7v30.9h-15.7z" />
        <path fill="#2d4b60" opacity=".35" d="M911.08 387.42v19.09l32.72 14.93v-19.4l-32.72-14.62zm13.33 28.31v19.09l32.72 14.93v-19.4l-32.72-14.62z" />
        <path fill="#7e99ae" opacity=".29" d="M940.77 625.39v19.09l32.72 9.2v-19.53l-32.72-8.76zm-43.39 214.08v19.09l32.73 3.59v-19.61l-32.73-3.07z" />
        <path fill="#2d4b60" opacity=".35" d="M927.44 768.96v19.08l32.72 9.21v-19.53l-32.72-8.76zM949 990.67v18.24l22.31 1.82v-19.52l-22.31-.54zm-84.34-137.05v19.09l32.72 4.18v-18.33l-32.72-4.94z" />
        <path fill="#2d4b60" opacity=".2" d="M640.48 606.17v15.13l24.76 4.09v-13.53l-24.76-5.69zm90.87 31.01v15.13l24.76 4.09v-13.53l-24.76-5.69zm12.38-13.99v15.13l24.76 4.09v-13.53l-24.76-5.69z" />
        <path fill="#2d4b60" opacity=".18" d="M460.67 753.62l16.74 2.2v8l-15.33-1.67-1.41-8.53zm29 16.96l16.74 2.2v8l-15.33-1.67-1.41-8.53z" />
        <path d="M555.76 1090.16h146.82l116.55-8.33L784 918.71l-63.33-9.77-79.66 10c-12.32.82-23.79 16.19-23.79 16.19l-34.18 56.79-15.56 11.2s-18.67 6.28-21.71 26.28v42.36s-.94 15.65 9.99 18.4z" fill="#c9e3f4" />
        <ellipse cx="743.73" cy="1062.15" rx="35.22" ry="43.63" fill="#172d3a" />
        <path d="M738.74 1050.32s13.34 3.75 23.65 12.16v16.67h-6.45s-3.25-18.72-17.2-28.83z" fill="#172d3a" />
        <ellipse cx="760.73" cy="1063.15" rx="35.22" ry="43.63" fill="#2d4b60" />
        <path d="M719.76 1090.16l22.46-6.58a31.88 31.88 0 0 0 4.67-4.55c.07-5.51 2.26-46.71 50.14-25.64.61.27-4.6-10.73-4.67-11.39-2.56-24.76-13.52-36.59-20-54.93-3.18-9.08-77-9-77.67-6.93-.06.2-52.36 40.45-52.21 40.59l-9.43 34.67 6 21.19 12.42 13.56z" fill="#ccdef2" />
        <path fill="#4387e8" d="M881.02 1107.84V321.82l-110.63 74.64v711.38h110.63z" />
        <path d="M687.58 980.14l-104.53 11.78L614.43 941s10.88-18.48 28.12-21.58l78.13-10.48s-26.1 13.21-31.85 68.09m10.68 2.79h62.88l-1.66-59.93-31.41-3.49s-25.05 7.17-29.81 63.42z" fill="#364a64" />
        <path d="M530.13 1042.46a111.45 111.45 0 0 0-11.13 16.27c-4.54-6.08-10.18 0-10.18 0 12.78 18.92-4.32 17.59-4.32 17.59-7.06-20.91-47.46-11-55.78 12.77s-53.16 4.26-51.18 5.58c42 27.84 86.21-1.45 86.21-1.45 7.21-2.1 16.79 10.1 16.79 10.1 5.5 4.06 12.6-7.32 12.6-7.32 2.16 6 10.68 7.65 17 5.08z" fill="#fff" opacity=".28" />
        <path d="M691.41 981.48s-44.89 25.4-51.3 38.29c-2.74 5.52-4.11 25-6.78 34-1.58 5.37 5.28 22.77 5.28 22.77l13 13.57h-99.85l-6-10.84 6 10.84h168l22.46-6.58 4.67-4.55c2.06-31.21 23.69-31.47 23.69-31.47l-.19-131.07c-17.43-2.9-35.3-5.78-35.3-5.78s-32.35-10.26-43.68 70.82z" fill="#7e9cbc" opacity=".41" />
        <path fill="#e2e9f2" d="M729.68 989.82l8.64 28.01-21.81 6.78-10.8-29.29 23.97-5.5z" />
        <path d="M721.56 941.07s-11 1.25-11 11c0 12.8 2.71 17.79 10.1 18.79 0 0-16.6 2.81-16.6 8.9h31.5s3.47 22.38-14 28.24c0 0 38 5.58 27-40.28 0 0-5-8.14-14 0 .02-.04 12.33-30.9-13-26.65z" fill="#ced7e0" />
        <path d="M720.68 970.82v8.9l13.9-12s5.83-10.14 14 0c0 0 5.16 19.81 0 29.44l-13.69-4.45.29-12.85-31.1-.1s2.54-10.28 16.6-8.94z" fill="#9bb7d7" />
        <path d="M797.46 991.92c-2 .67-15.72 11.15-21.22-2.35 0 0-3.66-8.5-8.16-13.9a155.07 155.07 0 0 1 0 16.25s-.23 31.35 29.38 21.75zm37.39-5.4s18.3 28.09-2.27 45.77-13.45 12.11-13.45 12.11-2-16.24 3.45-21.54c0 0 3.72-17.12-4.64-24 0 .05-4.82-25.39 16.91-12.34z" fill="#ced7e0" />
        <path d="M794.29 942.25s31.42-7.56 27.4 7c-5.1 18.49-8.94 22.41-8.94 22.41l22.1 14.85s1.09 26.68 0 53.72-6.7 66.89.48 86.43c0 0-17.27-31.72-22.58-57.07 0 0-4.56 32.94 0 51.49 0 0-18.46-22.49-18.46-71 0 0 1.1-42.25 0-53.07l5.48-20-11-8.64s-5.3-22.08 5.52-26.12z" fill="#ced7e0" />
        <path d="M807.3 947.07l4.11 12.25s5.07-2 3.67 2.08l.24 6s7.32-5.13 4.91-13.09z" fill="#42647f" />
        <path d="M799.77 977s-3 25.64 3.64 21 14.07-23.15 14.07-23.15l17.85 7.15 10.08 23.49-15.49 4.75 8.16 28.85s-28.11 14.7-45.72 4.19v-27.17l-9.59 4.69v-25.4l10.64-8.69z" fill="#9bb7d7" />
        <path d="M825.71 995.4s-12.15 6-8.23 14 2.51 13.82-.78 15.57-6.19 9.11 0 14.47c0 0 7 12.62 12.82-9.14 0 .02 11.82-29.36-3.81-34.9z" fill="#2d4b60" opacity=".13" />
        <path d="M792.36 1043.25l3.58 48 15.47 35.4 2.68-43.24 21.24 46v-49l-.48-40.16s-27.07-2.63-42.49 3zm16.38 86.15s-10.66 4.67-8 5.33 8 3.5 8-5.33zm27.33 2.02l-6.55 7.73s11.69.64 6.55-7.73zm-45.78-186.07l3.45-10s16-12.43 30.34 4.62c0 0 1.64 5.47-3.85 14.26l-14.49-2.86z" fill="#2d4b60" />
        <path d="M789.08 947.53L778 941.92s5.81-4.48 16.27.33l11.45 8.43z" fill="#9cbbd4" />
        <path d="M829.92 1010.21s.12 26.7-5.61 33.28c0 0 24.48-12.48 17.75-37z" fill="#ced7e0" />
        <path d="M788.8 968.31c1 .81 12.52 5.42 15.73 3.09 0 0 10.41-9.6 9.32-4.67 0 0-7.2 20-9.32 21.34s-1.71.65-4.21-1.67l-.61-9.37z" fill="#a7c0d3" />
        <path d="M770.58 977c-.11-1.63 7.44-20.3 7.44-20.3l-19.94-8.66-11.19 34.72 21.19 9.13z" fill="#e2e9f2" />
        <path d="M711.9 945.77s-3.39-9.7 1.51-13a13.51 13.51 0 0 1 15.91 0l9 4.67s8.25 15.67 0 24h-3.91s2-13.63-2.33-10c0-.02-12.72 1.94-20.18-5.67z" fill="#42647f" />
        <ellipse cx="331.92" cy="1113.75" rx="95.15" ry="7.46" fill="#2d4b60" opacity=".11" />
        <ellipse cx="254.98" cy="1099.03" rx="12.89" ry="15.97" fill="#2d4b60" />
        <path d="M431 1034.06v69.17H236.21c-4.86-1.5-6.7-6.83-6.7-6.83v-21.5c0-10.67 12.88-17.85 12.88-17.85l10.39-9.22 11.75-19.61s8.55-15.15 21.55-17.65l37.87-3 97.09 5.33s9.96-2.85 9.96 21.16z" fill="#c9e3f4" />
        <path fill="#cadae5" opacity=".68" d="M264.53 1028.21l-8.79 14.69-2.96 4.93 22.41-.77" />
        <ellipse cx="315.92" cy="1100.29" rx="13.99" ry="17.33" fill="#2d4b60" />
        <ellipse cx="398.27" cy="1101.92" rx="11.71" ry="14.51" fill="#2d4b60" />
        <path d="M374.58 1101.35l5.5 1.88 9 .09s2.3-22 18.9-14.23c0 0-19.4-10.34-26.4-3.81s-7 16.07-7 16.07zm-99.32-6.95l11.59 7.52 20 1.31s.66-31.5 21.78-14.14l-2.21-7.81h-33.5z" fill="#9cbbd4" />
        <path d="M259.08 1071.76h-2.75l-3.75 3.13s-1.1-1.34-2.15-2.66c-9.27 1.23-14.67 4.35-14.67 4.35-3.81 8 13.32 8.48 13.32 8.48s25-.5 25.18-7.18-15.18-6.12-15.18-6.12z" fill="#57748d" />
        <path d="M298.91 1032.91l6.42 12.16 4.09-2.61s5.3-14.62 15.48-25.38c0 0-26.4 12.3-25.99 15.83z" fill="#2d4b60" />
        <path d="M326.5 1015.82l13.53-8.24s-.23 0-.62.15l.54-.19h-16l-36.76 2.9-.06-.12c-17.19 2.3-34.35 37.47-34.35 37.47l22.85-1-.44.27 30.2-1.63 4-3c5-12.46 10.8-20.5 16-25.68l.47-.29c.21-.2.42-.46.64-.64zm1.92-1.84a31.85 31.85 0 0 1 3.24-2.46c-1.02.7-2.1 1.48-3.24 2.48zm-29.9 18.25l.26.46z" fill="#2d4b60" />
        <path d="M431 1027.71v75.52h-21c-.31-14.36-10-15.54-10-15.54-7.82.72-10.13 11.68-10.7 15.54h-59.63c.13-20.86-12.34-19.41-12.34-19.41-9 .83-10.21 14.67-10.36 19.41h-25.56c-7.33-2.17-6.15-8.83-6.15-8.83l2.82-9.33v-10.5l6-12 11.5-9.92 13.84-10.19s13.32-36.17 35.66-34.85l72.33 5 6.32.43s7.51-1.36 7.27 14.67z" fill="#7e9cbc" opacity=".54" />
        <path d="M284.08 1068.57s5.16-8 18.83-8c0 0-1.58 5.5-5.83 6.25z" fill="#fff" opacity=".63" />
        <path d="M342.58 1008.9s-18.68 1.63-30.68 33.56l41.19-2.25v-30.89z" fill="#2d4b60" opacity=".29" />
        <path d="M318.08 1091.37s9 10.56 0 18.63c0 0 6.25-6.09 0-18.63zm83.09 2.23s7.87 9.24 0 16.3c0 0 5.46-5.33 0-16.3z" fill="#42647f" />
        <path d="M601.24 1034c-1.68-.11-3.32-.18-4.92-.22l-7 5.29s-1.84-2.5-3.61-5c-16.69 1.41-26.62 6.54-26.62 6.54-7.51 14 23.1 16.3 23.1 16.3s44.79 1.24 45.7-10.69-26.65-12.22-26.65-12.22z" fill="#57748d" />
        <path d="M645.1 1026.62s5.78-12.17 35.94-18.52c0 0 .53 11.41-9 14.44.02 0-18.39 2.38-26.94 4.08z" fill="#fff" opacity=".64" />
        <path d="M545.78 1032.4s8.73-9.41 7.21-17.24c.01 0-7.21 2.07-7.21 17.24z" fill="#cadae5" />
        <path d="M266.91 1025l26.58 14 14.62-13.28-27.29-13.27s-10.02 6.82-13.91 12.55z" opacity=".16" fill="url(#d)" />
        <path d="M630.89 924.09l61.22 33.13 11.75-30.15-38.62-11.17s-30.73 2.48-34.35 8.19z" opacity=".38" fill="url(#b)" />
        <path d="M259.37 1036.18l14.63 10.68-21.22 1s4.47-8.99 6.59-11.68z" opacity=".16" fill="url(#e)" />
        <path opacity=".25" fill="url(#f)" d="M603.13 959.33l37.14 26.15-57.22 6.44 20.08-32.59z" />
        <path d="M182.88 550.73s-57 50.62 0 62.38 58.42-32.5 59.21-47.88-20.21-34.62-59.21-14.5zm-63.01 475.89s-21 36.94 15 38.11 18-44.39-15-38.11z" fill="#f0f8ff" />
        <path fill="#0f4363" d="M987.63 713.92l303.17 70.43v326.9l-303.17-4.16V713.92z" />
        <path fill="#1b313f" d="M1290.8 784.35l-303.56-70.16.39 22.56 281.64 61.75m0 13.51l-282.03-48.94v8l282.03 46.5v-5.56zm0 8l-282.03-46.69v10.03l282.03 42.22v-5.56zm0 8.56l-282.03-42.63v8.44l282.03 39.02v-4.83z" />
        <path fill="#9cbbd4" d="M988.08 754.87l282 52.47 14.74 7.39-296.74-52v-7.86zm0-3.47l286.18 54.8-10.03-5.9-276.15-54.9v6z" />
        <path fill="#165575" d="M1014.74 1098.3l-2.66-58.67h10v-40.01l-18-1.62v-55.35l28-1.98v-28.08h18v-34.73h42.66l16.67 220.44h-94.67z" />
        <path fill="#2d4b60" d="M1113.83 1041.07h-36.04l3.95 75.33h32.09l8.25-43.33-8.25-32z" />
        <path fill="#1b313f" d="M1058.74 955.15v139.74h-8.66V957.22l8.66-2.07z" />
        <path fill="#1b313f" d="M1087.83 1007.57h-33.42l2.92-5h5l.75-44h-7.34l3-3.42 25.09 2.17v3l-5 .25v40.13h5l4 6.87z" />
        <path fill="#1a5d82" d="M1162.1 1022.79V852.97l13.31-3.3v-7.85l-62.67-11.5-30 6.93v227.74l79.13 11.08.23-53.28z" />
        <ellipse cx="1113.83" cy="1078.52" rx="26" ry="37.88" fill="#2d4b60" />
        <path fill="#2d4b60" d="M1072.69 1045.73l9.05-5.1h28.67l13.67 23.77-8 40-23-19-20.39-39.67z" />
        <path d="M1373.8 1072.73l-3.06-95.7s-6.61-26.41-22-26.35l-35.69-5.33-10.81-72s3.25-5.62-10.47-8.14l-73.72-9.73-68 17.87s-18.49 2.83-22.91 31.75c0 0-24.43 78.76-27.76 119.84l-31.33 3.74 23.33 4.75s28.67 2.82 28.67 51c0 0 .18 16.21 7.09 17.55l250.12 5.77s8.92-21.68-3.46-35.02zm-165.06-82.06l-15.33 4.73-26 34h-28.67l-29.33-15.4 29-115.94s2.33-20.67 33.67-24.67l32.43-8.14 9.82 102.11zm61.52-45.32l-46 5.33-2.82-85.42 62.09 7 11.59 73.11z" fill="#172d3a" />
        <path fill="#1c2a33" d="M1066.08 1098.3l-72-1.73 9 6.5 74.5 3.71v-8.48" />
        <ellipse cx="1081.74" cy="1078.52" rx="26" ry="37.88" fill="#1c2a33" />
        <path d="M1077.58 1056.07s-22 19.71 0 45.6c0 0-11.5-16.6 0-45.6z" fill="#3b586d" />
        <path d="M777.1 1142.08c-5.16-.46-15-20 88.21-9.08 0 0 .92 11.7-41.61 9.67 0 0-25.33 1.33-46.6-.59z" fill="#2d4b60" opacity=".11" />
        <path id="stroke-main" d="M239 789.59c114-107.76 130.47-271.27 220-346.33M6.58 894a492.93 492.93 0 0 0 60.85-8.63c31-6.46 62.87-16.6 92.51-32.2m503.21-565.49c67-65.87 492.22-229.76 578.28 193.46" fill="none" stroke="#ff73c3" stroke-linecap="round" stroke-linejoin="round" stroke-width="6" stroke-dasharray="12,23" />
    </g>
    <path d="M1539.74 580.07l-39.68 7 8.52 10.9 22.39-5.05s10.11-2.52 8.77-12.85z" fill="#fff" />
    <path fill="#c3cdd8" d="M1356.08 550.73l-8.67-9.2 44.39-16.8 6.17 13-41.89 13zm54-16s40.66-15.33 66.66 16 38.45 49 54.23 42.19l-89.56 20.19z" />
    <ellipse cx="1268.23" cy="1240.7" rx="30.85" ry="41.46" fill="#9bb7d7" />
    <ellipse cx="1278.95" cy="1243.56" rx="30.85" ry="41.46" fill="#57748d" />
    <ellipse cx="1281.09" cy="1243.56" rx="13.69" ry="18.4" fill="#b6bdc6" />
    <path d="M1823.8 789.07C1811 666 1754 563.19 1729.39 535.4c-23.34-26.38-61.5-18-61.5-18s-106.17 42.73-95.85 89.74-49.9 103-50 103.11c-30.53 20.7-71 34.84-124.1 32.74 0 0 155.11 62 212 20.68 0 0-67.43 292.82-31.24 429 0 0 62.9-162.24 110-187.89 0 0 135.91 133.92 218.64 168.39 0 0-60.52-109.19-76.52-167.07-19.49-70.47 8.27-144.69-7.02-217.03z" fill="#c5d9ea" />
    <path d="M1483.8 776.07l-90-30s-52-22-58 40-60 450-60 450-6 26-40 20" fill="none" stroke="#8ab0d6" stroke-linecap="round" stroke-linejoin="round" stroke-width="12" />
    <path d="M1417.13 747.57s113.67 9.12 171.67-22.19l-2.63 51.88s-41.87 28.81-169.04-29.69z" fill="#a7c0d3" />
    <path fill="none" stroke="#8ab0d6" stroke-linecap="round" stroke-linejoin="round" stroke-width="12" d="M1306.82 1010.21h112.94" />
    <path fill="none" stroke="#6c727a" stroke-linecap="round" stroke-linejoin="round" stroke-width="14.802" d="M1277.8 1243.56l178.97 27.07" />
    <path d="M1172.34 1294.07s122.45 87 536.59-16.7c79.94-20 58.19-12.31 118.19-13s118.88-21.1 170.88-23.67 203.13-48.55 19.14-46.37c-123.88 1.46-462.07 26.5-682.32 57.85-106.91 15.21-205.82 26.58-162.48 41.89z" opacity=".19" fill="url(#g)" />
    <path d="M1611.4 437.16s-15.64-36.25-74.89-17.9-28.43 72.3-28.43 72.3 14.15 62.69 32.05 64.86 70.35-2.21 76.72-23.54 7.56-60.12-5.45-95.72z" fill="#c5d9ea" />
    <path d="M1666.13 551.14c-28.29-12.66-49.07-66-49.07-66l-64.2 54 35.05 58.83s145.48-16.72 78.22-46.83z" fill="#c5d9ea" />
    <path fill="#174359" d="M1470.9 582.17l37.68 47.9-95.84 24.86-88.81-98.01 95.83-34.85 51.14 60.1z" />
    <path d="M1572.33 599l-40.16 96.59s44.88 67 36.26 82.75c0 0 24.24-4.86 30.37-19.24z" fill="#fff" />
    <path d="M1580.64 836.16s-9.72 28.91 100.72 29.91 197.59 13.2 180.84-16.32-24.38-34.17-24.38-34.17-253.34-11.32-257.18 20.58z" fill="#172d3a" />
    <path d="M1831 831.81s5.89 131.65 5.84 159 70.52 172.33 70.52 182.37-122.75-76.71-218.64-168.39c0 0-53.06 41.46-110 187.89 0 0-34.69-147.15 17.58-361.62l11.54-27.23s208.09 9.78 223.16 27.98z" fill="#204670" />
    <path d="M1584.3 779.32l4.5-109.25s-9.56 62.64-33.31 67.61c0 0 14.2 37.05 13.16 45.23z" fill="#baccd3" />
    <path d="M1568 587.21s15.61 94 72.4-62.72c0 0 73-31.13 109.43 21.43 0 0 58.16 125.24 68.66 179.48s43.74 124.35 43.74 124.35-17.88-26.09-80.88-18.59-190.49-18-201 10.5c-.02 0 11.26-183.42-12.35-254.45z" fill="#fff" />
    <path d="M1743.79 607.42s20.13 47.14 15.13 88.14-11.13 36.23-37.79 60.51c-18.8 17.11-5.73 6.23-42.33 29.33-43.1 27.2-25.61-101.61-33.44-130.47s98.43-47.51 98.43-47.51z" fill="#dfe8ed" />
    <path d="M1623.55 751.22l-99.35-33.11s-57.4-24.29-64 44.15S1394 1259 1394 1259s-6.62 28.7-44.16 22.08l-110.38-37.54" fill="none" stroke="#8ab0d6" stroke-linecap="round" stroke-linejoin="round" stroke-width="12" />
    <path d="M1569.83 1206.07s-10.63-9.7-24-20.93-13.5 29.86 24 20.93zm337.49-22.89s6 21.46 0 30.46 50.99 21.58 0-30.46z" fill="#204589" />
    <path fill="#50bfe7" d="M1185.85 1044.4h181.43l-32.51 226.23-186.67-32.31 37.75-193.92z" />
    <path fill="#4a8be2" d="M1367.28 1044.4l66.29 33.63-27.09 182.04-71.71-7.89 32.51-207.78z" />
    <path fill="#9cbbd4" d="M1440.46 1203.07l28.67 3-14.33 10.05-14.34-13.05zm18 118.58l-19.58-3.17 10.48-9.4 9.1 12.57z" />
    <path d="M1576.63 582.17s-28.17 22.56-23.83 68.56 65.57-51.73 23.83-68.56z" fill="#fff" />
    <path d="M1531 550.18c-.63-1 70.09-19.47 68.1-33.86 1.48-9.51-1.49-17.05 0-21.53s9.31 2.19 16.23 11.17c7.15 9.28 6 31.68 6.18 49.4 0 5.46.59 18.29 0 22.71-1 7.36 3.07 8.6 0 10.08 0 0-25.68 29-44.85-6l-13.14-25.25s-26.04 3.64-32.52-6.72z" fill="#a7c0d3" />
    <path d="M1607.83 592.92s32.82 140.18 69.7 128.8c0 0 34.11-87.04-69.7-128.8z" fill="#2d4b60" />
    <path d="M1737.37 556.92c8.74 12.71 19.52 252.73-305.89 73.89 0 0 146.71 7.21 200.79-52.84 0 .03 55.29-93.43 105.1-21.05z" fill="#c5d9ea" />
    <path d="M1426.8 629.49s166.44 72.28 245 35.58l7 19.52s-72.97 47.48-252-55.1z" fill="#a7c0d3" />
    <path d="M1605.83 592.92s72 5.69 72 129.46c0 0 96.33-39.57 66.25-167 0 0-46.28-73.29-87-26.9-.08-.02-31.75 63.19-51.25 64.44z" fill="#fff" />
    <path d="M1502.43 447.15s-15-20.66 12.53-33.07 63-14.25 65.13-22.81l-3.22 12.84s15.12 4.28 19.1-3.06v13s8.86-2.39 13.14 5.13 22.29 51 12.37 76c0 0-7.42-20.83-9.89-26.64s-9.12-17.42-12.52-13.45 0 16.82 0 16.82a23.94 23.94 0 0 1-19-21.4c-2.16-18.65-8.58-18.34-8.58-18.34s-64.78-6.47-69.06 14.98z" fill="#2f5272" />
    <path d="M1687.33 1002s-58.79-36.76-48.66-90.7c0 .03 22.97 52.09 48.66 90.7zm-14.33 6.7s-45-9.4-51.07-45.29c.07 0 26.27 27.13 51.07 45.29z" fill="#172d3a" />
    <path d="M1640.37 545.92s5.91-21.67 0-21.43l21.6-8.22s-6.82 24.25-21.6 29.65z" fill="#fff" />
    <path d="M1647 561.68s-18.69 1.06-17.84-15.76l-7.21 38.62z" fill="#b6bdc6" opacity=".29" />
    <path d="M1746.73 746l-34.67 44s31.33-10.66 34.67-44z" fill="#dfe8ed" />
    <path fill="#364a64" d="M1129.05 1216.12l205.72 22.2 57.03 32.31-30.5 16.94-202.17-32.21-30.08-39.24z" />
    <path fill="none" stroke="#6f849c" stroke-linecap="round" stroke-linejoin="round" stroke-width="12" d="M1129.05 1216.12l205.72 22.2 57.03 32.31" />
    <path fill="#f0f2f5" opacity=".52" d="M1254.74 1044.4l-12.26 82.75 5.62-4 1.98 11.5 7.61-9 2.73 9 6.98-8 6.4 11.5 14.47-93.75h-33.53z" />
    <ellipse cx="1445.64" cy="1261.07" rx="43.16" ry="58" fill="#9cbbd4" />
    <ellipse cx="1464.64" cy="1264.07" rx="43.16" ry="58" fill="#364a64" />
    <path d="M1467.64 1238.32a14.71 14.71 0 0 0-2 .14c9.64 1.34 17.16 12.3 17.16 25.61s-7.52 24.26-17.16 25.6a13.26 13.26 0 0 0 2 .14c10.58 0 19.16-11.52 19.16-25.74s-8.58-25.75-19.16-25.75z" fill="#8199b4" />
</svg>