<svg xmlns="http://www.w3.org/2000/svg" xmlns:xlink="http://www.w3.org/1999/xlink" viewBox="0 0 1864 1434" style="background-color: #0D182B; padding-top: 16px;">
    <style>
    #cloud-a,
    #cloud-b,
    #cloud-c,
    #cloud-d,
    #cloud-e,
    #cloud-f {
        -webkit-transform: translateY(-1%);
        -ms-transform: translateY(-1%);
        transform: translateY(-1%);
    }

    #platform {
        -webkit-transform: translateY(-1.5%);
        -ms-transform: translateY(-1.5%);
        transform: translateY(-1.5%);
    }

    #cloud-a,
    #cloud-d {
        -webkit-animation: float 4s ease-in-out infinite alternate;
        animation: float 4s ease-in-out infinite alternate;
    }

    #cloud-e {
        -webkit-animation: float 4s ease-in-out 0.5s infinite alternate;
        animation: float 4s ease-in-out 0.5s infinite alternate;
    }

    #cloud-b,
    #cloud-c,
    #cloud-f {
        -webkit-animation: float 4s ease-in-out 1s infinite alternate;
        animation: float 4s ease-in-out 1s infinite alternate;
    }

    #platform {
        -webkit-animation: platform 4s ease-in-out 1s infinite alternate;
        animation: platform 4s ease-in-out 1s infinite alternate;
    }


    #roadway {
        -webkit-animation: roadway 1.3s linear infinite;
        animation: roadway 1.3s linear infinite;
    }


    #stroke-a,
    #shadow-b,
    #shadow-c {
        animation: stroke 4s linear infinite reverse;
    }

    #stroke-main,
    #stroke-b,
    #stroke-c,
    #shadow-a {
        -webkit-animation: stroke 4s linear infinite;
        animation: stroke 4s linear infinite;
    }

    @-webkit-keyframes float {
        0% {
            -webkit-transform: translateY(-1%);
            transform: translateY(-1%)
        }
        to {
            -webkit-transform: translateY(1%);
            transform: translateY(1%)
        }
    }

    @keyframes float {
        0% {
            -webkit-transform: translateY(-1%);
            transform: translateY(-1%)
        }
        to {
            -webkit-transform: translateY(1%);
            transform: translateY(1%)
        }
    }

    @-webkit-keyframes platform {
        0% {
            -webkit-transform: translateY(-1.5%);
            transform: translateY(-1.5%)
        }
        to {
            -webkit-transform: translateY(0%);
            transform: translateY(0%)
        }
    }

    @keyframes platform {
        0% {
            -webkit-transform: translateY(-1.5%);
            transform: translateY(-1.5%)
        }
        to {
            -webkit-transform: translateY(0%);
            transform: translateY(0%)
        }
    }

    @-webkit-keyframes roadway {
        0% {
            stroke-dashoffset: 0
        }
        to {
            stroke-dashoffset: 41
        }
    }

    @keyframes roadway {
        0% {
            stroke-dashoffset: 0
        }
        to {
            stroke-dashoffset: 41
        }
    }

    @-webkit-keyframes stroke {
        0% {
            stroke-dashoffset: 0
        }
        to {
            stroke-dashoffset: 15
        }
    }

    @keyframes stroke {
        0% {
            stroke-dashoffset: 0
        }
        to {
            stroke-dashoffset: 15
        }
    }
    </style>
    <defs>
        <linearGradient id="a" x1="1609.12" x2="1565.92" y1="958.32" y2="958.32" gradientUnits="userSpaceOnUse">
            <stop offset="0" stop-color="#272361" stop-opacity="0" />
            <stop offset="1" stop-color="#0f153e" />
        </linearGradient>
        <linearGradient id="e" x1="832.5" x2="878.05" y1="946.02" y2="946.02" gradientTransform="matrix(-1 0 0 1 2432.38 0)" xlink:href="#a" />
        <linearGradient id="b" x1="1149.92" x2="1149.92" y1="828.3" y2="696.65" gradientUnits="userSpaceOnUse">
            <stop offset=".31" stop-color="#fff" stop-opacity="0" />
            <stop offset=".37" stop-color="#fff" stop-opacity=".02" />
            <stop offset=".46" stop-color="#fff" stop-opacity=".09" />
            <stop offset=".56" stop-color="#fff" stop-opacity=".21" />
            <stop offset=".67" stop-color="#fff" stop-opacity=".36" />
            <stop offset=".79" stop-color="#fff" stop-opacity=".56" />
            <stop offset=".91" stop-color="#fff" stop-opacity=".81" />
            <stop offset="1" stop-color="#fff" />
        </linearGradient>
        <linearGradient id="f" x1="1219.74" x2="1219.74" y1="860.98" y2="704.13" xlink:href="#b" />
        <linearGradient id="c" x1="1221.05" x2="1268.04" y1="624.08" y2="624.08" gradientUnits="userSpaceOnUse">
            <stop offset="0" stop-color="#4c272d" stop-opacity="0" />
            <stop offset="1" stop-color="#4c272d" />
        </linearGradient>
        <linearGradient id="g" x1="1171.83" x2="1171.83" y1="966.6" y2="900.48" xlink:href="#c" />
        <linearGradient id="h" x1="1092.87" x2="1092.87" y1="1038.09" y2="985.98" xlink:href="#b" />
        <linearGradient id="i" x1="1170.6" x2="1170.6" y1="1016.16" y2="971.7" xlink:href="#b" />
        <linearGradient id="j" x1="1159.47" x2="1159.47" y1="1059.66" y2="1019.64" xlink:href="#b" />
        <linearGradient id="k" x1="1087.43" x2="1087.43" y1="1063.33" y2="1010.52" xlink:href="#b" />
        <linearGradient id="l" x1="1116.82" x2="1116.82" y1="1033.13" y2="981.98" xlink:href="#b" />
        <linearGradient id="m" x1="1001.57" x2="1001.57" y1="1080.48" y2="1014.36" xlink:href="#c" />
        <linearGradient id="n" x1="1193.48" x2="1224.63" y1="887.89" y2="887.89" xlink:href="#a" />
        <linearGradient id="o" x1="1156.83" x2="1219.93" y1="895.66" y2="895.66" xlink:href="#a" />
        <linearGradient id="p" x1="1356.5" x2="1387.65" y1="917.89" y2="917.89" xlink:href="#a" />
        <linearGradient id="q" x1="1319.85" x2="1382.95" y1="925.66" y2="925.66" xlink:href="#a" />
        <linearGradient id="r" x1="969.48" x2="1000.63" y1="957" y2="957" xlink:href="#a" />
        <linearGradient id="s" x1="932.83" x2="995.93" y1="964.77" y2="964.77" xlink:href="#a" />
        <linearGradient id="t" x1="1290.34" x2="1354.67" y1="911.72" y2="911.72" xlink:href="#a" />
        <linearGradient id="d" x1="747.09" x2="794.12" y1="1088.04" y2="1088.04" gradientUnits="userSpaceOnUse">
            <stop offset=".31" stop-color="#232463" stop-opacity="0" />
            <stop offset=".44" stop-color="#222362" stop-opacity=".06" />
            <stop offset=".61" stop-color="#21215e" stop-opacity=".25" />
            <stop offset=".8" stop-color="#1f1d59" stop-opacity=".56" />
            <stop offset=".99" stop-color="#1b1851" stop-opacity=".99" />
            <stop offset="1" stop-color="#1b1851" />
        </linearGradient>
        <linearGradient id="u" x1="622.08" x2="707.62" y1="1038.97" y2="1038.97" xlink:href="#d" />
    </defs>
    <g id="bg clouds">
        <path id="stroke-a" fill="none" stroke="#f948a9" stroke-dasharray="5 10" stroke-linecap="round" stroke-linejoin="round" stroke-width="3" d="M542.58 98.99l88.66-40.67s27.13-18.61 55.07 14.7" />
        <path id="cloud-d" fill="#92d5e4" d="M1181.71 184.99s62.16-93.33 177.49-51.33c0 0 88.16 29.59 138.75 120.46 0 0 60.59 197.54 119.25 243.54 0 0 206 208.24 33.34 187.12 0 0-182.21-19.31-229.93-41.22l-335.38-194.35s-305.65-233.56 96.48-264.22z" data-name="bg cloud" />
        <path id="stroke-c" fill="none" stroke="#f948a9" stroke-dasharray="5 10" stroke-linecap="round" stroke-linejoin="round" stroke-width="3" d="M1422.54 343.31l-233.99-127.66M1351.76 311.99s-24.4 61.69-108.38 3.95" data-name="dotted" />
        <path id="cloud-e" fill="#c1edfe" d="M1380.58 480.31l418 238.81s33.2 18.85 39.26 2.69c0 0 14.29-13.91-10.6-60.17 0 0-30-40.57-35.33-87.28 0 0-2-52.3-51.33-88.17 0 0-24.56-5.86-46-67.87 0 0-25.09-104-115.9-140.67 0 0-80.87-42.67-123.18-13.34 0 0-28.83 23.34-34.9 74 0 0-7.89 42-41.32 39.34 0 0-42.19-12-39.14 24 .01 0-4.06 53.66 40.44 78.66z" data-name="mid cloud" />
        <path id="cloud-f" fill="#e7f9ff" d="M1414.46 684.77l391.41 223.54s24 12.67 30-5.33c0 0 13.33-10.59-30-59.63 0 0-30-24.33-40.67-84.35 0 0-22.49-129.68-146.58-191.85 0 0-62.68-41.51-89 9.49 0 0-3.38 22.17-28.54 7.59 0 0-46.29-29.92-50.06 12.08 0 0-3.27 26.5-19.52 27.53-.05 0-79.13 16.72-17.04 60.93z" />
        <path id="cloud-c" fill="#e7f9ff" d="M1383.87 611.1s12-50.93-52-103.19c0 0-52.67-34.79-72.67-144.86 0 0-36.23-206.74-157.78-288.74 0 0-110.66-100-162.77-68 0 0-38.11 12-50.11 82.67 0 0-6 60.67-50.67 34 0 0-58.78-36-84.06-7.33a67.61 67.61 0 0 0-8.29 22.66s-6.22 40-34.6 40c0 0-25.72-6-19.72 33.34 0 0-3.76 61 142.79 135.16l395.31 220.34s145.9 85.41 154.57 43.95z" data-name="big cloud" />
        <path id="cloud-a" fill="#c1edfe" d="M594.1 367.7l-501.06 292s-70 37.68-90.5 8.25c0 0-17-34.94 37-107.94 0 0 18.5-17.5 24.5-21.5 0 0 36-26.82 33.5-72.16 0 0-14-61.91 26.5-98.62 0 0 32.5-24.22 51.5-27.72 0 0 37-18.2 49.5-66.1 0 0 30.5-121.4 154-197.4 0 0 112-58 181.23 37 0 0 23.77 31 17.77 85 0 0-.5 54.75 45.5 51.13 0 0 25-8.13 28 17.37.04-.02 17.12 42.4-57.44 100.69z" data-name="bg cloud" />
        <path id="stroke-b" fill="none" stroke="#f948a9" stroke-dasharray="5 10" stroke-linecap="round" stroke-linejoin="round" stroke-width="3" d="M887.92 73.04c-35-15.81-112.49-43.06-172.3-8.06L455.41 204.99s-58.21 31.86-50.83 111.92l47.33 180.74 83.43 46.26" data-name="dotted" />
        <path id="cloud-b" fill="#e7f9ff" d="M259.87 618.07l268.91-157.76s31.42-23.61 24.42-48.14c0 0-3.66-2.86-7.33-5.19 0 0-8.81-2.53-10.57-15.93 0 0-1.64-30.4-30.7-34.74 0 0-12.74-1.66-20.07 0 0 0-13.53 4.2-20.93-8.4 0 0-16.71-41.93-56.55-32.6 0 0-37.85 6-66.18 45.67 0 0-51 45.12-69.33 160.73 0 0-2.67 30.94-20.67 43.6 0 0-27.67 18.34-17.33 41.67.04.01 7.66 14.84 26.33 11.09z" data-name="cloud" />
    </g>
    <g id="birds" fill="none" stroke="#84bbe8" stroke-miterlimit="10" stroke-width="4">
        <path d="M1514.04 70.61s8.37 1 11.12 7.37c0 0 .75 4.75 3.75 0a11.49 11.49 0 0 1 12.63-7.37M1629.66 198.33s8.38 1 11.13 7.38c0 0 .75 4.75 3.75 0a11.48 11.48 0 0 1 12.62-7.38" />
        <path d="M1837.16 174.11s8.38 1 11.13 7.37c0 0 .75 4.75 3.75 0a11.48 11.48 0 0 1 12.62-7.37" opacity=".33" />
    </g>
    <g id="platform">
        <path fill="#00528b" d="M859.63 547.16c-26.05-8.17-287.51-54.35-370.8 51.74s1 173.33-39.94 287c0 0-219.35 397 830.65 374.83 0 0 600 0 266.1-370.38" />
        <path fill="#1c58a7" d="M904.69 511.62c-3.83-1.2-57.83 17.31-70.53 15.07-73.67-13-274.29-33.28-345.33 57.21-83.25 106.09.98 173.33-39.94 287.09 0 0-219.35 397 830.65 374.83 0 0 600 0 266.1-370.38" />
        <path fill="#2c79bd" d="M811.75 506.91c-23.43-5.15-405.52 25.07-416.43 203.44s11.34 487.64 720.78 617.64c93.44 20 509.25 11.14 321.35-313.43 0-.01-263.32-428.03-625.7-507.65z" opacity=".28" />
        <path fill="#2c79bd" d="M479.67 642.42c-6.47 13.79-214.65 168 15.49 454.47s789.42 203.1 935.74 136.37 227.52-256.24 0-373.11S630.14 321.9 479.67 642.42z" opacity=".09" />
        <path fill="#084f91" d="M424.41 718.63s-.16 182-37.52 218.69-121.42 3.67-109.31-77.84 139.71-230.2 146.83-140.85z" />
        <path fill="#1c58a7" d="M424.41 712.63s-.16 182-37.52 218.69-121.42 3.67-109.31-77.84 139.71-230.2 146.83-140.85z" />
        <path fill="#2c79bd" d="M1661.44 997.41c.33 3.48 2.93 25.38 22.31 32.48s10.18-20.45 5.67-28.85c-2.21-4.05-30.18-26.75-27.98-3.63zM1681.85 1059.45c-1.5 1.08-6.42 5.18-6.75 11.61s13.78 7.51 16.86 4.07c1.5-1.68-.13-22.82-10.11-15.68zM893.58 515.45c83.3-8 240.1-10.85 308 68.45 89 103.86 192 223.41 192 223.41z" />
        <path fill="#0b436b" d="M1282.59 1089.37l-379.54 52.92L764.41 965.1l48.19 25.34 98.01-123.67 351.41-20.28 20.57 242.88z" opacity=".21" />
        <path fill="#0b436b" d="M822.54 932.98l-60.99 43.64-60.56-36.59 60.77-13.05 60.78 6z" opacity=".21" />
        <path fill="#0067a5" d="M652.78 908.98l87.75-15 82.01 34v5l-88.03 19.26-81.73-43.26z" />
        <path fill="#3ba8df" d="M652.78 901.98l87.75-15 82.01 41-88.03 19.26-81.73-45.26z" />
        <path fill="#084872" d="M1558.44 1013.5l-12.79-7.6 10.14-7.89 8.97 5.1-6.32 10.39zM1533.71 1027.76l-12.8-7.6 8.7.84 2.77-8.49 7.85 4.93-6.52 10.32z" />
        <path fill="#084872" d="M1543.44 1019.07l-24.56-13.23s24.67 1.69 25 5.31.87 4.99-.44 7.92zM1568.42 1004.33l-15.79-9.28 15.68 3.08s2.73 2.09.11 6.2z" />
        <path fill="#d0ecf4" d="M1524.52 1020.54l-.66 8.53a14.28 14.28 0 0 1-6.26-2l-10.38-5.79h-.05c-.39-.22-3.41-2-3.73-5-.78-5.76-1.57-17.59 4.51-20.81l31.24-18.5s4.26-2.57 8.64-.64a8.46 8.46 0 0 1 1.17.64l19.52 10.92 1.62 6.65-41.88 25.45z" />
        <path fill="#fff" d="M1535.09 1023.99l-5.6 3.32-2 1.2a9.06 9.06 0 0 1-3.88.52c-.78-4.77-2.45-18.84 4.28-22.41l31.23-18.49s6.9-4.16 12.16 2.06l4 3.29s3.24 4.78-5.19 9.78l-1.69 1" />
        <ellipse cx="1873.54" cy="1150.68" fill="#3193d1" rx="6.14" ry="3.47" transform="rotate(-54.07 1580.09029897 1416.31481824)" />
        <ellipse cx="1898.27" cy="1129.41" fill="#3193d1" rx="6.14" ry="3.47" transform="matrix(.59 -.81 .81 .59 -472.17 1878.82)" />
        <path fill="#3193d1" d="M1504.19 1000.2a50.41 50.41 0 0 0 18.45 10.27s-2 3-.22 18.43c0 0-5.3-1.08-7.47-3.29l-7.73-4.31s-3.45-2-3.78-5c0-.01-1.97-9.38.75-16.1z" opacity=".19" />
        <path fill="#084872" d="M983.12 628.65l12.66-7.82-10.28-7.71-8.88 5.26 6.5 10.27zM1008.1 642.47l12.66-7.82-8.68.99-2.92-8.43-7.77 5.06 6.71 10.2z" />
        <path fill="#084872" d="M998.22 633.99l24.36-13.7s-24.64 2.13-24.9 5.76-.83 5 .54 7.94zM972.97 619.66l15.63-9.56-15.63 3.37s-2.69 2.13 0 6.19z" />
        <path fill="#d0ecf4" d="M1017.16 635.09l.81 8.52a14.49 14.49 0 0 0 6.23-2.09l10.27-6c.38-.23 3.37-2.08 3.64-5 .68-5.78 1.25-17.62-4.88-20.74l-31.57-17.93s-4.3-2.49-8.65-.49a8.64 8.64 0 0 0-1.17.66l-19.26 11.23-1.5 6.67 42.35 24.64z" />
        <path fill="#fff" d="M1006.66 638.75l5.65 3.22 2 1.16a8.94 8.94 0 0 0 3.89.45c.7-4.78 2.11-18.88-4.67-22.33l-31.57-17.93s-7-4-12.12 2.28l-4 3.36s-3.16 4.84 5.36 9.68l1.7 1" />
        <ellipse cx="1341.02" cy="765.45" fill="#3193d1" rx="3.47" ry="6.14" transform="rotate(-36.95 981.203804 1204.89615633)" />
        <ellipse cx="1316.04" cy="751.63" fill="#3193d1" rx="3.47" ry="6.14" transform="rotate(-36.95 956.22585216 1191.07763123)" />
        <path fill="#3193d1" d="M1037.07 615.56a46.81 46.81 0 0 1-17 9.86s1.89 2.75.51 17.13c0 0 4.91-1.1 6.9-3.18l7.11-4.14s3.18-2 3.43-4.72c.02 0 1.7-8.74-.95-14.95z" opacity=".19" />
        <path fill="#0b436b" d="M1175.44 1246.39l448.71-261.57-11-23c6.1-3.58 58-34.87 53.07-37.57l-13.07-2.55-795.38-434.87c-4.89-2.7-13.88-2-20 1.58l-547.19 319 1.65.9c-1.52 4-1.52 4-5 11.67l-4.73 13 121 66.18 5.19-18.25 29.77 13.08-4.28 22 597.27 326.55m572.23-294.84l-479.31 279.42c-5.2 3-12.86 3.65-17 1.35L362.51 824.04c-4.16-2.3-3.32-6.68 1.88-9.72L843.7 534.9c5.2-3 20.67-22 24.84-19.75l96.58 75.08 640.46 347.69c4.14 2.3 3.3 6.68-1.9 9.72z" opacity=".21" />
        <path fill="#0b436b" d="M1613.19 939.85l-548.41-299.86L872.2 518.65l-14.43 8.18c-4.89-2.7-13.88-2-20 1.58L381.14 798.15c-20.39 26.18 57.32 14.5 57.32 14.5l58-34 347.28-203.7c5.2-3 12.86-3.65 17-1.35l657.78 358.67" opacity=".21" />
        <path fill="#006daf" d="M1685.09 909.16L857.77 456.83c-4.89-2.7-13.88-2-20 1.58l-562.6 328c-6.1 3.58-7.1 8.71-2.21 11.42l827.32 452.33c4.89 2.7 13.88 2 20-1.58l562.61-328c6.1-3.59 7.09-8.71 2.2-11.42zm-81.41 8.48l-479.31 279.42c-5.2 3-12.86 3.65-17 1.35L362.51 794.04c-4.16-2.3-3.32-6.68 1.88-9.72L843.7 504.9c5.2-3 12.86-3.65 17-1.35l744.88 404.37c4.14 2.3 3.3 6.68-1.9 9.72z" />
        <path fill="#006daf" d="M1605.58 907.05L867.17 498.57c-4.2-2.33-11.95-1.72-17.2 1.36l-484.39 282.4c-5.25 3.07-6.1 7.5-1.9 9.83l734.36 411.47c4.21 2.33 11.95 1.72 17.2-1.36l488.43-285.39c5.22-3.08 6.07-7.5 1.91-9.83zm-70.1 7.3l-416.75 243.64c-4.48 2.62-11.07 3.14-14.66 1.16L440.73 788.92c-3.58-2-2.85-5.75 1.62-8.37l412.71-240.56c4.48-2.62 13.56-23.3 17.14-21.31l99.75 76.4 565.1 310.91c3.59 2 2.86 5.74-1.62 8.36z" />
        <path fill="#3193d1" d="M719.18 451.36l-91.15 52.48-102.56 130.64-250.28 145.9c-6.1 3.58-7.1 8.71-2.21 11.42l827.32 452.33c4.89 2.7 13.88 2 20-1.58l562.61-328c6.1-3.58 7.09-8.71 2.2-11.42l-646.53-353.45-123.7-99.33s-75.17-46-195.69 1m384.89 701.74L440.73 782.92c-3.58-2-2.85-5.75 1.62-8.37l155.47-90.63L700.45 537.6l104.06-11.17c4.48-2.62 38.53-34.86 64.36-20.45l113.77 88.6 554.41 305.41c3.59 2 2.86 5.75-1.62 8.37l-416.7 243.63c-4.48 2.57-11.07 3.09-14.66 1.11zM362.33 779.8a38.94 38.94 0 0 0-2.44 4.15 6.33 6.33 0 0 1 2.44-4.15z" />
        <path id="roadway" fill="none" stroke="#0067a5" stroke-dasharray="21 20" stroke-linecap="round" stroke-linejoin="round" stroke-width="3" d="M1113.81 1195.47s-10.27 0-18.65-5.67l-727.9-400.76a12 12 0 0 1 4.39-16.39l194.24-118.08 153.29-203.21c5.72-3.3 142.29-10.53 174 20.62l116.79 95.56 597.24 329.45c13.93 14.12 8.18 10.12-493.4 298.48z" opacity=".29" />
        <path fill="#0b436b" d="M508.33 736.09l-86.55-41.16 103.69-60.44 102.56-130.65 61.3 19.71 12.96 11.93-104.47 148.44-89.49 52.17zM465.11 697.47l-35.27 14.52s-8.06.83-5.82 17.91c2.41 18.39 19.54 25.27 19.54 25.27s8.48 5.65 30.14-6.08l28.74-16.43s-20.45-38.28-37.33-35.19z" opacity=".21" />
        <path fill="#084872" d="M504.68 734.05l-12.8-7.6 10.14-7.89 8.97 5.11-6.31 10.38zM479.94 748.32l-12.8-7.6 8.7.84 2.78-8.49 7.85 4.93-6.53 10.32z" />
        <path fill="#084872" d="M489.67 739.63l-24.56-13.23s24.67 1.68 25 5.31.87 4.99-.44 7.92zM514.66 724.88l-15.8-9.28 15.72 3.09s2.69 2.08.08 6.19z" />
        <path fill="#d0ecf4" d="M470.75 741.1l-.66 8.53a14.28 14.28 0 0 1-6.26-2l-10.38-5.79c-.39-.22-3.41-2-3.74-5-.78-5.76-1.57-17.59 4.52-20.82l31.23-18.49s4.26-2.57 8.64-.65a8.37 8.37 0 0 1 1.17.63l19.52 10.93 1.62 6.64-41.91 25.39z" />
        <path fill="#fff" d="M481.32 744.57l-5.6 3.32-2 1.19a8.89 8.89 0 0 1-3.88.53c-.78-4.77-2.44-18.85 4.28-22.41l31.24-18.5s6.89-4.16 12.16 2.07l4 3.28s3.24 4.79-5.19 9.79l-1.68 1" />
        <ellipse cx="819.77" cy="871.23" fill="#0067a5" rx="6.14" ry="3.47" transform="rotate(-54.07 526.23572572 1136.8942327)" />
        <ellipse cx="844.5" cy="856.97" fill="#0067a5" rx="6.14" ry="3.47" transform="rotate(-54.07 550.96565462 1122.6284399)" />
        <path fill="#3193d1" d="M450.43 720.75a50.24 50.24 0 0 0 18.44 10.24s-2 3-.22 18.43c0 0-5.3-1.09-7.47-3.29l-7.73-4.31s-3.45-2-3.78-5c0 .03-1.97-9.34.76-16.07z" opacity=".19" />
        <path fill="none" stroke="#0067a5" stroke-dasharray="21 20" stroke-linecap="round" stroke-linejoin="round" stroke-width="3" d="M700.45 923.11l78.09-17.13" opacity=".29" />
        <path fill="#0b436b" d="M844.78 1008.4l-47.28 70.18 174.28 95.28 121.09-27.01-248.09-138.45z" opacity=".21" />
        <path fill="#0b436b" d="M820.72 1019.93l-32.32 5.93s-4.07 6.1 10.53 15.77 35.5 19.4 35.5 19.4 10.72 3.77 38.63-6.47l4.29-10.17s-39.77-27.55-56.63-24.46z" opacity=".21" />
        <path fill="#084872" d="M837.93 1039.63l12.67-7.83-10.28-7.71-8.88 5.27 6.49 10.27zM862.92 1053.45l12.66-7.82-8.68.99-2.93-8.44-7.76 5.07 6.71 10.2z" />
        <path fill="#084872" d="M853.04 1044.93l24.31-13.66s-24.63 2.12-24.9 5.76-.78 4.96.59 7.9zM827.79 1030.64l15.63-9.56-15.63 3.37s-2.69 2.13 0 6.19z" />
        <path fill="#d0ecf4" d="M871.98 1046.07l.81 8.51a14.15 14.15 0 0 0 6.22-2.09l10.27-6c.39-.22 3.38-2.08 3.65-5 .68-5.77 1.25-17.61-4.89-20.73l-31.46-17.98s-4.3-2.5-8.65-.49a8.64 8.64 0 0 0-1.17.66l-19.32 11.27-1.5 6.67 42.36 24.63z" />
        <path fill="#3193d1" d="M861.47 1049.73l5.66 3.21 2 1.16a8.93 8.93 0 0 0 3.89.46c.69-4.78 2.11-18.89-4.68-22.33l-31.56-17.94s-7-4-12.12 2.29l-4 3.35s-3.15 4.85 5.37 9.69l1.7 1" />
        <ellipse cx="1195.84" cy="1176.43" fill="#3193d1" rx="3.47" ry="6.14" transform="rotate(-36.95 836.03030135 1615.85285783)" />
        <ellipse cx="1170.85" cy="1162.6" fill="#3193d1" rx="3.47" ry="6.14" transform="rotate(-36.95 811.03738438 1602.02933273)" />
        <path fill="#3193d1" d="M891.89 1026.54a46.71 46.71 0 0 1-17 9.85s1.89 2.76.51 17.14c0 0 4.91-1.1 6.9-3.19l7.11-4.13s3.18-2 3.43-4.72c.02 0 1.74-8.75-.95-14.95z" opacity=".19" />
        <path fill="#0b436b" d="M872.79 1054.58s1.43-9 .88-15c0 0 5.74-5.45 8.53-10.47 3.35-6 5.89-8.44 5.89-8.44s7.7 2.77 4.77 20.78c0 0 .15 2.56-3.53 5 0 .04-13.12 8.86-16.54 8.13z" opacity=".21" />
        <g fill="#3ba8df">
            <path d="M762.39 713.2l115.19 62.11-139.44 87.17-232.27-117.49-16.89 10.4 250.76 129.9 177.4-111-143.65-76.53s-21.53-21.64-11.1 15.44zM989.63 1017.39l-4.54-1.93-159.32-85.44 104.9-64.93 166.92 82.22-14.85 12.49-149.01-75.6-69.34 43.44 128.13 71.67-2.89 18.08z" opacity=".32" />
            <path d="M897.88 764.01l48.51-27.92 187.33 97.45-11.37 13.99-175.5-91.12-29.71 17.87-19.26-10.27z" opacity=".32" />
        </g>
        <g data-name="building 2">
            <path fill="#3193d1" d="M1293.52 1099.52l-212.94-118.04V618.94l212.94 118.03v362.55z" />
            <path fill="#0b436b" d="M1107.42 801.4V671l-5-2.77V806.4l169.25 93.82v-7.77l-164.25-91.05z" opacity=".21" />
            <path fill="#0b436b" d="M1271.67 900.22l-169.25-93.82V668.23l169.25 93.82v138.17z" opacity=".21" />
            <path fill="#8ce9f9" d="M1293.51 739.21l-213.24-118.74 155.76-96.92 213.25 118.74-155.77 96.92z" />
            <path fill="#44bec0" d="M1451.97 957.51l-158.45 93.01V739.27l155.76-96.8 2.69 315.04z" />
            <path fill="#2c79bd" d="M1415.46 978.94l-67.7 40.13V917.11l66.81-41.51.89 103.34z" />
            <path fill="#0067a5" d="M1415.46 978.94l-67.7-38.91.28-23.05 66.42-41.69 1 103.65" />
            <path fill="#0b436b" d="M1293.52 1035.89L1451.97 945v12.51l-158.45 93.01v-14.63zM1293.52 1035.89l-43.69 39.41 43.69-24.78v-14.63z" opacity=".21" />
            <path fill="#1e8ac1" d="M1427.63 971.79l-79.87-44.67v67.93l20.43 11.91 59.44-35.17z" />
            <path fill="#0b436b" d="M1415.32 964.91l-67.56 3.65v-41.44l67.56 37.79z" opacity=".21" />
            <path fill="#084872" d="M1322.88 969.61l12.66-7.83-10.28-7.71-8.88 5.27 6.5 10.27zM1347.86 983.43l12.66-7.83-8.68 1-2.92-8.44-7.77 5.07 6.71 10.2z" />
            <path fill="#084872" d="M1337.98 974.91l24.31-13.66s-24.63 2.12-24.89 5.76-.82 4.98.58 7.9zM1312.73 960.62l15.63-9.56-15.63 3.36s-2.69 2.13 0 6.2z" />
            <path fill="#d0ecf4" d="M1356.92 976.05l.81 8.51a14.15 14.15 0 0 0 6.22-2.09l10.27-6c.38-.22 3.37-2.08 3.64-5 .68-5.77 1.25-17.61-4.88-20.73l-31.57-17.94s-4.3-2.49-8.65-.48a8.64 8.64 0 0 0-1.17.66l-19.32 11.27-1.49 6.67 42.35 24.63z" />
            <path fill="#fff" d="M1346.42 979.71l5.65 3.21 2 1.16a8.93 8.93 0 0 0 3.89.46c.7-4.79 2.11-18.89-4.67-22.33l-31.57-17.94s-7-4-12.12 2.29l-4 3.35s-3.16 4.85 5.36 9.69l1.7 1" />
            <ellipse cx="1680.78" cy="1106.41" fill="#3193d1" rx="3.47" ry="6.14" transform="rotate(-36.95 1320.94767797 1545.8343377)" />
            <ellipse cx="1655.8" cy="1092.58" fill="#3193d1" rx="3.47" ry="6.14" transform="rotate(-36.95 1295.96972612 1532.0158126)" />
            <path fill="#3193d1" d="M1376.83 956.51a46.64 46.64 0 0 1-17 9.86s1.89 2.76.51 17.14c0 0 4.91-1.1 6.9-3.19l7.11-4.13s3.18-2 3.43-4.72c.02 0 1.7-8.75-.95-14.96z" opacity=".19" />
            <path fill="#44bec0" d="M1293.52 886.98h53.84v108.07h-53.84z" />
            <path fill="#006cad" d="M1107.58 779.73c3.34-2 82-63.48 82-63.48l82.09 43.74v132.49l-164.25-91.05z" />
            <path fill="#e4e9e8" d="M1160.83 789.27a21.17 21.17 0 0 1-13.28 5.33c-8 .18-6.78-2.6-4.86-4.67s23.14-6.8 18.14-.66z" opacity=".56" />
            <path fill="#c6d9e7" d="M1157.8 733.46a12.25 12.25 0 0 1-1.18 6l-2.7 1.67 3.88 3.61a43.52 43.52 0 0 0-1.26 13.62c.41 8.22-2.48 27.7-2.48 27.7l-3.09-17.29-3.8 2.71s-2 4.45-2-7.1c0-5.35 6.79-5.08 2.11-11.31-.57-.77-1.88-5.18-1.71-5.78 2.08-7.07 2.26-6.73 3.3-6.56s-6.67-15.23 8.93-7.27z" />
            <path fill="#12435b" d="M1148.24 735.87c.39-.62 2.34-.62 3.38 2.09s5 1.54 5 1.54l-2.7 1.67-.18 5.67-3.76-3.73s-3.21-4.96-1.74-7.24z" opacity=".21" />
            <path fill="#c6d9e7" d="M1157.8 744.78a67.2 67.2 0 0 1 4.57 17.43l-7.55-10.12s-5.02-16.92 2.98-7.31z" />
            <path fill="#12435b" d="M1162.38 762.22l-5.55-10.86-.16 3.2 5.71 7.66z" opacity=".21" />
            <path fill="#17aa4e" d="M1145.58 760.16s2.19-5.79-1.26-10.61c0 0-3-7.36 5.43-8.45 0 0 4.06 5.48 4.81 5.61l-.6-5.54s8.63 7.61 2.91 10.19l-.44 7.3" />
            <path fill="#1d5678" d="M1145.58 760.16c-4.87 5.45 1.41 27.28 1.41 27.28l4-18.63 3.09 17.29c5.27-21.79 2.88-28.43 2.88-28.43s-1.5 3.69-11.38 2.49z" />
            <path fill="#1d5678" d="M1154.67 787.09a3.24 3.24 0 0 0 1.54 3l-3.1-1.26s.02-4.7 1.56-1.74zM1146.93 788.26s.5 3.57 2.46 4.18l-2-.61s-4.38.28-.46-3.57zM1149.49 729.24s-4.34 3.85-2.73 6.3c0 0 1.65 4.73 3-.37l2.3-3.32.66.82 1.12.14.67-.28.46.75h2.42l.56.36s-.46-4.07-4-4.79l-4.49.39" />
            <path fill="#1d5678" d="M1149.4 739.54s1.7 1.78 2.2 6.33a19.39 19.39 0 0 0-2.45-1.91c.47 1.21 1.87 2.43 1.46 4.18 0 0-2.11-2.34-3.43-3.78 0 0-.47-3.63-.64-4.72-.19-.88-1.39-4.72.81-6.45l2.45 2z" />
            <path fill="#12435b" d="M1154.7 748.56s-1.78 2.61-6.41 2.76c.4.36 2.99 4.22 6.41-2.76z" opacity=".21" />
            <path fill="#12435b" d="M1150.97 768.81s1-5.39 2.72-2.66a11.11 11.11 0 0 1 1.41 8.81c-.79 3.43-1 11.14-1 11.14z" />
            <path fill="#1d5678" d="M1154.58 740.74s1.82.58 1.61 3.84a7.69 7.69 0 0 0 .2 2 2.26 2.26 0 0 1-1.15-2l-.62.52s.07-2.15-.61-2.89l-.13-1.13z" />
            <path fill="#17aa4e" d="M1145.58 760.16s8.73 1.41 11-1.76" />
            <path fill="#c6d9e7" d="M1146.03 742.99c1.81-.23 8.78 19.51 8.78 19.51s-10.17-10.52-10.69-12.74c-.37-1.62-.2-6.5 1.91-6.77z" />
            <path fill="#12435b" d="M1154.81 762.5l-10.57-17.09s-1.61 4.85 3.33 9.17z" opacity=".21" />
            <path fill="#3193d1" d="M1138.02 779.56c3.59.55 32.34 6.71 32.34 6.71v39.72l-32.34-17.43z" />
            <path fill="#4bb5c0" d="M1170.36 786.27l32.76-21.19-33.19-6.04-32.43 20.53" />
            <path fill="#1c88c0" d="M1170.36 825.98l32.76-20.12v-40.78l-32.76 21.19v39.71z" />
            <path fill="#7eced2" d="M1154.31 770.55l11.85 2.2 9.53-6.51-10.8-2.5-10.58 6.81z" />
            <path fill="#98d8eb" d="M1166.16 772.75l8.06-10.06 8.99-6.11-7.52 9.66-9.53 6.51z" />
            <path fill="#4a94d0" d="M1187.98 726.99c.51-5.49-3.44-7.59-8.82-4.7s-10.15 9.69-10.66 15.18c-.43 4.61 2.29 6.83 6.36 5.7l2.19 1.83 2.78-4.5c4.28-3.38 7.75-8.91 8.15-13.51z" />
            <path fill="#fff" d="M1189.12 727.54c.51-5.49-3.44-7.59-8.82-4.7s-10.15 9.69-10.66 15.17c-.43 4.61 2.29 6.83 6.36 5.71l2.19 1.83 2.78-4.51c4.28-3.36 7.72-8.89 8.15-13.5z" />
            <ellipse cx="1514.09" cy="862.96" fill="#ec509c" rx="1.41" ry=".66" transform="rotate(-55.67 1224.62756837 1117.52838002)" />
            <ellipse cx="1516.56" cy="861.04" fill="#ec509c" rx="1.41" ry=".66" transform="rotate(-55.67 1227.09888657 1115.60007204)" />
            <ellipse cx="1519.13" cy="859.03" fill="#ec509c" rx="1.41" ry=".66" transform="rotate(-55.67 1229.67255135 1113.59260156)" />
            <path fill="url(#a)" d="M1607.51 942.45c-8.66-.78 6.34.14 0 0-16-.37-11.54 1.94-20 1.8-12-.2 21 8.13 21 8.13s-41 5.52-42.5 5.86 23.69 12.5 39.58 15.13c4.13.69 2.53 1.13 2.53 1.13z" opacity=".14" transform="translate(-336.42 -128.01)" />
            <path fill="#bed5e4" d="M1212.42 803.22l13.35-6.28s1.48-.83 1.9-.57l3.54 2.13a2.55 2.55 0 0 1 1.6 2.14l.16 10.89a1 1 0 0 1-.59.91l-14.46 6.61z" />
            <path fill="#086898" d="M1232.81 800.64l.16 10.89a1 1 0 0 1-.59.91l-14.46 6.61-2.91-10.06z" />
            <path fill="none" stroke="#d9e4e9" stroke-linecap="round" stroke-linejoin="round" stroke-width="1.21844152" d="M1231.73 800.16l-12.88 5.82" />
            <path fill="none" stroke="#0599c5" stroke-linecap="round" stroke-linejoin="round" stroke-width="1.21844152" d="M1225.5 799.84l-.11-6.86-5.78 2.68.1 6.92" />
            <path fill="url(#e)" d="M1554.34 947.59l33.13 4.79s13.67-12.42 12.32-11.69-27.82-1-27.82-1z" opacity=".14" transform="translate(-336.42 -128.01)" />
            <path fill="#44bec0" d="M1250.84 814.44c.66-.35-.36 2.66-1.73 2.66s-.78-1.33 1.73-2.66z" />
            <path fill="#0b436b" d="M1248.93 793.16s-2.11 16.22 1.28 20.28c0 0-10.82-8.69-11.63-16.94 0 0-1.23-21.17 10.35-3.34z" />
            <path fill="#bed5e4" d="M1241.42 765.51s3-9.42-3.65-10.83c-9.26-2-6.09 11.83-2 13 0 0-3.47 10.28-.24 26.88l-4.18 33 16.73-28.5s.89-24.42-6.66-33.55zM1231.39 829.16s-3.86-.84-3.65 0 .84 2.2 3.65 0z" />
            <path fill="#bed5e4" d="M1245.03 767.8s10.61 5.7 12.23 25.36c0 0-8.73-8.47-14-12.68-.01 0-10.26-13.84 1.77-12.68z" />
            <path fill="#005e96" d="M1234.44 797.21s-3.51 26.12-3.12 30.37c0 0 17.24-24.41 17.17-29.8s-14.05-.57-14.05-.57z" />
            <path fill="#bed5e4" d="M1234.69 770.74s-6.06 18.19-10.53 22.42c2.23-.24 11.76-4 15-9.86.02 0-1.66-20.25-4.47-12.56z" />
            <path fill="#0b436b" d="M1234.36 797.84c1.46.84 6.47 2.8 6.47 2.8s.63 8.58-2.29 10.47c0 0-4.37 3-3.59 6 0 0-2.13 8.54-3.63 10.48l12-18.48s6-9.53 5.12-11.32z" opacity=".39" />
            <path fill="#fccb4a" d="M1249.05 769.4l-6.11-3.17-5.56 5.21-1.64-3.71-1.49 1.27-6.82 19.37 4.29 2.7 2.17-2.38-.92 9.09 18.08.78-1.61-12.57 4.34 6.36 2.9-3.85a44.26 44.26 0 0 0-7.63-19.1z" />
            <path fill="#014f78" d="M1242.94 760.68c.24-.6 2.19-4.67-2.55-6.86 0 0-6.32-.47-7.42-1.8 0 0-5 4.81-1.14 6.83h5.87s2.19.33 2.19 1.85c0 0 2.74-1.54 2 .89 0 0-.65 2.31.18 2.41-.04-.01.51-2.42.87-3.32z" />
            <path fill="#0b436b" d="M1255.37 790.27a14.18 14.18 0 0 1-3.35-5.6c-.62-2.82-.41-4.23-1.81-5.17s-3-4.39-3-4.39-3.11 3.53-5.2 3.92c0 0-4 0-2.35.86 0 0 4.44 1.84 4.23 4 0 0-3.33 3.68-2.16 6 0 0 2.82 5.72 2.19 8.46l7.09.27-1.43-10.82.12-1.37 4.06 5.95zM1229.58 789.71s4.53-8.1 5-11l-.67 10-2.17 2.38zM1239.7 769.26l2.65-2.48-.93-1.27.61-1.53s2.35-6.64.83-8.2c0 0-6.34-4.39-7.9.15 0 0-.08 4.78.62 7 0 0 1.26 4.4-.31 4.55 0 0 2.31.62 3.27-.48M1239.89 769.26l6.65 2.41s5.53 2.65 6.1 3.84c-.38-.79-3.09-5.85-3.59-6.11l-6.11-3.17z" opacity=".18" />
            <path fill="#086898" d="M1106.04 749.99c1.38-.49 32.25-24.63 32.25-24.63v-33.71l-32.25 23.34zM1144.05 721.92c4-2.91 23.76-17.48 23.76-17.48l-9.68-5.33-14.08-7.46z" />
            <path fill="url(#b)" d="M1108.35 696.65l84.07 118.96-42.03 12.69-42.97-70.58.93-61.07z" />
            <path fill="url(#f)" d="M1227.07 736.42l45.23 64.28-.63 60.28-104.49-156.85 59.89 32.29z" />
            <path fill="#0b436b" d="M1230.3 626.93l-50.72-12.05s-38.4-9.93-57.84 5c0 0-18.49 13.4-2.43 22.25l54.3 29.82s43.86.58 49.8-29.36z" opacity=".12" />
            <path id="shadow-c" fill="none" stroke="url(#c)" stroke-dasharray="5 10" stroke-linecap="round" stroke-linejoin="round" stroke-width="3" d="M1266.54 619.96l-43.99 8.25" opacity=".2" />
            <path id="shadow-a" fill="none" stroke="url(#g)" stroke-dasharray="5 10" stroke-linecap="round" stroke-linejoin="round" stroke-width="3" d="M1172.47 901.98l-1.28 63.12" opacity=".2" />
        </g>
        <g data-name="building 1">
            <path fill="#0b436b" d="M711.92 776.98l-238.6 15.2-16.91-19.82 68.33-39.84 102.23-59.59v56.97l84.95 47.08z" opacity=".21" />
            <path fill="#006daf" d="M753.5 374.38l20.38-12.33 11.54 6.68-20.38 11.67-11.54-6.02zM802.28 402.38l20.39-12.33 11.54 6.68-20.38 11.67-11.55-6.02z" />
            <path fill="#3193d1" d="M773.95 740.5l-145.92-80.89V411.17l145.92 80.89V740.5z" />
            <path fill="#8ce9f9" d="M773.95 493.59l-146.13-81.36 106.74-66.42 146.13 81.37-106.74 66.41z" />
            <path fill="#44bec0" d="M882.54 676.1l-108.59 63.73V492.96l106.74-66.33 1.85 249.47z" />
            <path fill="#2c79bd" d="M811.75 718.27l-18.71 10.98V686.7l18.39-11.43.32 43z" />
            <path fill="#0067a5" d="M811.75 718.27l-18.71-10.89V686.5l18.39-11.23.32 43z" />
            <path fill="#3193d1" d="M711.92 776.98l-84.95-47.08V585.27l84.95 47.08v144.63z" />
            <path fill="#8ce9f9" d="M711.92 633.25l-85.07-47.37 62.14-38.66 85.07 47.36-62.14 38.67z" />
            <path fill="#44bec0" d="M775.13 739.88l-63.21 37.1V633.27l62.14-38.62 1.07 145.23z" />
            <path fill="#0b436b" d="M774.05 594.58l-121.64 5.1-25.56-13.8 62.14-38.66 85.06 47.36zM880.69 427.3l-215.59 5.68-37.28-20.75 106.74-66.42 146.13 81.49z" opacity=".21" />
            <path fill="#3ba8df" d="M882.27 425.35l-144.61-81.82-2.07-116.73 144.53 76.8 2.15 121.75z" />
            <path fill="none" stroke="#1c58a7" stroke-miterlimit="10" stroke-width="2" d="M735.59 226.8l144.53 76.8 2.15 121.75" />
            <path fill="none" stroke="#1c58a7" stroke-linecap="round" stroke-linejoin="round" stroke-width="4" d="M746.87 335.31l10.33-20.32 15.38 33s23.33-37 23.66-36 22 60.67 22 60.67l44-57.34" />
            <ellipse cx="1082.94" cy="463.92" fill="#98d8eb" rx="2.58" ry="4.67" transform="rotate(-36.17 718.78825543 915.02534593)" />
            <ellipse cx="1093.94" cy="443.92" fill="#98d8eb" rx="2.58" ry="4.67" transform="rotate(-36.17 729.78007264 895.0119947)" />
            <ellipse cx="1153.94" cy="499.92" fill="#98d8eb" rx="2.58" ry="4.67" transform="rotate(-36.17 789.78762902 951.02053152)" />
            <ellipse cx="1197.94" cy="442.92" fill="#98d8eb" rx="2.58" ry="4.67" transform="rotate(-36.17 833.78364492 894.0202118)" />
            <ellipse cx="1107.94" cy="474.92" fill="#98d8eb" rx="2.58" ry="4.67" transform="rotate(-36.17 743.78306773 926.0172983)" />
            <ellipse cx="1132.94" cy="439.92" fill="#ec509c" rx="2.58" ry="4.67" transform="rotate(-36.17 768.78725246 891.00963575)" />
            <ellipse cx="1132.94" cy="439.92" fill="#ec509c" opacity=".38" rx="6.04" ry="10.91" transform="rotate(-36.17 768.78725246 891.00963575)" />
            <path fill="#2f9ecb" d="M773.49 306.51c0 3-2 4.2-4.6 2.74l-19.75-11.17-8.55-4.84c-2.13-1.2-3.9-4.61-4-7.58l-.52-31.66c0-3 2-4.1 4.49-2.53l27.69 17.35a11.17 11.17 0 0 1 4.67 8.27z" />
            <path fill="#98d8eb" d="M775.29 301.18c.06 3-2 4.2-4.6 2.74l-38.37-21.71a10.48 10.48 0 0 1-4.8-8.06l-.49-27.76c0-3 2-4.26 4.67-2.87l38.21 20.3a10.16 10.16 0 0 1 4.86 7.94z" />
            <path fill="#1c58a7" d="M748.3 266.22l-5.4 6.86 11.94 6.28-6.54-13.14z" />
        </g>
        <g>
            <path fill="#3193d1" d="M1052.88 1124.75l-84.94-47.09V940.03l84.94 47.09v137.63z" />
            <path fill="#8ce9f9" d="M1052.88 988.01l-85.07-47.36 62.14-38.67 85.07 47.37-62.14 38.66z" />
            <path fill="#44bec0" d="M1052.88 1124.54v-136.5l62.14-38.62 1.08 145.23-56.91 33.4" />
            <path fill="#0b436b" d="M1116.1 1036.96v57.69l-28.67 16.82 27.59-69.93-.83-4.34-49.4 6.27-11.91 17.51v63.56l6.31 3.51 95.35-17.07 54.03-58.55 15.89-29.24-108.36 13.77z" opacity=".21" />
            <path fill="#00517b" d="M1064.79 1043.47l40.75-20.97 22.07 11.63 58.76-32.19 38.09 21.25-98.76 52.92-60.91-32.64z" />
            <path fill="#296172" d="M1224.46 1023.19v-37.21l-37.4-20.88-.69 36.84 38.09 21.25z" />
            <path fill="#002a39" d="M1224.46 1023.19v-37.21l-4.72-2.63-33.37 18.59 38.09 21.25z" />
            <path fill="#1baeaa" d="M1125.7 1076.11v-35.38l98.76-54.75v37.21l-98.76 52.92z" opacity=".34" />
            <path fill="#1baeaa" d="M1127.61 1033.86v-37.38l58.76-31.75v37.21l-58.76 31.92z" />
            <path fill="#3193d1" d="M1105.54 981.98v40.52l21.91 11.63v-38.38l-21.91-13.77z" />
            <path fill="#98d8eb" d="M1064.79 1006.96l40.75-24.98 22.5 13.99 58.02-31.87 38.4 21.88-98.76 54.75-60.91-33.77z" opacity=".54" />
            <path fill="#3193d1" d="M1064.79 1006.96v36.51l60.91 32.64v-35.38l-60.91-33.77z" opacity=".47" />
            <path fill="url(#h)" d="M1099.01 985.98l21.94 52.11-40.37-21.91-15.79-9.22 34.22-20.98z" />
            <path fill="url(#i)" d="M1172.26 971.7l20.16 32.04-22.41 12.42-21.22-31.68 23.47-12.78z" />
            <path fill="url(#j)" d="M1163.87 1019.64l9.92 30.84-17.39 9.18-11.26-29.71 18.73-10.31z" opacity=".35" />
            <path fill="url(#k)" d="M1086.33 1018.91l17.66 44.42-19.5-9.66-13.61-43.15 15.45 8.39z" opacity=".35" />
            <path fill="url(#l)" d="M1118.54 990.07l9.5 5.9-.43 37.16-22-51.15 12.93 8.09z" />
            <path fill="#0b436b" d="M1064.79 1006.96l-11.91 15.02v39l11.91-17.51v-36.51z" opacity=".08" />
            <path fill="#0b436b" d="M1100.46 941.24l-121.42 5.66-13.5-5.66 64.41-39.26 70.51 39.26z" opacity=".21" />
            <path id="shadow-b" fill="none" stroke="url(#m)" stroke-dasharray="5 10" stroke-linecap="round" stroke-linejoin="round" stroke-width="3" d="M1002.21 1015.86l-1.28 63.12" opacity=".2" />
        </g>
        <g>
            <path fill="#2c79bd" d="M377.15 972.59c-3.29 1.62-39.38 14.78-22.63 33.52s44.06 16.1 44.06-1.19-7.12-39.38-21.43-32.33z" data-name="island" />
        </g>
        <g>
            <path fill="#0b436b" d="M988.98 704.41l-35.81 3.16-15.16 1.42-14.14 14.73 32.55 9.63 38.99-3.67" opacity=".21" />
            <path fill="#086898" d="M995.74 729.62l-24.68-13.68v-42.02l24.68 13.68v42.02z" />
            <path fill="#8cd5f6" d="M995.74 687.86l-24.72-13.76 18.06-11.24 24.71 13.76-18.05 11.24z" />
            <path fill="#0599c5" d="M1014.11 718.84l-18.37 10.78v-41.76l18.05-11.22.32 42.2z" />
        </g>
        <g data-name="kiosk">
            <path fill="#0b436b" d="M780.53 764.44l-31.61 2.79-13.38 1.25-12.48 13 28.73 8.5 34.41-3.23" opacity=".21" />
            <path fill="#086898" d="M786.2 786.75l-20.78-11.52v-35.39l20.78 11.52v35.39z" />
            <path fill="#8cd5f6" d="M786.2 751.58l-20.81-11.59 15.2-9.46 20.82 11.59-15.21 9.46z" />
            <path fill="#0599c5" d="M801.67 777.67l-15.47 9.08v-35.17l15.21-9.45.26 35.54z" />
        </g>
        <g>
            <path fill="#4a94d0" d="M501.58 647.99c0-17.13-13.89-28.07-31-24.43s-31 20.48-31 37.62c0 14.39 9.8 24.41 23.1 25.08l7.92 8.2 7.92-11.56c13.27-6.32 23.06-20.51 23.06-34.91z" />
            <path fill="#fff" d="M505.58 650.99c0-17.13-13.89-28.07-31-24.43s-31 20.48-31 37.62c0 14.39 9.8 24.41 23.1 25.08l7.92 8.2 7.92-11.56c13.27-6.32 23.06-20.51 23.06-34.91z" />
            <path fill="#4a94d0" d="M909.69 961.36c0-17.13-13.88-34-31-37.61s-31 7.3-31 24.43c0 14.39 9.8 28.58 23.1 34.9l7.91 11.57 7.92-8.2c13.27-.68 23.07-10.69 23.07-25.09z" />
            <path fill="#fff" d="M904.69 964.36c0-17.13-13.88-34-31-37.61s-31 7.3-31 24.43c0 14.39 9.8 28.58 23.1 34.9l7.91 11.57 7.92-8.2c13.27-.68 23.07-10.69 23.07-25.09z" />
            <path fill="#4a94d0" d="M1307.17 556.42c1.05-17.09-11.79-34.75-28.66-39.44s-31.41 5.39-32.46 22.49c-.88 14.36 8 29.12 20.92 36.25l7.2 12 8.4-7.7c13.31.17 23.72-9.23 24.6-23.6z" />
            <path fill="#fff" d="M1301.99 559.11c1-17.1-11.78-34.76-28.66-39.44s-31.41 5.38-32.45 22.48c-.89 14.37 8 29.13 20.92 36.26l7.19 12 8.41-7.7c13.31.17 23.71-9.23 24.59-23.6z" />
            <path fill="#4a94d0" d="M795.01 717.28c-.41-7-6.36-11.18-13.3-9.28s-12.23 9.13-11.83 16.15c.34 5.9 4.6 9.78 10.07 9.74l3.44 3.17 3-4.93c5.27-2.9 8.96-8.95 8.62-14.85z" />
            <path fill="#fff" d="M796.72 718.41c-.41-7-6.36-11.18-13.3-9.28s-12.23 9.13-11.83 16.16c.34 5.9 4.6 9.77 10.07 9.74l3.44 3.17 3-4.93c5.27-2.91 8.96-8.96 8.62-14.86z" />
            <path fill="#4a94d0" d="M1005.43 660.46c.12-6.31-4.87-12.6-11.15-14.07s-11.47 2.47-11.59 8.77c-.11 5.3 3.4 10.59 8.25 13l2.83 4.31 3-3c4.87-.09 8.56-3.71 8.66-9.01z" />
            <path fill="#fff" d="M1003.58 661.53c.12-6.31-4.87-12.6-11.15-14.07s-11.47 2.47-11.6 8.77c-.1 5.3 3.41 10.59 8.26 13l2.83 4.31 3-3c4.86-.1 8.54-3.71 8.66-9.01z" />
            <path fill="#3193d1" d="M469.21 670.66a4.27 4.27 0 0 1-2.25 3.65l-4.48 2.11a1.53 1.53 0 0 1-2.36-1.46l-.13-5.9a4.27 4.27 0 0 1 2.25-3.65l4.48-2.11a1.53 1.53 0 0 1 2.36 1.46z" />
            <path fill="#ec509c" d="M480.17 665.49a4.3 4.3 0 0 1-2.26 3.65l-4.48 2.11a1.53 1.53 0 0 1-2.36-1.46l-.49-23.11a4.29 4.29 0 0 1 2.25-3.65l4.48-2.11a1.54 1.54 0 0 1 2.37 1.46z" />
            <path fill="#3193d1" d="M491.65 660.07a4.29 4.29 0 0 1-2.25 3.64l-4.48 2.12a1.53 1.53 0 0 1-2.36-1.47l-.36-15.75a4.29 4.29 0 0 1 2.26-3.64l4.47-2.12a1.54 1.54 0 0 1 2.37 1.46z" />
            <ellipse cx="1118.01" cy="851.84" fill="#ec509c" rx="1.65" ry="1.06" transform="rotate(-51.28 816.31816987 1138.2531329)" />
            <ellipse cx="1121.41" cy="850.32" fill="#ec509c" rx="1.65" ry="1.06" transform="rotate(-51.28 819.72035117 1136.74593472)" />
            <ellipse cx="1124.88" cy="848.78" fill="#ec509c" rx="1.65" ry="1.06" transform="rotate(-51.28 823.18920102 1135.20665086)" />
            <path fill="#44bec0" d="M1271.43 550.61l-1.07-16.89a17.66 17.66 0 0 0-2.22-.49c-9.14-1.32-15.08 5.38-13.26 15s10.7 18.43 19.85 19.76 15.08-5.38 13.26-15z" />
            <path fill="#ec509c" d="M1273.7 533.06l.84 14.42 15.16 2.33s-2.12-14.49-16-16.75z" />
            <ellipse cx="1324.24" cy="785.94" fill="#ec509c" rx="1.07" ry="1.5" transform="matrix(.87 -.5 .5 .87 -551.98 639.41)" />
            <ellipse cx="1327.58" cy="787.3" fill="#ec509c" rx="1.07" ry="1.5" transform="rotate(-30 920.50245043 1351.06788822)" />
            <ellipse cx="1330.94" cy="788.65" fill="#ec509c" rx="1.07" ry="1.5" transform="rotate(-30 923.86325768 1352.40841381)" />
            <path fill="#4a94d0" d="M883.16 958.18l-20.49-8.81a3.32 3.32 0 0 1-1.92-3 1.42 1.42 0 0 1 2.16-1.21l20.49 8.82a3.3 3.3 0 0 1 1.92 3 1.41 1.41 0 0 1-2.16 1.2z" />
            <ellipse cx="1205.78" cy="1078.19" fill="#ec509c" rx="2.64" ry="3.8" transform="rotate(-36.57 843.76042769 1523.20365136)" />
            <path fill="#4a94d0" d="M882.8 964.51l-20.49-8.81a3.31 3.31 0 0 1-1.92-3 1.42 1.42 0 0 1 2.16-1.21l20.49 8.81a3.32 3.32 0 0 1 1.92 3 1.41 1.41 0 0 1-2.16 1.21z" />
            <ellipse cx="1214.09" cy="1088.25" fill="#ec509c" rx="2.64" ry="3.8" transform="rotate(-36.57 852.06682805 1533.26615577)" />
            <path fill="#4a94d0" d="M882.44 970.84l-20.49-8.81a3.31 3.31 0 0 1-1.92-3 1.42 1.42 0 0 1 2.16-1.21l20.49 8.81a3.34 3.34 0 0 1 1.92 3 1.42 1.42 0 0 1-2.16 1.21z" />
            <ellipse cx="1205.06" cy="1090.85" fill="#ec509c" rx="2.64" ry="3.8" transform="rotate(-36.57 843.0325972 1535.87007543)" />
        </g>
        <g>
            <path fill="#bed5e4" d="M891.14 752.78l-7.11-3.35s-.78-.44-1-.3l-1.88 1.13a1.36 1.36 0 0 0-.85 1.14l-.09 5.8a.52.52 0 0 0 .32.48l7.69 3.52z" />
            <path fill="#086898" d="M880.29 751.4l-.09 5.8a.52.52 0 0 0 .32.48l7.69 3.52 1.55-5.36z" />
            <path fill="#0599c5" d="M891.22 758.99a1.24 1.24 0 0 1-.57 1l-2 1.15c-.31.17-.56 0-.55-.33l.08-5.81a1.32 1.32 0 0 1 .57-1l2-1.19c.31-.19.56 0 .55.31z" />
            <path fill="none" stroke="#d9e4e9" stroke-linecap="round" stroke-linejoin="round" stroke-width=".64847935" d="M880.87 751.15l6.85 3.1" />
            <path fill="none" stroke="#0599c5" stroke-linecap="round" stroke-linejoin="round" stroke-width=".64847935" d="M884.18 750.98l.05-3.65 3.08 1.42-.05 3.69" />
            <path fill="url(#n)" d="M1224.63 889.21L1204 890.8l-10.48-5.66c.71.39 21.73-.15 21.73-.15z" opacity=".14" transform="translate(-336.42 -128.01)" />
            <path fill="url(#o)" d="M1207.11 886.76c-4.53.07-8.13-.2-16.63 0s-25.32 1.34-28.19 4-6.91-.65-4.94 6.86c2.25 8.56 29.92 7 35.27 6.66 5.67-.33 28.07-9.29 27.28-9.47s-29.11-2.36-29.11-2.36 22.71-5.8 16.32-5.69z" opacity=".14" transform="translate(-336.42 -128.01)" />
            <path fill="#44bec0" d="M870.69 758.75c-.35-.19.19 1.41.92 1.41s.42-.71-.92-1.41z" />
            <path fill="#0b436b" d="M871.71 747.42s1.12 8.64-.69 10.79c0 0 5.76-4.62 6.2-9 0-.01.65-11.28-5.51-1.79z" />
            <path fill="#bed5e4" d="M875.7 732.7s-1.57-5 2-5.76c4.92-1 3.24 6.3 1.08 6.95 0 0 1.84 5.47.12 14.3l2.23 17.55-8.9-15.17s-.54-13 3.47-17.87z" />
            <path fill="#44bec0" d="M881.58 766.84s2-.45 1.94 0-.47 1.15-1.94 0z" />
            <path fill="#bed5e4" d="M873.78 733.92s-5.64 3-6.51 13.5c0 0 4.65-4.51 7.46-6.75 0 0 5.46-7.36-.95-6.75z" />
            <path fill="#005e96" d="M879.42 749.58s1.87 13.9 1.66 16.16c0 0-9.18-13-9.14-15.86s7.48-.3 7.48-.3z" />
            <path fill="#bed5e4" d="M879.29 735.49s3.22 9.68 5.6 11.93c-1.19-.12-6.26-2.16-8-5.25.01 0 .9-10.77 2.4-6.68z" />
            <path fill="#0b436b" d="M879.46 749.91c-.77.45-3.44 1.49-3.44 1.49s-.34 4.57 1.22 5.58c0 0 2.32 1.61 1.91 3.18 0 0 1.13 4.55 1.93 5.58l-6.41-9.83s-3.2-5.08-2.73-6z" opacity=".39" />
            <path fill="#fff" d="M871.64 734.78l3.25-1.69 3 2.77.87-2 .79.67 3.63 10.31-2.29 1.44-1.15-1.27.49 4.84-9.62.42.86-6.68-2.32 3.38-1.54-2a23.55 23.55 0 0 1 4.03-10.19z" />
            <path fill="#014f78" d="M874.89 730.13a2.56 2.56 0 0 1 1.36-3.65s3.37-.25 3.95-1c0 0 2.64 2.56.61 3.63h-3.12s-1.17.17-1.17 1c0 0-1.46-.81-1 .48 0 0 .34 1.23-.1 1.28a17.33 17.33 0 0 0-.53-1.74z" />
            <path fill="#0b436b" d="M868.28 745.88a7.47 7.47 0 0 0 1.78-3c.33-1.5.22-2.25 1-2.75a7.45 7.45 0 0 0 1.58-2.33s1.66 1.87 2.77 2.08c0 0 2.14 0 1.25.46 0 0-2.37 1-2.25 2.12 0 0 1.77 2 1.15 3.17 0 0-1.5 3-1.17 4.5l-3.77.15.77-5.73-.06-.73-2.17 3.16zM882.02 745.59s-2.42-4.31-2.67-5.86l.36 5.31 1.15 1.27zM876.58 734.7l-1.41-1.32.49-.68-.32-.81s-1.25-3.53-.44-4.36c0 0 3.37-2.34 4.2.08a16.34 16.34 0 0 1-.33 3.75s-.67 2.34.17 2.42c0 0-1.24.33-1.74-.25" opacity=".18" />
            <path fill="#0b436b" d="M876.52 734.7l-3.54 1.29s-3 1.41-3.25 2a24.91 24.91 0 0 1 1.91-3.25l3.25-1.69z" opacity=".18" />
        </g>
        <g data-name="man">
            <path fill="#0b436b" d="M816.24 767.25c-.88-.81-9.07 0-10.87-.87-1.32-.64 3.45-3.86 2-4.4a33.33 33.33 0 0 0-5.66-1.54v12.55c6.35.65 16.11-4.28 14.53-5.74z" opacity=".21" />
            <path fill="#47bde9" d="M806.52 734.73a3.31 3.31 0 0 1 1.9-2.22c.54-.23 3.22-1 3.67-.6l3.24 1z" />
            <path fill="#c6d9e7" d="M812.47 729.6s2-3.51-2-4-3.27 6.58-1.76 6.43a.62.62 0 0 1 .53 1.09 4.66 4.66 0 0 1-1.2.95c-4.23 1.61-.38 11.35-.38 11.35s-.11-5.42.55-7.06c0 0-1.51 14.84-.5 22.36l3.87-8.48 4.15 13.5s2-12.29 2.26-18.06-.43-13-3.19-13.73c0-.02-3.76-1.4-2.33-4.35z" />
            <path fill="#0b638e" d="M811.65 724.44l2 1.12.39.93s.78 4-1.89 4.59c0 0 .48-3.34-.54-2.67l-.31.63a2 2 0 0 1-1-1.73 5.34 5.34 0 0 0-2.3-.46.85.85 0 0 1-.65-.82" />
            <path fill="#184376" d="M813.73 725.99s1.6 4-1.58 5.05c0 0 .48-3.34-.54-2.67l-.31.63a2 2 0 0 1-1-1.73" />
            <path fill="#3998d3" d="M807.44 761.69s-1.08 0-1.38.51.8 1.17 1.38-.51zM815.81 766.38s-1.34 1.33-.42 1.67 1.25-.5.42-1.67z" />
            <path fill="#1d5678" d="M807.58 745.64s-.62 9.72.13 15.06l3.9-8.38s2.43 8.77 4.07 13.21c0 0 2.54-11.85 2.36-19.17 0 0-9.73 1.38-10.46-.72zM810.87 738.53s2.06 2.57 1.82 3.6l1.35-.83s-1.83-3.19-3.17-2.77z" />
            <path fill="#12435b" d="M808.04 746.43s2.78 4.46 9.7 4.51c0 0 .33-2.35.3-3z" />
            <path fill="#47bde9" d="M805.86 737.78c.89 0 2.18 1.8 2.18 1.8l-.46 6.06c.71 2.92 10.46 3.29 10.46 3.29a34.3 34.3 0 0 0-1.49-14.61c-.1-1.55-3.23-1.59-3.23-1.59l-3.48 1.59-.6-1.22-2.49 1s-1.17 2.16-.89 3.68z" />
            <path fill="#1d5678" d="M813.84 737.99c0 .12 2.64 9.9 2.64 9.9s5.41-3.59-.09-13z" opacity=".23" />
            <path fill="#1d5678" d="M815.84 741.12s2.19 4.43 4 1.37c.03 0 .35-1.57-4-1.37z" />
            <path fill="#1d5678" d="M814.74 746.09s.31-1.74-.72-2.27a6.29 6.29 0 0 1-2.29-1.69 4.37 4.37 0 0 0-2.55-1.21l1.78 2.7s1.92 3.25 3.78 2.47z" opacity=".23" />
            <path fill="#c6d9e7" d="M813.58 733.65s6.2 12.76 3.52 15c0 0 5.64-5.53.76-10.25-.05-.01.58-5.41-4.28-4.75z" />
            <path fill="#47bde9" d="M813.09 732.51l2.75 8.61s3.83 0 4 1.37c0 0-1.83-8.27-3.74-9.32a9.59 9.59 0 0 0-3.01-.66z" />
            <path fill="#12435b" d="M811.58 752.32s-2-3.78-2.16-1.72.34 3.94-.61 4.42c0 0-.89.11-.8 2.44a11.36 11.36 0 0 1-.33 3.24zM812.43 755.2s3.12 5.8 4.31 3.86l-1 6.66z" />
            <path fill="#12435b" d="M808.94 731.99a2.53 2.53 0 0 0 2.28-1.16s1.12-1.29.68.89-2.24 3.78-2.78 3.14.91-3.08-.18-2.87zM809.63 738.68a21.38 21.38 0 0 0 2.42 1.33l1.54.88s-1.24 1-3.96-2.21zM807.21 743.57l-.28-5.28 1.24-2.84-.51 9.27-.45-1.15z" opacity=".21" />
            <path fill="#0b436b" d="M821.36 776.66l-19.38 2.88 8.49-7.75 17.94-4.57-7.05 9.44z" opacity=".21" />
            <path fill="#0599c5" d="M828.25 768.16l-9.89 5.8v-11.39l9.89-6.15v11.74z" />
            <path fill="#8cd5f6" d="M818.36 773.96l3 2.49 9.88-17.54-2.99-2.49-9.89 6.15v11.39z" />
            <path fill="#0599c5" d="M831.24 770.64l-9.88 5.81v-11.4l9.88-6.14v11.73z" />
            <path fill="none" stroke="#0599c5" stroke-linecap="round" stroke-linejoin="round" d="M823.14 761.47v-5.27l2.34-1.23v5.24" />
        </g>
        <g fill="none" stroke="#ec509c" stroke-dasharray="5 10" stroke-linecap="round" stroke-linejoin="round" stroke-width="3" data-name="pink lines">
            <path id="stroke-main" d="M1223.82 542.44l-62.52-35.82s-16.94-10.5-18 11.93v61.23M516.68 629.44l38.41-21.56s10.2 3.73 22.47 9.19l46.29 22.76M820.15 946.2L374.34 711.57s-13.44-3.09 7.24-15.58l41.63-21.06M802.39 702.26l65.2 31.72M892.91 744.71l17.76 9s5.87 4 11.12 1.25l60.89-36.1M1005.43 697.47l74.13 32.15M916.97 987.99l55.23 29.85s11.2 8 19.4 3.78l12.81-9.48M1172.47 901.98l-64.38 40.12M732.87 309.58l-24-13.29s-9.5-3.78-8.42 15.62v54.79M1380.29 984.58l25.29 13.72s15.29 8.31 26.87.9l81.83-47.4s17.3-8.8-5.71-20.31l-56.6-31.27M1267.54 599.68v17.39" />
        </g>
        <g data-name="man">
            <path fill="#bed5e4" d="M1054.16 782.77l-7.11-3.35s-.78-.43-1-.3l-1.88 1.14a1.36 1.36 0 0 0-.85 1.14l-.09 5.79a.56.56 0 0 0 .32.49l7.69 3.52z" />
            <path fill="#086898" d="M1043.31 781.4l-.09 5.79a.56.56 0 0 0 .32.49l7.69 3.52 1.55-5.37z" />
            <path fill="#0599c5" d="M1054.24 788.99a1.23 1.23 0 0 1-.57 1l-2 1.15c-.31.18-.56 0-.55-.33l.08-5.8a1.29 1.29 0 0 1 .57-1l2-1.2c.31-.18.56 0 .55.32z" />
            <path fill="none" stroke="#d9e4e9" stroke-linecap="round" stroke-linejoin="round" stroke-width=".64847935" d="M1043.89 781.14l6.85 3.1" />
            <path fill="none" stroke="#0599c5" stroke-linecap="round" stroke-linejoin="round" stroke-width=".64847935" d="M1047.2 780.97l.06-3.65 3.07 1.43-.05 3.68" />
            <path fill="url(#p)" d="M1387.65 919.21l-20.65 1.58-10.48-5.65c.71.38 21.73-.16 21.73-.16z" opacity=".14" transform="translate(-336.42 -128.01)" />
            <path fill="url(#q)" d="M1370.13 916.75c-4.53.08-8.13-.2-16.63 0s-25.31 1.34-28.19 4-6.91-.65-4.94 6.86c2.25 8.57 29.92 7 35.27 6.67 5.67-.34 28.08-9.29 27.29-9.47s-29.12-2.37-29.12-2.37 22.71-5.8 16.32-5.69z" opacity=".14" transform="translate(-336.42 -128.01)" />
            <path fill="#44bec0" d="M1033.71 788.74c-.35-.18.19 1.42.92 1.42s.42-.71-.92-1.42z" />
            <path fill="#0b436b" d="M1034.73 777.42s1.12 8.63-.69 10.79c0 0 5.76-4.62 6.2-9 0-.02.65-11.29-5.51-1.79z" />
            <path fill="#bed5e4" d="M1038.72 762.7s-1.57-5 1.95-5.76c4.92-1.05 3.24 6.29 1.08 6.94 0 0 1.84 5.47.12 14.31l2.23 17.55-8.9-15.17s-.49-13.01 3.52-17.87zM1044.58 796.84s2-.45 2 0-.51 1.15-2 0z" />
            <path fill="#bed5e4" d="M1036.8 763.92s-5.64 3-6.51 13.5c0 0 4.65-4.51 7.46-6.75 0 0 5.46-7.37-.95-6.75z" />
            <path fill="#005e96" d="M1042.44 779.57s1.87 13.9 1.66 16.17c0 0-9.18-13-9.14-15.87s7.48-.3 7.48-.3z" />
            <path fill="#bed5e4" d="M1042.31 765.48s3.22 9.69 5.6 11.94c-1.19-.13-6.26-2.16-8-5.25.01 0 .9-10.78 2.4-6.69z" />
            <path fill="#0b436b" d="M1042.48 779.91c-.77.44-3.44 1.49-3.44 1.49s-.34 4.56 1.22 5.57c0 0 2.32 1.62 1.91 3.19 0 0 1.13 4.54 1.93 5.58l-6.41-9.84s-3.2-5.07-2.73-6z" opacity=".39" />
            <path fill="#17aa4e" d="M1034.66 764.77l3.25-1.69 3 2.78.87-2 .79.68 3.63 10.31-2.29 1.43-1.15-1.26.49 4.83-9.62.42.86-6.68-2.32 3.39-1.54-2a23.55 23.55 0 0 1 4.03-10.21z" />
            <path fill="#014f78" d="M1037.91 760.13a16.08 16.08 0 0 1-.22-3.62s4.68-1.44 6.37.88a1.54 1.54 0 0 1-.23 1.77h-3.12s-1.17.18-1.17 1c0 0-1.46-.82-1 .47 0 0 .34 1.23-.1 1.29a16.63 16.63 0 0 0-.53-1.79z" />
            <path fill="#0b436b" d="M1031.3 775.88a7.51 7.51 0 0 0 1.78-3c.33-1.5.22-2.25 1-2.75a7.45 7.45 0 0 0 1.58-2.33s1.66 1.88 2.77 2.08c0 0 2.14 0 1.25.46 0 0-2.36 1-2.25 2.13 0 0 1.77 2 1.15 3.16 0 0-1.5 3.05-1.17 4.5l-3.77.15.77-5.73-.06-.73-2.17 3.17zM1045.04 775.58s-2.42-4.31-2.67-5.85l.36 5.31 1.15 1.26zM1039.64 764.7l-1.41-1.32.49-.68-.32-.81s-1.25-3.54-.44-4.37c0 0 3.37-2.33 4.2.08a16.34 16.34 0 0 1-.33 3.75s-.67 2.34.17 2.42c0 0-1.23.33-1.74-.25" opacity=".18" />
            <path fill="#0b436b" d="M1039.58 764.7l-3.54 1.28s-3 1.41-3.24 2a24.46 24.46 0 0 1 1.9-3.25l3.25-1.69z" opacity=".18" />
        </g>
        <g data-name="man">
            <path fill="#bed5e4" d="M667.14 821.88l-7.11-3.34s-.78-.44-1-.3l-1.88 1.13a1.36 1.36 0 0 0-.85 1.14l-.09 5.79a.54.54 0 0 0 .32.49l7.69 3.52z" />
            <path fill="#086898" d="M656.29 820.51l-.09 5.79a.54.54 0 0 0 .32.49l7.69 3.52 1.55-5.36z" />
            <path fill="#0599c5" d="M667.22 828.13a1.26 1.26 0 0 1-.57 1l-2 1.14c-.31.18-.56 0-.55-.33l.08-5.8a1.29 1.29 0 0 1 .57-1l2-1.19c.31-.19.56-.05.55.31z" />
            <path fill="none" stroke="#d9e4e9" stroke-linecap="round" stroke-linejoin="round" stroke-width=".64847935" d="M656.87 820.26l6.85 3.09" />
            <path fill="none" stroke="#0599c5" stroke-linecap="round" stroke-linejoin="round" stroke-width=".64847935" d="M660.18 820.08l.05-3.65 3.08 1.43-.05 3.68" />
            <path fill="url(#r)" d="M1000.63 958.32L980 959.9l-10.48-5.65c.71.38 21.73-.16 21.73-.16z" opacity=".14" transform="translate(-336.42 -128.01)" />
            <path fill="url(#s)" d="M983.11 955.86c-4.53.08-8.13-.19-16.63 0s-25.32 1.34-28.19 4-6.91-.64-4.94 6.86c2.25 8.57 29.92 7 35.27 6.67 5.67-.33 28.07-9.29 27.28-9.47s-29.11-2.36-29.11-2.36 22.71-5.8 16.32-5.7z" opacity=".14" transform="translate(-336.42 -128.01)" />
            <path fill="#44bec0" d="M646.69 827.85c-.35-.18.19 1.42.92 1.42s.42-.71-.92-1.42z" />
            <path fill="#0b436b" d="M647.71 816.53s1.12 8.63-.69 10.79c0 0 5.76-4.62 6.2-9 0-.01.65-11.28-5.51-1.79z" />
            <path fill="#bed5e4" d="M651.7 801.81s-1.57-5 2-5.76c4.92-1 3.24 6.3 1.08 6.94 0 0 1.84 5.48.12 14.31l2.23 17.55-8.9-15.17s-.54-13.01 3.47-17.87zM657.58 835.99s2-.45 1.94 0-.47 1.13-1.94 0z" />
            <path fill="#bed5e4" d="M649.78 802.99s-5.64 3-6.51 13.5c0 0 4.65-4.51 7.46-6.75 0 .04 5.46-7.33-.95-6.75z" />
            <path fill="#005e96" d="M655.42 818.68s1.87 13.9 1.66 16.17c0 0-9.18-13-9.14-15.86s7.48-.31 7.48-.31z" />
            <path fill="#bed5e4" d="M655.29 804.59s3.22 9.69 5.6 11.94c-1.19-.13-6.26-2.16-8-5.25.01 0 .9-10.78 2.4-6.69z" />
            <path fill="#0b436b" d="M655.46 818.99c-.77.45-3.44 1.49-3.44 1.49s-.34 4.56 1.22 5.57c0 0 2.32 1.62 1.91 3.19 0 0 1.13 4.54 1.93 5.58l-6.41-9.83s-3.2-5.07-2.73-6z" opacity=".39" />
            <path fill="#fccb4a" d="M647.64 803.88l3.25-1.69 3 2.78.87-2 .79.68 3.6 10.34-2.29 1.44-1.15-1.27.49 4.84-9.62.41.86-6.67-2.32 3.38-1.54-2a23.59 23.59 0 0 1 4.06-10.24z" />
            <path fill="#014f78" d="M650.89 799.24c-.12-.32-.94-2.18.82-3 0 0 1-.09 1.94-.14 0 0 2.07 1.13 0 2.21s-1.17.17-1.17 1c0 0-1.46-.82-1 .48 0 0 .34 1.23-.1 1.28a16.63 16.63 0 0 0-.49-1.83z" />
            <path fill="#0b436b" d="M644.28 814.99a7.47 7.47 0 0 0 1.78-3c.33-1.5.22-2.25 1-2.75s2.77-2.34 2.77-2.34.47 1.88 1.58 2.09c0 0 2.14 0 1.25.46 0 0-2.37 1-2.25 2.12 0 0 1.77 2 1.15 3.17 0 0-1.5 3-1.17 4.5l-3.77.14.77-5.73-.06-.72-2.17 3.16zM658.02 814.69s-2.42-4.31-2.67-5.85l.36 5.31 1.15 1.27zM652.58 803.81l-1.41-1.32.49-.68-.32-.81s-1.25-3.53-.44-4.36c0 0 3.35-1.2 4.2.08a16.34 16.34 0 0 1-.33 3.75s-.67 2.34.17 2.42c0 0-1.24.33-1.74-.26" opacity=".18" />
            <path fill="#0b436b" d="M652.52 803.81l-3.54 1.28s-2.95 1.41-3.25 2a25.75 25.75 0 0 1 1.91-3.26l3.25-1.69z" opacity=".18" />
            <path fill="#0b436b" d="M656.24 796.28a1.86 1.86 0 0 1 .56 1.73s-.69-1.7-1.45-2a1.86 1.86 0 0 1 .89.27z" />
        </g>
        <g>
            <path fill="url(#t)" d="M1336.54 905.33c-.29-.24-37.33.53-37.33.53s-14.25-.29-6.63 7.3 29.13 4.29 29.13 4.29 33.76-11.15 32.94-11.09-28.44 1.94-28.44 1.94z" opacity=".14" transform="translate(-336.42 -128.01)" />
            <path fill="#c6d9e7" d="M1013.76 738.83a7.58 7.58 0 0 1 1.34 5.55l-1.84 1 2.47 2.51a28.84 28.84 0 0 0-1.25 9v5.47l-4 1.27-2.33 2.55s-.36 2.91 0-4.76c.16-3.55 3.69-4 .77-8.24a14.07 14.07 0 0 1-1.37-4c1.6-4.63 1.77-3.85 2.39-4.25s-5.74-7.94 3.82-6.1z" />
            <path fill="#12435b" d="M1009.64 741.72c.28-.4 1.57-.34 2.19 1.49a6.21 6.21 0 0 0 2.08 2.86l-3.33.51s-2-3.39-.94-4.86z" opacity=".21" />
            <path fill="#c6d9e7" d="M1015.73 747.92a87.36 87.36 0 0 1 2.5 11.72l-5-6.23s-1.05-12.25 2.5-5.49z" />
            <path fill="#12435b" d="M1018.24 759.64l-3.36-7.38.21 3.5 3.15 3.88z" opacity=".21" />
            <path fill="#2980c0" d="M1009.9 744.99s2.38 2.57 4.13 3.25l-.07-2.47s4.84 5.61 1.82 7.11l-1.3 4.05-6.42.18s.91-2.25-1-6.88c-.03 0-1.71-5.34 2.84-5.24z" />
            <path fill="#12435b" d="M1008.74 748.45s-.9 3.92 1.38 4.72c0 0 1.72.78.54 1.93a6 6 0 0 0-.86 2h-1.74s.69-2.6.17-3.18l-.58-2z" opacity=".21" />
            <path fill="#1d5678" d="M1014.48 756.93a31.16 31.16 0 0 1 1.43 18.88l-3.44-10.88-10.13 9.55s4.32-9.36 5.72-17.37zM1016.69 777.1a2.17 2.17 0 0 0 1.85 1.23l-2.31.18s-1.39-2.63.46-1.41zM1002.51 774.63s-1 2.18-.11 3.22l-.88-1s-2.58-1.45.99-2.22zM1014.74 739.66s-1.42-2.32-3.77-1.75l-1.41.82s.42-1.5-.69-1.61-2.13 2.13-.49 2.29c0 0-1.22 2.58.44 3.6 0 0 1.9 2.11 1.31-1.35l.56-1.41.9 1.13.64-.1.13-1.32.6 1 2.1-.7z" />
            <path fill="#12435b" d="M1008.06 757.11s.71 1.37 1.79 3.23-1.81 2.85-1.23 4.9-6.28 9.24-6.28 9.24zM1012.47 764.93s.73-4.08 1-3c.68 2.44 1.24 3.3 1.81 5.34s.58 8.75.58 8.75z" />
            <path fill="#0599c5" d="M1007.65 751.91c-1-.07-5.7-2.26-5.7-2.26l-.39 6.86 8.53 3.8v-7.14z" />
            <path fill="#c6d9e7" d="M1009.27 748.71c-.19 1.06-6 10.68-6 10.68s1.69-11.74 4-13.27c.8-.54 2.63-1.13 2 2.59z" />
            <path fill="#12435b" d="M1003.25 759.39l5.76-12.83s-2.12-1.05-3.19 1.83zM1013.67 750.71a5.29 5.29 0 0 1-4.33 1.64s2.24 2.19 4.33-1.64z" opacity=".21" />
            <path fill="#0599c5" d="M1013.26 745.41s-2.84 6.46-4.91 6.85l1 .72s4.3-3.99 3.91-7.57z" />
        </g>
        <g>
            <path fill="none" stroke="#1c58a7" stroke-miterlimit="10" stroke-width="2" d="M349.87 777.98l134.06 74.32v81.25" />
            <path fill="url(#d)" d="M790.39 1085h-43.3l.42 6.13s62.23-1.13 42.88-6.13z" opacity=".23" transform="translate(-336.42 -128.01)" />
            <path fill="url(#u)" d="M700.83 1035.9h-78.75l.77 6.14s113.15-1.15 77.98-6.14z" opacity=".23" transform="translate(-336.42 -128.01)" />
            <path fill="none" stroke="#98d8eb" stroke-linecap="round" stroke-linejoin="round" stroke-width="3.03534191" d="M368.31 792.28v115.61M456.41 841.35v115.62" />
            <path fill="#8ce9f9" d="M483.93 933.55l-134.06-74.31v-81.26l134.06 74.32v81.25z" />
            <g data-name="Layer 1">
                <path fill="#1aa0e8" d="M401.23 829.92c5.35-4.43 20.35 5.24 28.35 17.17 15.2 22.47-4.52 44.82-23 20.66-.46-.59-.92-1.18-1.38-1.84-5.83-8.41-10.55-18.28-5.57-33.62a5.37 5.37 0 0 1 1.6-2.37z" />
                <path fill="#0b63ce" d="M401.23 829.92c15.53 2.61 35 29.11 19.86 37.35-3.54 1.88-9 2.18-14.48.48a24 24 0 0 1-10.94-7.1c-7.41-8.4-9.24-24.14-3.54-28.71a11.33 11.33 0 0 1 9.1-2.02z" />
                <path fill="#134194" d="M421.09 867.27c15.13-8.24-4.33-34.74-19.86-37.35a5.37 5.37 0 0 0-1.57 2.37c-5 15.34-.26 25.21 5.57 33.62.46.66.92 1.25 1.38 1.84 5.44 1.7 10.97 1.4 14.48-.48z" />
            </g>
        </g>
        <g>
            <path fill="#0b436b" d="M700.82 1130.15s-7.91-7.78-33.76 6.59c0 0 55.78 21.81 33.76-6.59zM588.58 1081.69s-7.92-7.78-33.77 6.59c.03 0 55.77 21.81 33.77-6.59z" opacity=".21" />
            <path fill="#0b436b" d="M569.15 1077.66s-7.91-7.54-33.76 6.38c0 0 55.78 21.14 33.76-6.38zM316.95 854.74s-47.07-13.39-33.77 6.58c0 0 55.78 21.82 33.77-6.58zM636.02 1095.25s-77-15.29-42.17 12.26c0 0 73.42 21.3 42.17-12.26z" opacity=".21" />
            <path fill="#1baeaa" d="M696.93 1139.6s-9.55-6.69 5.17-37c0-.01 11.48 37.62-5.17 37z" />
            <ellipse cx="313.04" cy="835.02" fill="#1baeaa" rx="10.4" ry="31.74" />
            <path fill="#20a1ab" d="M307.44 808.26c-14.07 39.72 3 57.53 3 57.53 6.27 2.65 6.65-.6 8.23-3.48-8.51-12.59-9.32-41.32-11.23-54.05z" />
            <path fill="#1baeaa" d="M566.82 1089.37s-11.34-5.24-1.59-40c0 .01 19.29 37.48 1.59 40zM583.24 1091.78s-13-9.11 7-50.42c.04 0 15.72 51.28-7 50.42z" />
            <ellipse cx="632.27" cy="1078.13" fill="#1baeaa" rx="13.93" ry="28.75" />
            <path fill="#20a1ab" d="M699.24 1111.35c-10.17 22.8-2.74 28.24-2.74 28.24a6.63 6.63 0 0 0 5.62-2.13c-3.28-8.47-3.46-18.47-2.88-26.11zM586.76 1052.2c-14 31.27-3.77 38.73-3.77 38.73a9.08 9.08 0 0 0 7.71-2.93c-4.5-11.57-4.74-25.32-3.94-35.8zM622.83 1056.99c-13.29 32.39 5.69 48.85 5.69 48.85 6.27 2.65 9.48-.36 11.07-3.24-8.54-12.61-14.85-32.89-16.76-45.61zM564.27 1056.21c-7.18 27.9 2.32 32.66 2.32 32.66a7.67 7.67 0 0 0 6-3.51c-5.38-8.97-7.51-20.37-8.32-29.15z" />
            <ellipse cx="517.68" cy="545.5" fill="#1baeaa" rx="11.32" ry="30.34" />
            <ellipse cx="567.79" cy="532.87" fill="#1baeaa" rx="6.51" ry="14.35" />
            <path fill="#20a1ab" d="M512.5 518.65c-13.78 38.9 3 56.35 3 56.35 6.14 2.59 6.51-.59 8.06-3.41-8.39-12.33-9.19-40.47-11.06-52.94zM564.58 520.71c-6.31 17.82 1.36 25.81 1.36 25.81 2.81 1.18 3-.27 3.69-1.56-3.86-5.65-4.22-18.54-5.05-24.25z" />
            <path fill="#0b436b" d="M1448.68 1154.3s-10.1-9.93-43.1 8.41c0 0 71.2 27.84 43.1-8.41z" opacity=".21" />
            <path fill="#0b436b" d="M1474.78 1138.93s-10.1-9.93-43.1 8.41c0 0 71.2 27.84 43.1-8.41z" opacity=".21" />
            <path fill="#0b436b" d="M1503.9 1149.21s-10.1-9.93-43.09 8.41c0 0 71.19 27.84 43.09-8.41z" opacity=".21" />
            <path fill="#1baeaa" d="M1449.94 1169.76s-15.59-7.19-2.19-55c0 .04 26.52 51.55 2.19 55zM1473.27 1157.18s-15.59-7.19-2.2-55c0 .04 26.51 51.54 2.2 55zM1500.68 1162.71s-12-5.52-1.68-42.18c0 0 20.35 39.53 1.68 42.18z" />
            <path fill="#20a1ab" d="M1496.74 1131.14c-6.2 27.47 3.22 31.83 3.22 31.83a7.41 7.41 0 0 0 5.74-3.6c-5.5-8.6-7.91-19.65-8.96-28.23zM1468.73 1111.15c-9.06 40.12 4.7 46.5 4.7 46.5a10.89 10.89 0 0 0 8.39-5.27c-8.03-12.56-11.56-28.7-13.09-41.23zM1445.4 1123.28c-9.06 40.12 4.7 46.5 4.7 46.5a10.87 10.87 0 0 0 8.39-5.27c-8.03-12.52-11.56-28.7-13.09-41.23z" />
            <path fill="#0b436b" d="M1613.06 1067.33s-10.1-9.93-43.1 8.41c0 0 71.19 27.84 43.1-8.41z" opacity=".21" />
            <path fill="#0b436b" d="M1600.86 1077.07s-6.66-6.56-28.45 5.55c0 0 47 18.37 28.45-5.55z" opacity=".21" />
            <path fill="#1baeaa" d="M1594.15 1082.99s-6-2.76-.85-21.09c0-.03 10.18 19.73.85 21.09zM1609.58 1082.99s-12-5.52-1.69-42.18c.01-.03 20.37 39.49 1.69 42.18z" />
            <path fill="#20a1ab" d="M1606.06 1048.07c-6.8 30.1 3.53 34.89 3.53 34.89a8.18 8.18 0 0 0 6.29-4c-6.03-9.38-8.67-21.49-9.82-30.89zM1592.04 1069.07c-2.07 12.19 2.17 13.88 2.17 13.88a3.28 3.28 0 0 0 2.43-1.71c-2.62-3.64-3.94-8.43-4.6-12.17z" />
            <path fill="#0b436b" d="M1681.58 1001.16s-23.78-16.93-19.77-1c-.01.04 8.64 40.62 19.77 1z" opacity=".21" />
            <ellipse cx="1677.45" cy="978.23" fill="#1baeaa" rx="7" ry="28.38" />
            <path fill="#20a1ab" d="M1673.58 954.56c-1.89 5.08-3.14 13.78-3.14 23.67 0 15.67 3.13 28.38 7 28.38 2 0 3.79-3.39 5.06-8.81-7.86-17.9-9.23-33.34-8.92-43.24z" />
            <path fill="#0b436b" d="M1065.46 519.33s-47.07-13.38-33.76 6.59c0 0 55.78 21.81 33.76-6.59z" opacity=".21" />
            <path fill="#0b436b" d="M1081.08 525.05s-47.07-13.38-33.76 6.59c0 0 55.78 21.81 33.76-6.59z" opacity=".21" />
            <path fill="#1baeaa" d="M1056.58 533.65s-9.55-6.69 5.17-37c-.03 0 11.48 37.63-5.17 37zM1077.96 537.36s-8.25-4.75 1.52-30.45c0 0 12.1 29.75-1.52 30.45z" />
        </g>
    </g>
</svg>