<svg class="lego-element banner-illustration" id="home" xmlns="http://www.w3.org/2000/svg" xmlns:xlink="http://www.w3.org/1999/xlink" viewBox="0 0 1320 1192"> <title>Liferay.com Homepage Illustration</title> <defs> <linearGradient id="linear-gradient-w" x1="1837.74" y1="977.32" x2="1881.03" y2="977.32" gradientTransform="translate(-164.16 369.45) rotate(-9.87)" gradientUnits="userSpaceOnUse"> <stop offset="0" stop-color="#fff" stop-opacity="0"></stop> <stop offset="1" stop-color="#00093f"></stop> </linearGradient> <linearGradient id="linear-gradient-x" x1="1799.03" y1="812.09" x2="1719.63" y2="766.25" gradientTransform="matrix(1, 0.01, -0.01, 1, 10.45, -3.72)" gradientUnits="userSpaceOnUse"> <stop offset="0" stop-color="#007bff"></stop> <stop offset="1" stop-color="#00093f"></stop> </linearGradient> <linearGradient id="linear-gradient-y" x1="1789.5" y1="959.99" x2="1789.5" y2="863.49" gradientTransform="translate(-726.94 -330.59) rotate(2.33)" gradientUnits="userSpaceOnUse"> <stop offset="0.16" stop-color="#fff" stop-opacity="0"></stop> <stop offset="0.76" stop-color="#fff"></stop> <stop offset="1" stop-color="#fff"></stop> </linearGradient> <linearGradient id="linear-gradient-z" x1="1816.46" y1="886.74" x2="1816.46" y2="975.24" gradientTransform="translate(-726.94 -330.59) rotate(2.33)" gradientUnits="userSpaceOnUse"> <stop offset="0.16" stop-color="#fff" stop-opacity="0"></stop> <stop offset="1" stop-color="#fff"></stop> </linearGradient> <linearGradient id="linear-gradient-a" x1="1454.9" y1="1020.7" x2="1558.19" y2="1020.7" gradientTransform="matrix(-1, 0.05, 0.05, 1, 2967.25, -65.08)" xlink:href="#linear-gradient-x"></linearGradient> <linearGradient id="linear-gradient-b" x1="1512.47" y1="1083.26" x2="1417.29" y2="1028.3" gradientTransform="matrix(-1, 0.02, 0.02, 1, 3013.8, -15.89)" xlink:href="#linear-gradient-x"></linearGradient> <linearGradient id="linear-gradient-c" x1="1504.97" y1="1065.89" x2="1456.83" y2="982.51" xlink:href="#linear-gradient-z"></linearGradient> <linearGradient id="linear-gradient-d" x1="1513.62" y1="1025.04" x2="1467.48" y2="945.13" xlink:href="#linear-gradient-z"></linearGradient> <linearGradient id="linear-gradient-e" x1="1604.16" y1="1014.44" x2="1707.45" y2="1014.44" gradientTransform="matrix(1, 0.03, -0.03, 1, 25.75, -40.25)" xlink:href="#linear-gradient-x"></linearGradient> <linearGradient id="linear-gradient-f" x1="1617.91" y1="1037.97" x2="1617.91" y2="982.02" gradientTransform="matrix(1, 0.03, -0.03, 1, -737.52, -314.61)" xlink:href="#linear-gradient-y"></linearGradient> <linearGradient id="linear-gradient-g" x1="1677.43" y1="1013.45" x2="1696.27" y2="1026.5" gradientTransform="matrix(-1, 0.04, -0.04, -1, 2656.69, 1709.5)" xlink:href="#linear-gradient-y"></linearGradient> <linearGradient id="linear-gradient-h" x1="1664.12" y1="1005.85" x2="1664.12" y2="970.64" gradientTransform="translate(36.32 -56.23) rotate(2.33)" xlink:href="#linear-gradient-x"></linearGradient> <linearGradient id="linear-gradient-i" x1="833.9" y1="778.17" x2="887.75" y2="782.51" gradientUnits="userSpaceOnUse"> <stop offset="0" stop-color="#1b1464" stop-opacity="0"></stop> <stop offset="1" stop-color="#000e3f"></stop> </linearGradient> <linearGradient id="linear-gradient-j" x1="1414.16" y1="1045.94" x2="1416.83" y2="1090.86" gradientTransform="matrix(-1, 0.02, 0.02, 1, 3013.8, -15.89)" gradientUnits="userSpaceOnUse"> <stop offset="0" stop-color="#002b9c"></stop> <stop offset="0.1" stop-color="#0034a0"></stop> <stop offset="0.27" stop-color="#004dab"></stop> <stop offset="0.49" stop-color="#0076be"></stop> <stop offset="0.74" stop-color="#00aed7"></stop> <stop offset="1" stop-color="#00eef4"></stop> </linearGradient> <linearGradient id="linear-gradient-k" x1="1632.74" y1="985.41" x2="1632.74" y2="1088.49" gradientTransform="matrix(1, 0.03, -0.03, 1, -737.52, -314.61)" xlink:href="#linear-gradient-z"></linearGradient> <linearGradient id="linear-gradient-tube-special" x1="1503.57" y1="1248.88" x2="1498.63" y2="1240.33" gradientTransform="matrix(0.47, -0.88, -0.88, -0.47, 1884.02, 3175.68)" gradientUnits="userSpaceOnUse"> <stop offset="0" stop-color="#001e6a" stop-opacity="0"></stop> <stop offset="0.17" stop-color="#00206b" stop-opacity="0.02"></stop> <stop offset="0.33" stop-color="#00266f" stop-opacity="0.08"></stop> <stop offset="0.47" stop-color="#002f76" stop-opacity="0.19"></stop> <stop offset="0.62" stop-color="#003d80" stop-opacity="0.34"></stop> <stop offset="0.75" stop-color="#004e8c" stop-opacity="0.54"></stop> <stop offset="0.89" stop-color="#00639b" stop-opacity="0.77"></stop> <stop offset="1" stop-color="#0078aa"></stop> </linearGradient> <linearGradient id="linear-gradient" x1="1287.44" y1="1017.04" x2="1549.99" y2="1471.79" gradientTransform="rotate(1.96 1397.442 863.184)" gradientUnits="userSpaceOnUse"> <stop offset=".42" stop-color="#fff"></stop> <stop offset=".48" stop-color="#eef5f7"></stop> <stop offset=".59" stop-color="#c1dbe2"></stop> <stop offset=".76" stop-color="#78b2c0"></stop> <stop offset=".96" stop-color="#157993"></stop> <stop offset="1" stop-color="#006d89"></stop> </linearGradient> <linearGradient id="linear-gradient-2" x1="1655.52" y1="927.53" x2="1739.27" y2="1072.61" gradientTransform="rotate(1.96 9009.703 -21574.348)" gradientUnits="userSpaceOnUse"> <stop offset=".42" stop-color="#fff"></stop> <stop offset=".48" stop-color="#eeeef1"></stop> <stop offset=".59" stop-color="#c1c1ce"></stop> <stop offset=".76" stop-color="#787895"></stop> <stop offset=".96" stop-color="#151548"></stop> <stop offset="1" stop-color="#000038"></stop> </linearGradient> <linearGradient id="linear-gradient-3" x1="1837.74" y1="977.32" x2="1881.03" y2="977.32" gradientTransform="rotate(-10.25 2033.06 1122.863)" gradientUnits="userSpaceOnUse"> <stop offset="0" stop-color="#fff" stop-opacity="0"></stop> <stop offset="1" stop-color="#00093f"></stop> </linearGradient> <linearGradient id="linear-gradient-4" x1="1864.69" y1="983.86" x2="1896.99" y2="983.86" xlink:href="#linear-gradient-3"></linearGradient> <linearGradient id="linear-gradient-5" x1="1112.13" y1="744.17" x2="1196.92" y2="744.17" gradientTransform="rotate(1.76 1423.185 890.784)" gradientUnits="userSpaceOnUse"> <stop offset="0" stop-color="#73aae0" stop-opacity="0"></stop> <stop offset="1" stop-color="#0084e9"></stop> </linearGradient> <linearGradient id="linear-gradient-6" x1="1158.63" y1="699.09" x2="1280.8" y2="699.09" gradientTransform="scale(-1 1) rotate(16.3 24.2 -8048.85)" xlink:href="#linear-gradient-5"></linearGradient> <linearGradient id="linear-gradient-7" x1="1799.02" y1="812.08" x2="1719.62" y2="766.24" gradientTransform="rotate(.08 -3857.893 3454.765)" gradientUnits="userSpaceOnUse"> <stop offset="0" stop-color="#007bff"></stop> <stop offset="1" stop-color="#00093f"></stop> </linearGradient> <linearGradient id="linear-gradient-8" x1="1802.55" y1="801.5" x2="1752" y2="772.31" gradientTransform="rotate(1.96 9009.703 -21574.348)" xlink:href="#linear-gradient-7"></linearGradient> <linearGradient id="linear-gradient-9" x1="1762.83" y1="911.46" x2="1866.12" y2="911.46" gradientTransform="rotate(1.96 1397.442 863.184)" xlink:href="#linear-gradient-7"></linearGradient> <linearGradient id="linear-gradient-10" x1="1789.5" y1="959.99" x2="1789.5" y2="863.49" gradientTransform="rotate(1.96 9009.703 -21574.348)" gradientUnits="userSpaceOnUse"> <stop offset=".16" stop-color="#fff" stop-opacity="0"></stop> <stop offset=".76" stop-color="#fff"></stop> <stop offset="1" stop-color="#fff"></stop> </linearGradient> <linearGradient id="linear-gradient-11" x1="1816.46" y1="886.74" x2="1816.46" y2="975.24" gradientTransform="rotate(1.96 9009.703 -21574.348)" gradientUnits="userSpaceOnUse"> <stop offset=".16" stop-color="#fff" stop-opacity="0"></stop> <stop offset="1" stop-color="#fff"></stop> </linearGradient> <linearGradient id="linear-gradient-12" x1="1317.15" y1="1255.28" x2="1420.44" y2="1255.28" gradientTransform="matrix(-1 .04 .04 1 2978.49 -58.08)" xlink:href="#linear-gradient-7"></linearGradient> <linearGradient id="linear-gradient-13" x1="1662.26" y1="1301.22" x2="1732.31" y2="1231.16" gradientTransform="rotate(1.96 1397.442 863.184)" gradientUnits="userSpaceOnUse"> <stop offset="0" stop-color="#5688bf"></stop> <stop offset=".2" stop-color="#538cc1"></stop> <stop offset=".4" stop-color="#4898c7"></stop> <stop offset=".6" stop-color="#37add2"></stop> <stop offset=".8" stop-color="#1fc9e1"></stop> <stop offset="1" stop-color="#01edf4"></stop> <stop offset="1" stop-color="#00eef4"></stop> </linearGradient> <linearGradient id="linear-gradient-14" x1="1669.38" y1="1304.42" x2="1678.91" y2="1287.91" gradientTransform="rotate(1.96 9009.703 -21574.348)" xlink:href="#linear-gradient-13"></linearGradient> <linearGradient id="linear-gradient-15" x1="1671.23" y1="1220.14" x2="1671.23" y2="1200.2" gradientTransform="rotate(1.96 1397.442 863.184)" xlink:href="#linear-gradient-7"></linearGradient> <linearGradient id="linear-gradient-16" x1="1669.74" y1="1212.23" x2="1642.98" y2="1185.46" gradientTransform="rotate(1.96 1397.442 863.184)" gradientUnits="userSpaceOnUse"> <stop offset="0" stop-color="#007bff"></stop> <stop offset=".12" stop-color="#0099fc"></stop> <stop offset=".27" stop-color="#00b8f9"></stop> <stop offset=".43" stop-color="#00d0f7"></stop> <stop offset=".59" stop-color="#00e1f5"></stop> <stop offset=".78" stop-color="#00ebf4"></stop> <stop offset="1" stop-color="#00eef4"></stop> </linearGradient> <linearGradient id="linear-gradient-17" x1="1662.23" y1="1289.25" x2="1613.93" y2="1205.59" xlink:href="#linear-gradient-11"></linearGradient> <linearGradient id="linear-gradient-18" x1="1624.71" y1="778.31" x2="1533.84" y2="725.85" xlink:href="#linear-gradient-7"></linearGradient> <linearGradient id="linear-gradient-19" x1="1454.9" y1="1020.7" x2="1558.19" y2="1020.7" gradientTransform="matrix(-1 .05 .05 1 2961.14 -75.32)" xlink:href="#linear-gradient-7"></linearGradient> <linearGradient id="linear-gradient-20" x1="1512.47" y1="1083.26" x2="1417.29" y2="1028.3" gradientTransform="matrix(-1 .03 .03 1 3008.02 -26.43)" xlink:href="#linear-gradient-7"></linearGradient> <linearGradient id="linear-gradient-21" x1="1504.97" y1="1065.89" x2="1456.83" y2="982.51" xlink:href="#linear-gradient-11"></linearGradient> <linearGradient id="linear-gradient-22" x1="1513.62" y1="1025.04" x2="1467.48" y2="945.13" xlink:href="#linear-gradient-11"></linearGradient> <linearGradient id="linear-gradient-23" x1="1501.93" y1="1057.3" x2="1563.7" y2="1057.3" gradientTransform="rotate(4.23 1441.079 956.13)" gradientUnits="userSpaceOnUse"> <stop offset="0" stop-color="#1b1464" stop-opacity="0"></stop> <stop offset="1" stop-color="#000e3f"></stop> </linearGradient> <linearGradient id="linear-gradient-24" x1="1604.16" y1="1014.44" x2="1707.45" y2="1014.44" gradientTransform="rotate(-.56 1671.951 1023.14)" xlink:href="#linear-gradient-7"></linearGradient> <linearGradient id="linear-gradient-25" x1="1617.91" y1="1037.97" x2="1617.91" y2="982.02" gradientTransform="translate(-743.08 -304.73)" xlink:href="#linear-gradient-10"></linearGradient> <linearGradient id="linear-gradient-26" x1="1677.43" y1="1013.45" x2="1696.27" y2="1026.5" gradientTransform="rotate(177.23 1311.629 880.773)" xlink:href="#linear-gradient-10"></linearGradient> <linearGradient id="linear-gradient-27" x1="1664.12" y1="1005.85" x2="1664.12" y2="970.64" gradientTransform="rotate(1.96 1397.442 863.184)" xlink:href="#linear-gradient-7"></linearGradient> <linearGradient id="linear-gradient-28" x1="1414.16" y1="1045.94" x2="1416.83" y2="1090.86" gradientTransform="matrix(-1 .03 .03 1 3008.02 -26.43)" gradientUnits="userSpaceOnUse"> <stop offset="0" stop-color="#002b9c"></stop> <stop offset=".1" stop-color="#0034a0"></stop> <stop offset=".27" stop-color="#004dab"></stop> <stop offset=".49" stop-color="#0076be"></stop> <stop offset=".74" stop-color="#00aed7"></stop> <stop offset="1" stop-color="#00eef4"></stop> </linearGradient> <linearGradient id="linear-gradient-29" x1="1632.74" y1="985.41" x2="1632.74" y2="1088.49" gradientTransform="translate(-743.08 -304.73)" xlink:href="#linear-gradient-11"></linearGradient> <linearGradient id="linear-gradient-30" x1="1899.68" y1="1076.87" x2="1964.17" y2="1076.87" xlink:href="#linear-gradient-3"></linearGradient> <linearGradient id="linear-gradient-31" x1="1572.67" y1="1359.89" x2="1637.16" y2="1359.89" xlink:href="#linear-gradient-3"></linearGradient> <linearGradient id="linear-gradient-32" x1="1110.95" y1="1003.06" x2="1157.51" y2="1003.06" xlink:href="#linear-gradient-3"></linearGradient> <linearGradient id="linear-gradient-33" x1="1347.42" y1="992.82" x2="1388.58" y2="992.82" xlink:href="#linear-gradient-3"></linearGradient> <linearGradient id="linear-gradient-34" x1="1596.23" y1="1383.4" x2="1660.72" y2="1383.4" xlink:href="#linear-gradient-3"></linearGradient> <linearGradient id="linear-gradient-35" x1="1622.94" y1="1368.72" x2="1687.43" y2="1368.72" xlink:href="#linear-gradient-3"></linearGradient> <linearGradient id="linear-gradient-36" x1="1969.31" y1="1058.73" x2="2019.65" y2="1058.73" xlink:href="#linear-gradient-3"></linearGradient> <linearGradient id="linear-gradient-37" x1="1344.96" y1="1232.49" x2="1545.14" y2="1232.49" gradientTransform="rotate(1.96 1397.442 863.184)" xlink:href="#linear-gradient-2"></linearGradient> <linearGradient id="linear-gradient-38" x1="1535.82" y1="1228.38" x2="1535.82" y2="1095.77" gradientTransform="rotate(37 1508.955 1130.415)" xlink:href="#linear-gradient-7"></linearGradient> <linearGradient id="linear-gradient-39" x1="1483.24" y1="1209.67" x2="1498.87" y2="1236.75" gradientTransform="rotate(1.96 1397.442 863.184)" gradientUnits="userSpaceOnUse"> <stop offset="0" stop-color="#007bff" stop-opacity="0"></stop> <stop offset="1" stop-color="#00093f"></stop> </linearGradient> <linearGradient id="linear-gradient-40" x1="1551.62" y1="1248.32" x2="1460.96" y2="1248.32" gradientTransform="rotate(1.96 9009.703 -21574.348)" gradientUnits="userSpaceOnUse"> <stop offset="0" stop-color="#fff" stop-opacity="0"></stop> <stop offset=".17" stop-color="#94f8fa" stop-opacity=".08"></stop> <stop offset=".37" stop-color="#00eef4" stop-opacity=".2"></stop> <stop offset=".41" stop-color="#1ef0f5" stop-opacity=".29"></stop> <stop offset=".51" stop-color="#59f4f8" stop-opacity=".48"></stop> <stop offset=".6" stop-color="#8cf7fa" stop-opacity=".64"></stop> <stop offset=".69" stop-color="#b5fafc" stop-opacity=".77"></stop> <stop offset=".77" stop-color="#d5fcfd" stop-opacity=".87"></stop> <stop offset=".85" stop-color="#ecfefe" stop-opacity=".94"></stop> <stop offset=".93" stop-color="#faffff" stop-opacity=".99"></stop> <stop offset="1" stop-color="#fff"></stop> </linearGradient> <linearGradient id="linear-gradient-41" x1="1477.3" y1="1157.88" x2="1386.63" y2="1157.88" gradientTransform="rotate(1.96 9009.703 -21574.348)" gradientUnits="userSpaceOnUse"> <stop offset="0" stop-color="#fff" stop-opacity="0"></stop> <stop offset=".09" stop-color="#fff" stop-opacity=".03"></stop> <stop offset=".22" stop-color="#fff" stop-opacity=".12"></stop> <stop offset=".39" stop-color="#fff" stop-opacity=".27"></stop> <stop offset=".59" stop-color="#fff" stop-opacity=".48"></stop> <stop offset=".8" stop-color="#fff" stop-opacity=".74"></stop> <stop offset="1" stop-color="#fff"></stop> </linearGradient> <linearGradient id="linear-gradient-42" x1="1431.86" y1="1142.71" x2="1426.93" y2="1134.17" gradientTransform="rotate(1.96 1397.442 863.184)" gradientUnits="userSpaceOnUse"> <stop offset="0" stop-color="#001e6a" stop-opacity="0"></stop> <stop offset=".27" stop-color="#001d68" stop-opacity=".06"></stop> <stop offset=".51" stop-color="#001960" stop-opacity=".23"></stop> <stop offset=".74" stop-color="#001354" stop-opacity=".52"></stop> <stop offset=".96" stop-color="#000b43" stop-opacity=".92"></stop> <stop offset="1" stop-color="#00093f"></stop> </linearGradient> <linearGradient id="linear-gradient-43" x1="1503.57" y1="1248.88" x2="1498.63" y2="1240.33" gradientTransform="matrix(0.47, -0.88, -0.88, -0.47, 1884.02, 3175.68)" gradientUnits="userSpaceOnUse"> <stop offset="0" stop-color="#001e6a" stop-opacity="0"></stop> <stop offset="0.17" stop-color="#00206b" stop-opacity="0.02"></stop> <stop offset="0.33" stop-color="#00266f" stop-opacity="0.08"></stop> <stop offset="0.47" stop-color="#002f76" stop-opacity="0.19"></stop> <stop offset="0.62" stop-color="#003d80" stop-opacity="0.34"></stop> <stop offset="0.75" stop-color="#004e8c" stop-opacity="0.54"></stop> <stop offset="0.89" stop-color="#00639b" stop-opacity="0.77"></stop> <stop offset="1" stop-color="#0078aa"></stop> </linearGradient> <linearGradient id="linear-gradient-44" x1="1530.3" y1="1171.17" x2="1515.54" y2="1196.74" gradientTransform="rotate(1.96 1397.442 863.184)" gradientUnits="userSpaceOnUse"> <stop offset=".36" stop-color="#fff" stop-opacity="0"></stop> <stop offset=".42" stop-color="#fff" stop-opacity=".07"></stop> <stop offset=".55" stop-color="#fff" stop-opacity=".24"></stop> <stop offset=".73" stop-color="#fff" stop-opacity=".53"></stop> <stop offset=".96" stop-color="#fff" stop-opacity=".92"></stop> <stop offset="1" stop-color="#fff"></stop> </linearGradient> <linearGradient id="linear-gradient-45" x1="878.96" y1="1318.62" x2="1470.96" y2="1318.62" gradientTransform="rotate(1.96 9009.703 -21574.348)" gradientUnits="userSpaceOnUse"> <stop offset=".46" stop-color="#fff"></stop> <stop offset=".49" stop-color="#eaf3f5"></stop> <stop offset=".6" stop-color="#a4cbd5"></stop> <stop offset=".7" stop-color="#6aa9ba"></stop> <stop offset=".8" stop-color="#3c8fa5"></stop> <stop offset=".88" stop-color="#1b7d96"></stop> <stop offset=".95" stop-color="#07718c"></stop> <stop offset="1" stop-color="#006d89"></stop> </linearGradient> <linearGradient id="linear-gradient-46" x1="1333.88" y1="1330.12" x2="1482.34" y2="1330.12" gradientTransform="rotate(1.96 9009.703 -21574.348)" gradientUnits="userSpaceOnUse"> <stop offset="0" stop-color="#4387e8"></stop> <stop offset=".24" stop-color="#3f89e9"></stop> <stop offset=".49" stop-color="#3390eb"></stop> <stop offset=".74" stop-color="#1f9cef"></stop> <stop offset=".98" stop-color="#02acf4"></stop> <stop offset="1" stop-color="#00adf4"></stop> </linearGradient> <linearGradient id="linear-gradient-47" x1="1250.97" y1="1396.33" x2="1250.97" y2="1281.78" gradientTransform="rotate(2.38 7602.577 -17654.056)" gradientUnits="userSpaceOnUse"> <stop offset="0" stop-color="#00eef4"></stop> <stop offset=".14" stop-color="#00eaf1"></stop> <stop offset=".27" stop-color="#00dee8"></stop> <stop offset=".4" stop-color="#00cbd8"></stop> <stop offset=".53" stop-color="#00afc2"></stop> <stop offset=".66" stop-color="#008ca6"></stop> <stop offset=".79" stop-color="#006084"></stop> <stop offset=".92" stop-color="#002e5c"></stop> <stop offset="1" stop-color="#00093f"></stop> </linearGradient> <linearGradient id="linear-gradient-48" x1="1264.18" y1="1380.16" x2="1264.18" y2="1291.58" gradientTransform="rotate(1.96 9009.703 -21574.348)" gradientUnits="userSpaceOnUse"> <stop offset="0" stop-color="#00e6ff"></stop> <stop offset=".1" stop-color="#00b8d7"></stop> <stop offset=".21" stop-color="#008aaf"></stop> <stop offset=".33" stop-color="#00628c"></stop> <stop offset=".45" stop-color="#004270"></stop> <stop offset=".57" stop-color="#00295b"></stop> <stop offset=".7" stop-color="#00174b"></stop> <stop offset=".84" stop-color="#000c42"></stop> <stop offset="1" stop-color="#00093f"></stop> </linearGradient> <linearGradient id="linear-gradient-49" x1="1256.49" y1="1415.33" x2="1280.92" y2="1373.01" gradientTransform="rotate(2.38 1401.28 847.192)" gradientUnits="userSpaceOnUse"> <stop offset="0" stop-color="#fff" stop-opacity="0"></stop> <stop offset=".01" stop-color="#fcffff" stop-opacity=".01"></stop> <stop offset=".13" stop-color="#c2fcff" stop-opacity=".24"></stop> <stop offset=".25" stop-color="#8efaff" stop-opacity=".44"></stop> <stop offset=".37" stop-color="#63f8ff" stop-opacity=".61"></stop> <stop offset=".5" stop-color="#3ff7ff" stop-opacity=".75"></stop> <stop offset=".62" stop-color="#23f6ff" stop-opacity=".86"></stop> <stop offset=".75" stop-color="#10f5ff" stop-opacity=".94"></stop> <stop offset=".87" stop-color="#04f4ff" stop-opacity=".98"></stop> <stop offset="1" stop-color="#00f4ff"></stop> </linearGradient> <linearGradient id="linear-gradient-50" x1="1078.45" y1="1432.83" x2="1207.21" y2="1432.83" gradientTransform="rotate(1.96 1397.442 863.184)" xlink:href="#linear-gradient-w"></linearGradient> <linearGradient id="linear-gradient-51" x1="1006.61" y1="1214.51" x2="1071.1" y2="1214.51" xlink:href="#linear-gradient-3"></linearGradient> <linearGradient id="linear-gradient-81" x1="1078.17" y1="1436.1" x2="1191.22" y2="1436.1" gradientTransform="translate(36.32 -56.23) rotate(2.33)" xlink:href="#linear-gradient-w"></linearGradient> <linearGradient id="linear-gradient-82" x1="1488.32" y1="724.93" x2="1565.04" y2="724.93" gradientTransform="translate(36.32 -56.23) rotate(2.33)" xlink:href="#linear-gradient-w"></linearGradient> <linearGradient id="linear-gradient-83" x1="883.9" y1="1196.36" x2="948.4" y2="1196.36" xlink:href="#linear-gradient-3"></linearGradient> <filter id="blur"> <feGaussianBlur in="SourceGraphic" stdDeviation="5.6"></feGaussianBlur> </filter> </defs> <style> @-webkit-keyframes rect-translate { 0% { -webkit-transform: translate3d(-963px, -473px, 0); transform: translate3d(-963px, -473px, 0) } to { -webkit-transform: translate3d(-763px, -273px, 0); transform: translate3d(-763px, -273px, 0) } } @keyframes rect-translate { 0% { -webkit-transform: translate3d(-963px, -473px, 0); transform: translate3d(-963px, -473px, 0) } to { -webkit-transform: translate3d(-763px, -273px, 0); transform: translate3d(-763px, -273px, 0) } } @-webkit-keyframes opacity { 0% { opacity: 0 } to { opacity: 1 } } @keyframes opacity { 0% { opacity: 0 } to { opacity: 1 } } @-webkit-keyframes opacity-alternate { 0%, to { opacity: 0 } 5% { opacity: .7 } } @keyframes opacity-alternate { 0%, to { opacity: 0 } 5% { opacity: .7 } } @-webkit-keyframes screens-back-translate { 0% { -webkit-transform: translate3d(0, 0, 0); transform: translate3d(0, 0, 0) } to { -webkit-transform: translate3d(200px, -150px, 0); transform: translate3d(200px, -150px, 0) } } @keyframes screens-back-translate { 0% { -webkit-transform: translate3d(0, 0, 0); transform: translate3d(0, 0, 0) } to { -webkit-transform: translate3d(200px, -150px, 0); transform: translate3d(200px, -150px, 0) } } @-webkit-keyframes screens-front-translate { 0% { -webkit-transform: translate3d(0, 0, 0); transform: translate3d(0, 0, 0) } to { -webkit-transform: translate3d(-200px, 150px, 0); transform: translate3d(-200px, 150px, 0) } } @keyframes screens-front-translate { 0% { -webkit-transform: translate3d(0, 0, 0); transform: translate3d(0, 0, 0) } to { -webkit-transform: translate3d(-200px, 150px, 0); transform: translate3d(-200px, 150px, 0) } } @-webkit-keyframes data-curve { 0% { stroke-dashoffset: 2000 } to { stroke-dashoffset: 4000 } } @keyframes data-curve { 0% { stroke-dashoffset: 2000 } to { stroke-dashoffset: 4000 } } @-webkit-keyframes dashed-line { 0% { stroke-dashoffset: 3000 } to { stroke-dashoffset: 1500 } } @keyframes dashed-line { 0% { stroke-dashoffset: 3000 } to { stroke-dashoffset: 1500 } } @-webkit-keyframes dashed-tail { 0% { stroke-dashoffset: 0 } to { stroke-dashoffset: 200 } } @keyframes dashed-tail { 0% { stroke-dashoffset: 0 } to { stroke-dashoffset: 200 } } #dashed-line-overlay, #dashed-tail-overlay, #data-curve-line { fill: none; stroke-linecap: round; stroke-linejoin: round; stroke-width: 3px; -webkit-transform: translate(-762.95px, -273.48px); -ms-transform: translate(-762.95px, -273.48px); transform: translate(-762.95px, -273.48px); will-change: stroke-dashoffset } #data-curve-line { stroke: #d7ebff; stroke-dasharray: 2000; stroke-dashoffset: 2000; -webkit-animation: data-curve 1.2s 2s linear forwards; animation: data-curve 1.2s 2s linear forwards } #shadow-path { fill: none; stroke: #9ac7fc; stroke-dasharray: 2000; stroke-dashoffset: 2000; -webkit-animation: data-curve 1.2s 2s linear forwards; animation: data-curve 1.2s 2s linear forwards; stroke-linecap: round; stroke-linejoin: round; stroke-width: 3; } #dashed-line-overlay { stroke: #fff; stroke-dasharray: 1500; stroke-dashoffset: 3000; -webkit-animation: dashed-line 1.2s .8s linear forwards; animation: dashed-line 1.2s .8s linear forwards } #dashed-tail-overlay { stroke: #fff; stroke-dasharray: 200; stroke-dashoffset: 0; -webkit-animation: dashed-tail .4s 1.7s linear forwards; animation: dashed-tail .4s 1.7s linear forwards } #rect-5 { -webkit-animation: rect-translate 1.5s cubic-bezier(0, 1, .5, 1) 0.9s forwards, opacity 1.5s linear 0.5s forwards; animation: rect-translate 1.5s cubic-bezier(0, 1, .5, 1) 0.9s forwards, opacity 1.5s linear 0.5s forwards } #rect-4 { -webkit-animation: rect-translate 1.2s cubic-bezier(0, 1, .5, 1) 0.9s forwards, opacity 1.2s linear 0.9s forwards; animation: rect-translate 1.2s cubic-bezier(0, 1, .5, 1) 0.9s forwards, opacity 1.2s linear 0.9s forwards } #rect-3 { -webkit-animation: rect-translate 2s cubic-bezier(0, 1, .5, 1) 0.5s forwards, opacity 1s linear 0.5s forwards; animation: rect-translate 2s cubic-bezier(0, 1, .5, 1) 0.5s forwards, opacity 1s linear 0.5s forwards } #rect-2 { -webkit-animation: rect-translate 2s cubic-bezier(0, 1, .5, 1) 0.5s forwards, opacity 2s linear 0.5s forwards; animation: rect-translate 2s cubic-bezier(0, 1, .5, 1) 0.5s forwards, opacity 2s linear 0.5s forwards } #rect-1 { -webkit-animation: rect-translate 2s cubic-bezier(0, 1, .5, 1) 0.9s forwards, opacity 2s linear 0.5s forwards; animation: rect-translate 2s cubic-bezier(0, 1, .5, 1) 0.9s forwards, opacity 2s linear 0.5s forwards } .rectangle { fill: #f0f8ff; opacity: 0 } .screen { fill: #0b63ce; will-change: transform, opacity } #far-cube-a { -webkit-animation: screens-back-translate 6s cubic-bezier(.5, .25, .85, .4) 4s infinite, opacity-alternate 6s 4s linear infinite; animation: screens-back-translate 6s cubic-bezier(.5, .25, .85, .4) 4s infinite, opacity-alternate 6s 4s linear infinite } #far-cube-b { -webkit-animation: screens-back-translate 6s cubic-bezier(.5, .25, .85, .4) 2s infinite, opacity-alternate 6s 2s linear infinite; animation: screens-back-translate 6s cubic-bezier(.5, .25, .85, .4) 2s infinite, opacity-alternate 6s 2s linear infinite } #far-cube-c { -webkit-animation: screens-back-translate 6s cubic-bezier(.5, .25, .85, .4) infinite, opacity-alternate 6s linear infinite; animation: screens-back-translate 6s cubic-bezier(.5, .25, .85, .4) infinite, opacity-alternate 6s linear infinite } #cube-top-a { -webkit-animation: screens-front-translate 6s cubic-bezier(.5, .25, .85, .4) 4s infinite, opacity-alternate 6s 4s linear infinite; animation: screens-front-translate 6s cubic-bezier(.5, .25, .85, .4) 4s infinite, opacity-alternate 6s 4s linear infinite } #cube-top-b { -webkit-animation: screens-front-translate 6s cubic-bezier(.5, .25, .85, .4) 2s infinite, opacity-alternate 6s 2s linear infinite; animation: screens-front-translate 6s cubic-bezier(.5, .25, .85, .4) 2s infinite, opacity-alternate 6s 2s linear infinite } #cube-top-c { -webkit-animation: screens-front-translate 6s cubic-bezier(.5, .25, .85, .4) infinite, opacity-alternate 6s linear infinite; animation: screens-front-translate 6s cubic-bezier(.5, .25, .85, .4) infinite, opacity-alternate 6s linear infinite } #tree-a, #tree-b, #tree-c, #tree-d, #tree-e, #tree-f, #tree-g, #tree-h, #tree-i, #tree-j { will-change: opacity; opacity: 0; } #tree-a { -webkit-animation: opacity .5s .2s forwards; animation: opacity .5s .2s forwards; } #tree-b { -webkit-animation: opacity .5s .5s forwards; animation: opacity .5s .5s forwards; } #tree-c { -webkit-animation: opacity .5s .3s forwards; animation: opacity .5s .3s forwards; } #tree-d { -webkit-animation: opacity .5s .2s forwards; animation: opacity .5s .2s forwards; } #tree-e { -webkit-animation: opacity .5s .5s forwards; animation: opacity .5s .5s forwards; } #tree-f { -webkit-animation: opacity .5s .7s forwards; animation: opacity .5s .7s forwards; } #tree-g { -webkit-animation: opacity .5s .4s forwards; animation: opacity .5s .4s forwards; } #tree-h { -webkit-animation: opacity .5s .6s forwards; animation: opacity .5s .6s forwards; } #tree-i { -webkit-animation: opacity .5s .4s forwards; animation: opacity .5s .4s forwards; } #tree-j { -webkit-animation: opacity .5s .6s forwards; animation: opacity .5s .6s forwards; } @-webkit-keyframes slide-in { 0%{-webkit-transform: translateY(0%) scale(1);transform: translateY(0%) scale(1)} to {-webkit-transform: translateY(0) scaleY(1);transform: translateY(0) scaleY(1)} } @keyframes slide-in { 0%{-webkit-transform: translateY(0%) scale(1);transform: translateY(0%) scale(1)} to {-webkit-transform: translateY(0) scaleY(1);transform: translateY(0) scaleY(1)} } .structure { opacity: 0; -webkit-transform-origin: center; -ms-transform-origin: center; transform-origin: center; will-change: transform, opacity; } #cube_tube { -webkit-animation: opacity .2s .8s linear forwards; animation: opacity .2s .8s linear forwards; } #cube { -webkit-animation: opacity .2s 1.1s linear forwards; animation: opacity .2s 1.1s linear forwards; } #cube-3, #main-shadow { -webkit-animation: opacity .2s 1s linear forwards; animation: opacity .2s 1s linear forwards; } #cube-2 { -webkit-animation: opacity .2s 1.2s linear forwards; animation: opacity .2s 1.2s linear forwards; } #cube_top { -webkit-animation: opacity .4s 1.4s ease-out forwards; animation: opacity .4s 1.4s ease-out forwards; } #cube_far { -webkit-animation: opacity .4s 1.6s ease-out forwards; animation: opacity .4s 1.6s ease-out forwards; } #cube_last{ -webkit-animation: opacity .4s 1.8s linear forwards, cube-last .5s cubic-bezier(0.5, 0.2, 0, 1) 2.2s forwards; animation: opacity .4s 1.8s linear forwards, cube-last .5s cubic-bezier(0.5, 0.2, 0, 1) 2.2s forwards; } #tube { -webkit-animation: opacity 0s 2.2s linear forwards; animation: opacity 0s 2.2s linear forwards; opacity: 0; } #shadow-cube { -webkit-animation: opacity .2s .8s linear forwards; animation: opacity .2s .8s linear forwards; opacity: 0; will-change: transform, opacity; } @-webkit-keyframes cube-last { 0%{-webkit-transform: translate(120px, -72px);transform: translate(120px, -72px)} to{-webkit-transform: translate(0, 0);transform: translate(0, 0);} } @keyframes cube-last { 0%{-webkit-transform: translate(120px, -72px);transform: translate(120px, -72px)} to{-webkit-transform: translate(0, 0);transform: translate(0, 0);} } #person-green, #person-orange, #person-yellow, #person-gray, #person-blue, #person-flag { opacity: 0; will-change: opacity; } #person-green { -webkit-animation: opacity .2s 2.6s linear forwards; animation: opacity .2s 2.6s linear forwards; } #person-gray { -webkit-animation: opacity .2s 2.4s linear forwards; animation: opacity .2s 2.4s linear forwards; } #person-flag { -webkit-animation: opacity .6s 2.7s linear forwards; animation: opacity .6s 2.7s linear forwards, cube-last .5s cubic-bezier(0.5, 0.2, 0, 1) 2.4s forwards; } #person-yellow { -webkit-animation: opacity .2s 2.9s linear forwards; animation: opacity .2s 2.9s linear forwards; } #person-orange { -webkit-animation: opacity .2s 3s linear forwards; animation: opacity .2s 3s linear forwards; } #person-blue { -webkit-animation: opacity .2s 3s linear forwards; animation: opacity .2s 3s linear forwards; } #bar-a, #bar-b, #bar-c { -webkit-animation: opacity .2s 1.5s forwards; animation: opacity .2s 1.5s forwards; opacity: 0; will-change: opacity, d; } </style> <g id="bg_and_shadows"> <g id="tree-i"> <path class="shadow" d="M1817.11 1012.5l33.28 6.74s12.24 2.73 7.6-7.43-31.51-11.6-31.51-11.6-19.48 10.23-9.37 12.29z" transform="translate(-762.95 -273.48)" opacity=".15" fill="url(#linear-gradient-3)"></path> <ellipse class="tree" cx="1857.76" cy="991.31" rx="27.18" ry="7.21" transform="rotate(-85.84 1329.14 1264.824)" fill="#c5efd6"></ellipse> </g> <g id="tree-j"> <path class="shadow" d="M1844.23 1014.65l24.84 5s9.13 2 5.67-5.54-23.51-8.66-23.51-8.66-14.56 7.67-7 9.2z" transform="translate(-762.95 -273.48)" opacity=".15" fill="url(#linear-gradient-4)"></path> <ellipse class="tree" cx="1877.62" cy="1006.38" rx="13.59" ry="3.61" transform="rotate(-68.57 1295.525 1429.184)" fill="#c5efd6"></ellipse> </g> <path id="dashed-line" d="M233.31 629.87l-119.83 79S71.08 738.1 71.2 691.4l-2.69-232.88s-5.92-29.61 19.45-41.71L740.41 41.36l-.61 243.62" fill="none" stroke="#e6f4ff" stroke-linecap="round" stroke-linejoin="round" stroke-width="3" stroke-dasharray="12,23"></path> <path id="dashed-line-overlay" d="M996.26 903.35l-119.83 79s-42.4 29.23-42.28-17.47L831.46 732s-5.92-29.61 19.45-41.71l652.45-375.45-.61 243.62"></path> <path id="rect-5" class="rectangle" d="M1349.35 999.39l-378.08 222.78c-20.77 12.24-37.91 5.17-38.09-15.7l-5.51-458.78c-.18-20.88 16.66-48 37.42-60.2l378.08-222.78c20.77-12.23 37.91-5.17 38.09 15.71l5.51 458.78c.23 20.87-16.66 47.96-37.42 60.19z"></path> <path id="rect-2" class="rectangle" d="M1529.15 360.93l-58.09 34.23c-3.19 1.88-5.83.8-5.86-2.41l-.66-74.86c0-3.21 2.56-7.37 5.75-9.25l58.09-34.23c3.19-1.88 5.83-.8 5.85 2.41l.67 74.86c.03 3.21-2.56 7.37-5.75 9.25z"></path> <path id="rect-3" class="rectangle" d="M880 895l-105.25 62c-5.78 3.4-10.55 1.44-10.6-4.37L763 817c-.05-5.81 4.63-13.34 10.41-16.75l105.23-62c5.78-3.41 10.55-1.44 10.6 4.37l1.2 135.6c.01 5.78-4.68 13.36-10.44 16.78z"> </path> <g transform="translate(-762.95 -273.48)"> <circle r="7" style="will-change:transform" fill="#d7ebff" transform="scale(1 1)"> <animateTransform attributeName="transform" attributeType="XML" type="scale" dur="6s" begin="3.6s" values="0; 1.5; 1; 1; 0" keyTimes="0; 0.02; 0.04; 0.98; 1" repeatCount="indefinite"></animateTransform> <animateMotion dur="6s" begin="3.6s" repeatCount="indefinite"> <mpath xlink:href="#data-curve-line"></mpath> </animateMotion> </circle> </g> <path id="data-curve-line" d="M836.67 1130.83c9.6-2.38 146.11-42.45 206.3-210.79s126.87-304.21 259.46-253.11 247.75 180.07 257.41 1.94c0 0 3.11-139.24 54.09-68.74s9.44-271.57 119.47-310"></path> <g id="BLUR_FULL_LINE" filter="url(#blur)" opacity=".32" transform="translate(-762.95 -273.48)"> <path id="shadow-path" d="M813.93 1148.43c9.59-2.38 187.56-15.33 247.75-183.67s91.47-344.89 224.77-295.67c28.12 10.39 63 41.14 98 73"> </path> <circle r="12" transform="scale(1 1)" style="will-change:transform" filter="url(#blur)" fill="#9ac7fc"> <animateTransform attributeName="transform" attributeType="XML" type="scale" dur="6s" begin="3.6s" values="0; 1.3; 1; 1; 0" keyTimes="0; 0.1; 0.2; 0.98; 1" repeatCount="indefinite"></animateTransform> <animate attributeName="opacity" values="0;1;1;0" dur="6s" begin="3.6s" keyTimes="0;0.1;0.96;1" fill="freeze" repeatCount="indefinite"></animate> <animateMotion dur="6s" begin="3.6s" calcMode="linear" keyPoints="0;1;1" keyTimes="0;0.52;1" repeatCount="indefinite" fill="freeze"> <mpath xlink:href="#shadow-path"></mpath> </animateMotion> </circle> </g> <path d="M1202.23 666.07s-61.16 40.31-86.13 139.81" transform="translate(-762.95 -273.48)" fill="none" stroke-linecap="round" stroke-linejoin="round" stroke-width="3" stroke="url(#linear-gradient-5)" stroke-dasharray="2000" stroke-dashoffset="2000" id="BLUR_LINE_LEFT" filter="url(#blur)" opacity=".41"> <animate attributeName="stroke-dashoffset" from="2000" to="4000" dur="1.2s" begin="1.7s" fill="freeze"></animate> </path> <path d="M1210.56 662.11s81.59-16.84 138.24 47.76" transform="translate(-762.95 -273.48)" fill="none" stroke-linecap="round" stroke-linejoin="round" stroke-width="3" stroke="url(#linear-gradient-6)" stroke-dasharray="2000" stroke-dashoffset="2000" id="BLUR_LINE_RIGHT" filter="url(#blur)" opacity=".41"> <animate attributeName="stroke-dashoffset" from="2000" to="4000" dur="1.2s" begin="1.7s" fill="freeze"></animate> </path> <path id="rect-4" class="rectangle" d="M1731.31 780.3l-261.25 153.94c-14.35 8.45-26.2 3.57-26.32-10.86l-3-336.66c-.13-14.43 11.51-33.14 25.86-41.6l261.25-153.94c14.35-8.45 26.19-3.57 26.32 10.85l3 336.67c.12 14.42-11.51 33.14-25.86 41.6z"></path> <path id="rect-1" class="rectangle" d="M1827.83 389.13l-35.57 21c-2 1.15-3.56.49-3.58-1.48l-.41-45.83a7.46 7.46 0 0 1 3.52-5.66l35.57-21c2-1.15 3.57-.49 3.58 1.48l.41 45.83a7.43 7.43 0 0 1-3.52 5.66z"></path> <path id="bar-a" d="M 1589.46 794.05 l -59.86 36.33 c -3.51 2.13 -6.44 1 -6.52 -2.59 l -2.89 -132 c -0.08 -3.56 2.73 -8.21 6.24 -10.34 l 59.86 -36.33 c 3.51 -2.13 6.45 -1 6.53 2.59 l 2.89 132 C 1595.79 787.26 1593 791.92 1589.46 794.05 Z" transform="translate(-762.95 -273.48)" fill="#d9efff"> <animate id="step-grow" attributeName="d" attributeType="XML" from="M1589.46,794.05l-59.86,36.33c-3.51,2.13-6.44,1-6.52-2.59l.11-76c-.08-3.56,2.73-8.21,6.24-10.34l59.86-36.33c3.51-2.13,6.45-1,6.53,2.59l-.11,76C1595.79,787.26,1593,791.92,1589.46,794.05Z" to="M1589.46,794.05l-59.86,36.33c-3.51,2.13-6.44,1-6.52-2.59l-2.89-132c-.08-3.56,2.73-8.21,6.24-10.34l59.86-36.33c3.51-2.13,6.45-1,6.53,2.59l2.89,132C1595.79,787.26,1593,791.92,1589.46,794.05Z" dur="0.6s" begin="2s" fill="freeze"></animate> <animate id="step-a" attributeName="d" attributeType="XML" to="M1589.46,794.05l-59.86,36.33c-3.51,2.13-6.44,1-6.52-2.59l-7.89-265c-.08-3.56,2.73-8.21,6.24-10.34l59.86-36.33c3.51-2.13,6.45-1,6.53,2.59l7.89,265C1595.79,787.26,1593,791.92,1589.46,794.05Z" dur="0.4s" begin="7s;25s;43s" fill="freeze"></animate> <animate id="step-b" attributeName="d" attributeType="XML" to="M1589.46,794.05l-59.86,36.33c-3.51,2.13-6.44,1-6.52-2.59l-5.89-206c-.08-3.56,2.73-8.21,6.24-10.34l59.86-36.33c3.51-2.13,6.45-1,6.53,2.59l5.89,206C1595.79,787.26,1593,791.92,1589.46,794.05Z" dur="0.4s" begin="13s;31s;49s" fill="freeze"></animate> <animate id="step-c" attributeName="d" attributeType="XML" to="M1589.46,794.05l-59.86,36.33c-3.51,2.13-6.44,1-6.52-2.59l-2.89-132c-.08-3.56,2.73-8.21,6.24-10.34l59.86-36.33c3.51-2.13,6.45-1,6.53,2.59l2.89,132C1595.79,787.26,1593,791.92,1589.46,794.05Z" dur="0.4s" begin="19s;37s;55s" fill="freeze"></animate> </path> <path id="bar-b" d="M 1678.06 740.28 l -59.86 36.33 c -3.51 2.13 -6.45 1 -6.53 -2.59 l -5.74 -262.48 c -0.08 -3.56 2.73 -8.22 6.24 -10.35 L 1672 464.87 c 3.51 -2.14 6.45 -1 6.53 2.59 l 5.74 262.48 C 1684.38 733.5 1681.57 738.15 1678.06 740.28 Z" transform="translate(-762.95 -273.48)" fill="#d9efff"> <animate attributeName="d" attributeType="XML" from="M1678.06,740.28l-59.86,36.33c-3.51,2.13-6.45,1-6.53-2.59l-.74-2.48c-.08-3.56,2.73-8.22,6.24-10.35L1677,724.87c3.51-2.14,6.45-1,6.53,2.59l.74,2.48C1684.38,733.5,1681.57,738.15,1678.06,740.28Z" to="M1678.06,740.28l-59.86,36.33c-3.51,2.13-6.45,1-6.53-2.59l-5.74-262.48c-.08-3.56,2.73-8.22,6.24-10.35L1672,464.87c3.51-2.14,6.45-1,6.53,2.59l5.74,262.48C1684.38,733.5,1681.57,738.15,1678.06,740.28Z" dur="0.6s" begin="2s" fill="freeze"></animate> <animate attributeName="d" attributeType="XML" to="M1678.06,740.28l-59.86,36.33c-3.51,2.13-6.45,1-6.53-2.59l-4.74-202.48c-.08-3.56,2.73-8.22,6.24-10.35L1673,524.87c3.51-2.14,6.45-1,6.53,2.59l4.74,202.48C1684.38,733.5,1681.57,738.15,1678.06,740.28Z" dur="0.4s" begin="7s;25s;43s" fill="freeze"></animate> <animate attributeName="d" attributeType="XML" to="M1678.06,740.28l-59.86,36.33c-3.51,2.13-6.45,1-6.53-2.59l-2.74-124.48c-.08-3.56,2.73-8.22,6.24-10.35L1675,602.87c3.51-2.14,6.45-1,6.53,2.59l2.74,124.48C1684.38,733.5,1681.57,738.15,1678.06,740.28Z" dur="0.4s" begin="13s;31s;49s" fill="freeze"></animate> <animate attributeName="d" attributeType="XML" to="M1678.06,740.28l-59.86,36.33c-3.51,2.13-6.45,1-6.53-2.59l-5.74-262.48c-.08-3.56,2.73-8.22,6.24-10.35L1672,464.87c3.51-2.14,6.45-1,6.53,2.59l5.74,262.48C1684.38,733.5,1681.57,738.15,1678.06,740.28Z" dur="0.4s" begin="19s;37s;55s" fill="freeze"></animate> </path> <path id="bar-c" d="M 1766.65 686.51 l -59.86 36.33 c -3.51 2.13 -6.45 1 -6.53 -2.59 L 1696 525.09 c -0.0799999 -3.55 2.73 -8.21 6.25 -10.34 l 59.86 -36.33 c 3.51 -2.13 6.44 -1 6.52 2.59 l 4.27 195.16 C 1773 679.73 1770.16 684.38 1766.65 686.51 Z" transform="translate(-762.95 -273.48)" fill="#d9efff"> <animate attributeName="d" attributeType="XML" from="M1766.65,686.51l-59.86,36.33c-3.51,2.13,0,0-6.21,3.54l.72-.42c3.91-2.16,7.94-4.6,11.45-6.74L1764,688.13c3.51-2.13,6.38-3.68,8.13-4.67l.77-.44C1765.41,687.27,1770.49,684.38,1766.65,686.51Z" to="M1766.65,686.51l-59.86,36.33c-3.51,2.13-6.45,1-6.53-2.59L1696,525.09c-.08-3.55,2.73-8.21,6.25-10.34l59.86-36.33c3.51-2.13,6.44-1,6.52,2.59l4.27,195.16C1773,679.73,1770.16,684.38,1766.65,686.51Z" dur="0.6s" begin="2s" fill="freeze"></animate> <animate attributeName="d" attributeType="XML" to="M1766.65,686.51l-59.86,36.33c-3.51,2.13-6.45,1-6.53-2.59L1698,605.09c-.08-3.55,2.73-8.21,6.25-10.34l59.86-36.33c3.51-2.13,6.44-1,6.52,2.59l2.27,115.16C1773,679.73,1770.16,684.38,1766.65,686.51Z" dur="0.4s" begin="7s;25s;43s" fill="freeze"></animate> <animate attributeName="d" attributeType="XML" to="M1766.65,686.51l-59.86,36.33c-3.51,2.13-6.45,1-6.53-2.59L1696,468.09c-.08-3.55,2.73-8.21,6.25-10.34l59.86-36.33c3.51-2.13,6.44-1,6.52,2.59l4.27,252.16C1773,679.73,1770.16,684.38,1766.65,686.51Z" dur="0.4s" begin="13s;31s;49s" fill="freeze"></animate> <animate attributeName="d" attributeType="XML" to="M1766.65,686.51l-59.86,36.33c-3.51,2.13-6.45,1-6.53-2.59L1696,525.09c-.08-3.55,2.73-8.21,6.25-10.34l59.86-36.33c3.51-2.13,6.44-1,6.52,2.59l4.27,195.16C1773,679.73,1770.16,684.38,1766.65,686.51Z" dur="0.4s" begin="19s;37s;55s" fill="freeze"></animate> </path> <path d="M1002.05 8.21s22.48-4.19 84.82 18.09c108.29 38.72 45.05-12.7 45.05-12.7" fill="none" stroke="#d7ebff" stroke-linecap="round" stroke-linejoin="round" stroke-width="3" stroke-dasharray="12,23"></path> <path id="dashed-tail-overlay" d="M1765 281.69s22.48-4.19 84.82 18.09c108.29 38.72 45.05-12.7 45.05-12.7"></path> </g> <g class="structure" id="main-shadow"> <path d="M1729.92 1369.65c-6-.2-434.49-109.4-434.49-109.4l-291.05-91 277-155.62 125-55.76 104 29.13 159.49 76z" transform="translate(-762.95 -273.48)" opacity=".21" fill="url(#linear-gradient)"></path> </g> <g class="structure" id="cube_tube"> <polygon id="cube_lower-topper" points="818.71 869.82 672.61 785.69 817.2 702.13 964.61 785.36 818.71 869.82" style="fill: #44beeb"></polygon> <polygon points="818.69 1014.52 672.6 930.39 672.43 784.39 818.53 868.52 818.69 1014.52" style="fill: #0b63ce"></polygon> <polygon id="cube_side-wall" points="818.69 1014.52 964.57 921.37 964.2 785.13 818.53 868.52 818.69 1014.52" style="fill: #4387e8"></polygon> </g> <g class="structure" id="cube_far"> <path fill="url(#linear-gradient-2)" d="M941.72 825.16l111.74-63.71-242.71-56.33 47.43 105.18 83.54 14.86z" opacity=".12"></path> <path class="screen" id="far-cube-a" d="M1128.83 684.52l-146.56-71.88-1.12-145.99 146.56 71.87 1.12 146z"></path> <path class="screen" id="far-cube-b" d="M1128.83 684.52l-146.56-71.88-1.12-145.99 146.56 71.87 1.12 146z"></path> <path class="screen" id="far-cube-c" d="M1128.83 684.52l-146.56-71.88-1.12-145.99 146.56 71.87 1.12 146z"></path> <path fill="#0b63ce" d="M983.48 769.93l-146.64-83.17-1.12-145.99 146.64 83.16 1.12 146z"></path> <path fill="#44beeb" d="M982.36 623.93l-146.64-83.16 145.43-74.12 146.56 71.87-145.35 85.41z"></path> <path fill="#4387e8" d="M983.48 769.93l145.35-85.41-1.12-146-145.35 85.41 1.12 146z"></path> <path d="M1817.69 794.07L1715 852.9s64.74-5.87 65.77-6.69 45.66-35.28 36.92-52.14z" transform="translate(-762.95 -273.48)" fill="#44beeb"></path> <path d="M1708.28 800.1c3.33-1.76 57-32.44 57-32.44l52.47 26.34-60.14 34.48z" transform="translate(-762.95 -273.48)" fill="url(#linear-gradient-7)"></path> <path fill="url(#linear-gradient-8)" d="M1002.42 494.21l2.94 54.67 49.44-28.34-52.38-26.33z"></path> <path fill="#006bd4" d="M994.66 555.01l20.67-11.68 5.57-3.36-16.23-7.74-24.14 14.65 14.13 8.13z"></path> <path d="M1728.07 787.07l29.1-16.88c4.42-2.56 12-2.79 16.57-.49l26.72 13.47c1.83.92 2.9 2.13 2.94 3.3h3.45v-.05c-.07-2.53-1.79-4.76-4.84-6.3l-26.72-13.47c-5.66-2.85-14.38-2.59-19.85.58l-31.33 18.17a12.08 12.08 0 0 0-2.3 1.75z" transform="translate(-762.95 -273.48)" fill="#00eef4" opacity=".6"></path> <path d="M1724.32 786.81l5.48-.86-3.5-2c-1.82-1-2.86-2.34-2.87-3.62s1-2.61 2.82-3.66l31.32-18.17c4.41-2.56 12-2.78 16.56-.48l26.73 13.46a5.08 5.08 0 0 1 2.86 2.83l3.43-.54c-.42-2.14-2.07-4-4.74-5.37l-26.72-13.4c-5.66-2.85-14.38-2.59-19.86.59l-31.32 18.17c-2.94 1.7-4.55 4.07-4.53 6.66s1.56 4.74 4.34 6.39z" transform="translate(-762.95 -273.48)" fill="#00eef4"></path> <path d="M1723 802.36a6.19 6.19 0 0 1 2.46-2.33l31.32-18.17c4.42-2.57 12-2.79 16.57-.49l21.88 11 6-.83-26.35-13.29c-5.65-2.85-14.38-2.59-19.85.59L1723.72 797c-2.63 1.52-4.18 3.57-4.48 5.83z" transform="translate(-762.95 -273.48)" fill="#00eef4" opacity=".28"></path> <path d="M1756.83 839.36a19.93 19.93 0 0 1-8.93-2.26l-24.54-13.8c-3-1.66-4.61-4-4.62-6.6s1.59-5 4.53-6.67l31.32-18.17c5.48-3.18 14.2-3.43 19.86-.58l26.72 13.46c3 1.54 4.77 3.78 4.84 6.31s-1.53 4.85-4.5 6.55l-33.89 19.4a20.93 20.93 0 0 1-10.79 2.36zM1725 813c-1.79 1-2.82 2.37-2.81 3.66s1 2.6 2.86 3.61l24.54 13.8c4.44 2.49 11.91 2.46 16.32-.07l33.88-19.42c1.79-1 2.8-2.29 2.77-3.46s-1.11-2.39-3-3.31l-26.72-13.47c-4.56-2.3-12.15-2.07-16.56.49z" transform="translate(-762.95 -273.48)" fill="#00eef4" opacity=".19"></path> <path d="M1756.38 852.35a19.85 19.85 0 0 1-8.92-2.26l-24.54-13.79c-3-1.67-4.61-4-4.63-6.61s1.6-5 4.54-6.67l31.32-18.17c5.48-3.18 14.2-3.43 19.85-.58l26.72 13.47c3.06 1.54 4.78 3.77 4.84 6.3s-1.52 4.85-4.49 6.55L1767.18 850a21 21 0 0 1-10.8 2.35zM1724.56 826c-1.8 1-2.82 2.38-2.81 3.66s1 2.6 2.86 3.62l24.54 13.79c4.43 2.49 11.9 2.46 16.31-.06l33.89-19.43c1.79-1 2.79-2.28 2.76-3.46s-1.1-2.38-2.94-3.31l-26.72-13.47c-4.56-2.3-12.15-2.07-16.57.49z" transform="translate(-762.95 -273.48)" fill="#00eef4" opacity=".19"></path> <g id="person-orange"> <path d="M1758.57 776.13s-5.66 5.73-.83 11.13c0 0 5.88-8.91.83-11.13z" transform="translate(-762.95 -273.48)" fill="#e06e31"></path> <path d="M1776.28 812.17s-.63-16.43-1.75-27.22c-.84-8.15-6.33-9.12-11-10.66-1.53.08-.94-2.89-.51-4.5-.19-4.6-2.35-12.25-7.41-8.07-6.51 5.38-.94 16.5 2.54 15.71l.19-.06c-.55.63-2 4 1.28 18.15 0 0-1 3.07-1.16 3.61-1.61 3.59-9.33 22.37-3 39.79 0 0 5-19.24 10-24.84 0 0 5.19 14 19.38 15.17-4.06-2.93-8.97-8.08-8.56-17.08z" transform="translate(-762.95 -273.48)" fill="#9ac7fc"></path> <path d="M1756.36 801.94s-7 23.15-2.51 33.48l2.57.54s5.59-17 9.09-21.71c0 0 3.24 12 15.75 14.51a9 9 0 0 1 1.43-1.62s-9.74-8.38-4.64-24.45c.01-.31-8.44-6.22-21.69-.75z" transform="translate(-762.95 -273.48)" fill="#123e72"></path> <path d="M1765.38 814.09a7.07 7.07 0 0 0-3.59-4.37c-2.84-1.31-1.82 1.43-1.4 3.3a4.77 4.77 0 0 1-1.3 4.58 7 7 0 0 0-2.09 5.63c.34 3.5 1.43 7.18 1.27 7.41 0 0 4.01-10.64 7.11-16.55zm-1.87-10.23c.38.09 8.19 2.48 10.16 2.78s2.38 8.13 2.55 9.8 1.52 8.86 6.09 10.69c0 0-9-8.2-4.42-24.22z" transform="translate(-762.95 -273.48)" fill="#0b3156"></path> <path d="M1758.07 777.59s-1.2 5.09.85 5.16c0 0 4.95-4.85 5.51-8 0 0 3.29-2.85 8.16 1.19 0 0 2.3 2.36 5.57 18.47l-.11 8.3s-25 6.28-21.57-1.8c0 0 .93-7.26 1.08-11.81 0-.02-1.22-7.47.51-11.51z" transform="translate(-762.95 -273.48)" fill="#e06e31"></path> <path d="M1766.21 795.19s-6.21 11.18-7.71 11.81c1.12-.18 20.24-9.81 15.21-24.36 0-.02-5.81 8.41-7.5 12.55z" transform="translate(-762.95 -273.48)" fill="#0b3156" opacity=".17"></path> <path d="M1752.52 803.18s13.58 2.59 20-16c0 0 2.6-8.19-2.66-10.87 0 0-2.46-1.38-4.71 6.59s-7.61 20.15-12.63 20.28z" transform="translate(-762.95 -273.48)" fill="#c0e0ff"></path> <path d="M1755.35 840.6c.2-.28-3-1.93-3-.79s2.16 1.9 3 .79zm29.74-10.33s-1.81.32-1.51 1.56 1.9 1.62 1.51-1.56z" transform="translate(-762.95 -273.48)" fill="#3d7ab7"></path> <path d="M1752.89 763.82a3.12 3.12 0 0 1-1.1-2.39c0-5 3.54-3.52 6.36-2.86s5.35 4.15 6 3.84 2.53 6.59-1.52 10.21c0 0-.63.1-.52-3.2s-.68-3.39-2.28-1.45c-.67-.36-2.88-2.37-2.81-4.42z" transform="translate(-762.95 -273.48)" fill="#0b3156"></path> <path d="M1752.84 766.26c-.68.78.66 10.89.66 10.89s1.44 1.23 5.14.32c.03-.18-3.74-13.54-5.8-11.21z" transform="translate(-762.95 -273.48)" fill="#9ac7fc"></path> <path d="M1772.13 776.06s-4.54-2.4-6-.29c-.4 2.89-2.36 14.32-8.27 21.52 0 0 3.08 3.14 3.16 5.27 0 0 9.47-6 12.32-13.85.35-.6 3.24-9.58-1.21-12.65z" transform="translate(-762.95 -273.48)" fill="#ed7951"></path> <path d="M1753.42 777.09s4.31.55 6.73-2 1.59 1.76 1.4 2.15a54.8 54.8 0 0 0-2 6.71c0 .74-1.23 4.29-1.66 2a13.64 13.64 0 0 1-.57-6.8l.39-1.35s-3.48.46-4.29-.71z" transform="translate(-762.95 -273.48)" fill="#0b3156" opacity=".17"></path> </g> <path fill="#44beeb" d="M1054.74 520.58l-59.71 34.22-35.31-20.2 5.56 62.8 87.04-23.37 22.38-37.32-19.96-16.13z"></path> <path d="M1803.4 786.54c0 1.16-1 2.4-2.76 3.4l-33.89 19.42c-4.41 2.53-11.88 2.56-16.31.07l-24.54-13.79c-1.82-1-2.86-2.34-2.87-3.62a3.6 3.6 0 0 1 1.26-2.5l-4.24.16a6.21 6.21 0 0 0-.47 2.36c0 2.59 1.66 4.94 4.62 6.61l24.55 13.79a19.85 19.85 0 0 0 8.92 2.26 21 21 0 0 0 10.8-2.34l33.88-19.42c3-1.7 4.56-4 4.5-6.53z" transform="translate(-762.95 -273.48)" fill="#00eef4" opacity=".6"></path> <path d="M1803.78 774.33a5.16 5.16 0 0 1-2.71 3l-33.89 19.42c-4.41 2.53-11.88 2.56-16.31.07l-19.65-11-5.51.86 23.47 13.2a20.12 20.12 0 0 0 8.92 2.26 20.85 20.85 0 0 0 10.8-2.35l33.89-19.42c3-1.69 4.54-4 4.49-6.5z" transform="translate(-762.95 -273.48)" fill="#00eef4"></path> <path d="M1801.61 791.75l-.37-.18-6 .83 4.84 2.44c1.84.92 2.91 2.13 2.94 3.31s-1 2.43-2.76 3.46L1766.35 821c-4.41 2.53-11.88 2.56-16.31.07l-24.54-13.8c-1.81-1-2.86-2.34-2.87-3.62a2.82 2.82 0 0 1 .36-1.32l-3.75.51a5.83 5.83 0 0 0-.06.84 6.36 6.36 0 0 0 .56 2.49l34.42 19.85a23.51 23.51 0 0 0 8.14 0l43.51-25.17a5.69 5.69 0 0 0 .64-2.79c-.06-2.53-1.78-4.77-4.84-6.31z" transform="translate(-762.95 -273.48)" fill="#00eef4" opacity=".28"></path> <g id="window"> <path d="M1761.65 908.74l113-66.18L1877 950.7l-114.6 64.12s-1.72-107.12-.75-106.08z" transform="translate(-762.95 -273.48)" fill="#0b63ce"></path> <path d="M1861.65 850.17l-100 58.57c-.75-.8.09 63.42.5 92.31l101.51-56.81z" transform="translate(-762.95 -273.48)" fill="url(#linear-gradient-9)"></path> <path d="M1863.62 944.22l-.24-9.57-78.22-39.65-23.51 13.77c-.75-.8.08 63.18.5 92.14z" transform="translate(-762.95 -273.48)" fill="#5688bf"></path> <path fill="#123e72" d="M1011.97 656.89l-13.27-6.96.49-14.49 12.79-8.07-.01 29.52z"></path> <path fill="#276ad6" d="M1011.94 657.72l38.11-22.05 1.07-31.31-38.89 23.02-.29 30.34z"></path> <g id="person-yellow"> <path d="M1830.21 922.08a4.71 4.71 0 0 1 .2 2.76s-6.43-1.06-6.55-2.54 6.02-1.85 6.35-.22z" transform="translate(-762.95 -273.48)" fill="#c5d9ea"></path> <path d="M1824.62 901.29s4.74 19.65 6 21.65l-5.73-1.69s-4.35-15.57-.27-19.96z" transform="translate(-762.95 -273.48)" fill="#d19d2a"></path> <path d="M1810.76 962.82s1.77 3.67 3.37 3 .46-2.82-3.37-3zm9.42-2.01s2.47 3.91 3.81 3.26-1.45-3.8-3.81-3.26z" transform="translate(-762.95 -273.48)" fill="#577b9e"></path> <path d="M1815.52 892.08s8.8-18.27 11.57-4.46c2 10-4.67 9.25-4.67 9.25a68.32 68.32 0 0 0 2.68 18.87 42.31 42.31 0 0 1 1.45 16.66s1.5 6.37-5 13.75a27.52 27.52 0 0 1-3.9-8.54s-3.35 18.45-6.48 23.33a233.86 233.86 0 0 1 2.3-28.1c2.21-15.5-4.43-30.58-4.43-30.58s-.38-4.11 6.48-4.75z" transform="translate(-762.95 -273.48)" fill="#c5d9ea"></path> <path d="M1809 926.28l1.09 16.5s1.2 16 .36 18.09c0 0 2.84 2.17 6.09-13.61l1.17-9.65s4 18.87 2.9 21.1c0 0 6.48-4 6.14-28.11-.02 0-.91-7.77-17.75-4.32z" transform="translate(-762.95 -273.48)" fill="#2d4b60"></path> <path d="M1815.56 897.51l5.81 7.85.69-7.23a4.86 4.86 0 0 1 2.62 5.09c-.51 3.67.78 11.68.78 11.68l3 13.24-1.7 2.46s-1.43-6.15-17.75-4.32c0 0 1.25-11.41.55-11.58s-.66-10.53-.66-10.53-2.18-6.96 6.66-6.66z" transform="translate(-762.95 -273.48)" fill="#fdcc4a"></path> <path d="M1809.74 916.16s10.89 6.34 17.07 5.28l-1.19-3.76-13.87-5.56-2.71-.26z" transform="translate(-762.95 -273.48)" fill="#2d4b60" opacity=".27"></path> <path d="M1815.11 900.35s10.05 17.1 18.25 20.37c0 0-37.36-2.99-18.25-20.37z" transform="translate(-762.95 -273.48)" fill="#c5d9ea"></path> <path d="M1814 908.55s-2.45-6.73.1-6.67a6.34 6.34 0 0 1 2.44.23c1.81.35 7.76 7.26 8 6.74l.88 6s-8.7-2.39-11.42-6.3z" transform="translate(-762.95 -273.48)" fill="#2d4b60" opacity=".41"></path> <path d="M1815.11 900.35s11.07 15 12.18 16c0 0-5.52 1.48-3.2 3.49 0 0-11.42-3.39-13-6.19 0 .04-6.02-6.86 4.02-13.3z" transform="translate(-762.95 -273.48)" fill="#fdcc4a"></path> <path d="M1825.33 881.29l1.26 1.88-1.86.85-1.13.63s-2 4.18-3.74 3.61a2 2 0 0 0-2.3 3.25s-.19 2.7-2.64 1.88l-2.19-6.48.84-3.22 4.48-2.65 5-.55 2.29.22" transform="translate(-762.95 -273.48)" fill="#42647f"></path> <path d="M1822.25 896.89l-.88 8.47-3.52-4.75-.32-2a35.28 35.28 0 0 0-.29-4.38c-.26-1.31 1.8-.09 3.34.74 0 0 3.25 1.55 5.89 0a4 4 0 0 1-4.22 1.92z" transform="translate(-762.95 -273.48)" fill="#a7c0d3" opacity=".44"></path> <path fill="#c5d9ea" d="M1069.12 650.68l-.46 3.57 2.74-2.52 2.33-4.6"></path> </g> <g id="person-gray"> <path d="M1836 908.17l-4.13 16.83s9.47-4.8 9.74-10.15-3.24-10.28-5.61-6.68z" transform="translate(-762.95 -273.48)" fill="#c8d2db"></path> <path d="M1839.19 910.7l-5.92-3.45-2.93 6.71 10 4.26 2.29-5.94z" transform="translate(-762.95 -273.48)" fill="#2d4b60"></path> <path d="M1838.6 890.81s12.55-3.3 9.29 3.34c-2.56 5.25-3.85 7.5-3.85 7.5l7.19 5.9s-.5 9.31-1.78 18.68-6.11 14.71-4.26 21.75c0 0-3.39-3.29-4.4-12.28 0 0-3.88 1.46-2.91 8.06 0 0-4.47 1.42-2.86-15.47 0 0 1.79-14.65 1.76-18.45l2.57-6.79-3.52-3.36s-1.13-7.84 2.77-8.88z" transform="translate(-762.95 -273.48)" fill="#c5d9ea"></path> <path d="M1834.78 926.35l-.4 14.66 4.17 13.29.83-8.68 1.23-9.12.9 7.4 4.22 12.3 2.35-12.73 1.05-16.92s-12.58-2.04-14.35-.2z" transform="translate(-762.95 -273.48)" fill="#2d4b60"></path> <path d="M1838.35 956.43s-3.73.27-2.09 1.15 4.53-.11 2.09-1.15zm8.83 1.44s-3.48.38-3 1.39 5.67.65 3-1.39z" transform="translate(-762.95 -273.48)" fill="#577b9e"></path> <path fill="#e2e9f2" d="M1081.96 628.87l-4.33 5.2-1.23-4.5-3.37 5.11-.42 4.45-.17 11.87-1.36 4.19 5.56-1.87 12.02 5-.37-24.26-1.85-3.46-4.48-1.73z"></path> <path d="M1836.67 920.61s-1 3.41 2.33 3.47 9.11-2.34 10.67-3.15 1.4-4.3-.58-9c0-.04-8.52 8.07-12.42 8.68z" transform="translate(-762.95 -273.48)" fill="#2d4b60" opacity=".21"></path> <path d="M1850.62 907.07s5.23 17.88-18.32 13.4c0 0 11.44-.88 11.89-12.17 0 0 4.09-5.39 6.43-1.23z" transform="translate(-762.95 -273.48)" fill="#c5d9ea"></path> <path d="M1837.23 891.61s-2.52-2.44.64-3.29 6.74 1 7.33.25l1.85.71 1 .91.69.83.62 2.89-.64 3.9-4.45 3.37-.16-2.42s2.87-3.38.67-3.89c0 0-3.3-.38-3.19-2.83z" transform="translate(-762.95 -273.48)" fill="#42647f"></path> <path d="M1844 907.52s-1.84 9.22-6.3 10.46l1.42 4.48s10.48-.08 11.31-5.17c0 0 3.51-12-2.15-12.13.04 0-3.85.76-4.28 2.36z" transform="translate(-762.95 -273.48)" fill="#e2e9f2"></path> <path d="M1835.83 899.69c1.57.25 4.28 1.15 5.5 0s1.73-2.5 2-.88a24.42 24.42 0 0 0 .69 2.85l.44 1.22-3.9 4.69-1.13-4.14z" transform="translate(-762.95 -273.48)" fill="#a7c0d3"></path> <path d="M1836 908.17s.28 6.41 2.08 6.46 7-6.59 7.3-7.6-.44-5.13-1.32-5.38-4.69 1.4-4.69 1.4z" transform="translate(-762.95 -273.48)" fill="#a7c0d3" opacity=".44"></path> <path d="M1840 933.66l-1.48-3.73a4.18 4.18 0 0 0 1.48 3.73zm-1.1 2.2l-1.81-2.48a2.33 2.33 0 0 0 1.81 2.48z" transform="translate(-762.95 -273.48)" fill="#42647f"></path> </g> <path fill="#44beeb" d="M1100.67 670.74L999.2 727.4l.21 13.94L1114 677.22l-13.33-6.48z"></path> <path fill="url(#linear-gradient-10)" d="M1028.95 617.51l-30.24 56.43-.19 25.01 53.02-94.74-22.59 13.3z"></path> <path fill="url(#linear-gradient-11)" d="M1020.49 714.96l48.24-86.9 12.54 6.43-36.32 67.3-24.46 13.17z"></path> </g> </g> <g class="structure" id="cube-3" data-name="cube"> <g> <polygon id="cube_mid-topper" points="819.13 723.67 673.03 639.55 818.95 566.38 965.03 639.21 819.13 723.67" style="fill: #9ac7fc"></polygon> <polygon points="818.3 869.59 672.2 785.47 672.04 639.47 818.13 723.59 818.3 869.59" style="fill: #0b63ce"></polygon> <g id="Layer_235" data-name="Layer 235"> <path d="M1562,1009l-113.89-64.62-.82,108.16,115.45,62.55S1563,1007.92,1562,1009Z" transform="translate(-763.26 -274.36)" style="fill: #005091"></path> <path d="M1461.21,951.77,1562,1009c.74-.81.78,63.42.76,92.31l-102.28-55.41Z" transform="translate(-763.26 -274.36)" style="fill: url(#linear-gradient-a)"></path> <path d="M1460.53,1045.84l.11-9.58,77.67-40.74L1562,1009c.74-.81.78,63.18.76,92.15Z" transform="translate(-763.26 -274.36)" style="fill: #5688bf"></path> <g id="Layer_249" data-name="Layer 249"> <path d="M1639.39,1077.6c-3.37-1.71-89.12-48.5-89.12-48.5l-52,27.26,82.39,50.94Z" transform="translate(-763.26 -274.36)" style="fill: url(#linear-gradient-b)"></path> <polygon points="735.08 781.97 787.01 754.74 786.54 817.11 735.08 781.97" style="fill: #123e72"></polygon> <polygon points="786.92 767.22 796.91 774.41 756.46 796.58 745.91 789.44 786.92 767.22" style="fill: #5688bf"></polygon> <polygon points="796.91 774.41 797.09 783.79 764.98 802.43 756.46 796.58 796.91 774.41" style="fill: #123e72"></polygon> <polygon points="797.09 783.79 807.08 790.17 775.02 809.28 764.98 802.43 797.09 783.79" style="fill: #5688bf"></polygon> <polygon points="807.08 790.17 807.23 798.55 782.62 814.46 775.02 809.28 807.08 790.17" style="fill: #123e72"></polygon> <polygon points="807.23 798.55 781.86 813.94 792.3 821.06 818.5 806 807.23 798.55" style="fill: #5688bf"></polygon> <polygon points="817.52 806.25 816.71 812.63 797.34 824.49 792.3 821.06 817.52 806.25" style="fill: #123e72"></polygon> <polygon points="816.71 812.63 824.15 816.56 802.88 828.27 797.34 824.49 816.71 812.63" style="fill: #4387e8"></polygon> <path d="M1498.35,1056.4,1578,1100s-3.85,13.21-42.22-3.87C1534.6,1095.55,1489.9,1073.42,1498.35,1056.4Z" transform="translate(-763.26 -274.36)" style="fill: #5688bf"></path> </g> <polygon points="697.27 771.48 799.51 826.75 799.49 840.69 684.03 778.14 697.27 771.48" style="fill: #0c64bc"></polygon> <polygon points="793.8 823.66 751.66 814.77 799.49 840.69 799.51 826.75 793.8 823.66" style="fill: #1e84d8"></polygon> <polygon points="697.41 747.39 712.42 777.63 738.26 793.13 697.73 705.67 697.41 747.39" style="opacity: 0.64;fill: url(#linear-gradient-c)"></polygon> <polygon points="697.95 677.41 697.91 681.91 734.24 760.17 747.08 750.82 719.84 689.83 697.95 677.41" style="opacity: 0.64;fill: url(#linear-gradient-d)"></polygon> <g id="Layer_250" data-name="Layer 250"> <polygon points="799.29 729.73 798.89 848.15 818.28 849.37 818.16 750.51 799.29 729.73" style="fill: #0b63ce"></polygon> </g> <polygon points="764.25 715.03 798.75 734.6 799.19 758.58 812.15 740.26 808.43 722.49 786.53 714.2 777.18 707.88 764.25 715.03" style="fill: #0b63ce"></polygon> </g> <polygon points="818.3 869.59 964.2 785.13 964.04 639.13 818.13 723.59 818.3 869.59" style="fill: #4387e8"></polygon> <g id="Layer_233" data-name="Layer 233"> <path d="M1598.42,1008.11l112.77-66.55,2.66,108.14-114.38,64.49S1597.45,1007.08,1598.42,1008.11Z" transform="translate(-763.26 -274.36)" style="fill: #0b63ce"></path> <path d="M1698.23,949.21l-99.81,58.9c-.76-.8.29,63.42.8,92.31l101.32-57.14Z" transform="translate(-763.26 -274.36)" style="fill: url(#linear-gradient-e)"></path> <path d="M1700.6,1043.26l-.27-9.58L1622,994.26l-23.46,13.85c-.75-.8.29,63.18.8,92.15Z" transform="translate(-763.26 -274.36)" style="fill: #5688bf"></path> <polygon points="937.24 768.9 835.96 825.89 836.21 839.83 950.59 775.33 937.24 768.9" style="fill: #44beeb"></polygon> <polygon points="835.15 733.75 835.29 772.44 837.37 767.48 862.92 717.32 835.15 733.75" style="fill: url(#linear-gradient-f)"></polygon> <polygon points="936.94 769.28 936.46 735.68 936.26 727.5 907.6 785.58 936.94 769.28" style="opacity: 0.25;fill: url(#linear-gradient-g)"></polygon> <path d="M1644.73,980.73l-10.88,6.43a87.8,87.8,0,0,0,19.39,21.24c12.61,9.62,23.94,11.13,30.46,5.45-5.2-.89-11.14-3.66-17.4-8.43A89.79,89.79,0,0,1,1644.73,980.73Z" transform="translate(-763.26 -274.36)" style="fill: url(#linear-gradient-h)"></path> <path d="M1643.3,981.58a89.33,89.33,0,0,0,21,23.75c6.78,5.17,13.18,8,18.66,8.62,3.21-3,5.17-7.83,5.44-14.39.46-11.24-4.17-25.1-11.77-37.67Z" transform="translate(-763.26 -274.36)" style="fill: #123e72"></path> <g id="person-blue"> <polygon points="856.19 792.38 881 790.54 865.82 784.39 887.31 787.94 886.35 786.43 839.07 768.25 834.89 765.83 835.24 780.99 856.19 792.38" style="opacity: 0.14;fill: url(#linear-gradient-i)"></polygon> <path d="M1643.07,1000.39s-2.14-9.38,4.39-10.23c9.14-1.19,5,12,1,12.83,0,0-.67,9-5.11,24.89l-2.6,35.67-6.7-31.07S1635,1008.67,1643.07,1000.39Z" transform="translate(-763.26 -274.36)" style="fill: #bed6e5"></path> <path d="M1640.7,1063.55s3.81-.52,3.55.28S1643.29,1065.91,1640.7,1063.55Z" transform="translate(-763.26 -274.36)" style="fill: #42bfc2"></path> <path d="M1648.31,1061s3.82-.52,3.55.28S1650.9,1063.32,1648.31,1061Z" transform="translate(-763.26 -274.36)" style="fill: #42bfc2"></path> <path d="M1639.38,1002.33s-10.75,4.71-13.87,23.68c0,0,9.15-7.55,14.61-11.22C1640.12,1014.79,1651.16,1002.15,1639.38,1002.33Z" transform="translate(-763.26 -274.36)" style="fill: #bed6e5"></path> <path d="M1648.34,1030a67.47,67.47,0,0,1,1.75,14.16c0,7.22-1.65,14.7-1.83,16.65,0,0-9.06-24.7-9-29.64S1648.34,1030,1648.34,1030Z" transform="translate(-763.26 -274.36)" style="fill: #035077"></path> <path d="M1643.68,1034.1a10.13,10.13,0,0,1,2.94,6.09c.17,3.47-.41,14.11,2.38,15l-.74,5.56-6.66-19.66Z" transform="translate(-763.26 -274.36)" style="fill: #1e4466;opacity: 0.27"></path> <path d="M1643.4,1030.71a96.82,96.82,0,0,1,.28,15.61c-.6,7.66-2.67,15-3,17.07,0,0-7.48-27-7-32.21S1643.4,1030.71,1643.4,1030.71Z" transform="translate(-763.26 -274.36)" style="fill: #005d96"></path> <path d="M1649.19,1006s3.64,17.06,7.65,21.51c-2.15-.4-10.28-3.76-13-9.66C1643.85,1017.84,1647.06,998.31,1649.19,1006Z" transform="translate(-763.26 -274.36)" style="fill: #bed6e5"></path> <path d="M1635.81,1029.1s-.62,5.06,2,7.56,3.37,4,2.84,9a39,39,0,0,0,.94,12.47l-.9,5.4-6.85-29S1631.83,1029.22,1635.81,1029.1Z" transform="translate(-763.26 -274.36)" style="fill: #1e4466;opacity: 0.27"></path> <path d="M1635.35,1003.57l6.18-2.61,5,5.51,1.88-3.48,1.35,1.35,5.11,19.35-4.39,2.28-1.91-2.47.18,8.89-17.62-.65,2.55-12.06-4.73,5.84-2.5-4A43,43,0,0,1,1635.35,1003.57Z" transform="translate(-763.26 -274.36)" style="fill: #3e74b5"></path> <path d="M1642,995.57c-.19-.6-1.4-4.11,1.93-5.45,0,0,1.94,0,3.56,0,0,0,3.62,2.37-.25,4h0s-2.16.15-2.28,1.62c0,0-2.54-1.7-2,.72,0,0,.45,2.29-.37,2.32C1642.59,998.85,1642.25,996.48,1642,995.57Z" transform="translate(-763.26 -274.36)" style="fill: #004f77"></path> <path d="M1627.58,1023.34a13.62,13.62,0,0,0,3.69-5.18c.83-2.68.73-4.07,2.16-4.87s5.39-3.86,5.39-3.86.58,3.5,2.57,4c0,0,3.92.31,2.22,1,0,0-4.46,1.44-4.42,3.55,0,0,3,3.83,1.63,6,0,0-3.18,5.33-2.79,8l-6.9-.29,2.25-10.34v-1.34l-4.42,5.46Z" transform="translate(-763.26 -274.36)" style="fill: #00426b;opacity: 0.18"></path> <path d="M1652.69,1024.82s-3.77-8.22-4-11.07l-.12,9.75,1.91,2.47Z" transform="translate(-763.26 -274.36)" style="fill: #00426b;opacity: 0.18"></path> <path d="M1644.44,1004.17l-2.38-2.62,1-1.16-.48-1.54s-1.76-6.63-.16-8c0,0,6.29-1.7,7.66.76a30.14,30.14,0,0,1-1.16,6.8s-1.56,4.17,0,4.44c0,0-2.3.42-3.14-.72" transform="translate(-763.26 -274.36)" style="fill: #00426b;opacity: 0.18"></path> <path d="M1644.26,1004.15l-6.65,1.82s-5.58,2.14-6.22,3.26c.43-.74,3.46-5.45,4-5.66l6.18-2.61Z" transform="translate(-763.26 -274.36)" style="fill: #00426b;opacity: 0.18"></path> <path d="M1652.16,991a3.45,3.45,0,0,1,.77,3.25s-1-3.21-2.36-3.79A3.51,3.51,0,0,1,1652.16,991Z" transform="translate(-763.26 -274.36)" style="fill: #00426b"></path> <g id="wrench"> <path d="M1651.69,1026.88c.6-.22,7.11-3.26,7.11-3.26l1.28,1.62-6.94,3.19Z" transform="translate(-763.26 -274.36)" style="fill: #1e4466"></path> <polygon points="897.41 750.1 896.66 749.6 896.82 748.57 898.89 747.54 897.27 746.52 894.85 747.8 894.74 750.53 897.06 751.99 899.48 750.71 899.54 749.09 897.41 750.1" style="fill: #1e4466"></polygon> </g> </g> <path d="M1639.39,1077.6c-3.37-1.71-40.89-22.25-40.89-22.25l.2,30.75.58,14.32Z" transform="translate(-763.26 -274.36)" style="fill: url(#linear-gradient-j)"></path> <polygon points="835.36 789.31 869.21 720.91 890.47 724.09 836.08 823.01 835.36 789.31" style="fill: url(#linear-gradient-k)"></polygon> </g> </g> <g class="structure" id="cube-2"> <g id="ladder"> <path d="M941.89 569.21l-1.84-174.69s-1.57-13.82-15.31-4.89l-20.69 17.39m-11.48 144.5l-1.84-174.73s-.71-13-15.31-4.89l-21.89 16" fill="none" stroke="#9ac7fc" stroke-linecap="round" stroke-linejoin="round" stroke-width="3"></path> <path fill="#123e72" d="M940 473.53h.01l-.01-.01-.05-4.64-3.37-.14-2.91 1.89-44.97-20.59-25.45 11.99 53.23 26.1 4.35-2.69L940 473.7v-.17z"></path> <path fill="#6ea2d6" d="M888.8 445.29l-23.43 12.97 51.22 25.12 23.52-14.6-51.31-23.49z"></path> <path fill="#123e72" d="M940.71 456.48h.01l-.01-.01-.05-4.64-3.37-.14-2.91 1.89-44.97-20.59-25.45 11.99 53.23 26.1 4.34-2.69 19.18-11.74v-.17z"></path> <path fill="#6ea2d6" d="M889.51 428.24l-23.43 12.98 51.21 25.11 23.53-14.6-51.31-23.49z"></path> <path d="M1611.56 660.61l14.82-10.51a3.24 3.24 0 0 1 3.58 1.42c1.44 2.12.65 3.26.65 3.26l-14.56 10.78s-4.77-.18-4.49-4.95z" transform="translate(-762.95 -273.48)" fill="#f9f9f9"></path> <ellipse cx="1613.88" cy="663.03" rx="1.9" ry="3.36" transform="rotate(-45.16 903.65 1443.62)" fill="#81acea"></ellipse> <path d="M1664.63 678.08l14.82-10.51A3.23 3.23 0 0 1 1683 669c1.44 2.11.64 3.25.64 3.25L1669.12 683s-4.77-.15-4.49-4.92z" transform="translate(-762.95 -273.48)" fill="#f9f9f9"></path> <ellipse cx="1666.95" cy="680.5" rx="1.9" ry="3.36" transform="rotate(-45.16 956.717 1461.09)" fill="#81acea"></ellipse> </g> <path transform="translate(-0.1 1.7)" fill="#9ac7fc" d="M820.33 723.35l-146.65-83.17 145.44-74.12 146.55 71.87-145.34 85.42z"></path> <path fill="#0b63ce" d="M820.15 721.87L673.51 638.7l-1.12-146 146.64 83.17 1.12 146z"></path> <path fill="#44beeb" d="M819.1 574.87L672.46 491.7l145.43-74.12 146.56 71.88-145.35 85.41z"></path> <path fill="#4387e8" d="M820.22 720.87l145.35-85.41-1.12-146-145.35 85.41 1.12 146z"></path> <g id="stairs"> <path d="M1517 769c3.33-1.76 79.69-45.15 79.69-45.15l52.45 26.36-75.28 52z" transform="translate(-762.95 -273.48)" fill="url(#linear-gradient-18)"></path> <path fill="#123e72" d="M886.14 476.73l-52.39-26.34 1.54 62.35 50.85-36.01z"></path> <path fill="#44beeb" d="M834.06 462.87l-9.87 7.36 40.83 21.46 10.42-7.31-41.38-21.51z"></path> <path fill="#123e72" d="M824.19 470.23l-.02 9.38 32.43 18.08 8.42-6-40.83-21.46z"></path> <path fill="#44beeb" d="M824.17 479.61l-9.87 6.55 32.37 18.55 9.93-7.02-32.43-18.08z"></path> <path fill="#123e72" d="M814.3 486.16l-.01 8.39 24.88 15.47 7.5-5.31-32.37-18.55z"></path> <path fill="#44beeb" d="M814.29 494.55l25.63 14.94-10.32 7.3-26.46-14.61 11.15-7.63z"></path> <path fill="#123e72" d="M804.13 502.42l.92 6.36 19.58 11.53 4.97-3.52-25.47-14.37z"></path> <path fill="#4387e8" d="M805.05 508.78l-7.37 4.06 21.47 11.34 5.48-3.87-19.58-11.53z"></path> <path d="M1649.09 750.28l-100.35 63.89s62.43-10.93 63.46-11.75 45.63-35.28 36.89-52.14z" transform="translate(-762.95 -273.48)" fill="#44beeb"></path> </g> </g> </g> <g class="structure" id="cube_top"> <polygon points="818.28 657.82 761.16 713.17 720.37 691.02 818.28 657.82" style="fill: #0d417f;opacity: 0.72"></polygon> <path class="screen" id="cube-top-a" d="M679.09 739.75l-146.64-83.17-1.12-146 146.64 83.17 1.12 146z"></path> <path class="screen" id="cube-top-b" d="M679.09 739.75l-146.64-83.17-1.12-146 146.64 83.17 1.12 146z"></path> <path class="screen" id="cube-top-c" d="M679.09 739.75l-146.64-83.17-1.12-146 146.64 83.17 1.12 146z"></path> <path fill="#0b63ce" d="M679.09 739.75l-146.64-83.17-1.12-146 146.64 83.17 1.12 146z"></path> <path fill="#44beeb" d="M677.97 593.75l-146.64-83.17 145.43-74.12 146.56 71.88-145.35 85.41z"></path> <path fill="#4387e8" d="M679.09 739.75l145.35-85.41-1.12-146-145.35 85.41 1.12 146z"></path> <g id="person-green"> <path d="M1509.77,729.6l31-17.3,29.41,28.13-15.89,9s-59-13.73-60.74-12.86" transform="translate(-763.26 -274.36)" style="opacity: 0.28;fill: url(#linear-gradient-23)"></path> <path d="M1546.4,728.71l12.94,2.61,0,.39a15.78,15.78,0,0,1,5.14-1.47s14.76,8.07,11.36,18.52c0,0-2.11,6-3.92,10.21,1-1.92-2.43-17.11-7.1-17,1.12,3.64,1.13,11.38-.12,18.9,1.09.08-3.6-14.13-12.22-18C1552.51,742.89,1544.9,740.84,1546.4,728.71Z" transform="translate(-763.26 -274.36)" style="fill: #1e558c"></path> <path d="M1547.28,704.85s11.43-7.94,15.92-6.25l-5.5,2.92-4.53-.19" transform="translate(-763.26 -274.36)" style="fill: #19ab4f"></path> <path d="M1570.84,719.69a16.52,16.52,0,0,1-1.2,8.27,83.69,83.69,0,0,0-3.81-10.08S1568.28,716.73,1570.84,719.69Z" transform="translate(-763.26 -274.36)" style="fill: #c5d9ea"></path> <path d="M1562.49,702.45s-6.62,3.54-6.35,5.44c1.24,1.8,8.91,9.06,10.51,14.5,0,0,3.74-.3,4.56-2.57a28.89,28.89,0,0,0-2.06-11.45C1569,707.87,1565.9,702.71,1562.49,702.45Z" transform="translate(-763.26 -274.36)" style="fill: #19ab4f"></path> <path d="M1571,703.31" transform="translate(-763.26 -274.36)" style="fill: #103f66"></path> <path d="M1565.45,701.84s5.73,6.73,0,12.26C1565.45,714.1,1559.74,703.85,1565.45,701.84Z" transform="translate(-763.26 -274.36)" style="fill: #19ab4f"></path> <path d="M1557.74,741.89" transform="translate(-763.26 -274.36)" style="fill: #c5d9ea"></path> <path d="M1546.4,728.71c3.22-1.34-.47-7.76-.86-18.6-.29-8.05,9.67-8.65,15.07-10.67h.05c1.67.21,1.27-3.09.93-4.89.59-5,2.52-11.81,8.78-8.23,9.46,5.43-.33,18.15-4.08,17l-.2-.08c.55.73,1.86,4.53-2.89,19.76,0,0,.87,3.45,1,4.06" transform="translate(-763.26 -274.36)" style="fill: #c5d9ea"></path> <path d="M1552,731.44s-1.87,9.06,2.79,9.83,5.57-.07,6.5,4.73,2.44,6.09,2.79,7.36a54.43,54.43,0,0,1,.75,5.56c0,.68-3.14-7.2-7.27-12.3,0,0-2.6-2.67-4.14-3.29-.89-.44-7.93-1.32-7.51-12.85Z" transform="translate(-763.26 -274.36)" style="fill: #0b3156;opacity: 0.52"></path> <path d="M1566.29,702.74s.49,6.41-1.76,6.31c0,0-5-5.71-5.38-9.22,0,0-3.74-.73-9.41,3.29.88,3.56,1.22-2.67-3.3,8.93l-.55,18.43s22.95,7.77,19.82-1.36c0,0-.42-8-.22-13C1565.49,716.1,1567.85,707.31,1566.29,702.74Z" transform="translate(-763.26 -274.36)" style="fill: #19ab4f"></path> <path d="M1553.93,706.13s.8,2.39-.3,7.48c0,0-.43,1.64.77,5.24.23.68-3.42-2.29-4-1.6-.91,1-1.39,4.76-2.38,5.94-.29.35-1.13.38-1.89.45l.11-3.83s5.1-10.19,8-10.2" transform="translate(-763.26 -274.36)" style="fill: #0b3156;opacity: 0.17"></path> <path d="M1541.67,734.11s-9.62-9,3.38-26.24c0,0,4.84-6.14,10-4.08,0,0,2.76,1.39-3.12,8.33S1538.71,729.47,1541.67,734.11Z" transform="translate(-763.26 -274.36)" style="fill: #c0e0ff"></path> <path d="M1565.16,762.11c0-.38,3.92,0,3.28,1.08S1565.27,763.63,1565.16,762.11Z" transform="translate(-763.26 -274.36)" style="fill: #3d7ab7"></path> <path d="M1571.28,759.35c0-.37,3.92,0,3.28,1.09S1571.39,760.88,1571.28,759.35Z" transform="translate(-763.26 -274.36)" style="fill: #3d7ab7"></path> <path d="M1572.65,689.7s6.29-.92,1.44-3.4c-3.47-1.77-3.8-2.73-6.73-3.65s-6.58,5.7-7.31,5.29-2.39,6.11,1.75,10.4a38.77,38.77,0,0,0,.27-4.15c.15-3.62,1-3.65,2.62-1.39.77-.35,3.35-2.37,3.44-4.62A12.78,12.78,0,0,0,1572.65,689.7Z" transform="translate(-763.26 -274.36)" style="fill: #0b3156"></path> <path d="M1573.66,693.07c.68.9-2.74,10.3-2.74,10.3s-1.68,1.23-5.66-.07C1565.25,703.1,1571.6,690.34,1573.66,693.07Z" transform="translate(-763.26 -274.36)" style="fill: #c5d9ea"></path> <path d="M1555.29,701.67s3.88,1.68,2.79,4.26c-2.34,2-11.71,10.59-14.92,20.45,0,0-4.74-1-6.75.22,0,0,2.54-11.55,8.1-18.87C1544.87,707.07,1550.37,700.77,1555.29,701.67Z" transform="translate(-763.26 -274.36)" style="fill: #19ab4f"></path> <path d="M1571,703.31s-4.77.25-7.21-2.73-1.89,1.8-1.72,2.24a59.94,59.94,0,0,1,1.64,7.51c-.1.81,1,4.8,1.65,2.32a14.86,14.86,0,0,0,1.18-7.39l-.31-1.52S1570,704.52,1571,703.31Z" transform="translate(-763.26 -274.36)" style="fill: #0b3156;opacity: 0.17"></path> <path d="M1563,731.46" transform="translate(-763.26 -274.36)" style="fill: #c5d9ea"></path> <path d="M1565.83,717.88s1.43-5.76,1.94-3.69a13.05,13.05,0,0,1-.21,5l-1.23,2.27-.89-1.88" transform="translate(-763.26 -274.36)" style="fill: #0b3156;opacity: 0.17"></path> <path d="M1564.85,742c-.35-.2-1.1-3.22-2.47-4.9,0,0,2.9-.64,3.48,1.2a8.05,8.05,0,0,0,4.24,4.43c1.66.63,2.06,5,1.9,8.52a32.72,32.72,0,0,0,.08,5.38l-1.59-6.69S1568.79,744.28,1564.85,742Z" transform="translate(-763.26 -274.36)" style="fill: #0b3156;opacity: 0.52"></path> </g> </g> <g class="structure" id="cube"> <path fill="#0b63ce" d="M969.52 1097.53l-146.65-83.17-1.12-146 146.65 83.17 1.12 146z"></path> <path fill="#44beeb" d="M968.4 951.53l-146.65-83.17 144.05-84.5 147.94 82.26-145.34 85.41z"></path> <path fill="#4387e8" d="M969.52 1097.53l145.35-85.41-1.13-146-145.34 85.41 1.12 146z"></path> <path fill="#4387e8" d="M1013.38 1016.32l17.61 45.08 50.68-29.78-8.88-45.11-59.41 29.81z"></path> <path d="M1713.56 1235.92l-115.43-66.44.43 109.22 115 63.3s.95-107.13 0-106.08z" transform="translate(-762.95 -273.48)" fill="#005091"></path> <path d="M1612.17 1177l101.39 58.9c.74-.81.36 63.41.15 92.3l-101.91-56.07z" transform="translate(-762.95 -273.48)" fill="url(#linear-gradient-12)"></path> <path d="M1611.84 1272.12l.17-9.57 69-44.84 32.54 18.21c.74-.81.36 63.18.15 92.14z" transform="translate(-762.95 -273.48)" fill="url(#linear-gradient-13)"></path> <path fill="url(#linear-gradient-14)" d="M848.89 998.64l101.87 55.94-.1 13.94-115.05-63.3 13.28-6.58z"></path> <path fill="#1e84d8" d="M943.85 1050.78l-41.12-8.63 47.93 26.37.1-13.94-6.91-3.8z"></path> <path d="M1667.7 1209.58a94.955 94.955 0 0 1-6.77 4.86c-8.58 5.58-16.54 8.59-23.37 9.24 7.9 8 22.72 7.13 40-4.11 1.11-.72 2.21-1.47 3.3-2.26z" transform="translate(-762.95 -273.48)" fill="url(#linear-gradient-15)"></path> <path d="M1635.2 1190.48a61.16 61.16 0 0 0-2.33 14.23c-.29 8.52 1.79 15 5.64 19.17 7.17-.28 15.74-3.31 25-9.35 1.93-1.25 3.83-2.61 5.71-4z" transform="translate(-762.95 -273.48)" fill="url(#linear-gradient-16)"></path> <path opacity=".16" fill="url(#linear-gradient-17)" d="M848.94 976.86l12.95 28.9 28.94 15.43-41.73-87.22-.16 42.89z"></path> </g> <g id="trees"> <g id="shadow-cube"> <path class="shadow" d="M1818.34 1283.51s-10.87 31.81-4.13 36.92 14.38.91 4.13-36.92z" transform="translate(-762.95 -273.48)" fill="#103f66" id="BLUR_TREE_SHADOW_SMALL" filter="url(#blur)" opacity=".25"></path> </g> <g id="tree-g"> <path class="shadow" d="M1797.41 1309.25s37.46 33.17 48.34 26.84 9.51-19.22-48.34-26.84z" transform="translate(-762.95 -273.48)" fill="#103f66" id="BLUR_TREE_SHADOW" filter="url(#blur)" opacity=".25"></path> <path class="tree" d="M1845 1277.83s-16.18 47.35-6.14 55 21.34 1.31 6.14-55z" transform="translate(-762.95 -273.48)" fill="#42bfc2"></path> </g> <g id="tree-h"> <path class="shadow" d="M1896.84 1098.44l49.58 10s18.23 4.07 11.32-11.07-46.93-17.27-46.93-17.27-29.07 15.28-13.97 18.34z" transform="translate(-762.95 -273.48)" opacity=".15" fill="url(#linear-gradient-30)"></path> <path class="shadow" d="M1961.41 1068.87l38.71 7.84s14.23 3.17 8.83-8.64-36.63-13.49-36.63-13.49-22.7 11.9-10.91 14.29z" transform="translate(-762.95 -273.48)" opacity=".15" fill="url(#linear-gradient-36)"></path> <path class="tree" d="M1951 1058.87s-13.51 39.54-5.13 45.89 17.83 1.14 5.13-45.89zm50.63-18.47s-9.83 28.79-3.73 33.41 13.01.83 3.73-33.41z" transform="translate(-762.95 -273.48)" fill="#42bfc2"></path> </g> <g id="tree-c"> <path class="shadow" d="M1625.39 1435.12l49.58 10s18.23 4.07 11.32-11.07-46.93-17.27-46.93-17.27-29.08 15.28-13.97 18.34z" transform="translate(-762.95 -273.48)" opacity=".15" fill="url(#linear-gradient-31)"></path> <path class="tree" d="M1678.24 1374s-19.28 56.41-7.32 65.47 25.49 1.65 7.32-65.47z" transform="translate(-762.95 -273.48)" fill="#19ab4f"></path> </g> <g id="tree-b"> <path class="shadow" d="M1106.65 1167l35.79 7.25s13.17 2.93 8.18-8-33.89-12.47-33.89-12.47-20.99 10.96-10.08 13.22z" transform="translate(-762.95 -273.48)" opacity=".15" fill="url(#linear-gradient-32)"></path> <ellipse class="tree" cx="1145.65" cy="1146.5" rx="7.21" ry="27.18" transform="rotate(-5.64 -2012.518 8753.539)" fill="#c5efd6"></ellipse> </g> <g id="tree-f"> <path class="shadow" d="M1337.26 1115.06l31.64 6.41s11.63 2.59 7.22-7.07-29.95-11-29.95-11-18.55 9.71-8.91 11.66z" transform="translate(-762.95 -273.48)" opacity=".15" fill="url(#linear-gradient-33)"></path> <path class="tree" d="M1372.7 1085s-9.84 28.79-3.74 33.41 13.04.84 3.74-33.41z" transform="translate(-762.95 -273.48)" fill="#c4dbf2"></path> </g> <g id="tree-e"> <path class="shadow" d="M1652.76 1454.06l49.57 10s18.24 4.07 11.33-11.06-46.94-17.28-46.94-17.28-29.07 15.28-13.96 18.34z" transform="translate(-762.95 -273.48)" opacity=".15" fill="url(#linear-gradient-34)"></path> <path class="tree" d="M1704.28 1408.34s-15.42 45.12-5.85 52.36 20.39 1.3 5.85-52.36z" transform="translate(-762.95 -273.48)" fill="#42bfc2"></path> </g> <g id="tree-d"> <path class="shadow" d="M1676.43 1434.86l49.57 10s18.24 4.07 11.33-11.07-46.94-17.27-46.94-17.27-29.07 15.28-13.96 18.34z" transform="translate(-762.95 -273.48)" opacity=".15" fill="url(#linear-gradient-35)"></path> <path class="tree" d="M1727.73 1386.9s-16.18 47.34-6.14 54.94 21.41 1.37 6.14-54.94z" transform="translate(-762.95 -273.48)" fill="#19ab4f"></path> </g> </g> <g class="structure" id="tube"> <path d="M1529,1259.61l-68.77,42.23-130-75.35,107.47-58.68S1537.54,1171.88,1529,1259.61Z" transform="translate(-763.26 -274.36)" style="opacity: 0.21;fill: url(#linear-gradient-37)"></path> <ellipse cx="1506.88" cy="1173.31" rx="43.19" ry="76.33" transform="translate(-1157.41 716.05) rotate(-32.41)" style="fill: #c4dbf2"></ellipse> <path d="M1511.42,1116.08c-13.31-9.17-25.9-12.56-36-10.79a45.62,45.62,0,0,0-2.87,13.16c-2.51,31.61,19.9,74.06,50.06,94.82,13.31,9.16,25.9,12.56,36,10.79a46.3,46.3,0,0,0,2.87-13.16C1564,1179.29,1541.58,1136.83,1511.42,1116.08Z" transform="translate(-763.26 -274.36)" style="fill: #123e72"></path> <g id="person-white"> <path d="M1510.25,1172.56s6.67,1.4,13-16.52c0,0,2.56-7.89-2.5-10.52,0,0-2.37-1.34-4.58,6.34S1511.94,1170,1510.25,1172.56Z" transform="translate(-763.26 -274.36)" style="fill: #c0e0ff"></path> <path d="M1522.39,1146s-3.83-3-5.23-1c-.4,2.78-3.75,14.32-6.16,23.72,0,0,4.9.2,5,2.26a47.16,47.16,0,0,0,8.07-13.46C1524.36,1157,1526.67,1149,1522.39,1146Z" transform="translate(-763.26 -274.36)" style="fill: #f2efe9"></path> <path d="M1536.89,1185.52s-.47-17.3-1.62-29.16c-.87-8.95-7-10.81-12-12.53h0c-1.69.07-1-3.18-.53-5-.18-5.05-2.76-13.77-8.08-8.91-7.45,6.81-1.15,18.12,2.67,17.27a.89.89,0,0,0,.21-.06c-.6.69-2.22,4.37,1.28,19.93,0,0-1.15,3.37-1.3,4-1.79,3.93-10.41,24.49-3.62,43.67,0,0,5.58-21.1,11.11-27.22" transform="translate(-763.26 -274.36)" style="fill: #9ac7fc"></path> <g style="opacity: 0.15"> <path d="M1512.52,1220.91c-.94-.35-41.3-26-41.3-26s-14.35-12,.35-12.66c11.36-.54,31.5,8.62,31.5,8.62l45.45,14.53-4.81,3.47-27.42-6.79s-10.59-2.1-9.1,2.3S1520.74,1223.91,1512.52,1220.91Z" transform="translate(-763.26 -274.36)" filter="url(#blur)" style="fill: #103f66"></path> </g> <g style="opacity: 0.5"> <path d="M1512.52,1220.91c-.94-.35-15.59-10.4-15.59-10.4s-8.62-13.32,6.08-14c11.36-.54,12.8-1,12.8-1l32.71,9.84-4.81,3.47-27.42-6.79s-10.59-2.1-9.1,2.3S1520.74,1223.91,1512.52,1220.91Z" transform="translate(-763.26 -274.36)" style="fill: url(#linear-gradient-36)"></path> </g> <path d="M1515.1,1174.14s-7.88,25.37-3,36.74l2.81.62s6.26-18.6,10.14-23.78c3.87-.68,5.82,22.51,7.35,27.55.19-.49,7.43-8.72,7.43-8.72a45.41,45.41,0,0,1-.92-31.44C1538.92,1174.78,1529.68,1168.23,1515.1,1174.14Z" transform="translate(-763.26 -274.36)" style="fill: #123e72"></path> <path d="M1524.91,1187.53a7.75,7.75,0,0,0-3.91-4.81c-3.11-1.46-2,1.56-1.56,3.61a5.25,5.25,0,0,1-1.46,5,7.64,7.64,0,0,0-2.33,6.16c.34,3.85,1.51,7.9,1.33,8.15C1517,1205.66,1521.46,1194,1524.91,1187.53Z" transform="translate(-763.26 -274.36)" style="fill: #0b3156"></path> <path d="M1522.93,1176.29c.41.1,12.47,1.4,11.13,3.12s.11,10,2.73,10.79c1.77.56-2,14.31,3,16.35,0,0-6.23-13.64-1.1-31.2Z" transform="translate(-763.26 -274.36)" style="fill: #0b3156"></path> <path d="M1517.14,1147.41s-1.35,5.57.9,5.66c0,0,5.47-5.28,6.11-8.75-1,2.1,2.17-.2,8.79,3.27,0,0,3.26,1.89,6,19.31l5.28,7.51s-32.83,7.42-29-1.43c0,0,1.07-8,1.28-13C1516.51,1160,1515.21,1151.83,1517.14,1147.41Z" transform="translate(-763.26 -274.36)" style="fill: #fcfcfc"></path> <path d="M1526,1166.8s-6.93,12.22-8.54,12.89c1.22-.2,22.3-10.63,16.88-26.64C1534.29,1153.05,1527.84,1162.26,1526,1166.8Z" transform="translate(-763.26 -274.36)" style="fill: #0b3156;opacity: 0.17"></path> <path d="M1512.45,1173.59s12.23,2.56,18.77-16.06c0,0,2.66-8.18-2.6-10.91,0,0-1.93-1.22-4.76,6.58C1521.12,1160.75,1516,1172,1512.45,1173.59Z" transform="translate(-763.26 -274.36)" style="fill: #c0e0ff"></path> <path d="M1513.7,1216.58c.23-.3-3.29-2.14-3.34-.89S1512.78,1217.79,1513.7,1216.58Z" transform="translate(-763.26 -274.36)" style="fill: #3d7ab7"></path> <path d="M1514.3,1132.75s-4.92,1.47,1-5.59c3.5-4.18,6.84,2,9.94,2.79s.77,5.66,1.53,5.31,1,4.17-3.5,8.12c0,0-.69.09-.54-3.53s-.73-3.72-2.5-1.6c-.73-.41-3.15-2.63-3-4.88C1517.15,1133.37,1516.93,1132.61,1514.3,1132.75Z" transform="translate(-763.26 -274.36)" style="fill: #0b3156"></path> <path d="M1511.47,1136.09c-.75.85.36,8.52.36,8.52a5.37,5.37,0,0,0,5.94,2.67C1517.81,1147.08,1513.75,1133.54,1511.47,1136.09Z" transform="translate(-763.26 -274.36)" style="fill: #9ac7fc"></path> <path d="M1529.77,1146.55s-4.35-3.48-6-1.17c-.45,3.16-2.69,15.7-9.23,23.57,0,0,3.36,3.47,3.43,5.81,0,0,10.44-6.5,13.63-15.13C1532,1159,1534.64,1150,1529.77,1146.55Z" transform="translate(-763.26 -274.36)" style="fill: #fcfcfc"></path> <path d="M1512.71,1145.79s4.06,1.67,6.73-1.1,1.74,1.94,1.53,2.37a59.17,59.17,0,0,0-2.23,7.36c0,.81-1.38,4.69-1.84,2.17a14.91,14.91,0,0,1-.58-7.46l.44-1.49S1513.6,1147.07,1512.71,1145.79Z" transform="translate(-763.26 -274.36)" style="fill: #0b3156;opacity: 0.17"></path> </g> <g> <path d="M1536.68,1140.62c.2.25.39.51.58.77C1537.07,1141.13,1536.88,1140.87,1536.68,1140.62Z" transform="translate(-763.26 -274.36)" style="fill: url(#linear-gradient-37)"></path> <path d="M1548.53,1159.1l.45.86Z" transform="translate(-763.26 -274.36)" style="fill: url(#linear-gradient-38)"></path> <path d="M1553.21,1168.86c.13.29.25.58.37.87C1553.46,1169.44,1553.34,1169.15,1553.21,1168.86Z" transform="translate(-763.26 -274.36)" style="fill: url(#linear-gradient-39)"></path> <path d="M1554.48,1171.93c.11.29.23.58.34.88C1554.71,1172.51,1554.59,1172.22,1554.48,1171.93Z" transform="translate(-763.26 -274.36)" style="fill: url(#linear-gradient-40)"></path> <path d="M1543,1149.63c.18.27.35.55.52.82C1543.34,1150.18,1543.17,1149.9,1543,1149.63Z" transform="translate(-763.26 -274.36)" style="fill: url(#linear-gradient-41)"></path> <path d="M1538.72,1143.36l.57.79Z" transform="translate(-763.26 -274.36)" style="fill: url(#linear-gradient-42)"></path> <path d="M1555.94,1175.79v0h0Z" transform="translate(-763.26 -274.36)" style="fill: url(#linear-gradient-43)"></path> <path d="M1544.8,1152.54c.17.28.34.55.5.83C1545.14,1153.09,1545,1152.82,1544.8,1152.54Z" transform="translate(-763.26 -274.36)" style="fill: url(#linear-gradient-44)"></path> <path d="M1550.08,1162.11l.43.87Z" transform="translate(-763.26 -274.36)" style="fill: url(#linear-gradient-45)"></path> <path d="M1561.65,1204.33c0,.28,0,.55,0,.83C1561.67,1204.88,1561.66,1204.61,1561.65,1204.33Z" transform="translate(-763.26 -274.36)" style="fill: url(#linear-gradient-46)"></path> <path d="M1560.94,1195.73l-.12-.86Z" transform="translate(-763.26 -274.36)" style="fill: url(#linear-gradient-47)"></path> <path d="M1557,1178.75c.1.29.19.59.28.88C1557.14,1179.34,1557.05,1179,1557,1178.75Z" transform="translate(-763.26 -274.36)" style="fill: url(#linear-gradient-48)"></path> <path d="M1560.68,1216.85c-.14.68-.28,1.36-.44,2,0,.15-.08.31-.11.46.23-.94.45-1.91.63-2.9C1560.74,1216.57,1560.71,1216.71,1560.68,1216.85Z" transform="translate(-763.26 -274.36)" style="fill: url(#linear-gradient-49)"></path> <path d="M1559.79,1220.51c-.09.31-.17.63-.26.93s-.12.36-.17.53C1559.51,1221.5,1559.65,1221,1559.79,1220.51Z" transform="translate(-763.26 -274.36)" style="fill: url(#linear-gradient-50)"></path> <path d="M1561.53,1201.43c0,.28,0,.56,0,.83C1561.56,1202,1561.54,1201.71,1561.53,1201.43Z" transform="translate(-763.26 -274.36)" style="fill: url(#linear-gradient-51)"></path> <path d="M1557.9,1181.82c.09.3.18.59.26.89C1558.08,1182.41,1558,1182.12,1557.9,1181.82Z" transform="translate(-763.26 -274.36)" style="fill: url(#linear-gradient-52)"></path> <path d="M1560.32,1191.86l.15.87Z" transform="translate(-763.26 -274.36)" style="fill: url(#linear-gradient-53)"></path> <path d="M1524.21,1126.59l1.62,1.6Z" transform="translate(-763.26 -274.36)" style="fill: url(#linear-gradient-54)"></path> <path d="M1531.32,1134.06c-.57-.65-1.15-1.3-1.73-1.94C1530.17,1132.76,1530.75,1133.41,1531.32,1134.06Z" transform="translate(-763.26 -274.36)" style="fill: url(#linear-gradient-55)"></path> <path d="M1510.63,1115.55c-.92-.62-1.84-1.21-2.75-1.77l.88.54C1509.38,1114.71,1510,1115.13,1510.63,1115.55Z" transform="translate(-763.26 -274.36)" style="fill: url(#linear-gradient-56)"></path> <path d="M1486.26,1105.27c.44.07.89.13,1.35.22l1,.2c.63.13,1.26.28,1.9.44s1.14.29,1.72.46l1.12.35a44.94,44.94,0,0,0-9.39-2c.45,0,.9.09,1.35.15S1485.94,1105.23,1486.26,1105.27Z" transform="translate(-763.26 -274.36)" style="fill: url(#linear-gradient-57)"></path> <path d="M1506.12,1112.71l1.05.64c-1-.6-2-1.17-3-1.7l.85.47Z" transform="translate(-763.26 -274.36)" style="fill: url(#linear-gradient-58)"></path> <path d="M1502.39,1110.69q.55.27,1.11.57Q1502.95,1111,1502.39,1110.69Z" transform="translate(-763.26 -274.36)" style="fill: url(#linear-gradient-59)"></path> <path d="M1558.62,1224.06c-10.14,1.77-22.73-1.63-36-10.79-30.16-20.76-52.57-63.21-50.06-94.82a45.62,45.62,0,0,1,2.87-13.16c.48-.09,1-.15,1.46-.21-13.61,1.68-23.13,12.32-24.59,30.64-2.51,31.61,19.91,74.07,50.07,94.83,25.52,17.56,48.4,14,56.36-6.69C1558.67,1223.92,1558.64,1224,1558.62,1224.06Z" transform="translate(-763.26 -274.36)" style="fill: url(#linear-gradient-60)"></path> <path d="M1478.81,1104.9c-.61,0-1.21.09-1.8.16l.43,0C1477.89,1105,1478.35,1104.93,1478.81,1104.9Z" transform="translate(-763.26 -274.36)" style="fill: url(#linear-gradient-61)"></path> <path d="M1479.56,1104.86c.44,0,.89,0,1.34,0h.83c.45,0,.89,0,1.34.06a35.09,35.09,0,0,0-3.69-.05Z" transform="translate(-763.26 -274.36)" style="fill: url(#linear-gradient-62)"></path> <path d="M1497.22,1108.33c.38.15.77.31,1.15.48l1.41.61,1.14.54,1,.5a60.24,60.24,0,0,0-7.23-3.08c.38.13.77.28,1.15.43S1496.76,1108.14,1497.22,1108.33Z" transform="translate(-763.26 -274.36)" style="fill: url(#linear-gradient-63)"></path> <path d="M1526.94,1129.31c.55.56,1.09,1.13,1.63,1.71C1528,1130.44,1527.49,1129.87,1526.94,1129.31Z" transform="translate(-763.26 -274.36)" style="fill: url(#linear-gradient-64)"></path> <path d="M1511.42,1116.08c1,.69,2,1.41,3,2.15-1-.74-2-1.46-3-2.15h0Z" transform="translate(-763.26 -274.36)" style="fill: url(#linear-gradient-65)"></path> <path d="M1532.16,1135c.84,1,1.66,2,2.47,3C1533.82,1137,1533,1136,1532.16,1135Z" transform="translate(-763.26 -274.36)" style="fill: url(#linear-gradient-66)"></path> <path d="M1515.37,1119c.67.51,1.32,1,2,1.55C1516.69,1120,1516,1119.48,1515.37,1119Z" transform="translate(-763.26 -274.36)" style="fill: url(#linear-gradient-67)"></path> <path d="M1561.22,1213.48c0,.19,0,.37-.08.56C1561.17,1213.85,1561.19,1213.67,1561.22,1213.48Z" transform="translate(-763.26 -274.36)" style="fill: url(#linear-gradient-68)"></path> <path d="M1518.47,1121.45l1.76,1.49Z" transform="translate(-763.26 -274.36)" style="fill: url(#linear-gradient-69)"></path> <path d="M1521.39,1124c.56.51,1.12,1,1.67,1.53C1522.51,1125,1522,1124.48,1521.39,1124Z" transform="translate(-763.26 -274.36)" style="fill: url(#linear-gradient-70)"></path> </g> <path d="M1511.42,1116.08c-18.55-12.77-35.71-14.34-46.75-6.32h0l-110.39,60c-23.21,32.14,93,128.07,93,128.07l98.75-59a22.79,22.79,0,0,0,2.27-1.37l.25-.15v0c7.19-5,11.92-13.86,12.91-26.32C1564,1179.29,1541.58,1136.83,1511.42,1116.08Z" transform="translate(-763.26 -274.36)" style="fill: #c4dbf2;opacity: 0.43"></path> <polygon points="681.32 992.82 765.37 944.2 773.57 955.87 683.89 1011.6 681.32 992.82" style="fill: url(#linear-gradient-40)"></polygon> <polygon points="610.74 899.42 694.79 850.8 702.99 862.48 613.31 918.21 610.74 899.42" style="fill: url(#linear-gradient-41)"></polygon> <g id="Layer_247" data-name="Layer 247"> <path d="M1353.43,1179l132.42-73.56s-10.51-3.63-30.34,9.36l-104.36,56.64Z" transform="translate(-763.26 -274.36)" style="opacity: 0.38;fill: url(#linear-gradient-42)"></path> <path d="M1428,1300.2l131.18-75.74s-2.3,10.88-23.63,21.21L1433.34,1306Z" transform="translate(-763.26 -274.36)" style="opacity: 0.38;fill: url(#linear-gradient-tube-special)"></path> </g> <path d="M1511.43,1181.88l5.13-6.33-23.57,14c4.16,1.88,8,6.89,10.15,12.47l22.33-12.25C1524.21,1185.56,1514.62,1184.63,1511.43,1181.88Z" transform="translate(-763.26 -274.36)" style="opacity: 0.61;fill: url(#linear-gradient-44)"></path> </g> <g class="structure" id="cube_last" transform="translate(120 -72)"> <path opacity=".21" fill="url(#linear-gradient-45)" d="M557.09 1172.4l-381.52-108.35-70.56-160.5 294.03 4.04 270.27 55.27 21.75 124.81-133.97 84.73z"></path> <path fill="#44beeb" d="M556.01 1026.38l-146.65-83.16L554.8 869.1l146.55 71.87-145.34 85.41z"></path> <path fill="url(#linear-gradient-46)" d="M557.13 1172.38l145.35-85.41-1.13-146-145.34 85.41 1.12 146z"></path> <path fill="#0b63ce" d="M492.8 1092.07l.02 43.84 64.31 36.47-1.12-146-146.65-83.16 1.12 145.99 46.91 26.61 35.41-23.75z"></path> <path fill="url(#linear-gradient-47)" d="M478.45 1101.92l-20.82 13.96-.18-114.65 20.38 11.62.62 89.07z"></path> <path fill="url(#linear-gradient-48)" d="M478.51 1101.59l14.29-9.69-.32-70.66-14.53-8.3.56 88.65z"></path> <path d="M1255.71 1365.48l-44.34 29.74 44.1 25.82.32-10.23c-.03-15.47-.06-33.98-.08-45.33z" transform="translate(-762.95 -273.48)" fill="url(#linear-gradient-49)"></path> </g> <g id="person-flag"> <path d="M1058,1420l90.41,26.21,2.65-1.18-15.81-7,30.29,8.66,1.78-1.16s-53.66-24.29-55.71-23.1S1042.32,1380.06,1058,1420Z" transform="translate(-763.26 -274.36)" style="opacity: 0.15;fill: url(#linear-gradient-81)"></path> <path d="M1144.58,1386.43l-5.81.62a9,9,0,0,0,9.14,1.82Z" transform="translate(-763.26 -274.36)" style="fill: #c5d9ea"></path> <path d="M1157.15,1372.32c1.71,3.37-10.84,14-14.28,14.09l5.78,5s10.55-.89,12.92-6.36C1161.57,1385.06,1161.19,1364.33,1157.15,1372.32Z" transform="translate(-763.26 -274.36)" style="fill: #3e74b5"></path> <path d="M1172.92,1411s3-15.42,1.86-27.28c-.87-9-5-13-10-14.7h0c-1.69.07.08-4.71.57-6.48-.18-5.06-2.09-6.14-9.19-7.39-7.28-1.27-2.45,17.2,1.38,16.36.09,0,2.2,1.37,1.51.85.4,1.7-5,8.57-2.84,22.77,0,0-1.15,3.36-1.3,4-1.79,3.93-10.41,24.49-3.63,43.67,0,0,5.15-22.27,10.68-28.38l4.68,30.69,6.35-34.08" transform="translate(-763.26 -274.36)" style="fill: #c5d9ea"></path> <path d="M1152.5,1402.57s-7.87,25.37-3,36.74l2.81.62s4-18.4,7.92-23.58c2.52-2.87.13,12.51,5,25.48.19-.49,3-.38,3-.38s2.33-20.3,8-37.91C1176.33,1403.21,1167.08,1396.66,1152.5,1402.57Z" transform="translate(-763.26 -274.36)" style="fill: #123e72"></path> <path d="M1161.31,1415.93a7.75,7.75,0,0,0-3.91-4.82c-3.1-1.46-2,1.56-1.56,3.61a5.25,5.25,0,0,1-1.46,5,7.64,7.64,0,0,0-2.33,6.16c.34,3.85,1.51,7.91,1.33,8.15C1153.38,1434.05,1157.86,1422.39,1161.31,1415.93Z" transform="translate(-763.26 -274.36)" style="fill: #0b3156"></path> <path d="M1176.14,1403.78l-15.81.94c.42.1,9,2.79,11.14,3.13s.54,9.19.72,11" transform="translate(-763.26 -274.36)" style="fill: #0b3156"></path> <path d="M1158.32,1373.29s-1.44,3.52.81,3.61c0,0,4.72-4.35,5.37-7.83,0,0,1.6-.34,6.92,4.13,0,0,1.79,2,4.45,16.64l1.91,13.83s-29,6.59-25.15-2.26c0,0,1.79-11.14,2-16.13A89,89,0,0,1,1158.32,1373.29Z" transform="translate(-763.26 -274.36)" style="fill: #3e74b5"></path> <path d="M1166.05,1403s4.8,3.69,4,5.22c.82-.93,13.3-20.65-1.11-29.5C1168.93,1378.69,1164.59,1398.28,1166.05,1403Z" transform="translate(-763.26 -274.36)" style="fill: #0b3156;opacity: 0.17"></path> <path d="M1160,1404.06s14,1.49,14.36-20.12c0,0-.05-9.44-6.45-10.47,0,0,.77-4.58.33,4.5C1167.84,1386.67,1162.4,1400.78,1160,1404.06Z" transform="translate(-763.26 -274.36)" style="fill: #c5d9ea"></path> <path d="M1151.12,1444.41c.11-.36-3.82-.87-3.44.32S1150.67,1445.87,1151.12,1444.41Z" transform="translate(-763.26 -274.36)" style="fill: #3d7ab7"></path> <path d="M1167.36,1445.49c.11-.36-3.83-.87-3.44.32S1166.91,1447,1167.36,1445.49Z" transform="translate(-763.26 -274.36)" style="fill: #3d7ab7"></path> <path d="M1153.8,1357.63s-4.45-.69-.46-4.41,4.41-3.26,7.37-2.08,5.54,3,6.34,2.82,1.3,9.9-3.69,13.18c0,0-.7,0,0-3.57s-.2-3.78-2.25-1.94c-.67-.5-2.75-3-2.34-5.26A8.79,8.79,0,0,1,1153.8,1357.63Z" transform="translate(-763.26 -274.36)" style="fill: #0b3156"></path> <path d="M1152.32,1359.6c-.25,1.25-.89,10.5.37,11.2a8.07,8.07,0,0,0,6.65,1.07C1159.37,1371.68,1153,1356.25,1152.32,1359.6Z" transform="translate(-763.26 -274.36)" style="fill: #c5d9ea"></path> <path d="M1170.24,1372.47s-5.55-1-6.33,1.71c.55,3.15,1.69,16.1-2.06,25.62,0,0,5,1.9,5.75,4.1,0,0,7.88-9.44,8.2-18.63C1175.94,1384.53,1175.93,1374.18,1170.24,1372.47Z" transform="translate(-763.26 -274.36)" style="fill: #407fbf"></path> <path d="M1152.4,1370.54s5.7,1.33,8.37-1.43,1.64,2.86,1.43,3.29a32.43,32.43,0,0,0-1.79,5.44c0,.82-2.42,4.11-2.88,1.59a58.87,58.87,0,0,0,1.29-6l-.46-1.1S1153.28,1371.83,1152.4,1370.54Z" transform="translate(-763.26 -274.36)" style="fill: #0b3156;opacity: 0.17"></path> <path d="M1141.33,1392.56a.51.51,0,0,1-.5-.5v-65.88a.51.51,0,0,1,.5-.5.5.5,0,0,1,.5.5v65.88A.5.5,0,0,1,1141.33,1392.56Z" transform="translate(-763.26 -274.36)" style="fill: #91adc1"></path> <polygon points="378.07 1054.16 343.23 1034.21 347.19 1054.63 341.29 1068.39 378.07 1088.42 378.07 1054.16" style="fill: #0b63ce"></polygon> <path d="M1120.61,1329.53l-2.87-1.66a.48.48,0,0,1-.24-.37v-2.87c0-.13.11-.18.24-.1l2.87,1.65a.5.5,0,0,1,.23.38v2.87C1120.84,1329.56,1120.74,1329.6,1120.61,1329.53Z" transform="translate(-763.26 -274.36)" style="fill: #fff"></path> <path d="M1124.65,1331.86l-2.87-1.66a.48.48,0,0,1-.24-.37V1327c0-.13.11-.18.24-.1l2.87,1.66a.47.47,0,0,1,.23.37v2.87C1124.88,1331.89,1124.78,1331.94,1124.65,1331.86Z" transform="translate(-763.26 -274.36)" style="fill: #fff"></path> <path d="M1120.61,1333.63l-2.87-1.66a.5.5,0,0,1-.24-.37v-2.87c0-.13.11-.18.24-.1l2.87,1.65a.5.5,0,0,1,.23.38v2.87C1120.84,1333.66,1120.74,1333.7,1120.61,1333.63Z" transform="translate(-763.26 -274.36)" style="fill: #fff"></path> <path d="M1120.61,1337.73l-2.87-1.66a.52.52,0,0,1-.24-.38v-2.87c0-.13.11-.17.24-.1l2.87,1.66a.49.49,0,0,1,.23.37v2.88C1120.84,1337.76,1120.74,1337.8,1120.61,1337.73Z" transform="translate(-763.26 -274.36)" style="fill: #fff"></path> <path d="M1124.65,1336l-2.87-1.66a.48.48,0,0,1-.24-.37v-2.87c0-.13.11-.18.24-.1l2.87,1.66a.47.47,0,0,1,.23.37v2.87C1124.88,1336,1124.78,1336,1124.65,1336Z" transform="translate(-763.26 -274.36)" style="fill: #fff"></path> <path d="M1128.73,1334.22l-2.87-1.66a.48.48,0,0,1-.24-.37v-2.87c0-.13.11-.18.24-.1l2.87,1.65a.52.52,0,0,1,.24.38v2.87C1129,1334.25,1128.86,1334.29,1128.73,1334.22Z" transform="translate(-763.26 -274.36)" style="fill: #fff"></path> <path d="M1129.67,1343.71l2.87,1.66a.5.5,0,0,1,.24.37v2.88c0,.13-.11.17-.24.1l-2.87-1.66a.52.52,0,0,1-.24-.38v-2.87C1129.43,1343.68,1129.54,1343.64,1129.67,1343.71Z" transform="translate(-763.26 -274.36)" style="fill: #fff"></path> <path d="M1125.63,1341.38l2.87,1.66a.48.48,0,0,1,.24.37v2.87c0,.13-.11.18-.24.1l-2.87-1.65a.52.52,0,0,1-.24-.38v-2.87C1125.39,1341.35,1125.5,1341.31,1125.63,1341.38Z" transform="translate(-763.26 -274.36)" style="fill: #fff"></path> <path d="M1129.67,1339.61l2.87,1.66a.52.52,0,0,1,.24.38v2.87c0,.13-.11.17-.24.1l-2.87-1.66a.5.5,0,0,1-.24-.37v-2.88C1129.43,1339.58,1129.54,1339.54,1129.67,1339.61Z" transform="translate(-763.26 -274.36)" style="fill: #fff"></path> <path d="M1129.67,1335.52l2.87,1.65a.52.52,0,0,1,.24.38v2.87c0,.13-.11.17-.24.1l-2.87-1.66a.48.48,0,0,1-.24-.37v-2.87C1129.43,1335.49,1129.54,1335.44,1129.67,1335.52Z" transform="translate(-763.26 -274.36)" style="fill: #fff"></path> <path d="M1125.63,1337.28l2.87,1.66a.48.48,0,0,1,.24.37v2.87c0,.13-.11.18-.24.1l-2.87-1.65a.52.52,0,0,1-.24-.38v-2.87C1125.39,1337.25,1125.5,1337.21,1125.63,1337.28Z" transform="translate(-763.26 -274.36)" style="fill: #fff"></path> <path d="M1121.55,1339l2.87,1.66a.49.49,0,0,1,.23.37v2.87c0,.13-.1.18-.23.1l-2.87-1.65a.52.52,0,0,1-.24-.38v-2.87C1121.31,1339,1121.42,1339,1121.55,1339Z" transform="translate(-763.26 -274.36)" style="fill: #fff"></path> </g> <g id="tree-a"> <path class="shadow" d="M915,1393.55l49.51,10.37s18.21,4.19,11.39-11-46.81-17.58-46.81-17.58S900,1390.4,915,1393.55Z" transform="translate(-763.26 -274.36)" style="opacity: 0.15;fill: url(#linear-gradient-83)"></path> <ellipse class="tree" cx="969.46" cy="1375.51" rx="7.21" ry="27.18" transform="translate(-885.32 -179.66) rotate(-5.26)" style="fill: #19ab4f"></ellipse> </g> </svg>